<svg id="Layer_1" data-name="Layer 1" xmlns="http://www.w3.org/2000/svg" viewBox="0 0 198.4252 198.4252">
  <defs>
    <style>
      .cls-1, .cls-3, .cls-5 {
        fill: none;
      }

      .cls-1, .cls-2, .cls-3, .cls-4, .cls-5 {
        stroke: #000;
      }

      .cls-1, .cls-2, .cls-3, .cls-4 {
        stroke-miterlimit: 10;
      }

      .cls-2 {
        fill: #d47083;
      }

      .cls-2, .cls-3, .cls-4 {
        stroke-width: 0.5px;
      }

      .cls-4 {
        fill: #99a1de;
      }

      .cls-6 {
        isolation: isolate;
      }
    </style>
  </defs>
  <title>SimpleGraphics_v2</title>
  <g>
    <rect class="cls-1" x="50.12808" y="50.41495" width="97.80756" height="97.80756" transform="translate(-41.22318 99.11588) rotate(-45)"/>
    <circle class="cls-2" cx="98.85505" cy="46.58849" r="8.62535"/>
    <circle class="cls-3" cx="99.16365" cy="154.0171" r="6.07048"/>
    <circle class="cls-3" cx="45.29505" cy="100.14849" r="2.94131"/>
    <circle class="cls-4" cx="152.72366" cy="100.4571" r="4.14346"/>
    <circle class="cls-2" cx="98.52857" cy="99.82201" r="7.14798"/>
    <circle class="cls-3" cx="71.57834" cy="73.8652" r="2.71473"/>
    <circle class="cls-4" cx="126.30857" cy="74.04201" r="4.93269"/>
    <circle class="cls-3" cx="125.44695" cy="127.73381" r="5.91983"/>
    <circle class="cls-3" cx="71.74857" cy="126.60202" r="5.72192"/>
    <circle class="cls-4" cx="71.1522" cy="100.22564" r="1.65881"/>
    <circle class="cls-3" cx="126.8665" cy="100.37995" r="2.61558"/>
    <circle class="cls-3" cx="98.9322" cy="72.44564" r="2.41815"/>
    <circle class="cls-3" cx="99.0865" cy="128.15995" r="3.70106"/>
    <g>
      <path d="M78.36477,21.49905H77.07962V20.04788h3.99707v1.45117H79.77981v6.63232h-1.415Z"/>
      <path d="M81.81985,20.04788h3.166v1.36719h-1.75v2.0747h1.6416v1.30762h-1.6416v3.334h-1.416Z"/>
      <path d="M89.07766,21.81106h-.02148l-1.18848.6836-.2373-1.23536,1.60937-.92382h1.24317v7.79589H89.07766Z"/>
      <path d="M95.62259,20.68362v1.583h1.0371v1.11523h-1.0371v2.67481c0,.68359.25976.85156.54.85156a1.76326,1.76326,0,0,0,.36817-.03613l.01074,1.22314a3.02259,3.02259,0,0,1-.86426.10791,1.33859,1.33859,0,0,1-1.01562-.37158,2.26364,2.26364,0,0,1-.4541-1.6792V23.38186h-.627V22.26663h.627V21.0552Z"/>
      <path d="M99.68411,28.13137l-.07617-.57568h-.02149a1.34261,1.34261,0,0,1-1.166.67139c-.79981,0-1.39453-.74317-1.39453-1.78662a2.1927,2.1927,0,0,1,2.41992-2.18311v-.13183a.71064.71064,0,0,0-.74512-.79151,1.83554,1.83554,0,0,0-1.08008.33594l-.25976-1.05567a3.18068,3.18068,0,0,1,1.64257-.44384c1.60938,0,1.86915,1.24756,1.86915,2.43506v2.18261a8.76536,8.76536,0,0,0,.08593,1.34326Zm-.19434-2.85449c-.47558.01221-1.124.18018-1.124.99561,0,.5874.292.80322.50781.80322a.62826.62826,0,0,0,.584-.50342,1.13664,1.13664,0,0,0,.03222-.27588Z"/>
      <path d="M101.86477,24.02981c0-.58789-.02148-1.22363-.043-1.76318h1.23145l.07519.85156h.03321c.2373-.62353.6582-.94775,1.04785-.94775a1.05412,1.05412,0,0,1,.30176.02441v1.55908a1.15586,1.15586,0,0,0-.30176-.02392c-.30273,0-.70215.22754-.86426.83935a2.57935,2.57935,0,0,0-.05469.58741v2.9746h-1.42578Z"/>
      <path d="M108.90774,22.26663c-.02148.52783-.05469,1.15137-.05469,1.85889v3.34619a3.32071,3.32071,0,0,1-.63671,2.41064,2.24882,2.24882,0,0,1-1.71778.64746,3.08551,3.08551,0,0,1-1.31836-.27539L105.44,29.043a2.27018,2.27018,0,0,0,1.01562.252c.71289,0,.99317-.52783.99317-1.42725v-.35986h-.02149a1.04887,1.04887,0,0,1-.95019.5874c-1.18848,0-1.65332-1.439-1.65332-2.84228,0-1.95508.7998-3.08252,1.78222-3.08252a1.05608,1.05608,0,0,1,.97266.68359h.02148l.07618-.5874Zm-1.459,2.13476a1.73257,1.73257,0,0,0-.05371-.43164c-.06446-.252-.21582-.48-.45411-.48-.50781,0-.71289.76758-.71289,1.727,0,1.09131.28125,1.64307.68067,1.64307.18359,0,.36719-.10791.47558-.41943a1.63136,1.63136,0,0,0,.06446-.46778Z"/>
      <path d="M111.01223,25.75686c.02246.91114.49707,1.24707,1.124,1.24707a2.84119,2.84119,0,0,0,1.00488-.19189l.19434,1.12744a3.992,3.992,0,0,1-1.459.26367c-1.43652,0-2.22461-1.05517-2.22461-2.89013,0-1.9668.918-3.14258,2.11719-3.14258,1.13379,0,1.793.9956,1.793,2.7705a4.64921,4.64921,0,0,1-.043.81592Zm1.26465-1.10351c0-.75586-.17285-1.34326-.59472-1.34326-.46387,0-.64747.75537-.65821,1.34326Z"/>
      <path d="M116.024,20.68362v1.583h1.03711v1.11523H116.024v2.67481c0,.68359.25879.85156.54.85156a1.75366,1.75366,0,0,0,.36719-.03613l.01074,1.22314a3.01742,3.01742,0,0,1-.86426.10791,1.34144,1.34144,0,0,1-1.01562-.37158,2.26851,2.26851,0,0,1-.45313-1.6792V23.38186H113.982V22.26663h.62695V21.0552Z"/>
      <path d="M117.67532,26.71634a1.84729,1.84729,0,0,0,.95117.31152c.36719,0,.57227-.17969.57227-.52734,0-.3003-.15137-.49219-.61524-.792a1.91793,1.91793,0,0,1-1.07031-1.69091,1.71633,1.71633,0,0,1,1.74023-1.84717,2.2841,2.2841,0,0,1,1.06934.26416l-.249,1.15136a1.3622,1.3622,0,0,0-.73438-.23974.48748.48748,0,0,0-.52929.50342c0,.26416.11914.40771.61621.73193a2.01551,2.01551,0,0,1,1.06933,1.7749,1.72415,1.72415,0,0,1-1.86914,1.84668,2.14924,2.14924,0,0,1-1.21-.33545Z"/>
    </g>
    <g>
      <path d="M78.36477,170.70657H77.07962V169.2554h3.99707v1.45117H79.77981v6.63184h-1.415Z"/>
      <path d="M81.81985,169.2554h3.166v1.36719h-1.75v2.07421h1.6416v1.30762h-1.6416v3.334h-1.416Z"/>
      <path d="M87.60891,175.8511a2.01278,2.01278,0,0,0,1.04786.29981,1.01872,1.01872,0,0,0,1.05859-1.127A1.17711,1.17711,0,0,0,88.398,173.7886h-.19532v-1.15137h.14063c.51855-.01171,1.18848-.25195,1.18848-1.00781a.80094.80094,0,0,0-.82129-.89941,1.6,1.6,0,0,0-.88575.3125l-.18359-1.1875a2.75605,2.75605,0,0,1,1.44824-.40821,1.76477,1.76477,0,0,1,1.84668,1.88282,1.92421,1.92421,0,0,1-1.00488,1.751v.02442a1.95773,1.95773,0,0,1,1.19922,1.97851,2.27145,2.27145,0,0,1-2.34375,2.35059,2.728,2.728,0,0,1-1.38281-.34766Z"/>
      <path d="M95.62259,169.89114v1.583h1.0371v1.11523h-1.0371v2.67481c0,.68359.25976.85156.54.85156a1.79689,1.79689,0,0,0,.36817-.03613l.01074,1.22265a3.002,3.002,0,0,1-.86426.1084,1.33889,1.33889,0,0,1-1.01562-.37207,2.26223,2.26223,0,0,1-.4541-1.67871v-2.77051h-.627v-1.11523h.627v-1.21192Z"/>
      <path d="M99.68411,177.33841l-.07617-.5752h-.02149a1.34314,1.34314,0,0,1-1.166.6709c-.79981,0-1.39453-.74317-1.39453-1.78613a2.19336,2.19336,0,0,1,2.41992-2.1836v-.13183a.71049.71049,0,0,0-.74512-.791,1.83554,1.83554,0,0,0-1.08008.33594l-.25976-1.05567a3.17539,3.17539,0,0,1,1.64257-.44433c1.60938,0,1.86915,1.24805,1.86915,2.43555v2.18261a8.75487,8.75487,0,0,0,.08593,1.34278Zm-.19434-2.8545c-.47558.0127-1.124.18067-1.124.9961,0,.58691.292.80273.50781.80273a.62772.62772,0,0,0,.584-.50293,1.14071,1.14071,0,0,0,.03222-.27637Z"/>
      <path d="M101.86477,173.23684c0-.58789-.02148-1.22363-.043-1.76269h1.23145l.07519.85156h.03321c.2373-.624.6582-.94824,1.04785-.94824a1.05412,1.05412,0,0,1,.30176.02441v1.55957a1.13333,1.13333,0,0,0-.30176-.02441c-.30273,0-.70215.22754-.86426.83984a2.57761,2.57761,0,0,0-.05469.58692v2.97461h-1.42578Z"/>
      <path d="M108.90774,171.47415c-.02148.52734-.05469,1.15137-.05469,1.8584v3.34668a3.31928,3.31928,0,0,1-.63671,2.41015,2.247,2.247,0,0,1-1.71778.64746,3.08551,3.08551,0,0,1-1.31836-.27539l.25977-1.21093a2.27018,2.27018,0,0,0,1.01562.25195c.71289,0,.99317-.52832.99317-1.42774v-.35937h-.02149a1.04928,1.04928,0,0,1-.95019.58691c-1.18848,0-1.65332-1.43847-1.65332-2.84179,0-1.95508.7998-3.083,1.78222-3.083a1.05608,1.05608,0,0,1,.97266.68359h.02148l.07618-.58691Zm-1.459,2.13476a1.72656,1.72656,0,0,0-.05371-.43164c-.06446-.25195-.21582-.48047-.45411-.48047-.50781,0-.71289.76758-.71289,1.72754,0,1.09082.28125,1.64258.68067,1.64258.18359,0,.36719-.10742.47558-.41894a1.63618,1.63618,0,0,0,.06446-.46778Z"/>
      <path d="M111.01223,174.96438c.02246.91114.49707,1.24707,1.124,1.24707a2.82946,2.82946,0,0,0,1.00488-.19238l.19434,1.12793a4.00232,4.00232,0,0,1-1.459.26367c-1.43652,0-2.22461-1.05566-2.22461-2.89062,0-1.9668.918-3.14258,2.11719-3.14258,1.13379,0,1.793.99609,1.793,2.77051a4.65581,4.65581,0,0,1-.043.8164Zm1.26465-1.10351c0-.75586-.17285-1.34375-.59472-1.34375-.46387,0-.64747.75586-.65821,1.34375Z"/>
      <path d="M116.024,169.89114v1.583h1.03711v1.11523H116.024v2.67481c0,.68359.25879.85156.54.85156a1.7871,1.7871,0,0,0,.36719-.03613l.01074,1.22265a2.99691,2.99691,0,0,1-.86426.1084,1.34175,1.34175,0,0,1-1.01562-.37207,2.26711,2.26711,0,0,1-.45313-1.67871v-2.77051H113.982v-1.11523h.62695v-1.21192Z"/>
      <path d="M117.67532,175.92337a1.84729,1.84729,0,0,0,.95117.31152c.36719,0,.57227-.17969.57227-.52734,0-.29981-.15137-.49219-.61524-.792a1.91729,1.91729,0,0,1-1.07031-1.69043,1.71647,1.71647,0,0,1,1.74023-1.84765,2.27822,2.27822,0,0,1,1.06934.26465l-.249,1.15136a1.36256,1.36256,0,0,0-.73438-.24023.48784.48784,0,0,0-.52929.50391c0,.26367.11914.40722.61621.73144a2.01675,2.01675,0,0,1,1.06933,1.77539,1.72415,1.72415,0,0,1-1.86914,1.84668,2.14541,2.14541,0,0,1-1.21-.33594Z"/>
    </g>
    <g>
      <path d="M176.4302,92.01175h-1.28613V90.56057h3.99805v1.45118h-1.29688v6.63232h-1.415Z"/>
      <path d="M179.88528,90.56057h3.166v1.36719h-1.75v2.07471h1.6416v1.30762h-1.6416v3.334h-1.416Z"/>
      <path d="M185.46927,98.64407V97.58841l.70214-.99512c.90723-1.2832,1.65235-2.35059,1.65235-3.46631,0-.62354-.3125-1.06738-.89649-1.06738a1.86429,1.86429,0,0,0-1.05859.396l-.24805-1.22363a2.91529,2.91529,0,0,1,1.56641-.47949,1.97784,1.97784,0,0,1,2.03027,2.25488,6.10315,6.10315,0,0,1-1.63086,3.68164l-.4209.55176v.02393H189.315v1.37939Z"/>
      <path d="M170.94387,100.59622v1.583H171.981v1.11523h-1.03711v2.67481c0,.68359.25977.85156.54.85156a1.74626,1.74626,0,0,0,.36719-.03614l.01172,1.22315a3.02259,3.02259,0,0,1-.86426.10791,1.33859,1.33859,0,0,1-1.01562-.37158,2.2628,2.2628,0,0,1-.4541-1.6792v-2.77051h-.627v-1.11523h.627V100.9678Z"/>
      <path d="M175.0054,108.044l-.07617-.57568h-.02149a1.34349,1.34349,0,0,1-1.167.67187c-.79883,0-1.39356-.74365-1.39356-1.78711a2.19222,2.19222,0,0,1,2.41993-2.1831v-.13184a.71064.71064,0,0,0-.74512-.7915,1.83554,1.83554,0,0,0-1.08008.33594l-.25976-1.05567a3.18067,3.18067,0,0,1,1.64257-.44385c1.60938,0,1.86914,1.24756,1.86914,2.43506v2.18262a8.76539,8.76539,0,0,0,.08594,1.34326Zm-.19434-2.85449c-.47558.01221-1.124.18018-1.124.99561,0,.5874.292.80371.50781.80371a.627.627,0,0,0,.583-.50391,1.08981,1.08981,0,0,0,.0332-.27588Z"/>
      <path d="M177.18606,103.94241c0-.58789-.02246-1.22363-.04394-1.76318h1.23144l.07617.85156h.03223c.23731-.62354.65918-.94776,1.04785-.94776a1.06107,1.06107,0,0,1,.30274.02442v1.55908a1.16367,1.16367,0,0,0-.30274-.02392c-.30273,0-.70215.22753-.86426.83935a2.64974,2.64974,0,0,0-.05371.58789V108.044h-1.42578Z"/>
      <path d="M184.229,102.17923c-.02148.52783-.05469,1.15136-.05469,1.85888v3.34619a3.32067,3.32067,0,0,1-.63672,2.41065,2.249,2.249,0,0,1-1.71777.64795,3.0856,3.0856,0,0,1-1.31836-.27588l.25977-1.21143a2.26909,2.26909,0,0,0,1.01465.252c.71386,0,.99414-.52784.99414-1.42725v-.35986h-.02149a1.04887,1.04887,0,0,1-.95019.5874c-1.18848,0-1.65332-1.439-1.65332-2.84229,0-1.95507.7998-3.08252,1.78222-3.08252a1.05586,1.05586,0,0,1,.97266.68409h.02148l.07618-.58789Zm-1.459,2.13476a1.73257,1.73257,0,0,0-.05371-.43164c-.06446-.252-.21582-.48-.45411-.48-.50781,0-.71289.76758-.71289,1.727,0,1.0918.28125,1.64307.68067,1.64307.18359,0,.36718-.10791.47558-.41944a1.62882,1.62882,0,0,0,.06446-.46777Z"/>
      <path d="M186.33352,105.66946c.02149.91113.49707,1.24707,1.12305,1.24707a2.83209,2.83209,0,0,0,1.00488-.19189l.19434,1.12744a3.99051,3.99051,0,0,1-1.458.26367c-1.43652,0-2.22559-1.05518-2.22559-2.89014,0-1.96679.918-3.14258,2.11719-3.14258,1.13477,0,1.79395.99561,1.79395,2.77051a4.52345,4.52345,0,0,1-.04395.81592Zm1.26367-1.10352c0-.75585-.17285-1.34326-.59375-1.34326-.46484,0-.64843.75537-.65917,1.34326Z"/>
      <path d="M191.34524,100.59622v1.583h1.03711v1.11523h-1.03711v2.67481c0,.68359.25879.85156.54.85156a1.753,1.753,0,0,0,.36719-.03614l.01074,1.22315a3.01747,3.01747,0,0,1-.86426.10791,1.34144,1.34144,0,0,1-1.01562-.37158,2.26339,2.26339,0,0,1-.45313-1.6792v-2.77051h-.627v-1.11523h.627V100.9678Z"/>
      <path d="M192.99661,106.62893a1.84044,1.84044,0,0,0,.95019.31153c.36719,0,.57325-.17969.57325-.52784,0-.2998-.15137-.49169-.61621-.7915a1.91662,1.91662,0,0,1-1.06934-1.69092,1.71613,1.71613,0,0,1,1.73926-1.84717,2.27792,2.27792,0,0,1,1.06933.26416l-.248,1.15137a1.36552,1.36552,0,0,0-.73536-.23974.48748.48748,0,0,0-.52929.50341c0,.26416.11914.40772.61621.73145a2.01674,2.01674,0,0,1,1.06933,1.77539,1.72369,1.72369,0,0,1-1.86914,1.84668,2.154,2.154,0,0,1-1.21-.33545Z"/>
    </g>
    <g>
      <path d="M10.02835,92.01175H8.7427V90.56057h3.99756v1.45118H11.44387v6.63232H10.02835Z"/>
      <path d="M13.48391,90.56057h3.16553v1.36719h-1.75v2.07471h1.64209v1.30762H14.89944v3.334H13.48391Z"/>
      <path d="M21.33548,98.64407V96.78518H18.9263V95.70559l2.30175-4.85742h1.36133v4.67774h.70215v1.25927h-.70215v1.85889Zm0-3.11816V93.93069c0-.41992.04394-.87549.07617-1.2832h-.043c-.16211.43164-.30274.77929-.48633,1.21142L20.12552,95.502v.02393Z"/>
      <path d="M4.54251,100.59622v1.583H5.57962v1.11523H4.54251v2.67481c0,.68359.25927.85156.54.85156a1.74958,1.74958,0,0,0,.36718-.03614l.01123,1.22315a3.01992,3.01992,0,0,1-.86425.10791,1.34,1.34,0,0,1-1.01563-.37158,2.2653,2.2653,0,0,1-.45361-1.6792v-2.77051h-.627v-1.11523h.627V100.9678Z"/>
      <path d="M8.60354,108.044l-.07568-.57568H8.50637a1.344,1.344,0,0,1-1.167.67187c-.79931,0-1.39355-.74365-1.39355-1.78711A2.19221,2.19221,0,0,1,8.36575,104.17v-.13184a.71064.71064,0,0,0-.74512-.7915,1.83593,1.83593,0,0,0-1.08056.33594l-.25928-1.05567a3.17862,3.17862,0,0,1,1.64209-.44385c1.60986,0,1.86914,1.24756,1.86914,2.43506v2.18262a8.70122,8.70122,0,0,0,.08642,1.34326Zm-.19433-2.85449c-.47559.01221-1.12354.18018-1.12354.99561,0,.5874.29151.80371.50781.80371a.62741.62741,0,0,0,.583-.50391,1.11273,1.11273,0,0,0,.03272-.27588Z"/>
      <path d="M10.78421,103.94241c0-.58789-.022-1.22363-.04346-1.76318h1.23144l.07569.85156h.03271c.23731-.62354.65869-.94776,1.04785-.94776a1.05735,1.05735,0,0,1,.30225.02442v1.55908a1.15968,1.15968,0,0,0-.30225-.02392c-.30273,0-.70214.22753-.86425.83935a2.61434,2.61434,0,0,0-.0542.58789V108.044H10.78421Z"/>
      <path d="M17.82669,102.17923c-.02149.52783-.05371,1.15136-.05371,1.85888v3.34619a3.31818,3.31818,0,0,1-.63721,2.41065,2.24756,2.24756,0,0,1-1.71777.64795,3.0834,3.0834,0,0,1-1.31788-.27588l.25928-1.21143a2.273,2.273,0,0,0,1.01514.252c.71338,0,.99414-.52784.99414-1.42725v-.35986h-.02149a1.04958,1.04958,0,0,1-.95068.5874c-1.18848,0-1.65283-1.439-1.65283-2.84229,0-1.95507.79932-3.08252,1.78223-3.08252a1.05681,1.05681,0,0,1,.97265.68409h.02149l.07568-.58789Zm-1.458,2.13476a1.70882,1.70882,0,0,0-.0542-.43164c-.06445-.252-.21582-.48-.45361-.48-.50782,0-.71289.76758-.71289,1.727,0,1.0918.28076,1.64307.68066,1.64307.18359,0,.36719-.10791.4751-.41944a1.61212,1.61212,0,0,0,.06494-.46777Z"/>
      <path d="M19.93118,105.66946c.02246.91113.49707,1.24707,1.124,1.24707a2.84125,2.84125,0,0,0,1.00489-.19189l.19433,1.12744a3.992,3.992,0,0,1-1.459.26367c-1.43653,0-2.22461-1.05518-2.22461-2.89014,0-1.96679.918-3.14258,2.11719-3.14258,1.13378,0,1.793.99561,1.793,2.77051a4.6506,4.6506,0,0,1-.043.81592Zm1.26465-1.10352c0-.75585-.17285-1.34326-.59473-1.34326-.46387,0-.64746.75537-.6582,1.34326Z"/>
      <path d="M24.9429,100.59622v1.583H25.98v1.11523H24.9429v2.67481c0,.68359.25976.85156.54.85156a1.76253,1.76253,0,0,0,.36816-.03614l.01074,1.22315a3.02251,3.02251,0,0,1-.86425.10791,1.33862,1.33862,0,0,1-1.01563-.37158,2.26284,2.26284,0,0,1-.4541-1.6792v-2.77051h-.627v-1.11523h.627V100.9678Z"/>
      <path d="M26.59427,106.62893a1.84717,1.84717,0,0,0,.95117.31153c.36718,0,.57226-.17969.57226-.52784,0-.2998-.15136-.49169-.61523-.7915a1.91792,1.91792,0,0,1-1.07031-1.69092,1.71634,1.71634,0,0,1,1.74023-1.84717,2.28426,2.28426,0,0,1,1.06934.26416l-.249,1.15137a1.36216,1.36216,0,0,0-.73437-.23974.48749.48749,0,0,0-.5293.50341c0,.26416.11914.40772.61621.73145a2.01673,2.01673,0,0,1,1.06934,1.77539,1.72415,1.72415,0,0,1-1.86914,1.84668,2.14929,2.14929,0,0,1-1.21-.33545Z"/>
    </g>
    <g>
      <line class="cls-3" x1="98.85505" y1="37.96315" x2="98.85505" y2="36.25155"/>
      <polygon points="99.852 36.543 98.855 34.816 97.858 36.543 99.852 36.543"/>
    </g>
    <g>
      <line class="cls-3" x1="98.83529" y1="70.02749" x2="98.83529" y2="68.3159"/>
      <polygon points="99.833 68.608 98.835 66.881 97.838 68.608 99.833 68.608"/>
    </g>
    <g>
      <line class="cls-3" x1="98.52858" y1="92.67404" x2="98.52858" y2="90.96244"/>
      <polygon points="99.526 91.254 98.529 89.527 97.531 91.254 99.526 91.254"/>
    </g>
    <g>
      <line class="cls-3" x1="98.52858" y1="106.97" x2="98.52858" y2="108.68158"/>
      <polygon points="97.531 108.39 98.529 110.117 99.526 108.39 97.531 108.39"/>
    </g>
    <g>
      <line class="cls-3" x1="99.0865" y1="131.86102" x2="99.0865" y2="133.5726"/>
      <polygon points="98.089 133.281 99.086 135.008 100.084 133.281 98.089 133.281"/>
    </g>
    <g>
      <line class="cls-3" x1="99.16365" y1="160.08758" x2="99.16365" y2="161.79916"/>
      <polygon points="98.166 161.507 99.164 163.234 100.161 161.507 98.166 161.507"/>
    </g>
    <g>
      <line class="cls-3" x1="105.67654" y1="99.82202" x2="107.38813" y2="99.82202"/>
      <polygon points="107.096 100.819 108.823 99.822 107.096 98.825 107.096 100.819"/>
    </g>
    <g>
      <line class="cls-3" x1="91.3806" y1="99.82202" x2="89.669" y2="99.82202"/>
      <polygon points="89.961 98.825 88.234 99.822 89.961 100.819 89.961 98.825"/>
    </g>
    <g>
      <line class="cls-3" x1="129.66784" y1="100.37994" x2="131.37945" y2="100.37994"/>
      <polygon points="131.088 101.377 132.815 100.38 131.088 99.383 131.088 101.377"/>
    </g>
    <g>
      <line class="cls-3" x1="156.86712" y1="100.37994" x2="158.5787" y2="100.37994"/>
      <polygon points="158.287 101.377 160.014 100.38 158.287 99.383 158.287 101.377"/>
    </g>
    <g>
      <line class="cls-3" x1="69.49339" y1="100.22564" x2="67.7818" y2="100.22564"/>
      <polygon points="68.074 99.228 66.347 100.226 68.074 101.223 68.074 99.228"/>
    </g>
    <g>
      <line class="cls-3" x1="42.35374" y1="100.22564" x2="40.64215" y2="100.22564"/>
      <polygon points="40.934 99.228 39.207 100.226 40.934 101.223 40.934 99.228"/>
    </g>
    <g>
      <line class="cls-3" x1="69.49339" y1="75.72296" x2="68.28311" y2="76.93324"/>
      <polygon points="67.784 76.022 67.268 77.948 69.195 77.432 67.784 76.022"/>
    </g>
    <g>
      <line class="cls-3" x1="129.84277" y1="77.5762" x2="131.05304" y2="78.78648"/>
      <polygon points="130.142 79.285 132.068 79.801 131.552 77.875 130.142 79.285"/>
    </g>
    <g>
      <line class="cls-3" x1="73.62922" y1="71.81431" x2="74.8395" y2="70.60403"/>
      <polygon points="75.338 71.516 75.854 69.589 73.928 70.105 75.338 71.516"/>
    </g>
    <g>
      <line class="cls-3" x1="122.6577" y1="70.39114" x2="121.44743" y2="69.18086"/>
      <polygon points="122.359 68.682 120.433 68.166 120.949 70.092 122.359 68.682"/>
    </g>
    <g>
      <line class="cls-3" x1="121.20506" y1="131.9757" x2="119.99478" y2="133.18597"/>
      <polygon points="119.496 132.274 118.98 134.201 120.906 133.685 119.496 132.274"/>
    </g>
    <g>
      <line class="cls-3" x1="129.75229" y1="123.42846" x2="130.96255" y2="122.2182"/>
      <polygon points="131.461 123.13 131.977 121.203 130.051 121.719 131.461 123.13"/>
    </g>
    <g>
      <line class="cls-3" x1="75.89499" y1="130.74844" x2="77.10527" y2="131.95871"/>
      <polygon points="76.194 132.458 78.12 132.974 77.604 131.047 76.194 132.458"/>
    </g>
    <g>
      <line class="cls-3" x1="67.58186" y1="122.43531" x2="66.37159" y2="121.22503"/>
      <polygon points="67.283 120.726 65.357 120.21 65.873 122.137 67.283 120.726"/>
    </g>
    <g>
      <line class="cls-3" x1="96.85513" y1="73.2174" x2="95.27383" y2="73.8724"/>
      <polygon points="95.162 72.839 93.948 74.422 95.925 74.682 95.162 72.839"/>
    </g>
    <g>
      <line class="cls-3" x1="101.33392" y1="73.43989" x2="102.91522" y2="74.09489"/>
      <polygon points="102.264 74.905 104.241 74.644 103.027 73.062 102.264 74.905"/>
    </g>
    <g>
      <line class="cls-3" x1="71.6815" y1="101.54188" x2="72.3365" y2="103.12318"/>
      <polygon points="71.303 103.235 72.886 104.449 73.146 102.472 71.303 103.235"/>
    </g>
    <g>
      <line class="cls-3" x1="71.75113" y1="98.66082" x2="72.40611" y2="97.07953"/>
      <polygon points="73.216 97.731 72.955 95.754 71.373 96.967 73.216 97.731"/>
    </g>
    <g>
      <line class="cls-3" x1="126.04907" y1="98.21583" x2="125.39407" y2="96.63453"/>
      <polygon points="126.427 96.522 124.845 95.309 124.584 97.286 126.427 96.522"/>
    </g>
    <g>
      <line class="cls-3" x1="126.04907" y1="102.99553" x2="125.39407" y2="104.57682"/>
      <polygon points="124.584 103.926 124.845 105.903 126.427 104.689 124.584 103.926"/>
    </g>
    <g>
      <line class="cls-3" x1="95.48141" y1="126.65384" x2="93.90011" y2="125.99884"/>
      <polygon points="94.551 125.189 92.574 125.45 93.788 127.032 94.551 125.189"/>
    </g>
    <g>
      <line class="cls-3" x1="102.58134" y1="126.69682" x2="104.16264" y2="126.04182"/>
      <polygon points="104.275 127.075 105.489 125.493 103.511 125.232 104.275 127.075"/>
    </g>
    <g>
      <line class="cls-5" x1="126.8665" y1="42.77223" x2="110.18335" y2="45.91151"/>
      <polygon points="111.221 43.832 110.79 45.797 111.906 47.471 107.25 46.463 111.221 43.832"/>
    </g>
    <g class="cls-6">
      <path d="M130.62356,38.54983v3.94336c0,.89111.24317,1.16113.51856,1.16113.30761,0,.52636-.24316.52636-1.16113V38.54983H132.73v3.73633c0,1.55713-.52637,2.40381-1.58008,2.40381-1.14258,0-1.58789-.87354-1.58789-2.395V38.54983Z"/>
      <path d="M133.54739,41.5386c0-.48584-.02441-.90918-.0332-1.32324h.916l.04883.50439h.01563a1.11518,1.11518,0,0,1,.96484-.57617c.75293,0,1.05273.666,1.05273,1.64746V44.6177h-1.06152V41.86282c0-.37793-.081-.729-.38867-.729-.17774,0-.32422.13476-.39649.396a1.24784,1.24784,0,0,0-.05664.40528V44.6177h-1.06152Z"/>
      <path d="M138.31887,39.045a.5502.5502,0,1,1-.543-.63916A.567.567,0,0,1,138.31887,39.045Zm-1.06152,5.57275V40.21536h1.06152V44.6177Z"/>
      <path d="M140.88626,44.23977h-.01563a.87359.87359,0,0,1-.7539.4502c-.76172,0-1.19043-.99072-1.19043-2.17871,0-1.48584.583-2.36768,1.33691-2.36768a.77361.77361,0,0,1,.72852.53076l.0166.00928.05664-.46826h.916c-.0166.396-.0332.87305-.0332,1.39551v4.73535h-1.06152Zm0-2.41308a.91165.91165,0,0,0-.03223-.26075c-.05664-.27-.20215-.43212-.36426-.43212-.332,0-.50293.48584-.50293,1.28711s.17871,1.30566.50293,1.30566c.1377,0,.28321-.1084.35645-.38721a.925.925,0,0,0,.04-.28808Z"/>
      <path d="M145.5845,43.27639c0,.46827.0166.92725.03223,1.34131h-.915l-.05664-.46826h-.01661a1.095,1.095,0,0,1-.916.54053c-.75293,0-1.06152-.62158-1.06152-1.80957v-2.665h1.07031v2.53857c0,.57618.09668.94532.39648.94532a.38752.38752,0,0,0,.34082-.29688.97685.97685,0,0,0,.06446-.37793V40.21536h1.06152Z"/>
      <path d="M147.22805,42.835c.01661.68457.37305.93652.84278.93652a2.138,2.138,0,0,0,.7539-.144l.14551.84619a2.985,2.985,0,0,1-1.09375.19824c-1.07812,0-1.66894-.79248-1.66894-2.16992,0-1.47656.68847-2.3584,1.58789-2.3584.85058,0,1.34472.74707,1.34472,2.07959a3.46161,3.46161,0,0,1-.03222.61182Zm.94825-.82813c0-.56689-.12989-1.0083-.44629-1.0083-.34766,0-.48535.56738-.49414,1.0083Z"/>
      <path d="M151.62649,39.63919h-.96387V38.54983h2.99707v1.08936H152.688V44.6177h-1.06153Z"/>
      <path d="M155.59622,44.6177l-.05664-.43213h-.0166a1.007,1.007,0,0,1-.875.5044c-.59961,0-1.04493-.5586-1.04493-1.3418A1.64365,1.64365,0,0,1,155.41751,41.71v-.09912a.53336.53336,0,0,0-.5586-.59424,1.37535,1.37535,0,0,0-.81054.252l-.19434-.792a2.38138,2.38138,0,0,1,1.23145-.333c1.207,0,1.40136.936,1.40136,1.82715V43.6094a6.51526,6.51526,0,0,0,.06543,1.0083Zm-.14649-2.14258c-.35644.00879-.84277.13477-.84277.74707,0,.44141.21875.60352.38086.60352a.46945.46945,0,0,0,.4375-.37842.82708.82708,0,0,0,.02441-.207Z"/>
      <path d="M157.231,41.5386c0-.44092-.01562-.918-.03222-1.32324h.92383l.05664.63916h.02441c.17871-.46826.49414-.71094.78613-.71094a.82148.82148,0,0,1,.22657.01758v1.17041a.86187.86187,0,0,0-.22657-.01807c-.22754,0-.52734.17139-.64843.63037a1.978,1.978,0,0,0-.04.44141V44.6177H157.231Z"/>
      <path d="M162.51321,40.21536c-.0166.396-.041.86426-.041,1.39551v2.51172a2.49248,2.49248,0,0,1-.47753,1.80957,1.68468,1.68468,0,0,1-1.28809.48632,2.31007,2.31007,0,0,1-.98926-.20752l.19531-.90918a1.69747,1.69747,0,0,0,.76075.189c.53515,0,.74609-.396.74609-1.07129v-.27h-.0166a.78648.78648,0,0,1-.71289.44141c-.8916,0-1.23926-1.08057-1.23926-2.13379,0-1.46729.59961-2.31348,1.33691-2.31348a.79035.79035,0,0,1,.72852.51319h.0166l.05664-.44141Zm-1.09375,1.60254a1.29138,1.29138,0,0,0-.041-.32422c-.04882-.189-.1621-.35986-.33984-.35986-.38086,0-.53516.57617-.53516,1.29638,0,.81934.21094,1.2334.51075,1.2334.13769,0,.27539-.08105.35644-.31543a1.22,1.22,0,0,0,.04883-.35107Z"/>
      <path d="M164.09231,42.835c.0166.68457.37305.93652.84278.93652a2.12759,2.12759,0,0,0,.75293-.144l.14648.84619a2.985,2.985,0,0,1-1.09375.19824c-1.07813,0-1.66895-.79248-1.66895-2.16992,0-1.47656.68848-2.3584,1.58789-2.3584.85059,0,1.34473.74707,1.34473,2.07959a3.46031,3.46031,0,0,1-.03223.61182Zm.94824-.82813c0-.56689-.12988-1.0083-.44628-1.0083-.34766,0-.48536.56738-.49415,1.0083Z"/>
      <path d="M167.85012,39.02688v1.18848h.77832v.8374h-.77832v2.00733c0,.51318.19532.63916.40528.63916a1.30392,1.30392,0,0,0,.27539-.02686l.00879.91846a2.274,2.274,0,0,1-.64844.081,1.00426,1.00426,0,0,1-.76172-.27929,1.69956,1.69956,0,0,1-.34082-1.26026V41.05276h-.46973v-.8374h.46973v-.90918Z"/>
      <path d="M169.08938,43.5552a1.37923,1.37923,0,0,0,.71387.23438c.27539,0,.42871-.13526.42871-.39649,0-.22461-.11328-.36865-.46191-.59375a1.44034,1.44034,0,0,1-.80176-1.26953,1.2874,1.2874,0,0,1,1.30469-1.38623,1.71283,1.71283,0,0,1,.80175.19776l-.18652.86425a1.01848,1.01848,0,0,0-.55078-.18017.36546.36546,0,0,0-.39649.37842c0,.19775.08887.30615.46192.54882a1.51369,1.51369,0,0,1,.80176,1.33252,1.29346,1.29346,0,0,1-1.40137,1.38672,1.60974,1.60974,0,0,1-.9082-.25244Z"/>
    </g>
    <g>
      <line class="cls-5" x1="55.18452" y1="154.44704" x2="92.87302" y2="130.80672"/>
      <polygon points="92.667 133.121 92.35 131.135 90.7 129.984 95.402 129.221 92.667 133.121"/>
    </g>
    <g class="cls-6">
      <path d="M12.65969,159.51809a1.89528,1.89528,0,0,0,.89942.23438.65662.65662,0,0,0,.74512-.6836c0-.4414-.24317-.65722-.70508-.99121a2.07376,2.07376,0,0,1-1.0293-1.69238,1.65115,1.65115,0,0,1,1.72656-1.78223,1.7199,1.7199,0,0,1,.8584.21582l-.16992,1.01758a1.204,1.204,0,0,0-.69727-.207.61714.61714,0,0,0-.67187.62988c0,.36036.16211.54981.75293.94532a2.01644,2.01644,0,0,1,.98926,1.7373,1.72652,1.72652,0,0,1-1.80762,1.83692,2.19916,2.19916,0,0,1-1.04492-.24317Z"/>
      <path d="M15.93216,154.49466h1.06152v2.28711h.01562a1.29892,1.29892,0,0,1,.34082-.37793.98148.98148,0,0,1,.53418-.15332c.7295,0,1.0127.68457,1.0127,1.80078v2.67382H17.83548V158.0513c0-.43262-.07227-.81055-.38868-.81055-.17773,0-.332.11719-.41308.41406a1.90862,1.90862,0,0,0-.04.333v2.7373H15.93216Z"/>
      <path d="M21.41653,160.72512l-.05664-.43261h-.0166a1.00651,1.00651,0,0,1-.875.50488c-.59961,0-1.04492-.55859-1.04492-1.3418a1.644,1.644,0,0,1,1.81445-1.63867v-.09863a.53351.53351,0,0,0-.55859-.59473,1.37536,1.37536,0,0,0-.81055.252l-.19434-.792a2.38618,2.38618,0,0,1,1.23145-.333c1.207,0,1.40137.93652,1.40137,1.82714v1.63868a6.51759,6.51759,0,0,0,.06543,1.00878Zm-.14648-2.14257c-.35645.00879-.84278.13476-.84278.74707,0,.4414.21875.60351.38086.60351a.46943.46943,0,0,0,.4375-.3789.82441.82441,0,0,0,.02442-.207Z"/>
      <path d="M23.0513,157.646c0-.4414-.01563-.918-.03223-1.32324h.92383l.05664.63867H24.024c.17871-.46777.49414-.71093.78614-.71093a.82189.82189,0,0,1,.22656.01757v1.1709a.84019.84019,0,0,0-.22656-.01855c-.22754,0-.52735.17187-.64844.63086a1.97469,1.97469,0,0,0-.04.4414v2.23242H23.0513Z"/>
      <path d="M26.29153,158.94192c.0166.68457.373.93652.84277.93652a2.1499,2.1499,0,0,0,.75391-.14355l.14551.8457a2.985,2.985,0,0,1-1.09375.19825c-1.07813,0-1.66895-.792-1.66895-2.16993,0-1.47656.68848-2.35839,1.58789-2.35839.85059,0,1.34473.74707,1.34473,2.08007a3.45721,3.45721,0,0,1-.03223.61133Zm.94824-.82812c0-.56641-.12988-1.00782-.44629-1.00782-.34765,0-.48535.56739-.49414,1.00782Z"/>
      <path d="M31.67825,154.49466v4.9248c0,.42285.0166.90039.03223,1.30566h-.915L30.7388,160.23h-.01661a.96139.96139,0,0,1-.82617.56738c-.84277,0-1.23144-1.03613-1.23144-2.26953,0-1.53027.59961-2.27734,1.27148-2.27734a.6723.6723,0,0,1,.665.4414h.01563v-2.19726Zm-1.06152,3.5205c0-.08105,0-.17089-.00782-.26074-.041-.27051-.16992-.51367-.38086-.51367-.373,0-.51074.60352-.51074,1.31445,0,.83692.20313,1.27832.50293,1.27832.12891,0,.2832-.08105.36426-.38672a.83166.83166,0,0,0,.03223-.2705Z"/>
      <path d="M34.31106,155.74661h-.96387v-1.08984h2.99708v1.08984h-.97168v4.97851H34.31106Z"/>
      <path d="M38.27981,160.72512l-.05664-.43261h-.0166a1.00651,1.00651,0,0,1-.875.50488c-.59961,0-1.04492-.55859-1.04492-1.3418a1.644,1.644,0,0,1,1.81445-1.63867v-.09863a.53351.53351,0,0,0-.55859-.59473,1.37536,1.37536,0,0,0-.81055.252l-.19434-.792a2.38618,2.38618,0,0,1,1.23145-.333c1.207,0,1.40137.93652,1.40137,1.82714v1.63868a6.51759,6.51759,0,0,0,.06543,1.00878Zm-.14648-2.14257c-.35645.00879-.84278.13476-.84278.74707,0,.4414.21875.60351.38086.60351a.46943.46943,0,0,0,.4375-.3789.824.824,0,0,0,.02442-.207Z"/>
      <path d="M39.91555,157.646c0-.4414-.01562-.918-.03222-1.32324h.92383l.05664.63867h.02441c.17871-.46777.49414-.71093.78613-.71093a.82193.82193,0,0,1,.22657.01757v1.1709a.84023.84023,0,0,0-.22657-.01855c-.22754,0-.52734.17187-.64843.63086a1.97469,1.97469,0,0,0-.04.4414v2.23242H39.91555Z"/>
      <path d="M45.19778,156.32278c-.0166.39551-.041.86426-.041,1.39551V160.23a2.49327,2.49327,0,0,1-.47754,1.80957,1.68647,1.68647,0,0,1-1.28809.48633,2.3031,2.3031,0,0,1-.98926-.208l.19531-.90918a1.69108,1.69108,0,0,0,.76075.18945c.53515,0,.74609-.39648.74609-1.07129v-.27051h-.0166a.78648.78648,0,0,1-.71289.44141c-.8916,0-1.23926-1.08008-1.23926-2.13379,0-1.4668.59961-2.31347,1.33691-2.31347a.79011.79011,0,0,1,.72852.51367h.0166l.05664-.44141ZM44.104,157.92532a1.28885,1.28885,0,0,0-.041-.32422c-.04883-.18945-.16211-.36035-.33985-.36035-.38086,0-.53515.57617-.53515,1.29687,0,.81934.21093,1.2334.51074,1.2334.13769,0,.27539-.08105.35644-.31543a1.22342,1.22342,0,0,0,.04883-.35156Z"/>
      <path d="M46.77688,158.94192c.0166.68457.373.93652.84278.93652a2.13945,2.13945,0,0,0,.75293-.14355l.14648.8457a2.985,2.985,0,0,1-1.09375.19825c-1.07813,0-1.669-.792-1.669-2.16993,0-1.47656.68848-2.35839,1.5879-2.35839.85058,0,1.34472.74707,1.34472,2.08007a3.45851,3.45851,0,0,1-.03222.61133Zm.94824-.82812c0-.56641-.12988-1.00782-.44628-1.00782-.34766,0-.48536.56739-.49415,1.00782Z"/>
      <path d="M50.53469,155.1343v1.18848H51.313v.83691h-.77833v2.00782c0,.51269.19532.63867.40528.63867a1.33836,1.33836,0,0,0,.27539-.02637l.00879.918a2.27394,2.27394,0,0,1-.64844.08106,1.00429,1.00429,0,0,1-.76172-.2793,1.69736,1.69736,0,0,1-.34082-1.25977v-2.08008h-.46973v-.83691h.46973v-.90918Z"/>
      <path d="M51.773,159.66262a1.3792,1.3792,0,0,0,.71386.23438c.27539,0,.42871-.13574.42871-.39648,0-.22461-.11328-.36915-.46191-.59375a1.44036,1.44036,0,0,1-.80176-1.26954,1.28755,1.28755,0,0,1,1.30469-1.38671,1.7069,1.7069,0,0,1,.80176.19824l-.18653.86426a1.01483,1.01483,0,0,0-.55078-.18067.36581.36581,0,0,0-.39648.37891c0,.19726.08887.30566.46191.54883a1.513,1.513,0,0,1,.80176,1.332,1.29346,1.29346,0,0,1-1.40137,1.38672,1.60972,1.60972,0,0,1-.9082-.252Z"/>
    </g>
  </g>
</svg>
