<svg id="Layer_1" data-name="Layer 1" xmlns="http://www.w3.org/2000/svg" viewBox="0 0 198.4252 198.4252">
  <defs>
    <style>
      .cls-1 {
        fill: #eaeaf2;
      }

      .cls-10, .cls-12, .cls-2, .cls-3, .cls-5, .cls-6, .cls-7, .cls-9 {
        fill: none;
      }

      .cls-3, .cls-9 {
        stroke: #fff;
      }

      .cls-10, .cls-3 {
        stroke-linecap: round;
      }

      .cls-10, .cls-3, .cls-5, .cls-6, .cls-7, .cls-8 {
        stroke-linejoin: round;
      }

      .cls-4 {
        isolation: isolate;
      }

      .cls-5 {
        stroke: #666;
      }

      .cls-10, .cls-5 {
        stroke-width: 0.75px;
      }

      .cls-5, .cls-7 {
        stroke-dasharray: 5.55 2.4;
      }

      .cls-6 {
        stroke: #999;
        stroke-dasharray: 1.5 2.475;
      }

      .cls-6, .cls-7 {
        stroke-width: 1.5px;
      }

      .cls-7 {
        stroke: red;
      }

      .cls-8 {
        fill-opacity: 0;
        stroke: #c44e52;
      }

      .cls-9 {
        stroke-linecap: square;
        stroke-width: 1.25px;
      }

      .cls-10 {
        stroke: #4c72b0;
      }

      .cls-11 {
        fill: red;
      }

      .cls-12 {
        stroke: #000;
      }
    </style>
  </defs>
  <title>SimpleGraphics_v2</title>
  <g>
    <path class="cls-1" d="M36.19772,147.57714h151.725V23.21159H36.19772Z"/>
    <rect class="cls-2" x="36.19772" y="23.21159" width="151.72497" height="124.36555"/>
    <path class="cls-3" d="M43.09432,147.57714V23.21159"/>
    <g class="cls-4">
      <path d="M41.78648,152.96943c0,2.09766-.68945,3.02539-1.54,3.02539-1.15039,0-1.53906-1.46777-1.53906-2.97119,0-1.68359.48633-3.0249,1.58008-3.0249C41.5023,149.99873,41.78648,151.57441,41.78648,152.96943Zm-2.00977.02735c-.0166,1.36816.1377,1.98926.49414,1.98926.332,0,.44532-.648.44532-1.98926,0-1.25147-.1045-1.98975-.44532-1.98975C39.93882,151.007,39.7689,151.6374,39.77671,152.99678Z"/>
      <path d="M42.35972,155.21113a.72062.72062,0,0,1,.624-.7832c.34082,0,.61622.29736.61622.7832,0,.47754-.252.78369-.624.78369C42.6439,155.99482,42.35972,155.68867,42.35972,155.21113Z"/>
      <path d="M47.12437,152.96943c0,2.09766-.68945,3.02539-1.54,3.02539-1.15039,0-1.53906-1.46777-1.53906-2.97119,0-1.68359.48633-3.0249,1.58008-3.0249C46.84019,149.99873,47.12437,151.57441,47.12437,152.96943Zm-2.00977.02735c-.0166,1.36816.1377,1.98926.49414,1.98926.332,0,.44532-.648.44532-1.98926,0-1.25147-.1045-1.98975-.44532-1.98975C45.27671,151.007,45.10679,151.6374,45.1146,152.99678Z"/>
    </g>
    <rect class="cls-2" x="36.19772" y="23.21159" width="151.72497" height="124.36555"/>
    <path class="cls-3" d="M70.68067,147.57714V23.21159"/>
    <g class="cls-4">
      <path d="M69.37339,152.96943c0,2.09766-.68945,3.02539-1.54,3.02539-1.15039,0-1.53906-1.46777-1.53906-2.97119,0-1.68359.48633-3.0249,1.58008-3.0249C69.08921,149.99873,69.37339,151.57441,69.37339,152.96943Zm-2.00976.02735c-.0166,1.36816.13769,1.98926.49414,1.98926.332,0,.44531-.648.44531-1.98926,0-1.25147-.10449-1.98975-.44531-1.98975C67.52574,151.007,67.35581,151.6374,67.36363,152.99678Z"/>
      <path d="M69.94664,155.21113a.72061.72061,0,0,1,.624-.7832c.34082,0,.61621.29736.61621.7832,0,.47754-.25195.78369-.624.78369C70.23081,155.99482,69.94664,155.68867,69.94664,155.21113Z"/>
      <path d="M71.64,155.92256v-.792l.52637-.74756a4.9961,4.9961,0,0,0,1.24024-2.60156c0-.46827-.23536-.80127-.67286-.80127a1.3987,1.3987,0,0,0-.79394.29687l-.18652-.918a2.18439,2.18439,0,0,1,1.1748-.36035,1.485,1.485,0,0,1,1.52344,1.69238,4.5809,4.5809,0,0,1-1.22363,2.76416l-.31543.41407v.01806h1.6123v1.03516Z"/>
    </g>
    <rect class="cls-2" x="36.19772" y="23.21159" width="151.72497" height="124.36555"/>
    <path class="cls-3" d="M98.267,147.57714V23.21159"/>
    <g class="cls-4">
      <path d="M96.95933,152.96943c0,2.09766-.68945,3.02539-1.54,3.02539-1.15039,0-1.53906-1.46777-1.53906-2.97119,0-1.68359.48633-3.0249,1.58008-3.0249C96.67515,149.99873,96.95933,151.57441,96.95933,152.96943Zm-2.00977.02735c-.0166,1.36816.1377,1.98926.49415,1.98926.332,0,.44531-.648.44531-1.98926,0-1.25147-.10449-1.98975-.44531-1.98975C95.11167,151.007,94.94175,151.6374,94.94956,152.99678Z"/>
      <path d="M97.53257,155.21113a.72062.72062,0,0,1,.624-.7832c.34082,0,.61621.29736.61621.7832,0,.47754-.252.78369-.624.78369C97.81675,155.99482,97.53257,155.68867,97.53257,155.21113Z"/>
      <path d="M100.9271,155.92256v-1.39551H99.12046V153.717l1.72657-3.646h1.0205v3.51074h.52637v.94531h-.52637v1.39551Zm0-2.34082v-1.19727c0-.31494.03321-.65722.05762-.96338h-.0332c-.1211.32422-.22656.58545-.36426.90918l-.56738,1.2334v.01807Z"/>
    </g>
    <rect class="cls-2" x="36.19772" y="23.21159" width="151.72497" height="124.36555"/>
    <path class="cls-3" d="M125.8534,147.57714V23.21159"/>
    <g class="cls-4">
      <path d="M124.54624,152.96943c0,2.09766-.68945,3.02539-1.54,3.02539-1.1504,0-1.53907-1.46777-1.53907-2.97119,0-1.68359.48633-3.0249,1.58008-3.0249C124.26206,149.99873,124.54624,151.57441,124.54624,152.96943Zm-2.00976.02735c-.0166,1.36816.13769,1.98926.49414,1.98926.332,0,.44531-.648.44531-1.98926,0-1.25147-.10449-1.98975-.44531-1.98975C122.69859,151.007,122.52867,151.6374,122.53648,152.99678Z"/>
      <path d="M125.11949,155.21113a.72061.72061,0,0,1,.624-.7832c.34082,0,.61621.29736.61621.7832,0,.47754-.25195.78369-.624.78369C125.40367,155.99482,125.11949,155.68867,125.11949,155.21113Z"/>
      <path d="M129.49449,150.95283a2.98024,2.98024,0,0,0-.4375.06348,1.744,1.744,0,0,0-1.17481,1.55713h.02442a.96611.96611,0,0,1,.81054-.46826c.71289,0,1.19141.71142,1.19141,1.81884,0,1.02637-.4707,2.0708-1.499,2.0708-.99707,0-1.6045-.96337-1.6045-2.41308a4.09389,4.09389,0,0,1,.86719-2.72754,2.33551,2.33551,0,0,1,1.28809-.79248,3.315,3.315,0,0,1,.53418-.063Zm-.63184,2.96192c-.00781-.49512-.15332-.96289-.49414-.96289-.16992,0-.332.126-.42969.396a1.49542,1.49542,0,0,0-.05664.51319c0,.76513.19434,1.27832.51074,1.27832C128.74937,155.13936,128.86265,154.61738,128.86265,153.91475Z"/>
    </g>
    <rect class="cls-2" x="36.19772" y="23.21159" width="151.72497" height="124.36555"/>
    <path class="cls-3" d="M153.43975,147.57714V23.21159"/>
    <g class="cls-4">
      <path d="M152.13218,152.96943c0,2.09766-.68945,3.02539-1.54,3.02539-1.15039,0-1.53906-1.46777-1.53906-2.97119,0-1.68359.48633-3.0249,1.58008-3.0249C151.848,149.99873,152.13218,151.57441,152.13218,152.96943Zm-2.00976.02735c-.01661,1.36816.13769,1.98926.49414,1.98926.332,0,.44531-.648.44531-1.98926,0-1.25147-.10449-1.98975-.44531-1.98975C150.28453,151.007,150.1146,151.6374,150.12242,152.99678Z"/>
      <path d="M152.70542,155.21113a.72062.72062,0,0,1,.624-.7832c.34082,0,.61621.29736.61621.7832,0,.47754-.25195.78369-.624.78369C152.9896,155.99482,152.70542,155.68867,152.70542,155.21113Z"/>
      <path d="M154.36656,154.40107a1.8706,1.8706,0,0,1,.79394-1.55761v-.01758a1.59514,1.59514,0,0,1-.64844-1.2876,1.46109,1.46109,0,0,1,1.49122-1.53955,1.35461,1.35461,0,0,1,1.36132,1.44043,1.545,1.545,0,0,1-.68847,1.29639v.01806a1.73777,1.73777,0,0,1,.80957,1.53028,1.57253,1.57253,0,0,1-1.58008,1.71093A1.49449,1.49449,0,0,1,154.36656,154.40107Zm2.09082-.07177a1.21873,1.21873,0,0,0-.6084-1.08057,1.26265,1.26265,0,0,0-.45313,1.01758c0,.50391.18555.936.55079.936C156.27867,155.20234,156.45738,154.82441,156.45738,154.3293Zm-.94824-2.82715a.98093.98093,0,0,0,.51855.88232,1.00549,1.00549,0,0,0,.36426-.8374c0-.396-.1211-.75586-.42969-.75586C155.65464,150.79121,155.50914,151.14229,155.50914,151.50215Z"/>
    </g>
    <rect class="cls-2" x="36.19772" y="23.21159" width="151.72497" height="124.36555"/>
    <path class="cls-3" d="M181.02613,147.57714V23.21159"/>
    <g class="cls-4">
      <path d="M177.90367,151.17793H177.888l-.8916.51318-.17871-.92724,1.208-.69287h.93164v5.85156h-1.05371Z"/>
      <path d="M180.29234,155.21113a.72061.72061,0,0,1,.624-.7832c.34082,0,.61621.29736.61621.7832,0,.47754-.25195.78369-.624.78369C180.57652,155.99482,180.29234,155.68867,180.29234,155.21113Z"/>
      <path d="M185.057,152.96943c0,2.09766-.68946,3.02539-1.54,3.02539-1.15039,0-1.53906-1.46777-1.53906-2.97119,0-1.68359.48632-3.0249,1.58007-3.0249C184.77281,149.99873,185.057,151.57441,185.057,152.96943Zm-2.00977.02735c-.0166,1.36816.1377,1.98926.49414,1.98926.332,0,.44531-.648.44531-1.98926,0-1.25147-.10449-1.98975-.44531-1.98975C183.20933,151.007,183.03941,151.6374,183.04722,152.99678Z"/>
    </g>
    <g class="cls-4">
      <path d="M101.36851,164.24971a7.65108,7.65108,0,0,1,1.54492-.15576,2.618,2.618,0,0,1,1.94434.59961,2.52849,2.52849,0,0,1-.55078,3.70605v.02393c.49609.21582.74511.73193.88574,1.59521a14.35143,14.35143,0,0,0,.46387,2.19482h-1.4795a12.12993,12.12993,0,0,1-.35644-1.93115c-.12988-1.00732-.35645-1.29492-.832-1.29492h-.20508v3.22607h-1.415Zm1.415,3.52636h.248c.61621,0,.97265-.55175.97265-1.25927,0-.6836-.249-1.1753-.88574-1.19922a.91042.91042,0,0,0-.335.04785Z"/>
      <path d="M107.46031,169.83906c.02148.91114.49707,1.24707,1.123,1.24707a2.83669,2.83669,0,0,0,1.00489-.19189l.19433,1.12744a3.99047,3.99047,0,0,1-1.458.26367c-1.4375,0-2.22558-1.05517-2.22558-2.89013,0-1.9668.918-3.14258,2.11719-3.14258,1.13476,0,1.793.9956,1.793,2.77051a4.65016,4.65016,0,0,1-.043.81591Zm1.26367-1.10351c0-.75586-.17285-1.34326-.59375-1.34326-.46484,0-.64844.75537-.65918,1.34326Z"/>
      <path d="M113.73472,172.11787a2.27939,2.27939,0,0,1-.89648.16748c-1.33985,0-2.21485-1.03125-2.21485-2.95019,0-1.811.96094-3.07032,2.41992-3.07032a1.89758,1.89758,0,0,1,.77735.15577l-.1836,1.23535a1.35517,1.35517,0,0,0-.52929-.10791c-.68067,0-1.08008.71972-1.08008,1.73926,0,1.06738.39941,1.71484,1.05859,1.71484a1.06231,1.06231,0,0,0,.5293-.11963Z"/>
      <path d="M116.82359,172.21357l-.07617-.57568h-.02149a1.34413,1.34413,0,0,1-1.167.67139c-.79883,0-1.39355-.74317-1.39355-1.78662a2.19221,2.19221,0,0,1,2.41992-2.18311v-.13183a.71064.71064,0,0,0-.74512-.79151,1.83117,1.83117,0,0,0-1.08008.33594l-.25976-1.05566a3.17755,3.17755,0,0,1,1.64257-.44385c1.60938,0,1.86817,1.24756,1.86817,2.43506v2.18261a8.76,8.76,0,0,0,.08691,1.34326Zm-.19531-2.85449c-.47461.01221-1.12305.18018-1.12305.99561,0,.5874.292.80322.50781.80322a.62646.62646,0,0,0,.583-.50342,1.13664,1.13664,0,0,0,.03223-.27588Z"/>
      <path d="M119.015,163.91426h1.415v8.29931h-1.415Z"/>
      <path d="M121.44468,163.91426h1.415v8.29931h-1.415Z"/>
    </g>
    <rect class="cls-2" x="36.19772" y="23.21159" width="151.72497" height="124.36555"/>
    <path class="cls-3" d="M36.19772,141.92416h151.725"/>
    <g class="cls-4">
      <path d="M27.8773,141.92451c0,2.09766-.68945,3.02539-1.54,3.02539-1.15039,0-1.53906-1.46777-1.53906-2.97119,0-1.68359.48633-3.0249,1.58008-3.0249C27.59312,138.95381,27.8773,140.52949,27.8773,141.92451Zm-2.00977.02735c-.0166,1.36816.1377,1.98925.49414,1.98925.332,0,.44532-.648.44532-1.98925,0-1.25147-.1045-1.98975-.44532-1.98975C26.02964,139.96211,25.85972,140.59248,25.86753,141.95186Z"/>
      <path d="M28.45054,144.16621a.72061.72061,0,0,1,.624-.7832c.34083,0,.61622.29736.61622.7832,0,.47754-.252.78369-.624.78369C28.73472,144.9499,28.45054,144.64375,28.45054,144.16621Z"/>
      <path d="M33.21519,141.92451c0,2.09766-.68945,3.02539-1.54,3.02539-1.15039,0-1.53906-1.46777-1.53906-2.97119,0-1.68359.48633-3.0249,1.58008-3.0249C32.931,138.95381,33.21519,140.52949,33.21519,141.92451Zm-2.00977.02735c-.0166,1.36816.1377,1.98925.49414,1.98925.332,0,.44532-.648.44532-1.98925,0-1.25147-.10449-1.98975-.44532-1.98975C31.36753,139.96211,31.19761,140.59248,31.20542,141.95186Z"/>
    </g>
    <rect class="cls-2" x="36.19772" y="23.21159" width="151.72497" height="124.36555"/>
    <path class="cls-3" d="M36.19772,119.31224h151.725"/>
    <g class="cls-4">
      <path d="M27.8773,119.31221c0,2.09765-.68945,3.02539-1.54,3.02539-1.15039,0-1.53906-1.46778-1.53906-2.97119,0-1.6836.48633-3.02491,1.58008-3.02491C27.59312,116.3415,27.8773,117.91719,27.8773,119.31221Zm-2.00977.02734c-.0166,1.36817.1377,1.98926.49414,1.98926.332,0,.44532-.648.44532-1.98926,0-1.25146-.1045-1.98974-.44532-1.98974C26.02964,117.34981,25.85972,117.98018,25.86753,119.33955Z"/>
      <path d="M28.45054,121.55391a.72062.72062,0,0,1,.624-.78321c.34083,0,.61622.29737.61622.78321,0,.47754-.252.78369-.624.78369C28.73472,122.3376,28.45054,122.03145,28.45054,121.55391Z"/>
      <path d="M30.1439,122.26533v-.792l.52637-.74756a4.99615,4.99615,0,0,0,1.24023-2.60156c0-.46826-.23535-.80127-.67285-.80127a1.39868,1.39868,0,0,0-.79394.29687l-.18653-.918a2.18437,2.18437,0,0,1,1.17481-.36036,1.48494,1.48494,0,0,1,1.52343,1.69239,4.5809,4.5809,0,0,1-1.22363,2.76416l-.31543.41406v.01807h1.61231v1.03515Z"/>
    </g>
    <rect class="cls-2" x="36.19772" y="23.21159" width="151.72497" height="124.36555"/>
    <path class="cls-3" d="M36.19772,96.70032h151.725"/>
    <g class="cls-4">
      <path d="M27.8773,96.70088c0,2.09766-.68945,3.02539-1.54,3.02539-1.15039,0-1.53906-1.46777-1.53906-2.97119,0-1.68359.48633-3.0249,1.58008-3.0249C27.59312,93.73018,27.8773,95.30586,27.8773,96.70088Zm-2.00977.02734c-.0166,1.36817.1377,1.98926.49414,1.98926.332,0,.44532-.64795.44532-1.98926,0-1.25146-.1045-1.98974-.44532-1.98974C26.02964,94.73848,25.85972,95.36885,25.86753,96.72822Z"/>
      <path d="M28.45054,98.94258a.72061.72061,0,0,1,.624-.7832c.34083,0,.61622.29736.61622.7832,0,.47754-.252.78369-.624.78369C28.73472,99.72627,28.45054,99.42012,28.45054,98.94258Z"/>
      <path d="M31.84507,99.654V98.2585H30.03843v-.81006l1.72656-3.646H32.7855v3.51074h.52637v.94532H32.7855V99.654Zm0-2.34082V96.11592c0-.31494.03321-.65723.05762-.96338h-.0332c-.1211.32422-.22657.58545-.36426.90918l-.56738,1.2334v.01806Z"/>
    </g>
    <rect class="cls-2" x="36.19772" y="23.21159" width="151.72497" height="124.36555"/>
    <path class="cls-3" d="M36.19772,74.08841h151.725"/>
    <g class="cls-4">
      <path d="M27.8773,74.08857c0,2.09766-.68945,3.0254-1.54,3.0254-1.15039,0-1.53906-1.46778-1.53906-2.9712,0-1.68359.48633-3.0249,1.58008-3.0249C27.59312,71.11787,27.8773,72.69356,27.8773,74.08857Zm-2.00977.02735c-.0166,1.36816.1377,1.98926.49414,1.98926.332,0,.44532-.648.44532-1.98926,0-1.25147-.1045-1.98975-.44532-1.98975C26.02964,72.12617,25.85972,72.75654,25.86753,74.11592Z"/>
      <path d="M28.45054,76.33027a.72062.72062,0,0,1,.624-.7832c.34083,0,.61622.29736.61622.7832,0,.47754-.252.7837-.624.7837C28.73472,77.114,28.45054,76.80781,28.45054,76.33027Z"/>
      <path d="M32.82554,72.072a2.98043,2.98043,0,0,0-.4375.06348,1.744,1.744,0,0,0-1.1748,1.55713h.02441a.96612.96612,0,0,1,.81055-.46826c.71289,0,1.1914.71142,1.1914,1.81884,0,1.02637-.4707,2.07081-1.499,2.07081-.99707,0-1.60449-.96338-1.60449-2.41309a4.09389,4.09389,0,0,1,.86719-2.72754,2.33549,2.33549,0,0,1,1.28808-.79248,3.31514,3.31514,0,0,1,.53418-.063Zm-.63183,2.96192c-.00782-.49512-.15332-.96289-.49415-.96289-.16992,0-.332.126-.42968.396a1.49515,1.49515,0,0,0-.05664.51319c0,.76513.19433,1.27832.51074,1.27832C32.08042,76.2585,32.19371,75.73652,32.19371,75.03389Z"/>
    </g>
    <rect class="cls-2" x="36.19772" y="23.21159" width="151.72497" height="124.36555"/>
    <path class="cls-3" d="M36.19772,51.47649h151.725"/>
    <g class="cls-4">
      <path d="M27.8773,51.47627c0,2.09766-.68945,3.02539-1.54,3.02539-1.15039,0-1.53906-1.46777-1.53906-2.97119,0-1.68359.48633-3.0249,1.58008-3.0249C27.59312,48.50557,27.8773,50.08125,27.8773,51.47627Zm-2.00977.02734c-.0166,1.36817.1377,1.98926.49414,1.98926.332,0,.44532-.648.44532-1.98926,0-1.25146-.1045-1.98974-.44532-1.98974C26.02964,49.51387,25.85972,50.14424,25.86753,51.50361Z"/>
      <path d="M28.45054,53.718a.72061.72061,0,0,1,.624-.7832c.34083,0,.61622.29736.61622.7832,0,.47754-.252.78369-.624.78369C28.73472,54.50166,28.45054,54.19551,28.45054,53.718Z"/>
      <path d="M30.11167,52.90791a1.87064,1.87064,0,0,1,.79395-1.55762v-.01757a1.59515,1.59515,0,0,1-.64844-1.2876,1.46109,1.46109,0,0,1,1.49121-1.53955A1.35461,1.35461,0,0,1,33.10972,49.946a1.545,1.545,0,0,1-.68848,1.29638v.01807a1.73772,1.73772,0,0,1,.80957,1.53027,1.57254,1.57254,0,0,1-1.58007,1.71094A1.4945,1.4945,0,0,1,30.11167,52.90791Zm2.09082-.07178a1.21872,1.21872,0,0,0-.60839-1.08056,1.26265,1.26265,0,0,0-.45313,1.01758c0,.5039.18555.936.55078.936C32.02378,53.70918,32.20249,53.33125,32.20249,52.83613ZM31.25425,50.009a.981.981,0,0,0,.51856.88232,1.00551,1.00551,0,0,0,.36425-.8374c0-.396-.12109-.75586-.42968-.75586C31.39976,49.29805,31.25425,49.64912,31.25425,50.009Z"/>
    </g>
    <rect class="cls-2" x="36.19772" y="23.21159" width="151.72497" height="124.36555"/>
    <path class="cls-3" d="M36.19772,28.86457h151.725"/>
    <g class="cls-4">
      <path d="M26.06187,27.07246h-.01563l-.8916.51319-.17871-.92725,1.208-.69287h.93164v5.85156H26.06187Z"/>
      <path d="M28.45054,31.10566a.72062.72062,0,0,1,.624-.7832c.34083,0,.61622.29736.61622.7832,0,.47754-.252.7837-.624.7837C28.73472,31.88936,28.45054,31.5832,28.45054,31.10566Z"/>
      <path d="M33.21519,28.864c0,2.09765-.68945,3.02539-1.54,3.02539-1.15039,0-1.53906-1.46778-1.53906-2.9712,0-1.68359.48633-3.0249,1.58008-3.0249C32.931,25.89326,33.21519,27.469,33.21519,28.864Zm-2.00977.02734c-.0166,1.36816.1377,1.98926.49414,1.98926.332,0,.44532-.64795.44532-1.98926,0-1.25147-.10449-1.98975-.44532-1.98975C31.36753,26.90156,31.19761,27.53193,31.20542,28.89131Z"/>
    </g>
    <g class="cls-4">
      <path d="M12.58238,101.7668a6.71421,6.71421,0,0,1-.15528-1.48,2.57,2.57,0,0,1,.62305-1.97705,2.47469,2.47469,0,0,1,1.77539-.62647,2.90025,2.90025,0,0,1,1.94238.61572,2.41418,2.41418,0,0,1,.76758,1.77149v.28076h3.01074v1.41553Zm3.66992-1.41553a.65256.65256,0,0,0,.02441-.22656c0-.71289-.56347-1.03711-1.31933-1.03711-.708,0-1.25977.25928-1.25977.918a.95533.95533,0,0,0,.06055.3457Z"/>
      <path d="M16.44468,96.97139c-.58789,0-1.22363.022-1.76367.04345V95.7834l.85156-.07568V95.675c-.623-.2373-.94726-.65869-.94726-1.04785a1.0578,1.0578,0,0,1,.02441-.30225h1.55859a1.18333,1.18333,0,0,0-.02343.30225c0,.30273.22754.70215.83886.86426a2.62131,2.62131,0,0,0,.5879.0542h2.9746v1.42578Z"/>
      <path d="M18.17124,92.65156c.91211-.022,1.248-.49707,1.248-1.12353a2.8467,2.8467,0,0,0-.19238-1.00488l1.127-.19434a3.98006,3.98006,0,0,1,.26465,1.4585c0,1.43652-1.05566,2.22509-2.89062,2.22509-1.9668,0-3.14258-.918-3.14258-2.11718,0-1.13428.99609-1.79346,2.7705-1.79346a4.57877,4.57877,0,0,1,.81543.04346ZM17.06773,91.3874c-.75488,0-1.34277.17285-1.34277.59424,0,.46436.75585.64795,1.34277.65869Z"/>
      <path d="M20.45054,86.37617a2.28746,2.28746,0,0,1,.168.897c0,1.33935-1.03223,2.21435-2.9502,2.21435-1.81152,0-3.07031-.96143-3.07031-2.41992a1.89532,1.89532,0,0,1,.15528-.77783l1.23535.18359a1.36558,1.36558,0,0,0-.10742.52979c0,.68017.71875,1.08007,1.73828,1.08007,1.06738,0,1.71582-.3999,1.71582-1.05859a1.05992,1.05992,0,0,0-.12012-.5293Z"/>
      <path d="M13.12242,84.4001a.73349.73349,0,1,1,0,1.44775.73345.73345,0,1,1,0-1.44775Zm7.42382,1.415H14.681v-1.415h5.86523Z"/>
      <path d="M19.13121,83.45039a1.84392,1.84392,0,0,0,.31152-.95068c0-.36719-.17969-.57276-.52734-.57276-.29981,0-.49219.15137-.792.61573A1.91664,1.91664,0,0,1,16.433,83.6125a1.71637,1.71637,0,0,1-1.84765-1.73975,2.287,2.287,0,0,1,.26367-1.06933l1.15137.24853a1.36342,1.36342,0,0,0-.23926.73487.48735.48735,0,0,0,.5039.52929c.26368,0,.40723-.11914.73145-.61621a2.01534,2.01534,0,0,1,1.77441-1.06933,1.72419,1.72419,0,0,1,1.84766,1.86914,2.14783,2.14783,0,0,1-.33594,1.21Z"/>
      <path d="M13.12242,78.49287a.73349.73349,0,1,1,0,1.44776.73345.73345,0,1,1,0-1.44776Zm7.42382,1.415H14.681v-1.415h5.86523Z"/>
      <path d="M17.59605,73.64326c2.44629,0,3.0459,1.22071,3.0459,2.02,0,1.26416-1.10352,2.02-3.00977,2.02-2.11133,0-3.04687-.99365-3.04687-2.0415C14.58531,74.39912,15.74839,73.64326,17.59605,73.64326Zm0,2.63574c1.00684,0,1.84668-.14062,1.84668-.64794,0-.45411-.9834-.57276-1.84668-.57276-.80371,0-1.82324.11865-1.82324.59424C15.77281,76.17109,16.79234,76.279,17.59605,76.279Z"/>
      <path d="M16.44468,72.84492c-.64746,0-1.21191.03272-1.76367.04346v-1.2207l.67188-.06494v-.02149a1.48566,1.48566,0,0,1-.76758-1.28564c0-1.00489.88769-1.4043,2.19531-1.4043h3.76562v1.415H16.87632c-.5039,0-.97168.10791-.97168.51855,0,.2378.17969.43213.52832.5293a1.69194,1.69194,0,0,0,.53907.07568h3.57421v1.415Z"/>
    </g>
    <rect class="cls-2" x="36.19772" y="23.21159" width="151.72497" height="124.36555"/>
    <path class="cls-5" d="M43.09432,141.92416l.33642-28.2649.33641-16.95894.33642-11.306L44.44,77.31868v8.07568l.33644-6.28108.33641-5.02487v11.306l.33642-4.34844v4.34844l.67283-7.06622v3.74094l.33643-2.9558v3.30583l.33642-2.67772v2.96108l.33641-2.44718v16.445l.33642-2.18825V95.9937l.33641-2.03422v5.18537l.33644-1.84948v2.23144l.33641-1.72347v2.05213l.67283-3.15515v.98313l.33643-1.46423v8.01841l.33642-1.29954v1.29954l.33642-1.23563v2.39522l.33641-1.15959v1.63854L50.832,104.776v1.03189l1.00926-3.07773v.5157l.33642-.966v1.95775l.33641-.91918v.91918l.33643-.88674v1.315l.33642-.8517v.42344l.33642-.82828v.82828l1.00926-2.35541v.4128l.33641-.74929v1.19936l.33642-.72432v.76737l.33642-.704v2.82053l.33641-.667v.64976l.67285-1.28852v1.85445l.33642-.61271v.584l.67283-1.187v1.40621l.33643-.56874v.80107l.67283-1.10016v.52321l.67283-1.06159v1.26465l.33643-.51092v1.19138l1.00925-1.46807v1.1414l.33642-.46947v.44022l.33643-.46085v.2176l.33641-.454v.64177l.33642-.44455v.62382l.33642-.43551v.60681l.33643-.42683v1.349l.33641-.41365v.90964l.33642-.40347v.35317l.33642-.39709v2.146l.33641-.37912v.15523l.33643-.37453v.30819l.67283-.73472v1.7588l.33642-.35112v.8178l.33642-.34275v1.887l1.00926-.974v.23966l.33642-.31809v.23749l.33641-.31414v.58184l.33643-.3081v.11448l.33642-.3051v.45236l.33641-.30009v.11171l.33642-.29724v.22237l.33642-.2938v.32959l.33643-.28978v.74694l.33641-.2834v.10439l.33642-.28086v.10428l1.00926-.82952v.10531l.33642-.27225v1.41145l.33641-.2629v.47668l.33642-.25865v.46457l.33642-.25454v.63042l.33643-.24958v.35043l.33641-.24621v.17308l.33642-.24384v.25721l.33641-.24106v.42115l.33642-.23748v.33015l.33643-.23442v.24407l.33642-.23186v.2413l1.34568-.90995v.24215l.67283-.44532v.1608l.33641-.22014v.08014l.33642-.21861v.31778l.33643-.216v.07877l.33642-.21455v.46626l.33641-.21136v.37948l.33642-.2086v.51786l.33642-.20526v.21748l.33643-.20329v.14387l.33641-.20168v.28485l.33642-.19947v1.608l.33641-.19141v.06351l.33643-.19026v.06352l.33642-.18914v.31476l.67283-.373v.12506l.33642-.18474v.18635l.33643-.18314v.12341l.33642-.18182v.06157l.67283-.36082v.12336l.33641-.17876v.3051l.67285-.3528v.47889l1.00925-.51807v.11867l1.00926-.51041v.17821l.33642-.1681v.863l.33641-.16422v.33248l.33643-.16234v.21824l.67284-.26673v.10827l.33641-.15908v.10785l.33642-.1581v.21409l.67285-.31289v.15963l.67283-.30945v.10619l.33641-.15352v.10579l.33643-.15259v.21l.67284-.24971v.05219l1.00926-.39552v.05234l1.00925-.38963v.15687l1.34568-.52732v.05239l1.00926-.376v.10481l1.00925-.37035v.46536l.33643-.13854v.1018l.33641-.13778v.10142l.67284-.22289v.35055l.67284-.21989v.58406l1.00925-.34778v.56511l.33642-.12941v.76756l.33641-.12686v.17541l.33642-.126v.13054l.67286-.2501v.21621l.33642-.1239v.256l.33641-.12282v.08457l.33642-.12223v.08431l.33641-.12165v.37445l.33642-.12027v.08213l.67283-.198v.12265l.33642-.11859v.08141l1.34569-.47016v.16317l.33642-.1163v.16178l.33641-.11556v.27959l.33642-.11453v.35264l.67283-.18745v.11594l1.00928-.336v.15432l.33642-.111v.26684l.67283-.182v.03781l.33641-.1093v.52049l.67284-.17856v.03655l.67283-.21376v.146l.33644-.10613v.46565l.33642-.10473v.10559l.33642-.10421v.3129l.33641-.1032v.103l.33642-.1027v.13655l.33641-.10212v.10179l.33642-.10163v.16845l.33642-.101v.067l.67283-.20094v.29893l.33644-.0994v.16375l.33642-.09879v.09757l.33642-.09833v.06483l.33641-.098v.28873l.67283-.19389v.40865l.33642-.09566v.12364l.67283-.19012v.0617l1.00928-.25221v.0617l.33642-.09376v.21433l.67283-.18595v.12155l.33641-.0924v.38872l.33642-.09133v.11771l.67283-.18157v.17548l.33645-.09011v.116l1.68208-.41727v.20248l2.35494-.61383v.08715l.33641-.08679v.23026l1.34567-.31477v.11443l.33642-.08516v.08538l1.00927-.22544v.33784l.67283-.13913v.05564l.67284-.166v.276l.33641-.08225v.13628l.67284-.16348v.08145l.33641-.08135v.08114l.67286-.13487v.08083l.67283-.13395v.05373l1.00925-.21282v.02689l.67283-.13195v.02689l.33645-.07912v.34564l1.68208-.36379v.184l.33642-.07725v.13024l.33641-.07687v.10352l1.00928-.20334v.07743l1.00925-.17581v.25552l1.00925-.19922v.05074l.67283-.14885v.12649l1.68211-.31806v.02529l.67283-.121v.35l.33642-.07237v.14769l.33641-.072v.0734l1.00928-.1904v.07326l.33641-.07124v.073l.33642-.071v.16919l.33642-.0706v.072l.33641-.07037v.16693l.33642-.07v.14178l.67283-.13916v.11746l.33642-.06922v.1167l.33641-.06893v.29947l.67286-.13654v.20432l.67284-.13545v.17975l.33641-.06729v.13354l.67284-.13382v.17666l.33641-.06647v.06578l.67286-.13243v.08751l.67283-.088v.02179l1.68209-.28324v.109l.33641-.06488v.12985l.67286-.12906v.12906l1.00925-.17079v.06429l1.00925-.16957V113.49l1.00925-.14691v.10617l.33644-.0628v.10554l.33642-.06255v.084l.33641-.06233v.08363l.67284-.10327v.28927l1.00924-.18421v.0615l.33642-.06114v.06131l1.00928-.14171v.08145l.33641-.06052v.0811l.33642-.06032v.141l.33642-.06v.13982l.67283-.0995v.11892l.67283-.1187v.21606l.33642-.05892v.19385l.33644-.05857v.0769l.33642-.05838v.07658l.67283-.09717v.03819l.33642-.058v.07618l.33641-.05777v.05694l1.00925-.15362V113.85l.33645-.05731v.35586l.33641-.05674v.184l.67283-.07616v.05472l.67284-.094v.10895l.67283-.09344v.09027l.67283-.111v.054l.67286-.11055v.08982l.33642-.055v.05368l1.34566-.18333v.178l.67283-.0909v.03536l.67286-.07283v.05288l1.00925-.12615v.05275l.33642-.05356v.12249l.67283-.08916v.17337l.33642-.053v.10313l1.00927-.12376v.06841l1.34567-.158v.06818l1.34566-.17361v.051l.67286-.06927V113.95l.33642-.05145v.06761h0"/>
    <rect class="cls-2" x="36.19772" y="23.21159" width="151.72497" height="124.36555"/>
    <path class="cls-6" d="M43.09432,141.92416l.33642-22.61192.33641-15.07461v9.42163l.33642-9.42163v9.42163l.33641-6.52267v2.48482l.33644-5.38378v2.3554l.33641-4.57226v5.98551l.33642-3.76865v4.71082l.33641-3.20336v16.07958l.67285-3.95574v3.49894l.33642-1.65185v.7658l.33641-1.55283v6.2456l1.34568-4.53224.33642-1.06718v1.45754l.33641-.99105v.68383l.33643-.947v.226l.33642-.9206v1.50832l.33642-.85727v.40714l.67283-1.64464v.20917l.33643-.79506v1.58762l.33641-.74291v.556l.33642-.71784v.89045l.33642-.68652v.51391l.33641-.66506v.33735l.33643-.64834v1.28369l.33642-.61321v.30557l.33642-.599v1.16784l.33641-.56885v.14045l.33642-.55919v.555l.67284-1.07839v1.57028l.33642-.50318v.24576l.33642-.49358v.71794l.67284-.94836v.46868l.33642-.45972v.11595l.33642-.45337v.79154l.33641-.43748v.11029l.67285-.85934v.11227l.33641-.42209v.33486l.33642-.41387v.54475l.33642-.40328v1.32412l.33641-.38325v.38325l.33643-.3753v.095l.67284-.73907v.287l1.00926-1.07659v.28958l.33641-.35011v.096l.33642-.34638v.38049l.33642-.33987v.91111l.33643-.32824v.43517l.33641-.32154v.086l.33642-.31839v.425l.67283-.622v.0848l.33643-.307v.74435l.33642-.29819v.55359l.67283-.58059v.3106l.33642-.2848V117.8l.33643-.28234v.07724l.67283-.55806v.2326l.67283-.5474v.97509l.33643-.2636v.4284l.33642-.25871v.14059l.33641-.25615v.27849l1.00927-.75341v.07018l.67283-.49422v.14114l.33641-.24407v.34847l.33642-.24035v.069l.33643-.23857v.20619l.33642-.23593v.40523l.33641-.232v.39517l.33642-.22823v.25835l.33642-.22539v.06417l.67284-.44654v.69365l.33642-.21728v.06159l.33641-.21584v.06166l.33642-.2144v.18428l.33643-.21225v.12209l.33642-.21051v.88493l.33641-.20429v.11405l.67284-.34715v.057l.33643-.20018v.22686l.33641-.198v.11253l.67283-.39207v.11278l.33642-.19411v.16822l.67285-.32769v.49476l.67283-.37476v.10851l.33642-.18563v.16188l.33643-.184v.21377l.33641-.18217v.10609l.33642-.18088v.10575l.67284-.35849v.31516l.33642-.17661v.80812l.33642-.172v.19514l.33641-.17036v.14508l1.00927-.45641v.38285l.67283-.32952v.14194l.33641-.16319v.464l.33643-.16047v.0912l1.00925-.43072v.09144l.33642-.15715v.53747l.33643-.15424v.08777l.33642-.15331v.30376l.33641-.15146v.21345l.33642-.15v.16889l1.00926-.40246v.04226l.67283-.25093v.25187l1.00927-.43288v.29113l.33641-.14219v.36619l.33642-.14028v.08027l.33641-.13951V116.78l.67285-.23656v.07944l.67283-.27382v.50838l1.00927-.36309v.11542l.67283-.22617v.19088l.67284-.22331v.11365l.33642-.12958v.26226l.67283-.25616v.14852l.33643-.127v.43694l.33642-.12508v.17831l.33641-.1241v.07087l1.6821-.61407v.10739l.33642-.12142v.248l.67284-.24021v.34837l.67283-.23661v.069l.33642-.1176v.23937l.33642-.1165v.13522l.67283-.19742v.10087l.33642-.11473v.067l.67286-.19455v.10024l.67283-.22612v.42818l.33641-.11131v.06481l.33642-.11082v.06469l.33642-.11035v.1608l.33641-.10959v.19089l.33642-.10873v.1574l.33644-.108v.09379l1.00925-.29015v.09371l.67283-.181v.03119l.33642-.1056v.09339l.67283-.17873v.216l.33642-.10387v.09175l.33644-.10336v.33184l.67284-.20413v.05976l.33641-.10154v.17812l.33642-.10081v.08838l1.34566-.3703v.02958l.33642-.09926v.20575l.67286-.19674v.1747l.33642-.09757v.14419l1.00924-.29029v.05769l.33642-.09619v.172l.33642-.09553v.1983l.33641-.09481v.08427l1.3457-.34807v.14038l.67283-.18611v.195l.67283-.1566v.19266l.33642-.09135v.05466l.33641-.091v.29731l1.68211-.42165v.08071l1.34567-.32756v.10765l.33641-.08789v.05361l.33645-.08759v.05353l.67283-.1476v.15969l.67283-.11981.67283-.14538v.10573l.33642-.08543v.41558l1.00928-.20111v.02561l1.00924-.25052v.20448l.33642-.08274v.076l.67283-.114v.02526l1.68211-.35728v.27663l.67283-.16085v.24764l.33642-.07969v.19525l1.34567-.29129v.12135l.67286-.13216v.09652l.33641-.07774v.07207l.67283-.13075v.14331l1.00925-.20627V115.11l.67283-.15238v.16573l.33645-.07567v.14072l.67283-.10363v.02331l.67283-.12623v.16245l.33642-.07426v.25183l.67283-.12441v.15814l.33642-.07305v.08971l.33641-.07276v.067l.33645-.07251v.089l.67283-.09988v.15437l.67283-.09915v.0438l1.00925-.1913v.04382l1.00928-.21187v.06583l1.34566-.23638v.218l1.00925-.16432v.1079l.67283-.09433v.17091l1.3457-.22932v.12726l.33641-.06744v.06329l.67284-.11325v.04211l.67283-.09161v.042l.67286-.091v.06275l.67283-.09045v.20717l.67283-.08985v.18382l.33642-.065v.10121l1.34569-.21779v.04042l.33642-.06421v.0605l.33641-.064v.08038l1.00925-.171v.06017l.33642-.06337v.06l.67283-.12629v.09973l.67286-.1256v.07951l1.68208-.27189v.19774l.67283-.084v.01962l.33642-.06145v.05878l1.68211-.26616v.01963l.67283-.08212v.09776l.67283-.10115v.25134l1.3457-.20024v.0192l.67283-.09946v.03839l.33642-.05915v.05747l1.00924-.13835v.22784l.33642-.05835v.13138l1.34569-.21309v.1121l.67284-.07782v.14809l1.00924-.13435v.01842l.33642-.05687v.07358l1.34569-.18947v.01838l.33642-.05631v.1646l.67283-.07555v.01817l.67283-.07515v.01815l.33642-.05558v.10855l.33644-.05536v.072l.67284-.09232v.10743l.67283-.09182v.07127l.67283-.10918v.07109l.33642-.05438v.05314l.33641-.05424v.08824l.33642-.05406v.12277l1.68211-.23339v.08738l.67283-.05431v.06943l1.68211-.24718v.05211l1.00925-.12294v.052l.33642-.05233v.0691l.33641-.05218v.06885l.33642-.052v.11983l1.34569-.18978v.20382h0"/>
    <rect class="cls-2" x="36.19772" y="23.21159" width="151.72497" height="124.36555"/>
    <path class="cls-7" d="M36.19772,78.04549h151.725"/>
    <rect class="cls-2" x="36.19772" y="23.21159" width="151.72497" height="124.36555"/>
    <path id="m75df0805ed" class="cls-8" d="M67.65291,79.34673a1.402,1.402,0,1,0-.99138-.41065A1.40211,1.40211,0,0,0,67.65291,79.34673Z"/>
    <path class="cls-9" d="M36.19772,147.57714V23.21159"/>
    <path class="cls-9" d="M187.92272,147.57714V23.21159"/>
    <path class="cls-9" d="M36.19772,147.57714h151.725"/>
    <path class="cls-9" d="M36.19772,23.21159h151.725"/>
    <rect class="cls-2" x="36.19772" y="23.21159" width="151.72497" height="124.36555"/>
    <path class="cls-10" d="M43.43074,28.86457h1.34568V47.70783l.33641-2.69189.33642-2.01892v10.9919l.33641-2.51243.33642-2.05563.33643-1.713v7.24741l.67283-3.47875v5.653l.67283-3.14055.67285-2.51243v4.307l.67283-2.34078.33643-1.02409v3.58022l.33642-1.04363v6.21207l.33642-1.11389v2.729l.67283-2.11987.33643-.96358v4.69858l.67283-1.9207V64.5676l1.00926-2.61242v1.904l1.00925-2.333v3.42119l.67285-1.47277v5.92072l.33641-.75058V72.5016l.33642-.75236v2.33917l1.00926-2.15352v2.15352l.33642-.68522V74.4259l.33642-.67v1.94766l.33641-.6597v1.83234l.33642-.64881v.876L58.56959,75.248v3.2525l1.00926-1.75186v.75786l1.00925-1.63962v1.45181l1.34568-2.04017v.69422l.33642-.48565v1.99311l.33643-.48134v.63652l1.00925-1.39345v.61964l.33641-.44857v.60659l.67285-.87555v1.17465l.33641-.4288v.57048l.33642-.42258v.55937l1.00926-1.22855v1.08356l.33642-.39826v1.04629l.67283-.78151v1.00946l.33643-.38344v1.9242l1.00925-1.1251v.91566l.67285-.72565v.44675l.33641-.35575v1.30137l.33642-.35249v.42144l.67283-.69169v.41481l.67285-.67439v.81143l.33641-.33155V81.101l.33642-.32853v.3822l.33642-.32478v1.11757l.33643-.32171v.72214l.33641-.31836V83.4224L73.372,83.107v.338l.33641-.31189v2.26119l.33642-.3089v.3089l.33643-.30557v.60787l.33642-.3023v.2991l.33641-.2991v.58886l.33642-.296v.28988l.33642-.29288v.28694l.33643-.28988v2.19484l.33641-.28646v1.03494l.33642-.28323v.99689l.33641-.28v3.43285l.33642-.27426v.8425l.33643-.27086V92.995l1.00925-.79831v.81188l.33642-.26075v.39659l.67284-.51424v.39122l1.00926-.75479v.194l.33642-.24746v.19268l.33642-.24533V93.103l.33641-.24241v.36752l.33642-.24016v3.0799l.33643-.23415v.63354l.33642-.23151v.15593l.67283-.45782v.15538l.67284-.45117v.76379l.33642-.22216v.447l.33642-.22v.58356l1.00926-.64882V96.913l.33642-.21265v.69575l.67283-.41915v.942l.33641-.20614v.13159l.33643-.20469v.51947l.33642-.20262v.25563l.33642-.201v.62733l.33641-.19879v.61073l.33642-.19659v.59489l.33643-.19445v1.58456l.33642-.19041v.325l.33641-.18877v1.04948l.33642-.18568v.20393l.67284-.36769v.40338l.33642-.18165v.1991l.33642-.18035v.19754l.33641-.17906v.29329l.33642-.17761v.097l.33643-.17655v.85414l.67283-.34716v.27784l.33642-.1718v.09194l1.00926-.51008v.27489l.67283-.33509v.27217l.67285-.331v.71076l.33641-.16306v1.2694l.33642-.15984v.16345l.33642-.15884v.32343l.33643-.15751v.55421l.33641-.15573v.38693l.33642-.15429v.37989l.33642-.15288v.22475l.67284-.303v.87628l1.00925-.44462v.143l.33642-.14677v.14216l.33641-.14592v.42088l.33642-.14451v.27588l.33642-.1434v.06846l.33644-.14272v.4063l.33642-.14138v.33246l.33641-.14017v.32712l.33642-.139v.88716l.33641-.13665v.246l.33642-.13565v.122l.33642-.13492v.1818l.33641-.13408v.06032l.33642-.1335v.18008l.33644-.13266v.11927l.33642-.132v.98421l.33642-.12947v.11242l.33641-.1288v.056l.33642-.12826v.1118l.33641-.12762v.05574l.33642-.12708v.05568l.33642-.12656v.1663l.67283-.25123V107.9l1.00928-.36991v.107l1.34566-.487v.05366l.67283-.18734v.26607l.33642-.11936v.31458l.33644-.11839v.15546l.67284-.23513V107.84l.33641-.116v.3971l.33642-.11487v.14683l.33641-.11425v.14585l.33642-.11364v.1929l.67283-.17751v.61266l.33642-.111v.32142l.33644-.1101v.44946l.67284-.1731v.08853l.33641-.10807v.39336l.33642-.107v.25757l.67283-.16949v.08507l.33642-.10543v.253l.67283-.20906v.0838l.33644-.104v.12513l.67284-.165v.24769l.33641-.10238v.16335l.67283-.16263v.20214l1.00925-.26143v.39808l.33645-.09928v.07859l.33641-.09889v.11738l.67283-.15755v.07789l.33642-.09775v.15493l.33642-.09723v.077l.33641-.09685v.34282l.67284-.154v.1128l.67286-.19033v.075l.33641-.0947v.11209l.33642-.09427v.22224l1.34566-.37335v.18416l.33642-.09249v.1824l.33642-.092v.10863l.67286-.18291v.07226l1.00924-.23626v.21546l.33642-.09v.14231l.33642-.08956v.6602l.33641-.08823v.23685l.67284-.14143v.20047l.33641-.08686v.13245l1.00928-.25879v.09911l.33641-.08574v.35874l.33642-.085v.31964l1.00925-.25219v.06347l.33641-.08362v.18916l.33645-.08312v.37213l.33642-.08234v.06126l.33641-.08207v.30318l.33642-.0814v.11981l.67283-.16192v.355l.33642-.08013v.40461l.67283-.12985v.08543l.67286-.15744v.11352l.33642-.07831v.28058l1.34566-.282v.139l.33642-.07685v.11046l.33641-.07652v.10983l1.00928-.20074v.05478l.33642-.07565v.08192l.67283-.12333v.02725l.33641-.075v.08157l.67284-.1222v.10823l.67283-.14843v.21482l1.34569-.26713v.05347l.33642-.073v.08l.67283-.1188v.05316l.67283-.11812v.053l1.00928-.18917v.10579l2.0185-.427v.05309l.67283-.11464v.07938l.33644-.07026v.10535l1.00925-.18328v.2091l1.34567-.25044v.052l1.00927-.17981v.07793l.33642-.06825v.10344l1.34566-.21958v.20526l.67283-.10877v.051l1.68211-.30775v.27864l.33642-.06594v.10023l1.00925-.14673v.09966l.33641-.06519v.12385l.33642-.06494v.2451l1.00928-.16885v.04867l.33641-.06412v.2414l.67284-.10333v.19063l.33641-.06324v.09456l.33642-.063v.11754l.33641-.06277v.11679l.33642-.06252v.13916l.33642-.06225v.20666l.67286-.078v.22629l.33641-.06136v.08969l.33642-.06116v.11152l.33642-.06093v.43855l.67283-.07719v.02159l1.68211-.29922v.10816l.67283-.07566v.19268l.33642-.059v.12725l.67283-.1174v.06338l.33641-.05849v.06319l.67286-.0745v.18793l.33642-.05788v.2268l.33642-.05753v.10209l.33641-.05732v.18223l.67284-.11394v.16051l.33641-.05666v.09956l.67283-.11283v.1583l.67286-.11214v.17651l.33642-.05574v.07786l.67283-.09161v.11616l.33642-.05526v.17275l.67283-.07167v.07611l1.34569-.21833v.24585l.67284-.10815v.05629l.67283-.10774v.1122l1.00925-.12334v.05583l.67283-.06937v.12943l.33644-.053v.07353l.33642-.05282v1.214h0"/>
    <g class="cls-4">
      <path class="cls-11" d="M75.20738,65.25508c0-.53125-.01563-.98145-.03223-1.39551H76.099l.05664.5044h.0166a.89889.89889,0,0,1,.82617-.57618c.875,0,1.23145,1.04395,1.23145,2.26856,0,1.5664-.624,2.27783-1.28809,2.27783a.76384.76384,0,0,1-.65625-.43262h-.0166v2.08887H75.20738Zm1.06152,1.39551a.99207.99207,0,0,0,.05664.37793c.08106.27.21875.34228.34082.34228.37207,0,.502-.6123.502-1.30566,0-.83692-.17773-1.28711-.49414-1.28711-.16211,0-.31543.1709-.35644.37793a.80707.80707,0,0,0-.04883.31494Z"/>
      <path class="cls-11" d="M78.82847,65.18281c0-.44091-.01562-.918-.03223-1.32324h.92383l.05664.63916h.02442c.17871-.46826.49414-.71094.78613-.71094a.82136.82136,0,0,1,.22656.01758v1.17041a.86222.86222,0,0,0-.22656-.01806c-.22754,0-.52734.17138-.64844.63037a1.97845,1.97845,0,0,0-.04.4414v2.23242H78.82847Z"/>
      <path class="cls-11" d="M82.06871,66.4792c.0166.68457.373.93652.84277.93652a2.138,2.138,0,0,0,.75391-.144l.1455.84619a2.985,2.985,0,0,1-1.09375.19824c-1.07812,0-1.66894-.79248-1.66894-2.16992,0-1.47656.68847-2.3584,1.58789-2.3584.85058,0,1.34472.74707,1.34472,2.07959a3.46161,3.46161,0,0,1-.03222.61182Zm.94824-.82813c0-.56689-.12989-1.0083-.44629-1.0083-.34766,0-.48535.56739-.49414,1.0083Z"/>
      <path class="cls-11" d="M86.77476,68.18965a1.7015,1.7015,0,0,1-.67285.12646c-1.00391,0-1.66016-.77441-1.66016-2.21484,0-1.35937.72071-2.30469,1.81446-2.30469a1.41328,1.41328,0,0,1,.583.11719l-.13769.92725A1.014,1.014,0,0,0,86.305,64.76c-.51074,0-.81054.54-.81054,1.30518,0,.80127.2998,1.2876.79394,1.2876a.79682.79682,0,0,0,.39746-.09034Z"/>
      <path class="cls-11" d="M88.25718,62.68916a.55021.55021,0,1,1-.543-.63916A.567.567,0,0,1,88.25718,62.68916Zm-1.06152,5.57275V63.85957h1.06152v4.40234Z"/>
      <path class="cls-11" d="M88.9691,67.19941a1.3792,1.3792,0,0,0,.71386.23438c.27539,0,.42871-.13525.42871-.39648,0-.22461-.11328-.36866-.46191-.59375A1.44036,1.44036,0,0,1,88.848,65.174a1.2874,1.2874,0,0,1,1.30469-1.38623,1.71291,1.71291,0,0,1,.80176.19776l-.18653.86426a1.0184,1.0184,0,0,0-.55078-.18018.36545.36545,0,0,0-.39648.37842c0,.19775.08887.30615.46191.54883a1.51368,1.51368,0,0,1,.80176,1.33252A1.29345,1.29345,0,0,1,89.683,68.31611a1.60976,1.60976,0,0,1-.9082-.25244Z"/>
      <path class="cls-11" d="M92.68785,62.68916a.55021.55021,0,1,1-.543-.63916A.567.567,0,0,1,92.68785,62.68916Zm-1.06153,5.57275V63.85957h1.06153v4.40234Z"/>
      <path class="cls-11" d="M96.32554,66.04707c0,1.83692-.916,2.28711-1.51562,2.28711-.94825,0-1.51465-.82861-1.51465-2.25977,0-1.58447.74512-2.28662,1.53125-2.28662C95.75816,63.78779,96.32554,64.66084,96.32554,66.04707Zm-1.97754,0c0,.75635.10547,1.38672.48633,1.38672.33984,0,.42969-.73828.42969-1.38672,0-.603-.08985-1.36816-.44629-1.36816C94.42906,64.67891,94.348,65.444,94.348,66.04707Z"/>
      <path class="cls-11" d="M96.9232,65.18281c0-.48584-.02442-.90918-.03321-1.32324h.916l.04883.5044h.01562a1.1152,1.1152,0,0,1,.96485-.57618c.75293,0,1.05273.666,1.05273,1.64746v2.82666H98.82652V65.507c0-.37793-.08106-.729-.38867-.729-.17774,0-.32422.13476-.39649.396a1.24784,1.24784,0,0,0-.05664.40528v2.68261H96.9232Z"/>
      <path class="cls-11" d="M100.6732,64.64277a.6934.6934,0,0,1,.59961-.75634c.34082,0,.59961.29736.59961.75634,0,.43213-.23536.73829-.60743.73829A.65887.65887,0,0,1,100.6732,64.64277Zm0,2.94385a.6896.6896,0,0,1,.59961-.74707c.34082,0,.59961.29688.59961.74707,0,.44141-.23536.74756-.60743.74756C100.933,68.33418,100.6732,68.028,100.6732,67.58662Z"/>
      <path class="cls-11" d="M106.70152,65.30879c0,2.09766-.68946,3.02539-1.54,3.02539-1.15039,0-1.53906-1.46777-1.53906-2.97119,0-1.68359.48632-3.0249,1.58007-3.0249C106.41734,62.33809,106.70152,63.91377,106.70152,65.30879Zm-2.00977.02734c-.0166,1.36817.1377,1.98926.49414,1.98926.332,0,.44532-.64795.44532-1.98926,0-1.25146-.1045-1.98974-.44532-1.98974C104.85386,63.34639,104.68394,63.97676,104.69175,65.33613Z"/>
      <path class="cls-11" d="M107.27476,67.55049a.7206.7206,0,0,1,.624-.7832c.34082,0,.61621.29736.61621.7832,0,.47754-.25195.78369-.624.78369C107.55894,68.33418,107.27476,68.028,107.27476,67.55049Z"/>
      <path class="cls-11" d="M111.72984,63.43672h-1.39356l-.12109,1.04394h.16211a1.585,1.585,0,0,1,.98828.44141,1.8953,1.8953,0,0,1,.4541,1.34131,1.87606,1.87606,0,0,1-1.83105,2.0708,2.16506,2.16506,0,0,1-.98926-.23437l.16211-.936a1.61281,1.61281,0,0,0,.75391.207c.51855,0,.85839-.36914.85839-.99951,0-.7832-.53418-1.04443-1.14257-1.04443a2.30439,2.30439,0,0,0-.37207.01806l.291-2.93457h2.17969Z"/>
      <path class="cls-11" d="M115.1,63.29219a2.97992,2.97992,0,0,0-.4375.06347,1.744,1.744,0,0,0-1.17481,1.55713h.02441a.96617.96617,0,0,1,.81055-.46826c.71289,0,1.19141.71143,1.19141,1.81885,0,1.02637-.47071,2.0708-1.499,2.0708-.99707,0-1.60449-.96338-1.60449-2.41309a4.09386,4.09386,0,0,1,.86719-2.72753,2.33559,2.33559,0,0,1,1.28809-.79249,3.31341,3.31341,0,0,1,.53418-.063Zm-.63184,2.96191c-.00781-.49511-.15332-.96289-.49414-.96289-.16992,0-.332.126-.42969.396a1.49508,1.49508,0,0,0-.05664.51318c0,.76514.19434,1.27832.51074,1.27832C114.35484,67.47871,114.46812,66.95674,114.46812,66.2541Z"/>
      <path class="cls-11" d="M118.63121,63.43672h-1.39356l-.12109,1.04394h.16211a1.585,1.585,0,0,1,.98828.44141,1.8953,1.8953,0,0,1,.4541,1.34131,1.87606,1.87606,0,0,1-1.83106,2.0708,2.165,2.165,0,0,1-.98925-.23437l.16211-.936a1.61277,1.61277,0,0,0,.7539.207c.51856,0,.8584-.36914.8584-.99951,0-.7832-.53418-1.04443-1.14258-1.04443a2.30445,2.30445,0,0,0-.37207.01806l.292-2.93457h2.17872Z"/>
      <path class="cls-11" d="M119.724,67.35274a2.11665,2.11665,0,0,0,.48633-.04493,1.24514,1.24514,0,0,0,.61523-.35107,2.32627,2.32627,0,0,0,.51074-1.17969h-.02441a.93907.93907,0,0,1-.75293.36035c-.68066,0-1.24023-.67529-1.24023-1.74658,0-1.0083.55957-2.05273,1.57226-2.05273.98047,0,1.49024.99023,1.49024,2.40381a4.30955,4.30955,0,0,1-.86622,2.82666,2.18234,2.18234,0,0,1-1.29687.73828,3.04315,3.04315,0,0,1-.49414.02734Zm.63965-3.061c.00879.56738.1709,1.03516.49511,1.03516a.466.466,0,0,0,.4043-.30616,1.88344,1.88344,0,0,0,.04883-.62109c0-.77393-.19434-1.206-.47754-1.206C120.55894,63.19356,120.35581,63.58027,120.36363,64.2917Z"/>
      <path class="cls-11" d="M75.20738,72.98262c0-.44092-.01563-.918-.03223-1.32324H76.099l.05664.63916H76.18c.17871-.46827.49414-.71094.78614-.71094a.82136.82136,0,0,1,.22656.01758v1.17041a.8618.8618,0,0,0-.22656-.01807c-.22754,0-.52735.17139-.64844.63037a1.97789,1.97789,0,0,0-.04.44141v2.23242H75.20738Z"/>
      <path class="cls-11" d="M78.44761,74.279c.0166.68457.37305.93653.84278.93653a2.13817,2.13817,0,0,0,.7539-.144l.14551.84619a2.98526,2.98526,0,0,1-1.09375.19824c-1.07813,0-1.669-.79248-1.669-2.16992,0-1.47657.68848-2.3584,1.58789-2.3584.85059,0,1.34473.74707,1.34473,2.07959a3.4601,3.4601,0,0,1-.03223.61181Zm.94824-.82812c0-.56689-.12988-1.0083-.44629-1.0083-.34765,0-.48535.56738-.49414,1.0083Z"/>
      <path class="cls-11" d="M83.15464,75.98945a1.70142,1.70142,0,0,1-.67285.12647c-1.0039,0-1.66015-.77442-1.66015-2.21485,0-1.35937.7207-2.30468,1.81445-2.30468a1.41356,1.41356,0,0,1,.583.11718l-.1377.92725a1.01415,1.01415,0,0,0-.39648-.08105c-.51075,0-.81055.54-.81055,1.30517,0,.80127.2998,1.2876.79394,1.2876a.79689.79689,0,0,0,.39747-.09033Z"/>
      <path class="cls-11" d="M85.47105,76.06172l-.05664-.43213h-.0166a1.007,1.007,0,0,1-.875.5044c-.59961,0-1.04492-.5586-1.04492-1.3418A1.64364,1.64364,0,0,1,85.29234,73.154v-.09912a.53336.53336,0,0,0-.5586-.59423,1.37535,1.37535,0,0,0-.81054.25195l-.19434-.792a2.38132,2.38132,0,0,1,1.23145-.333c1.207,0,1.40136.936,1.40136,1.82715v1.63867a6.51667,6.51667,0,0,0,.06543,1.0083Zm-.14649-2.14258c-.35644.00879-.84277.13477-.84277.74707,0,.44141.21875.60352.38086.60352a.46944.46944,0,0,0,.4375-.37842.82714.82714,0,0,0,.02441-.207Z"/>
      <path class="cls-11" d="M87.1146,69.83174h1.06153v6.23H87.1146Z"/>
      <path class="cls-11" d="M88.93687,69.83174h1.06152v6.23H88.93687Z"/>
      <path class="cls-11" d="M90.80015,72.44258a.69341.69341,0,0,1,.59961-.75635c.34082,0,.59961.29736.59961.75635,0,.43213-.23535.73828-.60742.73828A.65887.65887,0,0,1,90.80015,72.44258Zm0,2.94385a.68959.68959,0,0,1,.59961-.74707c.34082,0,.59961.29687.59961.74707,0,.4414-.23535.74756-.60742.74756C91.05992,76.134,90.80015,75.82783,90.80015,75.38643Z"/>
      <path class="cls-11" d="M96.82749,73.10859c0,2.09766-.68945,3.0254-1.54,3.0254-1.1504,0-1.53907-1.46778-1.53907-2.9712,0-1.68359.48633-3.0249,1.58008-3.0249C96.54331,70.13789,96.82749,71.71357,96.82749,73.10859Zm-2.00976.02735c-.0166,1.36816.13769,1.98926.49414,1.98926.332,0,.44531-.648.44531-1.98926,0-1.25147-.10449-1.98975-.44531-1.98975C94.97984,71.14619,94.80992,71.77656,94.81773,73.13594Z"/>
      <path class="cls-11" d="M97.40074,75.35029a.72061.72061,0,0,1,.624-.7832c.34082,0,.61621.29736.61621.7832,0,.47754-.25195.7837-.624.7837C97.68492,76.134,97.40074,75.82783,97.40074,75.35029Z"/>
      <path class="cls-11" d="M100.35,71.31709h-.01563l-.8916.51318L99.264,70.903l1.208-.69287h.93164v5.85156H100.35Z"/>
      <path class="cls-11" d="M105.53453,70.21016v.77392l-1.65332,5.07764H102.8441l1.62011-4.79834v-.01807h-1.79785V70.21016Z"/>
      <path class="cls-11" d="M105.96226,74.54024a1.87061,1.87061,0,0,1,.79395-1.55762V72.965a1.59511,1.59511,0,0,1-.64844-1.2876,1.46108,1.46108,0,0,1,1.49121-1.53955,1.35461,1.35461,0,0,1,1.36133,1.44043,1.545,1.545,0,0,1-.68848,1.29639v.01806a1.73777,1.73777,0,0,1,.80957,1.53028,1.57254,1.57254,0,0,1-1.58008,1.71094A1.49449,1.49449,0,0,1,105.96226,74.54024Zm2.09082-.07178a1.21871,1.21871,0,0,0-.6084-1.08057,1.26264,1.26264,0,0,0-.45312,1.01758c0,.50391.18554.936.55078.936C107.87437,75.3415,108.05308,74.96357,108.05308,74.46846Zm-.94824-2.82715a.981.981,0,0,0,.51855.88232,1.00547,1.00547,0,0,0,.36426-.8374c0-.396-.12109-.75586-.42969-.75586C107.25035,70.93037,107.10484,71.28145,107.10484,71.64131Z"/>
    </g>
    <g>
      <line class="cls-12" x1="75.17704" y1="45.60017" x2="58.85749" y2="58.51307"/>
      <polygon points="58.81 56.19 59.342 58.13 61.108 59.094 56.517 60.365 58.81 56.19"/>
    </g>
    <g class="cls-4">
      <path d="M78.19273,40.33223v3.94336c0,.89111.24316,1.16113.51855,1.16113.30762,0,.52637-.24316.52637-1.16113V40.33223h1.06152v3.73633c0,1.55712-.52636,2.4038-1.58007,2.4038-1.14258,0-1.58789-.87353-1.58789-2.395V40.33223Z"/>
      <path d="M81.10777,43.39326c0-.53125-.01563-.98144-.03223-1.39551h.92383l.05664.5044h.0166a.8989.8989,0,0,1,.82617-.57617c.875,0,1.23145,1.04394,1.23145,2.26855,0,1.56641-.624,2.27783-1.28809,2.27783a.76383.76383,0,0,1-.65625-.43261h-.0166v2.08886H81.10777Zm1.06152,1.39551a.992.992,0,0,0,.05664.37793c.08106.27.21875.34229.34082.34229.37207,0,.502-.61231.502-1.30567,0-.83691-.17774-1.28711-.49415-1.28711-.1621,0-.31542.1709-.35644.37793a.8071.8071,0,0,0-.04883.31494Z"/>
      <path d="M84.73765,40.17012h1.06152v6.23H84.73765Z"/>
      <path d="M89.45249,44.18525c0,1.83692-.916,2.28711-1.51562,2.28711-.94824,0-1.51465-.82861-1.51465-2.25976,0-1.58447.74512-2.28662,1.53125-2.28662C88.88511,41.926,89.45249,42.799,89.45249,44.18525Zm-1.97753,0c0,.75635.10546,1.38672.48632,1.38672.33985,0,.42969-.73828.42969-1.38672,0-.603-.08984-1.36816-.44629-1.36816C87.556,42.81709,87.475,43.58223,87.475,44.18525Z"/>
      <path d="M91.82554,46.4001,91.7689,45.968h-.0166a1.007,1.007,0,0,1-.875.50439c-.59961,0-1.04492-.55859-1.04492-1.34179a1.64365,1.64365,0,0,1,1.81445-1.63819v-.09912a.53336.53336,0,0,0-.55859-.59424,1.37536,1.37536,0,0,0-.81055.252l-.19434-.792a2.38132,2.38132,0,0,1,1.23145-.333c1.207,0,1.40137.936,1.40137,1.82715V45.3918a6.51543,6.51543,0,0,0,.06543,1.0083Zm-.14648-2.14258c-.35645.00879-.84278.13477-.84278.74707,0,.44141.21875.60352.38086.60352a.46944.46944,0,0,0,.4375-.37842.82713.82713,0,0,0,.02442-.207Z"/>
      <path d="M96.34507,40.17012v4.9248c0,.42285.0166.8999.03223,1.30518h-.915l-.05664-.49512H95.389a.96054.96054,0,0,1-.82617.56738c-.84278,0-1.23145-1.03564-1.23145-2.269,0-1.53027.59961-2.27734,1.27149-2.27734a.6719.6719,0,0,1,.665.44092h.01563V40.17012Zm-1.06152,3.52c0-.08106,0-.1709-.00781-.26074-.041-.27051-.16993-.51319-.38086-.51319-.37305,0-.51074.603-.51074,1.31445,0,.83692.20312,1.27833.50292,1.27833.12891,0,.28321-.08106.36426-.38721a.82822.82822,0,0,0,.03223-.27Z"/>
      <path d="M97.972,44.61738c.0166.68457.373.93653.84277.93653a2.12757,2.12757,0,0,0,.75293-.144l.14648.8462a2.98522,2.98522,0,0,1-1.09375.19824c-1.07812,0-1.66894-.79248-1.66894-2.16992,0-1.47657.68847-2.3584,1.58789-2.3584.85058,0,1.34473.74707,1.34473,2.07959a3.4611,3.4611,0,0,1-.03223.61181Zm.94824-.82812c0-.5669-.12988-1.0083-.44629-1.0083-.34766,0-.48535.56738-.49414,1.0083Z"/>
      <path d="M103.35972,40.17012v4.9248c0,.42285.0166.8999.03223,1.30518h-.915l-.05664-.49512h-.0166a.96054.96054,0,0,1-.82618.56738c-.84277,0-1.23144-1.03564-1.23144-2.269,0-1.53027.59961-2.27734,1.27148-2.27734a.67191.67191,0,0,1,.665.44092h.01563V40.17012Zm-1.06152,3.52c0-.08106,0-.1709-.00781-.26074-.041-.27051-.16993-.51319-.38086-.51319-.37305,0-.51075.603-.51075,1.31445,0,.83692.20313,1.27833.50293,1.27833.12891,0,.28321-.08106.36426-.38721a.82822.82822,0,0,0,.03223-.27Z"/>
      <path d="M105.48863,40.42256a5.00431,5.00431,0,0,1,1.11035-.11719,1.92472,1.92472,0,0,1,1.48242.46826,1.85583,1.85583,0,0,1,.46973,1.332,2.1823,2.1823,0,0,1-.46094,1.4585,1.81428,1.81428,0,0,1-1.3291.57617h-.21094V46.4001h-1.06152Zm1.06152,2.75439a.498.498,0,0,0,.16992.01807c.53516,0,.77832-.42285.77832-.99023,0-.53125-.19433-.94532-.68847-.94532a.72256.72256,0,0,0-.25977.04493Z"/>
      <path d="M109.08433,43.321c0-.44092-.01562-.918-.03223-1.32325h.92383l.05664.63916h.02442c.17871-.46826.49414-.71093.78613-.71093a.82136.82136,0,0,1,.22656.01758V43.114a.86176.86176,0,0,0-.22656-.01807c-.22754,0-.52734.17139-.64844.63037a1.97849,1.97849,0,0,0-.04.44141V46.4001h-1.07031Z"/>
      <path d="M112.32554,44.61738c.0166.68457.373.93653.84277.93653a2.12747,2.12747,0,0,0,.75293-.144l.14649.8462a2.98526,2.98526,0,0,1-1.09375.19824c-1.07813,0-1.66895-.79248-1.66895-2.16992,0-1.47657.68848-2.3584,1.58789-2.3584.85059,0,1.34473.74707,1.34473,2.07959a3.4601,3.4601,0,0,1-.03223.61181Zm.94824-.82812c0-.5669-.12988-1.0083-.44629-1.0083-.34765,0-.48535.56738-.49414,1.0083Z"/>
      <path d="M117.71226,40.17012v4.9248c0,.42285.0166.8999.03223,1.30518h-.915l-.05664-.49512h-.0166a.96054.96054,0,0,1-.82618.56738c-.84277,0-1.23144-1.03564-1.23144-2.269,0-1.53027.59961-2.27734,1.27148-2.27734a.67191.67191,0,0,1,.665.44092h.01563V40.17012Zm-1.06152,3.52c0-.08106,0-.1709-.00782-.26074-.041-.27051-.16992-.51319-.38086-.51319-.373,0-.51074.603-.51074,1.31445,0,.83692.20313,1.27833.50293,1.27833.12891,0,.28321-.08106.36426-.38721a.8285.8285,0,0,0,.03223-.27Z"/>
      <path d="M119.5189,40.82734a.55021.55021,0,1,1-.543-.63916A.567.567,0,0,1,119.5189,40.82734Zm-1.06152,5.57276V41.99775h1.06152V46.4001Z"/>
      <path d="M122.45835,46.32783a1.70138,1.70138,0,0,1-.67285.12647c-1.0039,0-1.66015-.77442-1.66015-2.21485,0-1.35937.7207-2.30468,1.81445-2.30468a1.41336,1.41336,0,0,1,.583.11718l-.1377.92725a1.01415,1.01415,0,0,0-.39648-.081c-.51074,0-.81055.54-.81055,1.30517,0,.80127.29981,1.2876.794,1.2876a.797.797,0,0,0,.39746-.09033Z"/>
      <path d="M124.28062,40.80928v1.18847h.77832v.83741h-.77832v2.00732c0,.51318.19531.63916.40527.63916a1.30454,1.30454,0,0,0,.27539-.02685l.00879.91845a2.27381,2.27381,0,0,1-.64843.08106,1.00427,1.00427,0,0,1-.76172-.2793,1.69953,1.69953,0,0,1-.34082-1.26025V42.83516h-.46973v-.83741h.46973v-.90918Z"/>
      <path d="M126.38706,44.61738c.01661.68457.373.93653.84278.93653a2.13793,2.13793,0,0,0,.7539-.144l.14551.8462a2.98522,2.98522,0,0,1-1.09375.19824c-1.07812,0-1.66894-.79248-1.66894-2.16992,0-1.47657.68847-2.3584,1.58789-2.3584.85058,0,1.34472.74707,1.34472,2.07959a3.4614,3.4614,0,0,1-.03222.61181Zm.94825-.82812c0-.5669-.12989-1.0083-.44629-1.0083-.34766,0-.48535.56738-.49414,1.0083Z"/>
      <path d="M131.77378,40.17012v4.9248c0,.42285.01661.8999.03223,1.30518h-.915l-.05664-.49512h-.0166a.96054.96054,0,0,1-.82617.56738c-.84278,0-1.23145-1.03564-1.23145-2.269,0-1.53027.59961-2.27734,1.27149-2.27734a.67193.67193,0,0,1,.665.44092h.01562V40.17012Zm-1.06152,3.52c0-.08106,0-.1709-.00781-.26074-.041-.27051-.16992-.51319-.38086-.51319-.37305,0-.51074.603-.51074,1.31445,0,.83692.20312,1.27833.50293,1.27833.1289,0,.2832-.08106.36425-.38721a.82822.82822,0,0,0,.03223-.27Z"/>
      <path d="M133.90269,46.4001V40.33223h.97266l.84277,2.377c.16211.46777.42871,1.251.583,1.77344h.0166c-.0332-.63916-.10547-1.69238-.10547-2.80908V40.33223h.93164V46.4001h-.97266l-.834-2.30469a18.52653,18.52653,0,0,1-.55078-1.82764h-.0166c.02441.61231.06445,1.54834.06445,2.76416V46.4001Z"/>
      <path d="M138.82847,44.61738c.0166.68457.373.93653.84277.93653a2.13794,2.13794,0,0,0,.75391-.144l.14551.8462a2.98526,2.98526,0,0,1-1.09375.19824c-1.07813,0-1.66895-.79248-1.66895-2.16992,0-1.47657.68848-2.3584,1.58789-2.3584.85059,0,1.34473.74707,1.34473,2.07959a3.4601,3.4601,0,0,1-.03223.61181Zm.94824-.82812c0-.5669-.12988-1.0083-.44629-1.0083-.34765,0-.48535.56738-.49414,1.0083Z"/>
      <path d="M142.58628,40.80928v1.18847h.77832v.83741h-.77832v2.00732c0,.51318.19434.63916.40528.63916a1.3046,1.3046,0,0,0,.27539-.02685l.00879.91845a2.27394,2.27394,0,0,1-.64844.08106,1.00427,1.00427,0,0,1-.76172-.2793,1.69953,1.69953,0,0,1-.34082-1.26025V42.83516H141.055v-.83741h.46973v-.90918Z"/>
      <path d="M144.68394,41.99775l.21094,1.89942c.05664.47754.10547.91846.13769,1.33252h.02442c.06445-.41406.1455-.90039.21875-1.31445l.34765-1.91749h.81836l.34082,1.87256c.08106.49512.1543.92725.20215,1.35938h.02442c.02441-.41406.07324-.873.13769-1.3501l.24316-1.88184h1.04493l-1.02051,4.40235H146.515l-.2998-1.53955a13.91479,13.91479,0,0,1-.20215-1.37744h-.0166a11.84233,11.84233,0,0,1-.22656,1.38671l-.34082,1.53028h-.90723l-.97266-4.40235Z"/>
      <path d="M151.65074,44.18525c0,1.83692-.916,2.28711-1.51563,2.28711-.94824,0-1.51465-.82861-1.51465-2.25976,0-1.58447.74512-2.28662,1.53125-2.28662C151.08335,41.926,151.65074,42.799,151.65074,44.18525Zm-1.97754,0c0,.75635.10547,1.38672.48633,1.38672.33984,0,.42968-.73828.42968-1.38672,0-.603-.08984-1.36816-.44629-1.36816C149.75425,42.81709,149.6732,43.58223,149.6732,44.18525Z"/>
      <path d="M152.24058,43.321c0-.44092-.01562-.918-.03223-1.32325h.92383l.05664.63916h.02442c.17871-.46826.49414-.71093.78613-.71093a.82136.82136,0,0,1,.22656.01758V43.114a.86176.86176,0,0,0-.22656-.01807c-.22754,0-.52734.17139-.64844.63037a1.97849,1.97849,0,0,0-.04.44141V46.4001h-1.07031Z"/>
      <path d="M155.68394,43.92451h.0166a6.33932,6.33932,0,0,1,.20215-.6123l.51074-1.31446H157.556l-.956,1.84571,1.01269,2.55664H156.43l-.56738-1.80957-.17871.37793V46.4001h-1.06152v-6.23h1.06152Z"/>
    </g>
    <g>
      <line class="cls-12" x1="77.90815" y1="130.47089" x2="65.20967" y2="113.02363"/>
      <polygon points="67.533 113.069 65.573 113.523 64.539 115.249 63.453 110.61 67.533 113.069"/>
    </g>
    <g>
      <line class="cls-12" x1="77.90818" y1="130.4709" x2="58.11357" y2="123.00849"/>
      <polygon points="60.081 121.771 58.692 123.226 58.774 125.236 55.321 121.956 60.081 121.771"/>
    </g>
    <g class="cls-4">
      <path d="M80.08726,127.46748a5.71348,5.71348,0,0,1,1.15918-.11719,1.95975,1.95975,0,0,1,1.458.4502,1.8978,1.8978,0,0,1-.41309,2.78174v.01806c.37305.16211.5586.54883.66406,1.19727a10.75568,10.75568,0,0,0,.34864,1.64746H82.19371a9.28108,9.28108,0,0,1-.26661-1.44922c-.09765-.75635-.26757-.97265-.624-.97265h-.1543V133.445H80.08726Zm1.06152,2.64649h.18653c.46191,0,.72949-.41407.72949-.94532,0-.51318-.18652-.88232-.665-.90039a.68858.68858,0,0,0-.251.03614Z"/>
      <path d="M85.57164,133.445l-.05665-.43213h-.0166a1.007,1.007,0,0,1-.875.5044c-.59961,0-1.04492-.5586-1.04492-1.3418a1.64364,1.64364,0,0,1,1.81445-1.63818v-.09913a.53335.53335,0,0,0-.55859-.59423,1.37538,1.37538,0,0,0-.81055.25195l-.19433-.792a2.38128,2.38128,0,0,1,1.23144-.333c1.207,0,1.40137.936,1.40137,1.82715v1.63867a6.51534,6.51534,0,0,0,.06543,1.0083Zm-.14649-2.14258c-.35644.00879-.84277.13477-.84277.74707,0,.44141.21875.60352.38086.60352a.46945.46945,0,0,0,.4375-.37842.82714.82714,0,0,0,.02441-.207Z"/>
      <path d="M87.21519,130.36592c0-.48584-.02441-.90918-.0332-1.32324h.916l.04883.50439h.01563a1.11518,1.11518,0,0,1,.96484-.57617c.75293,0,1.05273.666,1.05273,1.64746V133.445H89.11851v-2.75488c0-.37793-.08105-.729-.38867-.729-.17774,0-.32422.13477-.39649.396a1.24777,1.24777,0,0,0-.05664.40527V133.445H87.21519Z"/>
      <path d="M93.80113,127.215v4.9248c0,.42286.0166.89991.03222,1.30518h-.915l-.05664-.49512h-.0166a.96052.96052,0,0,1-.82617.56739c-.84277,0-1.23144-1.03565-1.23144-2.269,0-1.53027.5996-2.27734,1.27148-2.27734a.67193.67193,0,0,1,.665.44092h.01562V127.215Zm-1.06153,3.52c0-.08106,0-.1709-.00781-.26074-.041-.27051-.16992-.51319-.38086-.51319-.373,0-.51074.603-.51074,1.31446,0,.83691.20312,1.27832.50293,1.27832.12891,0,.2832-.08106.36426-.38721a.82853.82853,0,0,0,.03222-.27Z"/>
      <path d="M97.43882,131.23018c0,1.83691-.916,2.28711-1.51562,2.28711-.94824,0-1.51465-.82862-1.51465-2.25977,0-1.58447.74512-2.28662,1.53125-2.28662C96.87144,128.9709,97.43882,129.844,97.43882,131.23018Zm-1.97754,0c0,.75634.10547,1.38672.48633,1.38672.33985,0,.42969-.73829.42969-1.38672,0-.603-.08984-1.36817-.44629-1.36817C95.54234,129.862,95.46128,130.62715,95.46128,131.23018Z"/>
      <path d="M98.03746,130.36592c0-.48584-.02442-.90918-.03321-1.32324h.92383l.04883.51318h.0166a1.12209,1.12209,0,0,1,.94727-.585.85847.85847,0,0,1,.86718.59375h.0166a1.407,1.407,0,0,1,.39649-.44092,1.07352,1.07352,0,0,1,.55957-.15283c.70508,0,1.02051.62109,1.02051,1.6831v2.791h-1.05274v-2.59277c0-.50391-.04883-.90918-.373-.90918-.18653,0-.32422.144-.39746.40527a1.46746,1.46746,0,0,0-.03223.30566v2.791H99.89292v-2.76367c0-.31543-.0332-.73828-.36523-.73828-.16211,0-.32422.13476-.39648.396a1.257,1.257,0,0,0-.041.333v2.773H98.03746Z"/>
      <path d="M104.60679,127.87227a.55021.55021,0,1,1-.543-.63916A.567.567,0,0,1,104.60679,127.87227Zm-1.06152,5.57275v-4.40234h1.06152V133.445Z"/>
      <path d="M105.12339,132.70674l.97266-1.9624c.12988-.25244.2998-.54053.373-.71143v-.02685h-1.22364v-.96338h2.38184v.80127l-.94824,1.89062c-.1377.26123-.291.54-.38086.72022v.02685h1.36133v.96338h-2.53614Z"/>
      <path d="M109.02085,131.66231c.01661.68457.37305.93652.84278.93652a2.13817,2.13817,0,0,0,.7539-.144l.14551.84619a2.98526,2.98526,0,0,1-1.09375.19824c-1.07812,0-1.66894-.79248-1.66894-2.16992,0-1.47656.68847-2.3584,1.58789-2.3584.85058,0,1.34472.74707,1.34472,2.07959a3.46161,3.46161,0,0,1-.03222.61182Zm.94825-.82813c0-.56689-.12989-1.0083-.44629-1.0083-.34766,0-.48535.56738-.49414,1.0083Z"/>
      <path d="M114.40757,127.215v4.9248c0,.42286.0166.89991.03223,1.30518h-.915l-.05664-.49512h-.0166a.96053.96053,0,0,1-.82617.56739c-.84278,0-1.23145-1.03565-1.23145-2.269,0-1.53027.59961-2.27734,1.27149-2.27734a.6719.6719,0,0,1,.665.44092h.01563V127.215Zm-1.06152,3.52c0-.08106,0-.1709-.00781-.26074-.041-.27051-.16993-.51319-.38086-.51319-.37305,0-.51074.603-.51074,1.31446,0,.83691.20312,1.27832.50292,1.27832.12891,0,.28321-.08106.36426-.38721a.82822.82822,0,0,0,.03223-.27Z"/>
      <path d="M116.4398,130.36592c0-.48584-.02441-.90918-.0332-1.32324h.916l.04883.50439h.01562a1.11521,1.11521,0,0,1,.96485-.57617c.75293,0,1.05273.666,1.05273,1.64746V133.445h-1.06152v-2.75488c0-.37793-.08106-.729-.38867-.729-.17774,0-.32422.13477-.39649.396a1.24777,1.24777,0,0,0-.05664.40527V133.445H116.4398Z"/>
      <path d="M121.03257,131.66231c.0166.68457.373.93652.84278.93652a2.13817,2.13817,0,0,0,.7539-.144l.14551.84619a2.98526,2.98526,0,0,1-1.09375.19824c-1.07812,0-1.66895-.79248-1.66895-2.16992,0-1.47656.68848-2.3584,1.5879-2.3584.85058,0,1.34472.74707,1.34472,2.07959a3.46161,3.46161,0,0,1-.03222.61182Zm.94824-.82813c0-.56689-.12988-1.0083-.44628-1.0083-.34766,0-.48536.56738-.49414,1.0083Z"/>
      <path d="M124.79039,127.8542v1.18848h.77832v.8374h-.77832v2.00732c0,.51319.19433.63916.40527.63916a1.3046,1.3046,0,0,0,.27539-.02685l.00879.91845a2.27358,2.27358,0,0,1-.64844.08106,1.00429,1.00429,0,0,1-.76172-.2793,1.69951,1.69951,0,0,1-.34082-1.26025v-2.07959h-.46972v-.8374h.46972v-.90918Z"/>
      <path d="M126.889,129.04268l.21094,1.89941c.05664.47754.10546.91846.13769,1.33252h.02441c.06446-.41406.14551-.90039.21875-1.31445l.34766-1.91748h.81836l.34082,1.87256c.08106.49511.1543.92724.20215,1.35937h.02441c.02442-.41406.07325-.87305.1377-1.3501l.24316-1.88183h1.0459l-1.02148,4.40234h-.89942l-.2998-1.53955a13.91183,13.91183,0,0,1-.20215-1.37744h-.0166a11.84287,11.84287,0,0,1-.22656,1.38672l-.34082,1.53027h-.90723l-.97266-4.40234Z"/>
      <path d="M133.85581,131.23018c0,1.83691-.916,2.28711-1.51562,2.28711-.94824,0-1.51465-.82862-1.51465-2.25977,0-1.58447.74512-2.28662,1.53125-2.28662C133.28843,128.9709,133.85581,129.844,133.85581,131.23018Zm-1.97753,0c0,.75634.10546,1.38672.48632,1.38672.33985,0,.42969-.73829.42969-1.38672,0-.603-.08984-1.36817-.44629-1.36817C131.95933,129.862,131.87828,130.62715,131.87828,131.23018Z"/>
      <path d="M134.44566,130.36592c0-.44092-.01563-.918-.03223-1.32324h.92383l.05664.63916h.02441c.17872-.46827.49415-.71094.78614-.71094a.82136.82136,0,0,1,.22656.01758v1.17041a.8618.8618,0,0,0-.22656-.01807c-.22754,0-.52735.17139-.64844.63037a1.97856,1.97856,0,0,0-.04.44141V133.445h-1.07031Z"/>
      <path d="M137.888,130.96943h.0166a6.34578,6.34578,0,0,1,.20215-.6123l.51074-1.31445h1.14258l-.95605,1.8457,1.01269,2.55664h-1.18261l-.56739-1.80957-.17871.37793V133.445h-1.06152v-6.23H137.888Z"/>
      <path d="M140.14781,132.38252a1.3792,1.3792,0,0,0,.71386.23438c.27539,0,.42872-.13526.42872-.39649,0-.22461-.11329-.36865-.46192-.59375a1.44035,1.44035,0,0,1-.80176-1.26953,1.28741,1.28741,0,0,1,1.30469-1.38623,1.71291,1.71291,0,0,1,.80176.19775l-.18652.86426a1.01854,1.01854,0,0,0-.55079-.18017.36545.36545,0,0,0-.39648.37841c0,.19776.08887.30616.46191.54883a1.51368,1.51368,0,0,1,.80176,1.33252,1.29346,1.29346,0,0,1-1.40137,1.38672,1.60976,1.60976,0,0,1-.9082-.25244Z"/>
    </g>
    <g>
      <line class="cls-12" x1="129.36225" y1="90.30838" x2="109.56763" y2="82.84597"/>
      <polygon points="111.535 81.609 110.146 83.064 110.228 85.074 106.775 81.793 111.535 81.609"/>
    </g>
    <g class="cls-4">
      <path d="M132.63609,91.04463l-.24317,1.38623h-1.02929l1.18359-6.06787h1.27149l1.06152,6.06787h-1.02832l-.23535-1.38623Zm.88281-.91846-.17773-1.26953c-.05664-.36914-.12989-.97217-.17871-1.37744H133.138c-.05664.40527-.13769,1.03564-.19433,1.38672l-.20215,1.26025Z"/>
      <path d="M138.20933,86.20088v4.9248c0,.42286.0166.89991.03223,1.30518h-.915l-.05664-.49512h-.0166a.96053.96053,0,0,1-.82618.56739c-.84277,0-1.23144-1.03565-1.23144-2.269,0-1.53027.59961-2.27734,1.27148-2.27734a.67191.67191,0,0,1,.665.44092h.01563V86.20088Zm-1.06152,3.52c0-.08106,0-.1709-.00782-.26074-.041-.27051-.16992-.51319-.38085-.51319-.37305,0-.51075.603-.51075,1.31446,0,.83691.20313,1.27832.50293,1.27832.12891,0,.28321-.08106.36426-.38721a.8285.8285,0,0,0,.03223-.27Z"/>
      <path d="M138.265,93.29512a.76361.76361,0,0,0,.51856-.23389c.1543-.18017.17871-.49512.17871-1.17041v-3.8623h1.06934v4.0874c0,.981-.18653,1.44043-.52637,1.7373a1.84807,1.84807,0,0,1-1.15918.37842Zm1.77442-6.437a.58274.58274,0,0,1-.5586.63916.6464.6464,0,1,1,.5586-.63916Z"/>
      <path d="M143.66831,91.08955c0,.46826.01661.92725.03223,1.34131h-.915l-.05664-.46826h-.0166a1.095,1.095,0,0,1-.916.54053c-.75293,0-1.06152-.62159-1.06152-1.80957v-2.665H141.805v2.53857c0,.57617.09668.94531.39649.94531a.38751.38751,0,0,0,.34082-.29687.9769.9769,0,0,0,.06445-.37793V88.02852h1.06152Z"/>
      <path d="M144.39683,91.36836a1.37923,1.37923,0,0,0,.71387.23438c.27539,0,.42871-.13526.42871-.39649,0-.22461-.11328-.36865-.46192-.59375a1.44033,1.44033,0,0,1-.80175-1.26953,1.2874,1.2874,0,0,1,1.30468-1.38623,1.71288,1.71288,0,0,1,.80176.19775l-.18652.86426a1.01851,1.01851,0,0,0-.55078-.18018.36546.36546,0,0,0-.39649.37842c0,.19776.08887.30616.46192.54883a1.51369,1.51369,0,0,1,.80175,1.33252,1.29345,1.29345,0,0,1-1.40136,1.38672,1.6098,1.6098,0,0,1-.90821-.25244Z"/>
      <path d="M148.30113,86.84v1.18848h.77832v.8374h-.77832v2.00732c0,.51319.19531.63916.40527.63916a1.3046,1.3046,0,0,0,.27539-.02685l.00879.91845a2.27347,2.27347,0,0,1-.64844.08106,1.0043,1.0043,0,0,1-.76172-.2793,1.69951,1.69951,0,0,1-.34082-1.26025V88.86592h-.46972v-.8374h.46972v-.90918Z"/>
      <path d="M151.347,92.43086l-.05664-.43213h-.01661a1.007,1.007,0,0,1-.875.5044c-.59961,0-1.04492-.5586-1.04492-1.3418a1.64364,1.64364,0,0,1,1.81445-1.63818V89.424a.53335.53335,0,0,0-.55859-.59423,1.37538,1.37538,0,0,0-.81055.25195l-.19433-.792a2.38128,2.38128,0,0,1,1.23144-.333c1.207,0,1.40137.936,1.40137,1.82715v1.63867a6.51534,6.51534,0,0,0,.06543,1.0083Zm-.14649-2.14258c-.35644.00879-.84277.13477-.84277.74707,0,.44141.21875.60352.38086.60352a.46945.46945,0,0,0,.4375-.37842.82714.82714,0,0,0,.02441-.207Z"/>
      <path d="M152.94956,92.43086c.01661-.38721.03223-.88232.03223-1.30518v-4.9248h1.06152v2.269h.01661a.92929.92929,0,0,1,.82617-.51318c.76953,0,1.11816.96289,1.11816,2.15137,0,1.53955-.55078,2.395-1.28808,2.395-.332,0-.56739-.15332-.77832-.59424h-.02344l-.05762.522Zm1.09375-1.57568a.85928.85928,0,0,0,.041.27929c.08887.31494.23438.40528.36426.40528.35644,0,.50293-.49512.50293-1.34131,0-.75635-.1543-1.25147-.51074-1.25147-.16211,0-.29981.189-.35645.40479a.98492.98492,0,0,0-.041.27051Z"/>
      <path d="M156.61167,86.20088h1.06153v6.23h-1.06153Z"/>
      <path d="M159.31675,90.64815c.0166.68457.373.93652.84278.93652a2.12781,2.12781,0,0,0,.75293-.144l.14648.84619a2.98526,2.98526,0,0,1-1.09375.19824c-1.07813,0-1.66895-.79248-1.66895-2.16992,0-1.47657.68848-2.3584,1.5879-2.3584.85058,0,1.34472.74707,1.34472,2.07959a3.46161,3.46161,0,0,1-.03222.61182ZM160.265,89.82c0-.56689-.12988-1.0083-.44628-1.0083-.34766,0-.48536.56738-.49415,1.0083Z"/>
      <path d="M165.31089,92.35859a1.70142,1.70142,0,0,1-.67285.12647c-1.0039,0-1.66015-.77441-1.66015-2.21484,0-1.35938.7207-2.30469,1.81445-2.30469a1.41337,1.41337,0,0,1,.583.11719l-.1377.92724a1.01415,1.01415,0,0,0-.39648-.08105c-.51075,0-.81055.54-.81055,1.30517,0,.80127.2998,1.2876.79394,1.2876a.79689.79689,0,0,0,.39747-.09033Z"/>
      <path d="M168.70542,91.08955c0,.46826.01661.92725.03223,1.34131h-.915l-.05664-.46826h-.0166a1.095,1.095,0,0,1-.916.54053c-.75293,0-1.06152-.62159-1.06152-1.80957v-2.665h1.07031v2.53857c0,.57617.09668.94531.39649.94531a.38751.38751,0,0,0,.34082-.29687.9769.9769,0,0,0,.06445-.37793V88.02852h1.06152Z"/>
      <path d="M170.71324,86.84v1.18848h.77832v.8374h-.77832v2.00732c0,.51319.19531.63916.40527.63916a1.3046,1.3046,0,0,0,.27539-.02685l.00879.91845a2.27347,2.27347,0,0,1-.64844.08106,1.0043,1.0043,0,0,1-.76172-.2793,1.69951,1.69951,0,0,1-.34082-1.26025V88.86592H169.182v-.8374h.46972v-.90918Z"/>
      <path d="M174.82945,90.216c0,1.83691-.916,2.28711-1.51563,2.28711-.94824,0-1.51465-.82862-1.51465-2.25977,0-1.58447.74512-2.28662,1.53125-2.28662C174.26206,87.95674,174.82945,88.82979,174.82945,90.216Zm-1.97754,0c0,.75634.10547,1.38672.48633,1.38672.33984,0,.42968-.73829.42968-1.38672,0-.603-.08984-1.36817-.44628-1.36817C172.933,88.84785,172.85191,89.613,172.85191,90.216Z"/>
      <path d="M177.598,92.43086V88.86592h-.92383v3.56494h-1.06152V88.86592h-.53418v-.8374h.53418v-.15284a1.9492,1.9492,0,0,1,.38086-1.26074,1.29309,1.29309,0,0,1,1.0293-.41406,1.47892,1.47892,0,0,1,.46191.08105l-.17773.90039a.74933.74933,0,0,0-.252-.05419c-.291,0-.38086.30615-.38086.72949v.1709h.92383v-.18018a1.8746,1.8746,0,0,1,.41309-1.31445,1.20564,1.20564,0,0,1,.94824-.40479,1.86311,1.86311,0,0,1,.63184.09912l-.11328.918a.896.896,0,0,0-.332-.05371c-.34863,0-.48632.3418-.48632.729v.207h.68847v.8374h-.68847v3.56494Z"/>
      <path d="M130.6107,97.22383c0-.53125-.01563-.98145-.03223-1.39551h.92383l.05664.5044h.0166a.89889.89889,0,0,1,.82617-.57618c.875,0,1.23145,1.04395,1.23145,2.26856,0,1.5664-.624,2.27783-1.28809,2.27783a.76384.76384,0,0,1-.65625-.43262h-.0166v2.08887H130.6107Zm1.06152,1.39551a.99207.99207,0,0,0,.05664.37793c.08106.27.21875.34228.34082.34228.37207,0,.502-.6123.502-1.30566,0-.83692-.17774-1.28711-.49415-1.28711-.1621,0-.31543.1709-.35644.37793a.80707.80707,0,0,0-.04883.31494Z"/>
      <path d="M134.23179,97.15156c0-.44091-.01562-.918-.03223-1.32324h.92383l.05664.63916h.02442c.17871-.46826.49414-.71094.78613-.71094a.82136.82136,0,0,1,.22656.01758v1.17041a.86222.86222,0,0,0-.22656-.01806c-.22754,0-.52734.17138-.64844.63037a1.97845,1.97845,0,0,0-.04.4414v2.23242h-1.07031Z"/>
      <path d="M139.52183,98.88936c0,.46826.0166.92724.03223,1.3413h-.915l-.05664-.46826h-.0166a1.095,1.095,0,0,1-.916.54053c-.75293,0-1.06152-.62158-1.06152-1.80957v-2.665h1.07031V98.3669c0,.57617.09668.94531.39648.94531a.3875.3875,0,0,0,.34082-.29688.97681.97681,0,0,0,.06446-.37793V95.82832h1.06152Z"/>
      <path d="M140.28257,97.15156c0-.48584-.02441-.90918-.0332-1.32324h.916l.04882.5044h.01563a1.11519,1.11519,0,0,1,.96484-.57618c.75293,0,1.05274.666,1.05274,1.64746v2.82666h-1.06153V97.47578c0-.37793-.08105-.729-.38867-.729-.17773,0-.32422.13476-.39648.396a1.24757,1.24757,0,0,0-.05664.40528v2.68261h-1.06153Z"/>
      <path d="M145.05406,94.65791a.55021.55021,0,1,1-.543-.63916A.567.567,0,0,1,145.05406,94.65791Zm-1.06153,5.57275V95.82832h1.06153v4.40234Z"/>
      <path d="M145.7982,97.15156c0-.48584-.02442-.90918-.03321-1.32324h.916l.04883.5044h.01562a1.1152,1.1152,0,0,1,.96485-.57618c.75293,0,1.05273.666,1.05273,1.64746v2.82666h-1.06152V97.47578c0-.37793-.08106-.729-.38867-.729-.17774,0-.32422.13476-.39649.396a1.24784,1.24784,0,0,0-.05664.40528v2.68261H145.7982Z"/>
      <path d="M152.433,95.82832c-.0166.396-.041.86426-.041,1.39551v2.51172a2.49243,2.49243,0,0,1-.47754,1.80957,1.68466,1.68466,0,0,1-1.28809.48633,2.31022,2.31022,0,0,1-.98926-.20752l.19532-.90918a1.69756,1.69756,0,0,0,.76074.189c.53516,0,.74609-.396.74609-1.07129v-.27h-.0166a.78646.78646,0,0,1-.71289.44141c-.8916,0-1.23926-1.08057-1.23926-2.13379,0-1.46728.59961-2.31348,1.33692-2.31348a.79034.79034,0,0,1,.72851.51319h.0166l.05665-.44141Zm-1.09375,1.60254a1.29186,1.29186,0,0,0-.041-.32422c-.04883-.189-.16211-.35986-.33985-.35986-.38086,0-.53515.57617-.53515,1.29638,0,.81934.21094,1.2334.51074,1.2334.1377,0,.27539-.08105.35645-.31543a1.22035,1.22035,0,0,0,.04882-.35107Z"/>
      <path d="M154.41636,97.15156c0-.48584-.02441-.90918-.0332-1.32324h.916l.04883.5044h.01563a1.11518,1.11518,0,0,1,.96484-.57618c.75293,0,1.05274.666,1.05274,1.64746v2.82666h-1.06153V97.47578c0-.37793-.08105-.729-.38867-.729-.17773,0-.32422.13476-.39648.396a1.24757,1.24757,0,0,0-.05664.40528v2.68261h-1.06153Z"/>
      <path d="M159.00914,98.448c.0166.68457.373.93652.84277.93652a2.138,2.138,0,0,0,.7539-.144l.14551.84619a2.985,2.985,0,0,1-1.09375.19824c-1.07812,0-1.66894-.79248-1.66894-2.16992,0-1.47656.68847-2.3584,1.58789-2.3584.85058,0,1.34472.74707,1.34472,2.07959a3.46161,3.46161,0,0,1-.03222.61182Zm.94824-.82813c0-.56689-.12989-1.0083-.44629-1.0083-.34766,0-.48535.56739-.49414,1.0083Z"/>
      <path d="M162.767,94.63984v1.18848h.77832v.8374H162.767v2.00733c0,.51318.19433.63916.40527.63916a1.30392,1.30392,0,0,0,.27539-.02686l.00879.91846a2.2739,2.2739,0,0,1-.64844.081,1.00429,1.00429,0,0,1-.76172-.27929,1.69956,1.69956,0,0,1-.34082-1.26026V96.66572h-.46972v-.8374h.46972v-.90918Z"/>
      <path d="M164.86558,95.82832l.21094,1.89942c.05664.47753.10547.91845.13769,1.33251h.02442c.06445-.41406.14551-.90039.21875-1.31445l.34765-1.91748h.81836l.34082,1.87256c.08106.49512.1543.92725.20215,1.35937h.02442c.02441-.41406.07324-.873.13769-1.35009l.24317-1.88184h1.04589l-1.02148,4.40234h-.89941l-.29981-1.53955a13.91391,13.91391,0,0,1-.20215-1.37744h-.0166a11.84007,11.84007,0,0,1-.22656,1.38672l-.34082,1.53027h-.90723l-.97266-4.40234Z"/>
      <path d="M171.83238,98.01582c0,1.83692-.916,2.28711-1.51563,2.28711-.94824,0-1.51465-.82861-1.51465-2.25977,0-1.58447.74512-2.28662,1.53125-2.28662C171.265,95.75654,171.83238,96.62959,171.83238,98.01582Zm-1.97754,0c0,.75635.10547,1.38672.48633,1.38672.33984,0,.42968-.73828.42968-1.38672,0-.603-.08984-1.36816-.44629-1.36816C169.93589,96.64766,169.85484,97.41279,169.85484,98.01582Z"/>
      <path d="M172.42222,97.15156c0-.44091-.01562-.918-.03223-1.32324h.92383l.05664.63916h.02442c.17871-.46826.49414-.71094.78613-.71094a.82136.82136,0,0,1,.22656.01758v1.17041a.86222.86222,0,0,0-.22656-.01806c-.22754,0-.52734.17138-.64844.63037a1.97845,1.97845,0,0,0-.04.4414v2.23242h-1.07031Z"/>
      <path d="M175.8646,97.75508h.01661a6.34353,6.34353,0,0,1,.20214-.61231l.51075-1.31445h1.14257l-.95605,1.8457,1.01269,2.55664H176.6107l-.56739-1.80957-.17871.37793v1.43164h-1.06152v-6.23h1.06152Z"/>
      <path d="M178.12437,99.16816a1.37923,1.37923,0,0,0,.71387.23438c.27539,0,.42871-.13525.42871-.39648,0-.22461-.11328-.36866-.46192-.59375a1.44035,1.44035,0,0,1-.80175-1.26954,1.2874,1.2874,0,0,1,1.30468-1.38623,1.71291,1.71291,0,0,1,.80176.19776l-.18652.86426a1.01843,1.01843,0,0,0-.55078-.18018.36546.36546,0,0,0-.39649.37842c0,.19775.08887.30615.46192.54883a1.51369,1.51369,0,0,1,.80175,1.33252,1.29344,1.29344,0,0,1-1.40136,1.38671,1.6098,1.6098,0,0,1-.90821-.25244Z"/>
    </g>
  </g>
</svg>
