<svg id="Layer_1" data-name="Layer 1" xmlns="http://www.w3.org/2000/svg" viewBox="0 0 198.4252 198.4252">
  <defs>
    <style>
      .cls-1, .cls-3 {
        fill: none;
      }

      .cls-1, .cls-2, .cls-3, .cls-4 {
        stroke: #000;
        stroke-miterlimit: 10;
      }

      .cls-2 {
        fill: #d47083;
      }

      .cls-2, .cls-3, .cls-4 {
        stroke-width: 0.5px;
      }

      .cls-4 {
        fill: #99a1de;
      }
    </style>
  </defs>
  <title>SimpleGraphics</title>
  <g>
    <path d="M21.562,12.81253a5.15577,5.15577,0,0,0,2.43359.67236c1.00879,0,1.542-.46387,1.542-1.16846,0-.67236-.46093-1.05615-1.62793-1.5205-1.61328-.62452-2.665-1.6167-2.665-3.18555,0-1.84033,1.38281-3.249,3.67285-3.249a5.44472,5.44472,0,0,1,2.47754.54394l-.48926,1.96924a4.238,4.238,0,0,0-2.03125-.5127c-.9502,0-1.41113.48047-1.41113,1.04053,0,.68848.54687.99268,1.7998,1.521,1.71484.7041,2.52148,1.69629,2.52148,3.21728,0,1.8086-1.2539,3.34522-3.918,3.34522a5.83613,5.83613,0,0,1-2.752-.65625Z"/>
    <path d="M35.83352,12.81253c0,1.02441.0293,1.85693.05762,2.51318H33.98977l-.10058-1.10449h-.043a2.47176,2.47176,0,0,1-2.2041,1.28076c-1.42578,0-2.47754-.99268-2.47754-3.40967V7.49856h2.2041V11.708c0,1.13672.331,1.82471,1.09473,1.82471a1.19733,1.19733,0,0,0,1.09472-.84814,1.49665,1.49665,0,0,0,.07227-.52832V7.49856h2.20312Z"/>
    <path d="M37.58841,9.99563c0-.97656-.02832-1.80859-.05762-2.49707h1.90137l.10058,1.07227h.044a2.5282,2.5282,0,0,1,2.1748-1.24854c1.44043,0,2.52051,1.05664,2.52051,3.36133v4.64209H42.08255V10.98782c0-1.0083-.31641-1.69678-1.10938-1.69678a1.19392,1.19392,0,0,0-1.1084.9126,1.841,1.841,0,0,0-.08691.6084v4.51367H37.58841Z"/>
    <path d="M52.75344,7.49856c-.02832.4961-.05761,1.15235-.05761,2.3208v4.37012a4.80986,4.80986,0,0,1-1.06543,3.521,4.04931,4.04931,0,0,1-2.86621.96045A5.03932,5.03932,0,0,1,46.229,18.063l.43164-1.84083a4.00308,4.00308,0,0,0,2.0459.59229c1.03711,0,1.8291-.62451,1.8291-2.06494v-.51221h-.0293A2.1818,2.1818,0,0,1,48.605,15.26175c-1.74219,0-2.98145-1.56885-2.98145-3.82569,0-2.51269,1.46973-4.11377,3.19824-4.11377a2.078,2.078,0,0,1,1.92969,1.10449h.0293l.07129-.92822Zm-2.24707,3.18506a2.09651,2.09651,0,0,0-.043-.44775,1.23889,1.23889,0,0,0-1.18067-1.07276c-.793,0-1.44043.8003-1.44043,2.2251,0,1.16846.51856,2.08057,1.44043,2.08057a1.21974,1.21974,0,0,0,1.15235-.99219,2.28508,2.28508,0,0,0,.07128-.64014Z"/>
    <path d="M56.13626,12.1885c.07226,1.0083.96484,1.48877,1.9873,1.48877a5.64124,5.64124,0,0,0,1.94531-.32031L60.357,15.0054a6.33413,6.33413,0,0,1-2.5498.48047c-2.39161,0-3.75977-1.53662-3.75977-3.98584,0-1.98487,1.10938-4.17774,3.55762-4.17774,2.27636,0,3.14062,1.96875,3.14062,3.90576a6.33879,6.33879,0,0,1-.07226.96045Zm2.57812-1.66455c0-.59228-.23047-1.585-1.23828-1.585-.92187,0-1.29687.92871-1.35449,1.585Z"/>
    <path d="M66.05813,15.32571l-.12988-.78418h-.043a2.42975,2.42975,0,0,1-2.0166.96045,2.28106,2.28106,0,0,1-2.27539-2.40137c0-2.03271,1.6416-3.00879,4.13379-2.99316V9.99563c0-.416-.20215-1.0083-1.28223-1.0083a3.66685,3.66685,0,0,0-1.94433.59229l-.40333-1.56885a5.34839,5.34839,0,0,1,2.73633-.68848c2.34864,0,3.09766,1.53662,3.09766,3.37744v2.7212a13.42417,13.42417,0,0,0,.10059,1.90478Zm-.25879-3.69727c-1.15234-.01611-2.0459.28809-2.0459,1.23243a.829.829,0,0,0,.86426.92822,1.21289,1.21289,0,0,0,1.1377-.89648,1.89751,1.89751,0,0,0,.04394-.416Z"/>
    <path d="M69.65774,10.07571c0-1.15234-.0293-1.90478-.05762-2.57715h1.88672L71.55911,8.939h.05762a2.10365,2.10365,0,0,1,1.90136-1.6167,2.02691,2.02691,0,0,1,.46094.03223V9.64358a2.829,2.829,0,0,0-.59082-.064A1.43919,1.43919,0,0,0,71.89016,10.812a3.13158,3.13158,0,0,0-.043.54394v3.96973H69.65774Z"/>
    <path d="M81.19192,4.26516a13.29224,13.29224,0,0,0-1.4541,6.48291,13.42908,13.42908,0,0,0,1.4541,6.43457H79.66555A12.02579,12.02579,0,0,1,78.023,10.732a12.22628,12.22628,0,0,1,1.64257-6.4668Z"/>
    <path d="M85.31009,15.32571,82.19876,4.53714H84.604l1.18164,4.562c.33106,1.28076.63379,2.51318.86426,3.85742h.043c.24512-1.29639.54785-2.57666.8789-3.80957l1.23829-4.60986h2.334L87.87454,15.32571Z"/>
    <path d="M93.187,12.1885c.07226,1.0083.96484,1.48877,1.9873,1.48877a5.6413,5.6413,0,0,0,1.94532-.32031l.28808,1.64844a6.33413,6.33413,0,0,1-2.5498.48047c-2.3916,0-3.75977-1.53662-3.75977-3.98584,0-1.98487,1.10938-4.17774,3.55762-4.17774,2.27637,0,3.14062,1.96875,3.14062,3.90576a6.33879,6.33879,0,0,1-.07226.96045Zm2.57812-1.66455c0-.59228-.23047-1.585-1.23828-1.585-.92187,0-1.29687.92871-1.35449,1.585Z"/>
    <path d="M99.105,9.99563c0-.97656-.0293-1.80859-.05762-2.49707h1.90137l.10058,1.07227h.043a2.52962,2.52962,0,0,1,2.17481-1.24854c1.44043,0,2.52148,1.05664,2.52148,3.36133v4.64209h-2.18945V10.98782c0-1.0083-.31738-1.69678-1.10938-1.69678a1.19507,1.19507,0,0,0-1.10937.9126,1.84283,1.84283,0,0,0-.08594.6084v4.51367H99.105Z"/>
    <path d="M107.54348,9.99563c0-.97656-.02929-1.80859-.05761-2.49707h1.90136l.10059,1.07227h.043a2.5296,2.5296,0,0,1,2.1748-1.24854c1.44043,0,2.52149,1.05664,2.52149,3.36133v4.64209h-2.18946V10.98782c0-1.0083-.31738-1.69678-1.10937-1.69678a1.1951,1.1951,0,0,0-1.10938.9126,1.84311,1.84311,0,0,0-.08593.6084v4.51367h-2.18946Z"/>
    <path d="M118.96243,4.68118a17.678,17.678,0,0,1,2.9668-.22363,5.791,5.791,0,0,1,3.97558,1.15234,4.99529,4.99529,0,0,1,1.64258,4.06543,5.77171,5.77171,0,0,1-1.61328,4.37012,6.47966,6.47966,0,0,1-4.47949,1.39209,17.13161,17.13161,0,0,1-2.49219-.15967Zm2.2041,8.80371a3.64464,3.64464,0,0,0,.7627.04785c1.98828.01612,3.28418-1.20019,3.28418-3.77734.01464-2.24072-1.166-3.42529-3.05372-3.42529a4.09593,4.09593,0,0,0-.99316.09619Z"/>
    <path d="M131.232,5.3218a1.15744,1.15744,0,0,1-1.18164,1.21631,1.13115,1.13115,0,0,1-1.1377-1.21631A1.13059,1.13059,0,0,1,130.065,4.08938,1.15819,1.15819,0,0,1,131.232,5.3218Zm-2.26172,10.00391V7.49856h2.18945v7.82715Z"/>
    <path d="M136.92044,15.32571l-.12989-.78418h-.043a2.43106,2.43106,0,0,1-2.01661.96045,2.28126,2.28126,0,0,1-2.27636-2.40137c0-2.03271,1.64257-3.00879,4.13379-2.99316V9.99563c0-.416-.20118-1.0083-1.28125-1.0083a3.66766,3.66766,0,0,0-1.94532.59229l-.40332-1.56885a5.35264,5.35264,0,0,1,2.73731-.68848c2.34765,0,3.09668,1.53662,3.09668,3.37744v2.7212a13.57311,13.57311,0,0,0,.10058,1.90478Zm-.25977-3.69727c-1.15234-.01611-2.04492.28809-2.04492,1.23243a.82856.82856,0,0,0,.86426.92822,1.21472,1.21472,0,0,0,1.13769-.89648,1.95945,1.95945,0,0,0,.043-.416Z"/>
    <path d="M147.24563,7.49856c-.02929.4961-.05761,1.15235-.05761,2.3208v4.37012a4.80582,4.80582,0,0,1-1.06641,3.521,4.04781,4.04781,0,0,1-2.86621.96045,5.03932,5.03932,0,0,1-2.53516-.60791l.43262-1.84083a3.99923,3.99923,0,0,0,2.04492.59229c1.03711,0,1.8291-.62451,1.8291-2.06494v-.51221h-.02832a2.183,2.183,0,0,1-1.90137,1.02442c-1.74316,0-2.98144-1.56885-2.98144-3.82569,0-2.51269,1.46875-4.11377,3.19727-4.11377a2.07952,2.07952,0,0,1,1.93066,1.10449h.02832l.07227-.92822Zm-2.24707,3.18506a2.16091,2.16091,0,0,0-.043-.44775A1.23983,1.23983,0,0,0,143.774,9.16311c-.792,0-1.44043.8003-1.44043,2.2251,0,1.16846.51856,2.08057,1.44043,2.08057a1.2189,1.2189,0,0,0,1.15235-.99219,2.28445,2.28445,0,0,0,.07226-.64014Z"/>
    <path d="M148.9429,10.07571c0-1.15234-.0293-1.90478-.05762-2.57715H150.772l.07227,1.44043h.05761a2.10367,2.10367,0,0,1,1.90137-1.6167,2.02695,2.02695,0,0,1,.46094.03223V9.64358a2.829,2.829,0,0,0-.59082-.064,1.43918,1.43918,0,0,0-1.49805,1.23242,3.1306,3.1306,0,0,0-.043.54394v3.96973H148.9429Z"/>
    <path d="M158.26028,15.32571l-.12988-.78418h-.043a2.42975,2.42975,0,0,1-2.0166.96045,2.28106,2.28106,0,0,1-2.27539-2.40137c0-2.03271,1.6416-3.00879,4.13379-2.99316V9.99563c0-.416-.20215-1.0083-1.28223-1.0083a3.66692,3.66692,0,0,0-1.94434.59229l-.40332-1.56885a5.34839,5.34839,0,0,1,2.73633-.68848c2.34863,0,3.09766,1.53662,3.09766,3.37744v2.7212a13.42591,13.42591,0,0,0,.10058,1.90478Zm-.25879-3.69727c-1.15234-.01611-2.0459.28809-2.0459,1.23243a.829.829,0,0,0,.86426.92822,1.21289,1.21289,0,0,0,1.1377-.89648,1.89751,1.89751,0,0,0,.04394-.416Z"/>
    <path d="M161.85989,9.99563c0-.97656-.0293-1.80859-.05762-2.49707H163.646l.10059,1.05664h.043a2.39982,2.39982,0,0,1,2.13183-1.23291,1.99361,1.99361,0,0,1,1.93067,1.32862h.02832a3.32648,3.32648,0,0,1,.90722-.94434,2.35171,2.35171,0,0,1,1.33985-.38428c1.35449,0,2.377,1.05664,2.377,3.39356v4.60986h-2.13183V11.0679c0-1.13623-.33106-1.79248-1.03711-1.79248a1.09674,1.09674,0,0,0-1.00879.84814,2.24556,2.24556,0,0,0-.08594.62451v4.57764h-2.13184V10.94c0-.99219-.31738-1.66455-1.00879-1.66455a1.1458,1.1458,0,0,0-1.02246.88037,1.76921,1.76921,0,0,0-.08593.60791v4.562h-2.13184Z"/>
    <path d="M173.86868,17.18264a13.64576,13.64576,0,0,0,1.45508-6.46679,13.45046,13.45046,0,0,0-1.45508-6.45069H175.396a12.07888,12.07888,0,0,1,1.6416,6.45069,12.33,12.33,0,0,1-1.6416,6.46679Z"/>
  </g>
  <rect class="cls-1" x="50.30882" y="60.30882" width="97.80756" height="97.80756" transform="translate(-48.16627 102.14153) rotate(-45)"/>
  <circle class="cls-2" cx="99.03579" cy="56.48236" r="8.62535"/>
  <circle class="cls-3" cx="99.34439" cy="163.91098" r="6.07048"/>
  <circle class="cls-3" cx="45.47578" cy="110.04237" r="2.94131"/>
  <circle class="cls-4" cx="152.9044" cy="110.35097" r="4.14346"/>
  <circle class="cls-2" cx="98.70931" cy="109.71589" r="7.14798"/>
  <circle class="cls-3" cx="71.75908" cy="83.75908" r="2.71473"/>
  <circle class="cls-4" cx="126.48931" cy="83.93589" r="4.93269"/>
  <circle class="cls-3" cx="125.62768" cy="137.62768" r="5.91983"/>
  <circle class="cls-3" cx="71.92931" cy="136.49589" r="5.72192"/>
  <circle class="cls-4" cx="71.33294" cy="110.11952" r="1.65881"/>
  <circle class="cls-3" cx="127.04724" cy="110.27382" r="2.61558"/>
  <circle class="cls-3" cx="99.11294" cy="82.33952" r="2.41815"/>
  <circle class="cls-3" cx="99.26724" cy="138.05382" r="3.70106"/>
  <g>
    <path d="M78.54544,31.39261H77.26028V29.94143h3.99707v1.45118H79.96048v6.63232h-1.415Z"/>
    <path d="M82.00052,29.94143h3.166v1.36719h-1.75v2.07471h1.6416v1.30761h-1.6416v3.334h-1.416Z"/>
    <path d="M89.25833,31.70462h-.02149l-1.18847.68359-.23731-1.23535,1.60938-.92383H90.6636v7.7959H89.25833Z"/>
    <path d="M95.80325,30.57718v1.583h1.03711v1.11524H95.80325v2.6748c0,.6836.25977.85156.54.85156a1.76256,1.76256,0,0,0,.36816-.03613l.01074,1.22315a3.02251,3.02251,0,0,1-.86425.10791,1.33858,1.33858,0,0,1-1.01563-.37159,2.26361,2.26361,0,0,1-.4541-1.67919V33.27542h-.627V32.16018h.627V30.94876Z"/>
    <path d="M99.86477,38.02493l-.07617-.57568h-.02148a1.34263,1.34263,0,0,1-1.166.67138c-.7998,0-1.39453-.74316-1.39453-1.78662a2.19269,2.19269,0,0,1,2.41992-2.1831v-.13184a.71064.71064,0,0,0-.74512-.7915,1.8355,1.8355,0,0,0-1.08007.33593l-.25977-1.05566a3.18059,3.18059,0,0,1,1.64258-.44385c1.60937,0,1.86914,1.24756,1.86914,2.43506v2.18262a8.76421,8.76421,0,0,0,.08594,1.34326Zm-.19433-2.85449c-.47559.0122-1.124.18017-1.124.9956,0,.5874.292.80323.50782.80323a.62826.62826,0,0,0,.584-.50342,1.13676,1.13676,0,0,0,.03223-.27588Z"/>
    <path d="M102.04544,33.92337c0-.58789-.02149-1.22364-.043-1.76319h1.23144l.0752.85157h.0332c.23731-.62354.65821-.94776,1.04785-.94776a1.0537,1.0537,0,0,1,.30176.02442v1.55908a1.15535,1.15535,0,0,0-.30176-.02393c-.30273,0-.70214.22754-.86425.83936a2.57868,2.57868,0,0,0-.05469.5874v2.97461h-1.42578Z"/>
    <path d="M109.08841,32.16018c-.02149.52784-.05469,1.15137-.05469,1.85889v3.34619a3.32072,3.32072,0,0,1-.63672,2.41065,2.24885,2.24885,0,0,1-1.71777.64746,3.08566,3.08566,0,0,1-1.31836-.27539l.25976-1.21143a2.27006,2.27006,0,0,0,1.01563.252c.71289,0,.99316-.52783.99316-1.42724v-.35987h-.02148a1.04888,1.04888,0,0,1-.9502.58741c-1.18847,0-1.65332-1.439-1.65332-2.84229,0-1.95508.79981-3.08252,1.78223-3.08252a1.05608,1.05608,0,0,1,.97265.6836h.02149l.07617-.58741Zm-1.459,2.13477a1.7321,1.7321,0,0,0-.05371-.43164c-.06445-.252-.21582-.48-.4541-.48-.50781,0-.71289.76758-.71289,1.727,0,1.09131.28125,1.64306.68066,1.64306.1836,0,.36719-.10791.47559-.41943a1.63125,1.63125,0,0,0,.06445-.46777Z"/>
    <path d="M111.1929,35.65042c.02246.91113.49707,1.24707,1.124,1.24707a2.84112,2.84112,0,0,0,1.00488-.1919l.19434,1.12744a3.99181,3.99181,0,0,1-1.459.26368c-1.43653,0-2.22461-1.05518-2.22461-2.89014,0-1.9668.918-3.14258,2.11718-3.14258,1.13379,0,1.793.99561,1.793,2.77051a4.64928,4.64928,0,0,1-.043.81592Zm1.26465-1.10352c0-.75586-.17286-1.34326-.59473-1.34326-.46387,0-.64746.75537-.6582,1.34326Z"/>
    <path d="M116.20462,30.57718v1.583h1.03711v1.11524h-1.03711v2.6748c0,.6836.25879.85156.54.85156a1.753,1.753,0,0,0,.36718-.03613l.01075,1.22315a3.01747,3.01747,0,0,1-.86426.10791,1.34143,1.34143,0,0,1-1.01563-.37159,2.26854,2.26854,0,0,1-.45312-1.67919V33.27542h-.627V32.16018h.627V30.94876Z"/>
    <path d="M117.856,36.60989a1.84733,1.84733,0,0,0,.95118.31152c.36718,0,.57226-.17968.57226-.52734,0-.30029-.15137-.49219-.61523-.792a1.91794,1.91794,0,0,1-1.07032-1.69092,1.71634,1.71634,0,0,1,1.74024-1.84717,2.28421,2.28421,0,0,1,1.06933.26416l-.249,1.15137a1.36209,1.36209,0,0,0-.73437-.23975.48749.48749,0,0,0-.5293.50342c0,.26416.11914.40772.61621.73193A2.01553,2.01553,0,0,1,120.6763,36.25a1.72415,1.72415,0,0,1-1.86914,1.84668,2.14935,2.14935,0,0,1-1.21-.33545Z"/>
  </g>
  <g>
    <path d="M78.54544,180.60012H77.26028V179.149h3.99707v1.45117H79.96048V187.232h-1.415Z"/>
    <path d="M82.00052,179.149h3.166v1.36719h-1.75v2.07422h1.6416V183.898h-1.6416v3.334h-1.416Z"/>
    <path d="M87.78958,185.74466a2.01283,2.01283,0,0,0,1.04785.2998,1.01871,1.01871,0,0,0,1.05859-1.12695,1.17711,1.17711,0,0,0-1.31738-1.23535h-.19531v-1.15137H88.524c.51856-.01172,1.18848-.25195,1.18848-1.00781a.801.801,0,0,0-.82129-.89942,1.6,1.6,0,0,0-.88574.3125l-.1836-1.1875a2.75609,2.75609,0,0,1,1.44825-.4082,1.76477,1.76477,0,0,1,1.84668,1.88281,1.92423,1.92423,0,0,1-1.00489,1.751v.02441a1.95773,1.95773,0,0,1,1.19922,1.97852,2.27145,2.27145,0,0,1-2.34375,2.35058A2.72809,2.72809,0,0,1,87.5845,186.98Z"/>
    <path d="M95.80325,179.78469v1.583h1.03711v1.11524H95.80325v2.6748c0,.6836.25977.85156.54.85156a1.79616,1.79616,0,0,0,.36816-.03613l.01074,1.22266a3.00232,3.00232,0,0,1-.86425.1084,1.33892,1.33892,0,0,1-1.01563-.37207,2.26226,2.26226,0,0,1-.4541-1.67872v-2.7705h-.627V181.3677h.627v-1.21191Z"/>
    <path d="M99.86477,187.232l-.07617-.57519h-.02148a1.34316,1.34316,0,0,1-1.166.67089c-.7998,0-1.39453-.74316-1.39453-1.78613a2.19334,2.19334,0,0,1,2.41992-2.18359v-.13184a.71048.71048,0,0,0-.74512-.791,1.8355,1.8355,0,0,0-1.08007.33593l-.25977-1.05566a3.17539,3.17539,0,0,1,1.64258-.44434c1.60937,0,1.86914,1.24805,1.86914,2.43555v2.18262a8.7535,8.7535,0,0,0,.08594,1.34277Zm-.19433-2.85449c-.47559.01269-1.124.18066-1.124.99609,0,.58692.292.80274.50782.80274a.62772.62772,0,0,0,.584-.50293,1.14082,1.14082,0,0,0,.03223-.27637Z"/>
    <path d="M102.04544,183.1304c0-.58789-.02149-1.22363-.043-1.7627h1.23144l.0752.85157h.0332c.23731-.624.65821-.94825,1.04785-.94825a1.0537,1.0537,0,0,1,.30176.02442V182.855a1.13284,1.13284,0,0,0-.30176-.02442c-.30273,0-.70214.22754-.86425.83985a2.57687,2.57687,0,0,0-.05469.58691V187.232h-1.42578Z"/>
    <path d="M109.08841,181.3677c-.02149.52735-.05469,1.15137-.05469,1.8584v3.34668a3.3193,3.3193,0,0,1-.63672,2.41016,2.24706,2.24706,0,0,1-1.71777.64746,3.08566,3.08566,0,0,1-1.31836-.27539l.25976-1.21094a2.27006,2.27006,0,0,0,1.01563.25195c.71289,0,.99316-.52832.99316-1.42773v-.35938h-.02148a1.04929,1.04929,0,0,1-.9502.58692c-1.18847,0-1.65332-1.43848-1.65332-2.8418,0-1.95508.79981-3.083,1.78223-3.083a1.05608,1.05608,0,0,1,.97265.6836h.02149l.07617-.58692Zm-1.459,2.13477a1.7261,1.7261,0,0,0-.05371-.43164c-.06445-.252-.21582-.48047-.4541-.48047-.50781,0-.71289.76758-.71289,1.72754,0,1.09082.28125,1.64258.68066,1.64258.1836,0,.36719-.10743.47559-.41895a1.63611,1.63611,0,0,0,.06445-.46777Z"/>
    <path d="M111.1929,184.85794c.02246.91113.49707,1.24707,1.124,1.24707a2.8294,2.8294,0,0,0,1.00488-.19239l.19434,1.12793a4.00208,4.00208,0,0,1-1.459.26368c-1.43653,0-2.22461-1.05567-2.22461-2.89063,0-1.9668.918-3.14258,2.11718-3.14258,1.13379,0,1.793.9961,1.793,2.77051a4.656,4.656,0,0,1-.043.81641Zm1.26465-1.10352c0-.75586-.17286-1.34375-.59473-1.34375-.46387,0-.64746.75586-.6582,1.34375Z"/>
    <path d="M116.20462,179.78469v1.583h1.03711v1.11524h-1.03711v2.6748c0,.6836.25879.85156.54.85156a1.78637,1.78637,0,0,0,.36718-.03613l.01075,1.22266a2.99732,2.99732,0,0,1-.86426.1084,1.34177,1.34177,0,0,1-1.01563-.37207,2.26719,2.26719,0,0,1-.45312-1.67872v-2.7705h-.627V181.3677h.627v-1.21191Z"/>
    <path d="M117.856,185.81692a1.84724,1.84724,0,0,0,.95118.31152c.36718,0,.57226-.17968.57226-.52734,0-.2998-.15137-.49219-.61523-.792a1.9173,1.9173,0,0,1-1.07032-1.69043,1.71649,1.71649,0,0,1,1.74024-1.84766,2.2782,2.2782,0,0,1,1.06933.26465l-.249,1.15137a1.36245,1.36245,0,0,0-.73437-.24024.48785.48785,0,0,0-.5293.50391c0,.26367.11914.40723.61621.73145a2.01674,2.01674,0,0,1,1.06934,1.77539,1.72415,1.72415,0,0,1-1.86914,1.84668,2.14552,2.14552,0,0,1-1.21-.33594Z"/>
  </g>
  <g>
    <path d="M176.61087,101.90579h-1.28516v-1.45117h3.99707v1.45117h-1.2959v6.63232h-1.416Z"/>
    <path d="M180.06692,100.45462h3.165v1.36718h-1.75v2.07471h1.64258v1.30762H181.482v3.334h-1.415Z"/>
    <path d="M185.64993,108.53811v-1.05566l.70215-.99512c.9082-1.2832,1.65332-2.35058,1.65332-3.46631,0-.62353-.31348-1.06738-.89649-1.06738a1.85872,1.85872,0,0,0-1.05859.396l-.249-1.22364a2.921,2.921,0,0,1,1.5664-.47949,1.97856,1.97856,0,0,1,2.03125,2.25488,6.10879,6.10879,0,0,1-1.63086,3.68164l-.42187.55176v.02393h2.15039v1.37939Z"/>
    <path d="M171.12552,110.49026v1.583h1.0371v1.11523h-1.0371v2.67481c0,.68359.25878.85156.54.85156a1.75366,1.75366,0,0,0,.36719-.03613l.01074,1.22314a3.01734,3.01734,0,0,1-.86425.10791,1.34145,1.34145,0,0,1-1.01563-.37158,2.26777,2.26777,0,0,1-.45312-1.6792V113.1885h-.627v-1.11523h.627v-1.21143Z"/>
    <path d="M175.18606,117.938l-.07519-.57569h-.02149a1.34464,1.34464,0,0,1-1.167.67188c-.7998,0-1.39355-.74366-1.39355-1.78711a2.19221,2.19221,0,0,1,2.41992-2.18311v-.13183a.71064.71064,0,0,0-.74512-.79151,1.83635,1.83635,0,0,0-1.08105.33594l-.25879-1.05566a3.17647,3.17647,0,0,1,1.6416-.44385c1.61035,0,1.86914,1.24756,1.86914,2.43506v2.18261a8.63808,8.63808,0,0,0,.08691,1.34327Zm-.19433-2.8545c-.47559.01221-1.123.18018-1.123.99561,0,.5874.291.80371.50781.80371a.62783.62783,0,0,0,.583-.50391,1.13664,1.13664,0,0,0,.03223-.27588Z"/>
    <path d="M177.36673,113.83645c0-.58789-.02149-1.22363-.043-1.76318h1.23144l.0752.85156h.0332c.23731-.62353.6582-.94775,1.04785-.94775a1.05412,1.05412,0,0,1,.30176.02441v1.55908a1.15582,1.15582,0,0,0-.30176-.02392c-.30273,0-.70215.22754-.86426.83935a2.58117,2.58117,0,0,0-.05468.58789V117.938h-1.42578Z"/>
    <path d="M184.40969,112.07327c-.02148.52783-.05371,1.15137-.05371,1.85889v3.34619a3.31563,3.31563,0,0,1-.63769,2.41064,2.246,2.246,0,0,1-1.71777.64795,3.08115,3.08115,0,0,1-1.31739-.27588l.25879-1.21142a2.27709,2.27709,0,0,0,1.01563.252c.71289,0,.99414-.52783.99414-1.42725v-.35986h-.02149a1.05031,1.05031,0,0,1-.95117.5874c-1.18848,0-1.65234-1.439-1.65234-2.84228,0-1.95508.79883-3.08252,1.78222-3.08252a1.05778,1.05778,0,0,1,.97266.68408h.02148l.0752-.58789Zm-1.458,2.13476a1.68574,1.68574,0,0,0-.05469-.43164c-.06445-.252-.21582-.48-.45313-.48-.50781,0-.71289.76758-.71289,1.72705,0,1.0918.28028,1.64307.68067,1.64307.18359,0,.36719-.10791.47461-.41943a1.59552,1.59552,0,0,0,.06543-.46778Z"/>
    <path d="M186.51419,115.5635c.02246.91114.49707,1.24707,1.124,1.24707a2.84119,2.84119,0,0,0,1.00488-.19189l.19434,1.12744a3.992,3.992,0,0,1-1.459.26367c-1.43652,0-2.2246-1.05517-2.2246-2.89013,0-1.9668.918-3.14258,2.11718-3.14258,1.13379,0,1.793.9956,1.793,2.77051a4.64914,4.64914,0,0,1-.043.81591Zm1.26465-1.10351c0-.75586-.17286-1.34326-.59473-1.34326-.46387,0-.64746.75537-.6582,1.34326Z"/>
    <path d="M191.52591,110.49026v1.583H192.563v1.11523h-1.03711v2.67481c0,.68359.25976.85156.54.85156a1.76326,1.76326,0,0,0,.36817-.03613l.01074,1.22314a3.02259,3.02259,0,0,1-.86426.10791,1.33861,1.33861,0,0,1-1.01562-.37158,2.26284,2.26284,0,0,1-.4541-1.6792V113.1885h-.627v-1.11523h.627v-1.21143Z"/>
    <path d="M193.17727,116.523a1.84732,1.84732,0,0,0,.95117.31152c.36719,0,.57227-.17969.57227-.52783,0-.29981-.15137-.4917-.61523-.79151a1.91792,1.91792,0,0,1-1.07032-1.69091,1.71634,1.71634,0,0,1,1.74024-1.84717,2.28409,2.28409,0,0,1,1.06933.26416l-.249,1.15137a1.36209,1.36209,0,0,0-.73437-.23975.48749.48749,0,0,0-.5293.50342c0,.26416.11914.40771.61621.73144a2.01676,2.01676,0,0,1,1.06934,1.77539,1.72416,1.72416,0,0,1-1.86915,1.84668,2.14926,2.14926,0,0,1-1.21-.33545Z"/>
  </g>
  <g>
    <path d="M10.209,101.90579H8.92337v-1.45117h3.99756v1.45117H11.62454v6.63232H10.209Z"/>
    <path d="M13.66458,100.45462h3.16553v1.36718h-1.75v2.07471h1.64208v1.30762H15.08011v3.334H13.66458Z"/>
    <path d="M21.51614,108.53811v-1.85888H19.107v-1.07959l2.30176-4.85743h1.36133V105.42h.70214v1.25928h-.70214v1.85888Zm0-3.11816v-1.59522c0-.41992.04395-.87548.07617-1.2832h-.043c-.16211.43164-.30273.7793-.48632,1.21143l-.75684,1.64306V105.42Z"/>
    <path d="M4.72317,110.49026v1.583H5.76028v1.11523H4.72317v2.67481c0,.68359.25928.85156.54.85156a1.7503,1.7503,0,0,0,.36719-.03613l.01123,1.22314a3.02005,3.02005,0,0,1-.86426.10791,1.34,1.34,0,0,1-1.01562-.37158,2.26525,2.26525,0,0,1-.45362-1.6792V113.1885H2.68118v-1.11523h.62695v-1.21143Z"/>
    <path d="M8.78421,117.938l-.07569-.57569H8.687a1.34408,1.34408,0,0,1-1.167.67188c-.79932,0-1.39356-.74366-1.39356-1.78711A2.19221,2.19221,0,0,1,8.54641,114.064v-.13183a.71064.71064,0,0,0-.74511-.79151,1.836,1.836,0,0,0-1.08057.33594l-.25928-1.05566a3.17856,3.17856,0,0,1,1.64209-.44385c1.60987,0,1.86914,1.24756,1.86914,2.43506v2.18261a8.7013,8.7013,0,0,0,.08643,1.34327Zm-.19434-2.8545c-.47559.01221-1.12353.18018-1.12353.99561,0,.5874.2915.80371.50781.80371a.62742.62742,0,0,0,.583-.50391,1.11268,1.11268,0,0,0,.03271-.27588Z"/>
    <path d="M10.96487,113.83645c0-.58789-.022-1.22363-.04346-1.76318h1.23145l.07568.85156h.03272c.2373-.62353.65869-.94775,1.04785-.94775a1.0578,1.0578,0,0,1,.30225.02441v1.55908a1.15976,1.15976,0,0,0-.30225-.02392c-.30274,0-.70215.22754-.86426.83935a2.61493,2.61493,0,0,0-.0542.58789V117.938H10.96487Z"/>
    <path d="M18.00735,112.07327c-.02148.52783-.05371,1.15137-.05371,1.85889v3.34619a3.31815,3.31815,0,0,1-.63721,2.41064,2.24752,2.24752,0,0,1-1.71777.64795,3.08335,3.08335,0,0,1-1.31787-.27588l.25928-1.21142a2.27314,2.27314,0,0,0,1.01513.252c.71338,0,.99414-.52783.99414-1.42725v-.35986h-.02148a1.04959,1.04959,0,0,1-.95068.5874c-1.18848,0-1.65284-1.439-1.65284-2.84228,0-1.95508.79932-3.08252,1.78223-3.08252a1.05682,1.05682,0,0,1,.97266.68408h.02148l.07568-.58789Zm-1.458,2.13476a1.70836,1.70836,0,0,0-.0542-.43164c-.06445-.252-.21582-.48-.45361-.48-.50781,0-.71289.76758-.71289,1.72705,0,1.0918.28076,1.64307.68066,1.64307.1836,0,.36719-.10791.4751-.41943a1.61185,1.61185,0,0,0,.06494-.46778Z"/>
    <path d="M20.11184,115.5635c.02246.91114.49707,1.24707,1.124,1.24707a2.84119,2.84119,0,0,0,1.00488-.19189l.19434,1.12744a3.992,3.992,0,0,1-1.459.26367c-1.43652,0-2.22461-1.05517-2.22461-2.89013,0-1.9668.918-3.14258,2.11719-3.14258,1.13379,0,1.793.9956,1.793,2.77051a4.64914,4.64914,0,0,1-.043.81591ZM21.37649,114.46c0-.75586-.17285-1.34326-.59472-1.34326-.46387,0-.64747.75537-.65821,1.34326Z"/>
    <path d="M25.12356,110.49026v1.583h1.03711v1.11523H25.12356v2.67481c0,.68359.25977.85156.54.85156a1.76333,1.76333,0,0,0,.36817-.03613l.01074,1.22314a3.02264,3.02264,0,0,1-.86426.10791,1.33863,1.33863,0,0,1-1.01563-.37158,2.26284,2.26284,0,0,1-.4541-1.6792V113.1885h-.627v-1.11523h.627v-1.21143Z"/>
    <path d="M26.77493,116.523a1.84729,1.84729,0,0,0,.95117.31152c.36719,0,.57227-.17969.57227-.52783,0-.29981-.15137-.4917-.61524-.79151a1.91791,1.91791,0,0,1-1.07031-1.69091,1.71633,1.71633,0,0,1,1.74023-1.84717,2.2841,2.2841,0,0,1,1.06934.26416l-.249,1.15137a1.36212,1.36212,0,0,0-.73438-.23975.4875.4875,0,0,0-.5293.50342c0,.26416.11915.40771.61622.73144a2.01675,2.01675,0,0,1,1.06933,1.77539,1.72415,1.72415,0,0,1-1.86914,1.84668,2.14924,2.14924,0,0,1-1.21-.33545Z"/>
  </g>
  <g>
    <line class="cls-3" x1="99.03579" y1="47.85701" x2="99.03579" y2="46.14543"/>
    <polygon points="100.033 46.437 99.036 44.71 98.039 46.437 100.033 46.437"/>
  </g>
  <g>
    <line class="cls-3" x1="99.01603" y1="79.92136" x2="99.01603" y2="78.20978"/>
    <polygon points="100.013 78.502 99.016 76.775 98.019 78.502 100.013 78.502"/>
  </g>
  <g>
    <line class="cls-3" x1="98.70931" y1="102.5679" x2="98.70931" y2="100.85633"/>
    <polygon points="99.707 101.148 98.709 99.421 97.712 101.148 99.707 101.148"/>
  </g>
  <g>
    <line class="cls-3" x1="98.70931" y1="116.86386" x2="98.70931" y2="118.57546"/>
    <polygon points="97.712 118.284 98.709 120.011 99.707 118.284 97.712 118.284"/>
  </g>
  <g>
    <line class="cls-3" x1="99.26724" y1="141.75488" x2="99.26724" y2="143.46649"/>
    <polygon points="98.27 143.175 99.267 144.902 100.265 143.175 98.27 143.175"/>
  </g>
  <g>
    <line class="cls-3" x1="99.34439" y1="169.98144" x2="99.34439" y2="171.69305"/>
    <polygon points="98.347 171.401 99.344 173.128 100.342 171.401 98.347 171.401"/>
  </g>
  <g>
    <line class="cls-3" x1="105.85729" y1="109.71589" x2="107.56886" y2="109.71589"/>
    <polygon points="107.277 110.713 109.004 109.716 107.277 108.719 107.277 110.713"/>
  </g>
  <g>
    <line class="cls-3" x1="91.56134" y1="109.71589" x2="89.84974" y2="109.71589"/>
    <polygon points="90.142 108.719 88.415 109.716 90.142 110.713 90.142 108.719"/>
  </g>
  <g>
    <line class="cls-3" x1="129.8486" y1="110.27382" x2="131.56018" y2="110.27382"/>
    <polygon points="131.268 111.271 132.995 110.274 131.268 109.277 131.268 111.271"/>
  </g>
  <g>
    <line class="cls-3" x1="157.04786" y1="110.27382" x2="158.75944" y2="110.27382"/>
    <polygon points="158.468 111.271 160.195 110.274 158.468 109.277 158.468 111.271"/>
  </g>
  <g>
    <line class="cls-3" x1="69.67413" y1="110.11952" x2="67.96254" y2="110.11952"/>
    <polygon points="68.254 109.122 66.527 110.12 68.254 111.117 68.254 109.122"/>
  </g>
  <g>
    <line class="cls-3" x1="42.53448" y1="110.11952" x2="40.82288" y2="110.11952"/>
    <polygon points="41.115 109.122 39.388 110.12 41.115 111.117 41.115 109.122"/>
  </g>
  <g>
    <line class="cls-3" x1="69.67413" y1="85.61683" x2="68.46385" y2="86.82711"/>
    <polygon points="67.965 85.916 67.449 87.842 69.375 87.326 67.965 85.916"/>
  </g>
  <g>
    <line class="cls-3" x1="130.02348" y1="87.47007" x2="131.23378" y2="88.68035"/>
    <polygon points="130.322 89.179 132.249 89.695 131.733 87.769 130.322 89.179"/>
  </g>
  <g>
    <line class="cls-3" x1="73.80996" y1="81.70819" x2="75.02024" y2="80.49791"/>
    <polygon points="75.519 81.409 76.035 79.483 74.109 79.999 75.519 81.409"/>
  </g>
  <g>
    <line class="cls-3" x1="122.83844" y1="80.28502" x2="121.62817" y2="79.07473"/>
    <polygon points="122.54 78.576 120.613 78.06 121.129 79.986 122.54 78.576"/>
  </g>
  <g>
    <line class="cls-3" x1="121.3858" y1="141.86957" x2="120.17552" y2="143.07985"/>
    <polygon points="119.677 142.168 119.161 144.095 121.087 143.579 119.677 142.168"/>
  </g>
  <g>
    <line class="cls-3" x1="129.93303" y1="133.32234" x2="131.14331" y2="132.11206"/>
    <polygon points="131.642 133.024 132.158 131.097 130.232 131.613 131.642 133.024"/>
  </g>
  <g>
    <line class="cls-3" x1="76.07573" y1="140.6423" x2="77.28601" y2="141.8526"/>
    <polygon points="76.375 142.351 78.301 142.867 77.785 140.941 76.375 142.351"/>
  </g>
  <g>
    <line class="cls-3" x1="67.7626" y1="132.32919" x2="66.55232" y2="131.11892"/>
    <polygon points="67.464 130.62 65.537 130.104 66.053 132.03 67.464 130.62"/>
  </g>
  <g>
    <line class="cls-3" x1="97.03587" y1="83.11128" x2="95.45457" y2="83.76628"/>
    <polygon points="95.343 82.733 94.129 84.316 96.106 84.576 95.343 82.733"/>
  </g>
  <g>
    <line class="cls-3" x1="101.51466" y1="83.33377" x2="103.09596" y2="83.98877"/>
    <polygon points="102.445 84.798 104.422 84.538 103.208 82.956 102.445 84.798"/>
  </g>
  <g>
    <line class="cls-3" x1="71.86223" y1="111.43576" x2="72.51723" y2="113.01705"/>
    <polygon points="71.484 113.129 73.066 114.343 73.327 112.366 71.484 113.129"/>
  </g>
  <g>
    <line class="cls-3" x1="71.93185" y1="108.5547" x2="72.58685" y2="106.9734"/>
    <polygon points="73.397 107.625 73.136 105.647 71.554 106.861 73.397 107.625"/>
  </g>
  <g>
    <line class="cls-3" x1="126.22981" y1="108.10971" x2="125.57481" y2="106.5284"/>
    <polygon points="126.608 106.416 125.026 105.202 124.765 107.18 126.608 106.416"/>
  </g>
  <g>
    <line class="cls-3" x1="126.22981" y1="112.8894" x2="125.57481" y2="114.4707"/>
    <polygon points="124.765 113.819 125.026 115.797 126.608 114.583 124.765 113.819"/>
  </g>
  <g>
    <line class="cls-3" x1="95.66216" y1="136.54769" x2="94.08085" y2="135.8927"/>
    <polygon points="94.732 135.083 92.755 135.343 93.969 136.926 94.732 135.083"/>
  </g>
  <g>
    <line class="cls-3" x1="102.76208" y1="136.59069" x2="104.34338" y2="135.9357"/>
    <polygon points="104.455 136.969 105.669 135.386 103.692 135.126 104.455 136.969"/>
  </g>
</svg>
