<svg id="Layer_1" data-name="Layer 1" xmlns="http://www.w3.org/2000/svg" viewBox="0 0 198.4252 198.4252">
  <defs>
    <style>
      .cls-1 {
        fill: #001884;
      }

      .cls-1, .cls-2, .cls-3, .cls-4 {
        stroke: #000;
        stroke-width: 0.25px;
      }

      .cls-1, .cls-2, .cls-3, .cls-4, .cls-6 {
        stroke-miterlimit: 10;
      }

      .cls-2 {
        fill: #999;
      }

      .cls-3, .cls-5 {
        fill: #fff;
      }

      .cls-4 {
        fill: #f2a917;
      }

      .cls-6 {
        stroke: #fff;
        stroke-width: 0.15px;
      }
    </style>
  </defs>
  <title>SimpleGraphics</title>
  <g>
    <path d="M41.155,14.82962a9.89834,9.89834,0,0,1-3.24072.60791A5.08618,5.08618,0,0,1,33.96748,13.981a5.54192,5.54192,0,0,1-1.36816-3.92138,5.25624,5.25624,0,0,1,5.54541-5.63428,6.10316,6.10316,0,0,1,2.69384.52832l-.46093,1.95264a4.92119,4.92119,0,0,0-2.26172-.46436c-1.8291,0-3.21192,1.15283-3.21192,3.48975,0,2.22461,1.25293,3.53711,3.05372,3.53711a2.67763,2.67763,0,0,0,1.08007-.15967V11.05178h-1.498V9.147H41.155Z"/>
    <path d="M44.56611,12.1885c.07227,1.0083.96485,1.48877,1.9878,1.48877a5.63842,5.63842,0,0,0,1.94482-.32031l.28809,1.64844a6.33253,6.33253,0,0,1-2.54981.48047c-2.39111,0-3.75976-1.53662-3.75976-3.98584,0-1.98487,1.10937-4.17774,3.5581-4.17774,2.27588,0,3.14014,1.96875,3.14014,3.90576a6.33713,6.33713,0,0,1-.07227.96045Zm2.57813-1.66455c0-.59228-.23047-1.585-1.23828-1.585-.92188,0-1.29688.92871-1.35449,1.585Z"/>
    <path d="M50.48408,9.99563c0-.97656-.02929-1.80859-.05761-2.49707h1.90136l.10059,1.07227h.043a2.52983,2.52983,0,0,1,2.17529-1.24854c1.44043,0,2.521,1.05664,2.521,3.36133v4.64209H54.97822V10.98782c0-1.0083-.31738-1.69678-1.10937-1.69678a1.19556,1.19556,0,0,0-1.10938.9126,1.84311,1.84311,0,0,0-.08593.6084v4.51367H50.48408Z"/>
    <path d="M60.60762,12.1885c.07178,1.0083.96533,1.48877,1.98779,1.48877a5.63364,5.63364,0,0,0,1.94434-.32031l.28808,1.64844a6.32674,6.32674,0,0,1-2.54931.48047c-2.39112,0-3.75928-1.53662-3.75928-3.98584,0-1.98487,1.10889-4.17774,3.55762-4.17774,2.27588,0,3.14013,1.96875,3.14013,3.90576a6.48716,6.48716,0,0,1-.07177.96045Zm2.57861-1.66455c0-.59228-.23047-1.585-1.23926-1.585-.92187,0-1.2959.92871-1.35351,1.585Z"/>
    <path d="M69.57783,12.81253a5.15988,5.15988,0,0,0,2.43457.67236c1.0083,0,1.541-.46387,1.541-1.16846,0-.67236-.46094-1.05615-1.62744-1.5205-1.61328-.62452-2.66455-1.6167-2.66455-3.18555,0-1.84033,1.38281-3.249,3.67285-3.249a5.44469,5.44469,0,0,1,2.47754.54394l-.48975,1.96924a4.24079,4.24079,0,0,0-2.03076-.5127c-.95117,0-1.41211.48047-1.41211,1.04053,0,.68848.54785.99268,1.80078,1.521,1.71387.7041,2.52051,1.69629,2.52051,3.21728,0,1.8086-1.25293,3.34522-3.918,3.34522a5.83178,5.83178,0,0,1-2.751-.65625Z"/>
    <path d="M78.9958,12.1885c.07227,1.0083.96485,1.48877,1.98779,1.48877a5.63843,5.63843,0,0,0,1.94483-.32031l.28808,1.64844a6.33248,6.33248,0,0,1-2.5498.48047c-2.39111,0-3.75977-1.53662-3.75977-3.98584,0-1.98487,1.10938-4.17774,3.55811-4.17774,2.27588,0,3.14014,1.96875,3.14014,3.90576a6.33713,6.33713,0,0,1-.07227.96045Zm2.57813-1.66455c0-.59228-.23047-1.585-1.23828-1.585-.92188,0-1.29688.92871-1.3545,1.585Z"/>
    <path d="M87.363,5.25784V7.49856h1.56982V9.291H87.363v2.8335c0,.94433.20117,1.37646.86426,1.37646a3.2516,3.2516,0,0,0,.648-.064l.01416,1.84082a3.90024,3.90024,0,0,1-1.42579.208,2.15365,2.15365,0,0,1-1.64208-.67237,3.49278,3.49278,0,0,1-.605-2.3208V9.291H84.28V7.49856h.93652V5.80178Z"/>
    <path d="M98.95576,10.7637H95.3835v2.561h3.98974v2.001H93.1794V4.53714h5.99218v2.001H95.3835V8.77884h3.57226Z"/>
    <path d="M100.79658,9.99563c0-.97656-.02832-1.80859-.05761-2.49707h1.90136l.10108,1.07227h.04345a2.52824,2.52824,0,0,1,2.17481-1.24854c1.44043,0,2.52051,1.05664,2.52051,3.36133v4.64209h-2.18946V10.98782c0-1.0083-.3164-1.69678-1.10888-1.69678a1.194,1.194,0,0,0-1.10889.9126,1.84073,1.84073,0,0,0-.08691.6084v4.51367h-2.18946Z"/>
    <path d="M109.23506,10.07571c0-1.15234-.02832-1.90478-.05762-2.57715h1.88721l.07178,1.44043h.05761a2.10546,2.10546,0,0,1,1.90137-1.6167,2.01829,2.01829,0,0,1,.46094.03223V9.64358a2.81985,2.81985,0,0,0-.59033-.064A1.43952,1.43952,0,0,0,111.468,10.812a3.17718,3.17718,0,0,0-.04346.54394v3.96973h-2.18945Z"/>
    <path d="M116.96846,5.3218a1.15733,1.15733,0,0,1-1.18115,1.21631,1.1318,1.1318,0,0,1-1.13819-1.21631,1.13112,1.13112,0,0,1,1.15235-1.23242A1.15819,1.15819,0,0,1,116.96846,5.3218Zm-2.26172,10.00391V7.49856h2.18945v7.82715Z"/>
    <path d="M123.93867,15.13382a4.86848,4.86848,0,0,1-1.959.35205c-2.27588,0-3.731-1.53662-3.731-4.002a3.87212,3.87212,0,0,1,4.0332-4.16162,4.62473,4.62473,0,0,1,1.6709.3042l-.3457,1.8086a2.73465,2.73465,0,0,0-1.22412-.23975,1.94173,1.94173,0,0,0-1.88721,2.19287,1.94237,1.94237,0,0,0,1.93067,2.19287,3.07663,3.07663,0,0,0,1.25293-.24023Z"/>
    <path d="M125.14619,3.961h2.18946V8.42678h.02929a2.7187,2.7187,0,0,1,.86426-.80029,2.26235,2.26235,0,0,1,1.1377-.3042c1.39746,0,2.46289,1.07276,2.46289,3.42578v4.57764h-2.18946V11.02005c0-1.02442-.3164-1.729-1.13769-1.729a1.18113,1.18113,0,0,0-1.09473.84864,1.70691,1.70691,0,0,0-.07226.54394v4.64209h-2.18946Z"/>
    <path d="M133.58467,9.99563c0-.97656-.02832-1.80859-.05762-2.49707h1.84375l.10108,1.05664h.04345a2.3992,2.3992,0,0,1,2.13184-1.23291,1.99191,1.99191,0,0,1,1.92969,1.32862h.02929a3.31337,3.31337,0,0,1,.90723-.94434,2.34948,2.34948,0,0,1,1.33984-.38428c1.35352,0,2.37647,1.05664,2.37647,3.39356v4.60986h-2.13184V11.0679c0-1.13623-.33154-1.79248-1.03711-1.79248a1.09528,1.09528,0,0,0-1.0083.84814,2.2458,2.2458,0,0,0-.08642.62451v4.57764h-2.13184V10.94c0-.99219-.31689-1.66455-1.0083-1.66455a1.14527,1.14527,0,0,0-1.02246.88037,1.77016,1.77016,0,0,0-.08692.60791v4.562h-2.13183Z"/>
    <path d="M147.654,12.1885c.07227,1.0083.96485,1.48877,1.9878,1.48877a5.63842,5.63842,0,0,0,1.94482-.32031l.28809,1.64844a6.33253,6.33253,0,0,1-2.54981.48047c-2.39111,0-3.75976-1.53662-3.75976-3.98584,0-1.98487,1.10937-4.17774,3.5581-4.17774,2.27588,0,3.14014,1.96875,3.14014,3.90576a6.33713,6.33713,0,0,1-.07227.96045Zm2.57813-1.66455c0-.59228-.23047-1.585-1.23828-1.585-.92188,0-1.29688.92871-1.35449,1.585Z"/>
    <path d="M153.572,9.99563c0-.97656-.02929-1.80859-.05761-2.49707h1.90136l.10059,1.07227h.043a2.52983,2.52983,0,0,1,2.17529-1.24854c1.44043,0,2.521,1.05664,2.521,3.36133v4.64209h-2.18946V10.98782c0-1.0083-.31738-1.69678-1.10937-1.69678a1.19557,1.19557,0,0,0-1.10938.9126,1.84311,1.84311,0,0,0-.08593.6084v4.51367H153.572Z"/>
    <path d="M164.37275,5.25784V7.49856h1.56983V9.291h-1.56983v2.8335c0,.94433.20118,1.37646.86426,1.37646a3.25143,3.25143,0,0,0,.648-.064l.01416,1.84082a3.90018,3.90018,0,0,1-1.42578.208,2.15367,2.15367,0,0,1-1.64209-.67237,3.49284,3.49284,0,0,1-.605-2.3208V9.291h-.93652V7.49856h.93652V5.80178Z"/>
  </g>
  <rect class="cls-1" x="83.83465" y="150.34646" width="30.75591" height="30.75591"/>
  <rect class="cls-1" x="53.07874" y="150.34646" width="30.75591" height="30.75591"/>
  <rect class="cls-2" x="22.32283" y="27.32283" width="30.75591" height="30.75591"/>
  <rect class="cls-3" x="53.07874" y="27.32283" width="30.75591" height="30.75591"/>
  <rect class="cls-3" x="83.83465" y="27.32283" width="30.75591" height="30.75591"/>
  <rect class="cls-3" x="114.59055" y="27.32283" width="30.75591" height="30.75591"/>
  <rect class="cls-3" x="22.32283" y="58.07874" width="30.75591" height="30.75591"/>
  <rect class="cls-2" x="53.07874" y="58.07874" width="30.75591" height="30.75591"/>
  <rect class="cls-4" x="83.83465" y="58.07874" width="30.75591" height="30.75591"/>
  <rect class="cls-4" x="114.59055" y="58.07874" width="30.75591" height="30.75591"/>
  <rect class="cls-3" x="22.32283" y="88.83465" width="30.75591" height="30.75591"/>
  <rect class="cls-3" x="53.07874" y="88.83465" width="30.75591" height="30.75591"/>
  <rect class="cls-2" x="83.83465" y="88.83465" width="30.75591" height="30.75591"/>
  <rect class="cls-3" x="114.59055" y="88.83465" width="30.75591" height="30.75591"/>
  <rect class="cls-3" x="22.32304" y="119.59055" width="30.75591" height="30.75591"/>
  <rect class="cls-3" x="53.07874" y="119.59055" width="30.75591" height="30.75591"/>
  <rect class="cls-3" x="83.83465" y="119.59055" width="30.75591" height="30.75591"/>
  <rect class="cls-2" x="114.59055" y="119.59055" width="30.75591" height="30.75591"/>
  <g>
    <path d="M62.47432,34.89016H61.18867V33.439h3.99756v1.45117H63.88984v6.63233H62.47432Z"/>
    <path d="M65.92988,33.439h3.16553v1.36719h-1.75v2.07471H68.9875V38.1885H67.34541v3.334H65.92988Z"/>
    <path d="M73.1877,35.20218h-.02149l-1.18847.68359-.23731-1.23535,1.60938-.92383h1.24267v7.7959H73.1877Z"/>
    <path d="M56.98848,43.47464v1.583h1.03711v1.11524H56.98848v2.6748c0,.6836.25927.85157.54.85157a1.74958,1.74958,0,0,0,.36718-.03614l.01123,1.22315a3.01992,3.01992,0,0,1-.86425.10791,1.34,1.34,0,0,1-1.01563-.37158,2.26533,2.26533,0,0,1-.45361-1.6792V46.17288h-.627V45.05764h.627V43.84622Z"/>
    <path d="M61.04951,50.92239l-.07568-.57568h-.02149a1.34407,1.34407,0,0,1-1.167.67187c-.79931,0-1.39355-.74365-1.39355-1.78711a2.19221,2.19221,0,0,1,2.41992-2.1831v-.13184a.71064.71064,0,0,0-.74512-.7915A1.83592,1.83592,0,0,0,58.986,46.461l-.25928-1.05566a3.17862,3.17862,0,0,1,1.64209-.44385c1.60986,0,1.86914,1.24756,1.86914,2.43506v2.18262a8.70131,8.70131,0,0,0,.08642,1.34326Zm-.19433-2.85449c-.47559.01221-1.12354.18017-1.12354.9956,0,.58741.29151.80371.50781.80371a.62741.62741,0,0,0,.583-.5039,1.11279,1.11279,0,0,0,.03272-.27588Z"/>
    <path d="M63.23018,46.82083c0-.58789-.022-1.22364-.04346-1.76319h1.23144l.07569.85157h.03271c.23731-.62354.65869-.94776,1.04785-.94776a1.05735,1.05735,0,0,1,.30225.02442V46.545a1.15921,1.15921,0,0,0-.30225-.02393c-.30273,0-.70214.22754-.86425.83936a2.61428,2.61428,0,0,0-.0542.58789v2.97412H63.23018Z"/>
    <path d="M70.27315,45.05764c-.02149.52784-.0542,1.15137-.0542,1.85889v3.34619a3.31818,3.31818,0,0,1-.63721,2.41065,2.24756,2.24756,0,0,1-1.71777.648,3.08355,3.08355,0,0,1-1.31788-.27588l.25928-1.21143a2.273,2.273,0,0,0,1.01514.252c.71338,0,.99414-.52783.99414-1.42724v-.35986h-.02149a1.04958,1.04958,0,0,1-.95068.5874c-1.18848,0-1.65283-1.439-1.65283-2.84229,0-1.95508.79932-3.08252,1.78223-3.08252a1.05682,1.05682,0,0,1,.97265.68408H68.966l.07568-.58789Zm-1.4585,2.13477a1.70882,1.70882,0,0,0-.0542-.43164c-.06445-.252-.21582-.48-.45361-.48-.50782,0-.71289.76758-.71289,1.727,0,1.0918.28076,1.64307.68066,1.64307.18359,0,.36719-.10791.4751-.41944a1.61212,1.61212,0,0,0,.06494-.46777Z"/>
    <path d="M72.37764,48.54788c.022.91113.49707,1.24707,1.12353,1.24707a2.8365,2.8365,0,0,0,1.00489-.1919l.19433,1.12745a3.99126,3.99126,0,0,1-1.45849.26367c-1.43653,0-2.2251-1.05518-2.2251-2.89014,0-1.9668.918-3.14258,2.11719-3.14258,1.13427,0,1.79345.99561,1.79345,2.77051a4.58677,4.58677,0,0,1-.04345.81592Zm1.26416-1.10352c0-.75586-.17285-1.34326-.59424-1.34326-.46436,0-.648.75537-.65869,1.34326Z"/>
    <path d="M77.38936,43.47464v1.583h1.03711v1.11524H77.38936v2.6748c0,.6836.25927.85157.54.85157a1.75773,1.75773,0,0,0,.36767-.03614l.01074,1.22315a3.01992,3.01992,0,0,1-.86425.10791,1.34,1.34,0,0,1-1.01563-.37158,2.26315,2.26315,0,0,1-.45361-1.6792V46.17288h-.627V45.05764h.627V43.84622Z"/>
    <path d="M79.04072,49.50735a1.84384,1.84384,0,0,0,.95069.31152c.36718,0,.57275-.17968.57275-.52783,0-.2998-.15137-.4917-.61572-.7915a1.91728,1.91728,0,0,1-1.06983-1.69092,1.71623,1.71623,0,0,1,1.73975-1.84717,2.28114,2.28114,0,0,1,1.06934.26416L81.43916,46.377a1.36375,1.36375,0,0,0-.73486-.23975.48749.48749,0,0,0-.5293.50342c0,.26416.11914.40772.61621.73145a2.01672,2.01672,0,0,1,1.06934,1.77539,1.72392,1.72392,0,0,1-1.86914,1.84668,2.15164,2.15164,0,0,1-1.21-.33545Z"/>
  </g>
  <g>
    <path d="M93.22969,34.89016H91.944V33.439H95.9416v1.45117H94.64522v6.63233H93.22969Z"/>
    <path d="M96.68525,33.439h3.16553v1.36719h-1.75v2.07471h1.64209V38.1885H98.10078v3.334H96.68525Z"/>
    <path d="M102.26875,41.52249V40.46682l.70215-.99511c.90771-1.28321,1.65283-2.35059,1.65283-3.46631,0-.62354-.313-1.06738-.89648-1.06738a1.86158,1.86158,0,0,0-1.0586.396l-.24853-1.22363a2.91813,2.91813,0,0,1,1.5664-.47949,1.97821,1.97821,0,0,1,2.03077,2.25488,6.106,6.106,0,0,1-1.63086,3.68164l-.42139.55176v.02392h2.1499v1.3794Z"/>
    <path d="M87.74385,43.47464v1.583H88.781v1.11524H87.74385v2.6748c0,.6836.25928.85157.54.85157a1.74958,1.74958,0,0,0,.36718-.03614l.01124,1.22315a3.02005,3.02005,0,0,1-.86426.10791,1.34,1.34,0,0,1-1.01563-.37158,2.26533,2.26533,0,0,1-.45361-1.6792V46.17288h-.627V45.05764h.627V43.84622Z"/>
    <path d="M91.80488,50.92239l-.07568-.57568h-.02148a1.3441,1.3441,0,0,1-1.167.67187c-.79931,0-1.39355-.74365-1.39355-1.78711a2.19221,2.19221,0,0,1,2.41992-2.1831v-.13184a.71064.71064,0,0,0-.74512-.7915,1.83592,1.83592,0,0,0-1.08056.33593l-.25928-1.05566a3.17862,3.17862,0,0,1,1.64209-.44385c1.60986,0,1.86914,1.24756,1.86914,2.43506v2.18262a8.7,8.7,0,0,0,.08643,1.34326Zm-.19433-2.85449c-.47559.01221-1.12354.18017-1.12354.9956,0,.58741.29151.80371.50781.80371a.62741.62741,0,0,0,.583-.5039,1.11231,1.11231,0,0,0,.03272-.27588Z"/>
    <path d="M93.98555,46.82083c0-.58789-.022-1.22364-.04346-1.76319h1.23145l.07568.85157h.03271c.23731-.62354.6587-.94776,1.04786-.94776a1.05731,1.05731,0,0,1,.30224.02442V46.545a1.15917,1.15917,0,0,0-.30224-.02393c-.30274,0-.70215.22754-.86426.83936a2.61428,2.61428,0,0,0-.0542.58789v2.97412H93.98555Z"/>
    <path d="M101.02852,45.05764c-.02149.52784-.0542,1.15137-.0542,1.85889v3.34619a3.31818,3.31818,0,0,1-.63721,2.41065,2.24756,2.24756,0,0,1-1.71777.648,3.0835,3.0835,0,0,1-1.31787-.27588l.25927-1.21143a2.273,2.273,0,0,0,1.01514.252c.71338,0,.99414-.52783.99414-1.42724v-.35986h-.02148a1.04961,1.04961,0,0,1-.95069.5874c-1.18847,0-1.65283-1.439-1.65283-2.84229,0-1.95508.79932-3.08252,1.78223-3.08252a1.05682,1.05682,0,0,1,.97265.68408h.02149l.07568-.58789ZM99.57,47.19241a1.70836,1.70836,0,0,0-.0542-.43164c-.06445-.252-.21582-.48-.45361-.48-.50781,0-.71289.76758-.71289,1.727,0,1.0918.28076,1.64307.68066,1.64307.18359,0,.36719-.10791.4751-.41944A1.61178,1.61178,0,0,0,99.57,48.7637Z"/>
    <path d="M103.133,48.54788c.022.91113.49707,1.24707,1.12353,1.24707a2.83645,2.83645,0,0,0,1.00489-.1919l.19433,1.12745a3.99126,3.99126,0,0,1-1.45849.26367c-1.43653,0-2.2251-1.05518-2.2251-2.89014,0-1.9668.918-3.14258,2.11719-3.14258,1.13427,0,1.79345.99561,1.79345,2.77051a4.58677,4.58677,0,0,1-.04345.81592Zm1.26416-1.10352c0-.75586-.17285-1.34326-.59424-1.34326-.46436,0-.648.75537-.65869,1.34326Z"/>
    <path d="M108.14473,43.47464v1.583h1.03711v1.11524h-1.03711v2.6748c0,.6836.25927.85157.54.85157a1.75773,1.75773,0,0,0,.36767-.03614l.01074,1.22315a3.01992,3.01992,0,0,1-.86425.10791,1.34,1.34,0,0,1-1.01563-.37158,2.26315,2.26315,0,0,1-.45361-1.6792V46.17288h-.627V45.05764h.627V43.84622Z"/>
    <path d="M109.79609,49.50735a1.84384,1.84384,0,0,0,.95069.31152c.36719,0,.57275-.17968.57275-.52783,0-.2998-.15137-.4917-.61572-.7915a1.91726,1.91726,0,0,1-1.06982-1.69092,1.71623,1.71623,0,0,1,1.73974-1.84717,2.28111,2.28111,0,0,1,1.06934.26416l-.24854,1.15137a1.36375,1.36375,0,0,0-.73486-.23975.48749.48749,0,0,0-.5293.50342c0,.26416.11914.40772.61621.73145a2.01672,2.01672,0,0,1,1.06934,1.77539,1.72392,1.72392,0,0,1-1.86914,1.84668,2.15164,2.15164,0,0,1-1.21-.33545Z"/>
  </g>
  <g>
    <path d="M123.98555,36.06839H122.6999V34.61721h3.99756v1.45118h-1.29639v6.63232h-1.41552Z"/>
    <path d="M127.44111,34.61721h3.16553V35.9844h-1.75v2.07471h1.64209v1.30762h-1.64209v3.334h-1.41553Z"/>
    <path d="M133.22969,41.21341a2.01781,2.01781,0,0,0,1.04834.2998,1.01912,1.01912,0,0,0,1.05859-1.12744,1.17728,1.17728,0,0,0-1.31836-1.23486h-.19433V37.99954h.14062c.51856-.01221,1.18848-.252,1.18848-1.00781a.801.801,0,0,0-.82129-.89942,1.59924,1.59924,0,0,0-.88574.312l-.1836-1.1875a2.75388,2.75388,0,0,1,1.44727-.40771,1.76528,1.76528,0,0,1,1.84765,1.88281,1.9262,1.9262,0,0,1-1.00488,1.751v.02392a1.958,1.958,0,0,1,1.19922,1.979,2.27186,2.27186,0,0,1-2.34424,2.35058,2.73448,2.73448,0,0,1-1.38281-.34765Z"/>
    <path d="M118.49971,44.65286v1.583h1.03711V47.3511h-1.03711v2.67481c0,.68359.25928.85156.54.85156a1.75027,1.75027,0,0,0,.36718-.03613l.01123,1.22314a3.01992,3.01992,0,0,1-.86425.10791,1.34,1.34,0,0,1-1.01563-.37158,2.2653,2.2653,0,0,1-.45361-1.6792V47.3511h-.627V46.23587h.627V45.02444Z"/>
    <path d="M122.56074,52.10061l-.07568-.57568h-.02149a1.344,1.344,0,0,1-1.167.67187c-.79931,0-1.39355-.74365-1.39355-1.78711a2.19221,2.19221,0,0,1,2.41992-2.1831v-.13184a.71064.71064,0,0,0-.74512-.7915,1.83593,1.83593,0,0,0-1.08056.33594l-.25928-1.05567a3.17863,3.17863,0,0,1,1.64209-.44384c1.60986,0,1.86914,1.24755,1.86914,2.43505v2.18262a8.69992,8.69992,0,0,0,.08643,1.34326Zm-.19433-2.85449c-.47559.01221-1.12354.18018-1.12354.99561,0,.5874.29151.80371.50781.80371a.62741.62741,0,0,0,.583-.50391,1.11267,1.11267,0,0,0,.03272-.27588Z"/>
    <path d="M124.74141,47.999c0-.58789-.022-1.22363-.04346-1.76318h1.23145l.07568.85156h.03271c.23731-.62354.6587-.94775,1.04786-.94775a1.05773,1.05773,0,0,1,.30224.02441v1.55908a1.15964,1.15964,0,0,0-.30224-.02392c-.30274,0-.70215.22753-.86426.83935a2.61434,2.61434,0,0,0-.0542.58789v2.97412h-1.42578Z"/>
    <path d="M131.78438,46.23587c-.02149.52783-.0542,1.15136-.0542,1.85888v3.34619a3.31818,3.31818,0,0,1-.63721,2.41065,2.24756,2.24756,0,0,1-1.71777.648,3.0834,3.0834,0,0,1-1.31788-.27588l.25928-1.21143a2.273,2.273,0,0,0,1.01514.252c.71338,0,.99414-.52783.99414-1.42725v-.35986h-.02148a1.04961,1.04961,0,0,1-.95069.5874c-1.18847,0-1.65283-1.439-1.65283-2.84229,0-1.95507.79932-3.08251,1.78223-3.08251a1.0568,1.0568,0,0,1,.97265.68408h.02149l.07568-.58789Zm-1.4585,2.13476a1.70836,1.70836,0,0,0-.0542-.43164c-.06445-.25195-.21582-.48-.45361-.48-.50782,0-.71289.76758-.71289,1.727,0,1.0918.28076,1.64307.68066,1.64307.18359,0,.36719-.10791.4751-.41944a1.61178,1.61178,0,0,0,.06494-.46777Z"/>
    <path d="M133.88887,49.7261c.022.91113.49707,1.24707,1.12353,1.24707a2.83669,2.83669,0,0,0,1.00489-.19189l.19433,1.12744a3.99126,3.99126,0,0,1-1.45849.26367c-1.43653,0-2.2251-1.05518-2.2251-2.89014,0-1.96679.918-3.14257,2.11719-3.14257,1.13427,0,1.79345.9956,1.79345,2.7705a4.58669,4.58669,0,0,1-.04345.81592Zm1.26416-1.10351c0-.75586-.17285-1.34327-.59424-1.34327-.46436,0-.64795.75537-.65869,1.34327Z"/>
    <path d="M138.90059,44.65286v1.583h1.03711V47.3511h-1.03711v2.67481c0,.68359.25927.85156.54.85156a1.75843,1.75843,0,0,0,.36767-.03613l.01074,1.22314a3.01992,3.01992,0,0,1-.86425.10791,1.34,1.34,0,0,1-1.01563-.37158,2.26312,2.26312,0,0,1-.45361-1.6792V47.3511h-.627V46.23587h.627V45.02444Z"/>
    <path d="M140.552,50.68557a1.84384,1.84384,0,0,0,.95069.31153c.36718,0,.57275-.17969.57275-.52783,0-.29981-.15137-.4917-.61572-.79151a1.91728,1.91728,0,0,1-1.06983-1.69092,1.71623,1.71623,0,0,1,1.73975-1.84716,2.281,2.281,0,0,1,1.06934.26416l-.24854,1.15136a1.36382,1.36382,0,0,0-.73486-.23974.48749.48749,0,0,0-.5293.50341c0,.26416.11914.40772.61621.73145a2.01674,2.01674,0,0,1,1.06934,1.77539,1.72392,1.72392,0,0,1-1.86914,1.84668,2.15164,2.15164,0,0,1-1.21-.33545Z"/>
  </g>
  <g>
    <path d="M31.718,96.40188H30.43232V94.95071h3.99756v1.45117H33.1335v6.63233H31.718Z"/>
    <path d="M35.17354,94.95071h3.16552V96.3179h-1.75v2.07471h1.64209v1.30761H36.58906v3.334H35.17354Z"/>
    <path d="M40.757,103.03421v-1.05567l.70215-.99511c.90772-1.28321,1.65283-2.35059,1.65283-3.46631,0-.62354-.313-1.06739-.89648-1.06739a1.86151,1.86151,0,0,0-1.0586.396L40.9084,95.6221a2.91814,2.91814,0,0,1,1.56641-.47949,1.9782,1.9782,0,0,1,2.03076,2.25488,6.106,6.106,0,0,1-1.63086,3.68164l-.42139.55176v.02392h2.1499v1.3794Z"/>
    <path d="M26.23213,104.98636v1.583h1.03711v1.11524H26.23213v2.6748c0,.6836.25928.85156.54.85156a1.74977,1.74977,0,0,0,.36719-.03613l.01123,1.22315a3.02041,3.02041,0,0,1-.86426.10791,1.34,1.34,0,0,1-1.01563-.37159,2.26529,2.26529,0,0,1-.45361-1.67919V107.6846h-.627v-1.11524h.627v-1.21142Z"/>
    <path d="M30.29316,112.43411l-.07568-.57568H30.196a1.3441,1.3441,0,0,1-1.167.67187c-.79931,0-1.39355-.74365-1.39355-1.78711a2.1922,2.1922,0,0,1,2.41992-2.1831v-.13184a.71064.71064,0,0,0-.74512-.7915,1.83592,1.83592,0,0,0-1.08056.33593l-.25928-1.05566a3.17856,3.17856,0,0,1,1.64209-.44385c1.60986,0,1.86914,1.24756,1.86914,2.43506v2.18262a8.70125,8.70125,0,0,0,.08643,1.34326Zm-.19433-2.85449c-.47559.0122-1.12354.18017-1.12354.9956,0,.5874.29151.80371.50782.80371a.6274.6274,0,0,0,.583-.5039,1.11231,1.11231,0,0,0,.03272-.27588Z"/>
    <path d="M32.47383,108.33255c0-.58789-.022-1.22364-.04346-1.76319h1.23145l.07568.85157h.03272c.2373-.62354.65869-.94776,1.04785-.94776a1.05731,1.05731,0,0,1,.30224.02442v1.55908a1.15917,1.15917,0,0,0-.30224-.02393c-.30274,0-.70215.22754-.86426.83936a2.61421,2.61421,0,0,0-.0542.58789v2.97412H32.47383Z"/>
    <path d="M39.5168,106.56936c-.02149.52783-.0542,1.15137-.0542,1.85889v3.34619a3.31818,3.31818,0,0,1-.63721,2.41065,2.24755,2.24755,0,0,1-1.71777.64794,3.0835,3.0835,0,0,1-1.31787-.27587l.25927-1.21143a2.273,2.273,0,0,0,1.01514.25195c.71338,0,.99414-.52783.99414-1.42724v-.35987h-.02148a1.0496,1.0496,0,0,1-.95069.58741c-1.18847,0-1.65283-1.439-1.65283-2.84229,0-1.95508.79932-3.08252,1.78223-3.08252a1.05682,1.05682,0,0,1,.97265.68408h.02149l.07568-.58789Zm-1.4585,2.13477a1.70836,1.70836,0,0,0-.0542-.43164c-.06445-.252-.21582-.48-.45361-.48-.50781,0-.71289.76758-.71289,1.72705,0,1.0918.28076,1.64306.68066,1.64306.1836,0,.36719-.10791.4751-.41943a1.61178,1.61178,0,0,0,.06494-.46777Z"/>
    <path d="M41.62129,110.0596c.022.91113.49707,1.24707,1.12353,1.24707a2.83667,2.83667,0,0,0,1.00489-.1919l.19433,1.12744a3.991,3.991,0,0,1-1.45849.26368c-1.43653,0-2.2251-1.05518-2.2251-2.89014,0-1.9668.918-3.14258,2.11719-3.14258,1.13427,0,1.79345.99561,1.79345,2.77051a4.58677,4.58677,0,0,1-.04345.81592Zm1.26416-1.10352c0-.75586-.17285-1.34326-.59424-1.34326-.46435,0-.648.75537-.65869,1.34326Z"/>
    <path d="M46.633,104.98636v1.583h1.03711v1.11524H46.633v2.6748c0,.6836.25928.85156.54.85156a1.75775,1.75775,0,0,0,.36767-.03613l.01075,1.22315a3.02041,3.02041,0,0,1-.86426.10791,1.34,1.34,0,0,1-1.01563-.37159,2.26311,2.26311,0,0,1-.45361-1.67919V107.6846h-.627v-1.11524h.627v-1.21142Z"/>
    <path d="M48.28438,111.01907a1.84386,1.84386,0,0,0,.95068.31152c.36719,0,.57275-.17968.57275-.52783,0-.2998-.15136-.4917-.61572-.7915a1.91726,1.91726,0,0,1-1.06982-1.69092,1.71623,1.71623,0,0,1,1.73974-1.84717,2.28111,2.28111,0,0,1,1.06934.26416l-.24854,1.15137a1.36372,1.36372,0,0,0-.73486-.23975.48749.48749,0,0,0-.5293.50342c0,.26416.11914.40772.61621.73145a2.01672,2.01672,0,0,1,1.06934,1.77539,1.72392,1.72392,0,0,1-1.86914,1.84668,2.15164,2.15164,0,0,1-1.21-.33545Z"/>
  </g>
  <g>
    <path d="M31.718,65.64651H30.43232V64.19534h3.99756v1.45117H33.1335v6.63233H31.718Z"/>
    <path d="M35.17354,64.19534h3.16552v1.36719h-1.75v2.0747h1.64209v1.30762H36.58906v3.334H35.17354Z"/>
    <path d="M42.43135,65.95852h-.02149l-1.18847.6836-.23731-1.23535,1.60938-.92383h1.24267v7.7959H42.43135Z"/>
    <path d="M26.23213,74.231v1.583h1.03711v1.11524H26.23213V79.604c0,.68359.25928.85156.54.85156a1.74977,1.74977,0,0,0,.36719-.03613l.01123,1.22315a3.02041,3.02041,0,0,1-.86426.10791,1.34,1.34,0,0,1-1.01563-.37159,2.2653,2.2653,0,0,1-.45361-1.6792v-2.7705h-.627V75.814h.627V74.60257Z"/>
    <path d="M30.29316,81.67874l-.07568-.57569H30.196a1.34408,1.34408,0,0,1-1.167.67188c-.79931,0-1.39355-.74365-1.39355-1.78711a2.19221,2.19221,0,0,1,2.41992-2.18311v-.13183a.71064.71064,0,0,0-.74512-.79151,1.83593,1.83593,0,0,0-1.08056.33594l-.25928-1.05566a3.17856,3.17856,0,0,1,1.64209-.44385c1.60986,0,1.86914,1.24756,1.86914,2.43506v2.18262a8.70125,8.70125,0,0,0,.08643,1.34326Zm-.19433-2.85449c-.47559.0122-1.12354.18017-1.12354.9956,0,.5874.29151.80371.50782.80371a.6274.6274,0,0,0,.583-.5039,1.11231,1.11231,0,0,0,.03272-.27588Z"/>
    <path d="M32.47383,77.57718c0-.5879-.022-1.22364-.04346-1.76319h1.23145l.07568.85156h.03272c.2373-.62353.65869-.94775,1.04785-.94775a1.05773,1.05773,0,0,1,.30224.02441V77.3013a1.15917,1.15917,0,0,0-.30224-.02393c-.30274,0-.70215.22754-.86426.83936a2.61421,2.61421,0,0,0-.0542.58789v2.97412H32.47383Z"/>
    <path d="M39.5168,75.814c-.02149.52783-.0542,1.15137-.0542,1.85889v3.34619a3.31814,3.31814,0,0,1-.63721,2.41064,2.24752,2.24752,0,0,1-1.71777.64795,3.08335,3.08335,0,0,1-1.31787-.27588l.25927-1.21142a2.27315,2.27315,0,0,0,1.01514.25195c.71338,0,.99414-.52783.99414-1.42724V81.0552h-.02148a1.04962,1.04962,0,0,1-.95069.58741c-1.18847,0-1.65283-1.439-1.65283-2.84229,0-1.95508.79932-3.08252,1.78223-3.08252a1.0568,1.0568,0,0,1,.97265.68408h.02149l.07568-.58789Zm-1.4585,2.13477a1.70836,1.70836,0,0,0-.0542-.43164c-.06445-.252-.21582-.48-.45361-.48-.50781,0-.71289.76757-.71289,1.72705,0,1.09179.28076,1.64306.68066,1.64306.1836,0,.36719-.10791.4751-.41943a1.61183,1.61183,0,0,0,.06494-.46777Z"/>
    <path d="M41.62129,79.30423c.022.91113.49707,1.24707,1.12353,1.24707a2.83667,2.83667,0,0,0,1.00489-.1919l.19433,1.12744a3.991,3.991,0,0,1-1.45849.26368c-1.43653,0-2.2251-1.05518-2.2251-2.89014,0-1.9668.918-3.14258,2.11719-3.14258,1.13427,0,1.79345.99561,1.79345,2.77051a4.58677,4.58677,0,0,1-.04345.81592Zm1.26416-1.10352c0-.75586-.17285-1.34326-.59424-1.34326-.46435,0-.648.75537-.65869,1.34326Z"/>
    <path d="M46.633,74.231v1.583h1.03711v1.11524H46.633V79.604c0,.68359.25928.85156.54.85156a1.75775,1.75775,0,0,0,.36767-.03613l.01075,1.22315a3.02041,3.02041,0,0,1-.86426.10791,1.34,1.34,0,0,1-1.01563-.37159,2.26312,2.26312,0,0,1-.45361-1.6792v-2.7705h-.627V75.814h.627V74.60257Z"/>
    <path d="M48.28438,80.2637a1.84386,1.84386,0,0,0,.95068.31152c.36719,0,.57275-.17969.57275-.52783,0-.2998-.15136-.4917-.61572-.7915A1.91726,1.91726,0,0,1,48.12227,77.565,1.71623,1.71623,0,0,1,49.862,75.7178a2.28111,2.28111,0,0,1,1.06934.26416l-.24854,1.15137a1.36372,1.36372,0,0,0-.73486-.23975.48749.48749,0,0,0-.5293.50342c0,.26416.11914.40771.61621.73144a2.01675,2.01675,0,0,1,1.06934,1.7754,1.72393,1.72393,0,0,1-1.86914,1.84668,2.15164,2.15164,0,0,1-1.21-.33545Z"/>
  </g>
  <g>
    <path d="M31.718,127.15823H30.43232v-1.45117h3.99756v1.45117H33.1335v6.63232H31.718Z"/>
    <path d="M35.17354,125.70706h3.16552v1.36719h-1.75v2.0747h1.64209v1.30762H36.58906v3.334H35.17354Z"/>
    <path d="M40.96211,132.30325a2.01772,2.01772,0,0,0,1.04834.2998,1.01911,1.01911,0,0,0,1.05859-1.12744,1.17727,1.17727,0,0,0-1.31836-1.23486h-.19433v-1.15137H41.697c.51856-.0122,1.18848-.25195,1.18848-1.00781a.80094.80094,0,0,0-.82129-.89941,1.59919,1.59919,0,0,0-.88574.312l-.1836-1.1875a2.75388,2.75388,0,0,1,1.44727-.40772,1.7653,1.7653,0,0,1,1.84766,1.88282,1.92619,1.92619,0,0,1-1.00489,1.751v.02393a1.958,1.958,0,0,1,1.19922,1.979,2.27187,2.27187,0,0,1-2.34424,2.35059,2.73437,2.73437,0,0,1-1.38281-.34766Z"/>
    <path d="M26.23213,135.7427v1.583h1.03711v1.11523H26.23213v2.67481c0,.68359.25928.85156.54.85156a1.74977,1.74977,0,0,0,.36719-.03613l.01123,1.22314a3.02005,3.02005,0,0,1-.86426.10791,1.34,1.34,0,0,1-1.01563-.37158,2.2653,2.2653,0,0,1-.45361-1.6792v-2.77051h-.627v-1.11523h.627v-1.21143Z"/>
    <path d="M30.29316,143.19046l-.07568-.57569H30.196a1.34408,1.34408,0,0,1-1.167.67188c-.79931,0-1.39355-.74365-1.39355-1.78711a2.19221,2.19221,0,0,1,2.41992-2.18311v-.13183a.71064.71064,0,0,0-.74512-.79151,1.83593,1.83593,0,0,0-1.08056.33594l-.25928-1.05566a3.17856,3.17856,0,0,1,1.64209-.44385c1.60986,0,1.86914,1.24756,1.86914,2.43506v2.18261a8.7013,8.7013,0,0,0,.08643,1.34327Zm-.19433-2.8545c-.47559.01221-1.12354.18018-1.12354.99561,0,.5874.29151.80371.50782.80371a.6274.6274,0,0,0,.583-.50391,1.11218,1.11218,0,0,0,.03272-.27587Z"/>
    <path d="M32.47383,139.08889c0-.58789-.022-1.22363-.04346-1.76318h1.23145l.07568.85156h.03272c.2373-.62353.65869-.94775,1.04785-.94775a1.05773,1.05773,0,0,1,.30224.02441V138.813a1.15917,1.15917,0,0,0-.30224-.02393c-.30274,0-.70215.22754-.86426.83935a2.61438,2.61438,0,0,0-.0542.5879v2.97412H32.47383Z"/>
    <path d="M39.5168,137.32571c-.02149.52783-.0542,1.15137-.0542,1.85889v3.34619a3.31814,3.31814,0,0,1-.63721,2.41064,2.24752,2.24752,0,0,1-1.71777.648,3.08335,3.08335,0,0,1-1.31787-.27588l.25927-1.21142a2.27315,2.27315,0,0,0,1.01514.25195c.71338,0,.99414-.52783.99414-1.42725v-.35986h-.02148a1.04961,1.04961,0,0,1-.95069.5874c-1.18847,0-1.65283-1.439-1.65283-2.84228,0-1.95508.79932-3.08252,1.78223-3.08252a1.0568,1.0568,0,0,1,.97265.68408h.02149l.07568-.58789Zm-1.4585,2.13477a1.70824,1.70824,0,0,0-.0542-.43164c-.06445-.252-.21582-.48-.45361-.48-.50781,0-.71289.76757-.71289,1.72705,0,1.09179.28076,1.64306.68066,1.64306.1836,0,.36719-.10791.4751-.41943a1.61183,1.61183,0,0,0,.06494-.46777Z"/>
    <path d="M41.62129,140.81594c.022.91114.49707,1.24708,1.12353,1.24708a2.83667,2.83667,0,0,0,1.00489-.1919l.19433,1.12744a3.99122,3.99122,0,0,1-1.45849.26367c-1.43653,0-2.2251-1.05517-2.2251-2.89013,0-1.9668.918-3.14258,2.11719-3.14258,1.13427,0,1.79345.9956,1.79345,2.77051a4.58656,4.58656,0,0,1-.04345.81591Zm1.26416-1.10351c0-.75586-.17285-1.34326-.59424-1.34326-.46435,0-.648.75537-.65869,1.34326Z"/>
    <path d="M46.633,135.7427v1.583h1.03711v1.11523H46.633v2.67481c0,.68359.25928.85156.54.85156a1.75775,1.75775,0,0,0,.36767-.03613l.01075,1.22314a3.02005,3.02005,0,0,1-.86426.10791,1.34,1.34,0,0,1-1.01563-.37158,2.26312,2.26312,0,0,1-.45361-1.6792v-2.77051h-.627v-1.11523h.627v-1.21143Z"/>
    <path d="M48.28438,141.77542a1.84386,1.84386,0,0,0,.95068.31152c.36719,0,.57275-.17969.57275-.52783,0-.29981-.15136-.4917-.61572-.7915a1.91727,1.91727,0,0,1-1.06982-1.69092,1.71623,1.71623,0,0,1,1.73974-1.84717,2.28111,2.28111,0,0,1,1.06934.26416l-.24854,1.15137a1.36372,1.36372,0,0,0-.73486-.23975.48749.48749,0,0,0-.5293.50342c0,.26416.11914.40771.61621.73144a2.01674,2.01674,0,0,1,1.06934,1.77539,1.72392,1.72392,0,0,1-1.86914,1.84668,2.15157,2.15157,0,0,1-1.21-.33545Z"/>
  </g>
  <g>
    <path class="cls-5" d="M73.05928,156.46243v5.25293c0,1.1875.32422,1.54785.6914,1.54785.41065,0,.70215-.32422.70215-1.54785v-5.25293h1.41553V161.44c0,2.07519-.70215,3.20215-2.10693,3.20215-1.523,0-2.11719-1.16309-2.11719-3.19043v-4.98926Z"/>
    <path class="cls-5" d="M76.95772,160.44485c0-.64844-.03272-1.21191-.04346-1.76367H78.135l.06494.67187h.02149a1.48567,1.48567,0,0,1,1.28564-.76757c1.00488,0,1.4043.88769,1.4043,2.19433v3.7666h-1.415v-3.66992c0-.5039-.10791-.97168-.51855-.97168-.2378,0-.43213.17969-.5293.52735a1.7032,1.7032,0,0,0-.07569.54v3.57422h-1.415Z"/>
    <path class="cls-5" d="M85.739,156.24661v6.56055c0,.56347.02148,1.19921.04345,1.73925h-1.2207l-.07568-.66015h-.022a1.28025,1.28025,0,0,1-1.10156.75586c-1.12353,0-1.64209-1.37891-1.64209-3.02246,0-2.03907.79932-3.03418,1.6958-3.03418a.89385.89385,0,0,1,.88574.58789h.022v-2.92676Zm-1.415,4.68945c0-.10742,0-.22754-.01075-.34765-.05419-.35938-.22705-.6836-.50781-.6836-.49707,0-.68066.80371-.68066,1.751,0,1.11523.27,1.70312.66992,1.70312.17285,0,.37793-.10839.48584-.51562a1.09823,1.09823,0,0,0,.04346-.36035Z"/>
    <path class="cls-5" d="M87.90889,162.17141c.022.91114.49707,1.24707,1.12353,1.24707a2.84855,2.84855,0,0,0,1.00489-.1914l.19433,1.12695a3.981,3.981,0,0,1-1.45849.26367c-1.43653,0-2.2251-1.05468-2.2251-2.88965,0-1.96679.918-3.14257,2.11719-3.14257,1.13427,0,1.79345.99511,1.79345,2.7705a4.58012,4.58012,0,0,1-.04345.81543Zm1.26416-1.10351c0-.75586-.17285-1.34278-.59424-1.34278-.46436,0-.648.75489-.65869,1.34278Z"/>
    <path class="cls-5" d="M91.2458,160.44485c0-.58789-.022-1.22363-.04346-1.76367h1.23145l.07568.85156h.03272c.2373-.623.65869-.94726,1.04785-.94726a1.0578,1.0578,0,0,1,.30225.02441v1.55859a1.18333,1.18333,0,0,0-.30225-.02343c-.30273,0-.70215.22754-.86426.83886a2.61493,2.61493,0,0,0-.0542.58789v2.97461H91.2458Z"/>
    <path class="cls-5" d="M96.40889,160.67239v1.12695H94.259v-1.12695Z"/>
    <path class="cls-5" d="M61.50313,169.84427c0-.5879-.022-1.22364-.04346-1.7627h1.23144l.07569.85156h.03271c.23731-.624.65869-.94824,1.04785-.94824a1.0578,1.0578,0,0,1,.30225.02441v1.55957a1.13712,1.13712,0,0,0-.30225-.02441c-.30273,0-.70214.22754-.86425.83984a2.61434,2.61434,0,0,0-.0542.58789v2.97364H61.50313Z"/>
    <path class="cls-5" d="M65.823,171.5718c.022.91114.49707,1.24707,1.12354,1.24707a2.825,2.825,0,0,0,1.00488-.19238l.19433,1.12793a4.00145,4.00145,0,0,1-1.45849.26367c-1.43653,0-2.2251-1.05566-2.2251-2.89062,0-1.9668.918-3.14258,2.11719-3.14258,1.13427,0,1.79345.99609,1.79345,2.77051a4.59313,4.59313,0,0,1-.04345.8164Zm1.26416-1.10351c0-.75586-.17285-1.34375-.59424-1.34375-.46435,0-.64795.75586-.65869,1.34375Z"/>
    <path class="cls-5" d="M69.16035,169.94c0-.707-.022-1.30664-.04345-1.8584h1.23144l.07568.6709h.02149a1.2,1.2,0,0,1,1.10205-.76758c1.167,0,1.64209,1.3916,1.64209,3.02246,0,2.08692-.83154,3.03516-1.71777,3.03516a1.02094,1.02094,0,0,1-.875-.57617h-.02149v2.78222h-1.415Zm1.415,1.85937a1.30688,1.30688,0,0,0,.07568.50391c.10792.35937.29151.45508.45362.45508.49707,0,.66992-.81543.66992-1.73828,0-1.11621-.23779-1.71582-.65918-1.71582-.21582,0-.42139.22851-.4751.5039a1.06319,1.06319,0,0,0-.06494.41992Z"/>
    <path class="cls-5" d="M73.9875,169.84427c0-.5879-.022-1.22364-.04346-1.7627h1.23145l.07568.85156h.03272c.2373-.624.65869-.94824,1.04785-.94824a1.0578,1.0578,0,0,1,.30225.02441v1.55957a1.13716,1.13716,0,0,0-.30225-.02441c-.30274,0-.70215.22754-.86426.83984a2.61493,2.61493,0,0,0-.0542.58789v2.97364H73.9875Z"/>
    <path class="cls-5" d="M78.30732,171.5718c.022.91114.49708,1.24707,1.12354,1.24707a2.82493,2.82493,0,0,0,1.00488-.19238l.19434,1.12793a4.00155,4.00155,0,0,1-1.4585.26367c-1.43652,0-2.22509-1.05566-2.22509-2.89062,0-1.9668.918-3.14258,2.11718-3.14258,1.13428,0,1.79346.99609,1.79346,2.77051a4.59185,4.59185,0,0,1-.04346.8164Zm1.26417-1.10351c0-.75586-.17286-1.34375-.59424-1.34375-.46436,0-.64795.75586-.65869,1.34375Z"/>
    <path class="cls-5" d="M81.612,172.53079a1.84393,1.84393,0,0,0,.95069.31152c.36718,0,.57275-.17969.57275-.52734,0-.29981-.15137-.49219-.61572-.792a1.91665,1.91665,0,0,1-1.06983-1.69043,1.71638,1.71638,0,0,1,1.73975-1.84766,2.27514,2.27514,0,0,1,1.06934.26465l-.24854,1.15137a1.36412,1.36412,0,0,0-.73486-.24024.48785.48785,0,0,0-.5293.50391c0,.26367.11914.40722.61621.73144a2.01676,2.01676,0,0,1,1.06934,1.77539,1.72393,1.72393,0,0,1-1.86914,1.84668,2.14778,2.14778,0,0,1-1.21-.33593Z"/>
    <path class="cls-5" d="M86.33174,171.5718c.022.91114.49707,1.24707,1.12353,1.24707a2.825,2.825,0,0,0,1.00489-.19238l.19433,1.12793a4.00149,4.00149,0,0,1-1.45849.26367c-1.43653,0-2.2251-1.05566-2.2251-2.89062,0-1.9668.918-3.14258,2.11719-3.14258,1.13427,0,1.79345.99609,1.79345,2.77051a4.59313,4.59313,0,0,1-.04345.8164Zm1.26416-1.10351c0-.75586-.17285-1.34375-.59424-1.34375-.46435,0-.64795.75586-.65869,1.34375Z"/>
    <path class="cls-5" d="M89.6794,169.84427c0-.64747-.03272-1.21094-.04346-1.7627h1.2207l.06494.6709h.02149a1.48767,1.48767,0,0,1,1.28564-.76758c1.00488,0,1.4043.8877,1.4043,2.19531v3.76563H92.218v-3.66992c0-.50391-.10791-.97168-.51856-.97168-.23779,0-.43212.18066-.52929.52832a1.69637,1.69637,0,0,0-.07569.53906v3.57422h-1.415Z"/>
    <path class="cls-5" d="M96.28975,166.49856v1.583h1.03711v1.11523H96.28975v2.67481c0,.68359.25927.85156.54.85156a1.79127,1.79127,0,0,0,.36767-.03613l.01074,1.22265a2.9994,2.9994,0,0,1-.86425.1084,1.34034,1.34034,0,0,1-1.01563-.37207,2.26092,2.26092,0,0,1-.45361-1.67871V169.1968h-.627v-1.11523h.627v-1.21191Z"/>
    <path class="cls-5" d="M99.09688,171.5718c.022.91114.49707,1.24707,1.12353,1.24707a2.82493,2.82493,0,0,0,1.00488-.19238l.19434,1.12793a4.00155,4.00155,0,0,1-1.4585.26367c-1.43652,0-2.22509-1.05566-2.22509-2.89062,0-1.9668.918-3.14258,2.11718-3.14258,1.13428,0,1.79346.99609,1.79346,2.77051a4.59185,4.59185,0,0,1-.04346.8164Zm1.26416-1.10351c0-.75586-.17286-1.34375-.59424-1.34375-.46436,0-.648.75586-.65918,1.34375Z"/>
    <path class="cls-5" d="M106.28,165.647v6.55957c0,.56445.02149,1.2002.04346,1.73926h-1.2207l-.07569-.65918h-.022a1.282,1.282,0,0,1-1.10156.75586c-1.12354,0-1.64209-1.37989-1.64209-3.02246,0-2.03907.79931-3.03516,1.6958-3.03516a.89387.89387,0,0,1,.88574.58789h.022V165.647Zm-1.415,4.68945c0-.1084,0-.22851-.01074-.34863-.0542-.35938-.22705-.68359-.50781-.68359-.49707,0-.68067.80371-.68067,1.751,0,1.11621.27,1.70313.66993,1.70313.17285,0,.37792-.10742.48584-.51563a1.09552,1.09552,0,0,0,.04345-.35937Z"/>
  </g>
  <g>
    <path class="cls-5" d="M109.35371,68.0928c0,3.04639-.97217,4.28125-2.355,4.28125-1.65283,0-2.30127-1.94287-2.30127-4.16162,0-2.20654.78858-4.11377,2.39844-4.11377C108.85664,64.09866,109.35371,66.24563,109.35371,68.0928Zm-3.187.14356c0,1.835.31348,2.7705.88574,2.7705.59424,0,.82129-1.19922.82129-2.84228,0-1.415-.19433-2.69873-.832-2.69873C106.48018,65.46585,106.1667,66.49759,106.1667,68.23636Z"/>
    <path class="cls-5" d="M111.28584,66.4136l.3999,2.61475c.07569.52734.15088,1.05517.22657,1.64306h.022c.06445-.60009.12939-1.09179.20508-1.64306L112.55,66.4136h1.39356L112.528,72.27835H111.2209l-1.43652-5.86475Z"/>
    <path class="cls-5" d="M115.51924,69.90384c.022.91113.49707,1.24707,1.12353,1.24707a2.83667,2.83667,0,0,0,1.00489-.1919l.19433,1.12744a3.99122,3.99122,0,0,1-1.45849.26367c-1.43653,0-2.2251-1.05517-2.2251-2.89013,0-1.9668.918-3.14258,2.11719-3.14258,1.13427,0,1.79345.99561,1.79345,2.77051a4.58677,4.58677,0,0,1-.04345.81592Zm1.26416-1.10352c0-.75586-.17285-1.34326-.59424-1.34326-.46435,0-.64795.75537-.65918,1.34326Z"/>
    <path class="cls-5" d="M118.85615,68.17678c0-.58789-.022-1.22363-.04345-1.76318h1.23144l.07568.85156h.03272c.2373-.62353.65869-.94775,1.04785-.94775a1.0578,1.0578,0,0,1,.30225.02441v1.55909a1.15929,1.15929,0,0,0-.30225-.02393c-.30273,0-.70215.22754-.86426.83936a2.613,2.613,0,0,0-.0542.5874v2.97461h-1.42578Z"/>
    <path class="cls-5" d="M124.01924,68.40432v1.12745h-2.1499V68.40432Z"/>
    <path class="cls-5" d="M91.9919,77.57669c0-.58789-.022-1.22364-.04346-1.76319h1.23144l.07569.85157h.03271c.23731-.62354.65869-.94776,1.04785-.94776a1.05738,1.05738,0,0,1,.30225.02442v1.55908a1.15925,1.15925,0,0,0-.30225-.02393c-.30273,0-.70214.22754-.86425.83936a2.61428,2.61428,0,0,0-.0542.58789v2.97412H91.9919Z"/>
    <path class="cls-5" d="M96.31172,79.30374c.022.91113.49707,1.24707,1.12353,1.24707a2.83645,2.83645,0,0,0,1.00489-.1919l.19433,1.12745A3.99122,3.99122,0,0,1,97.176,81.75c-1.43653,0-2.2251-1.05518-2.2251-2.89014,0-1.9668.918-3.14258,2.11719-3.14258,1.13427,0,1.79345.99561,1.79345,2.77051a4.58677,4.58677,0,0,1-.04345.81592Zm1.26416-1.10352c0-.75586-.17285-1.34326-.59424-1.34326-.46435,0-.64795.75537-.65869,1.34326Z"/>
    <path class="cls-5" d="M99.64912,77.67239c0-.70752-.022-1.30713-.04346-1.85889h1.23145l.07568.67139h.02149a1.2,1.2,0,0,1,1.10205-.76758c1.167,0,1.64209,1.3916,1.64209,3.02246,0,2.08692-.83154,3.03467-1.71777,3.03467a1.02,1.02,0,0,1-.875-.57617h-.02149V83.981h-1.415Zm1.415,1.85889a1.30679,1.30679,0,0,0,.07568.5039c.10791.35987.29151.45557.45362.45557.49707,0,.66992-.81543.66992-1.73877,0-1.11572-.23779-1.71533-.65918-1.71533-.21582,0-.42139.228-.4751.5039a1.0618,1.0618,0,0,0-.06494.41993Z"/>
    <path class="cls-5" d="M104.47627,77.57669c0-.58789-.022-1.22364-.04346-1.76319h1.23145l.07568.85157h.03272c.2373-.62354.65869-.94776,1.04785-.94776a1.05727,1.05727,0,0,1,.30224.02442v1.55908a1.15917,1.15917,0,0,0-.30224-.02393c-.30274,0-.70215.22754-.86426.83936a2.61487,2.61487,0,0,0-.0542.58789v2.97412h-1.42578Z"/>
    <path class="cls-5" d="M108.79609,79.30374c.022.91113.49707,1.24707,1.12354,1.24707a2.83639,2.83639,0,0,0,1.00488-.1919l.19434,1.12745a3.99128,3.99128,0,0,1-1.4585.26367c-1.43652,0-2.2251-1.05518-2.2251-2.89014,0-1.9668.918-3.14258,2.11719-3.14258,1.13428,0,1.79346.99561,1.79346,2.77051a4.58548,4.58548,0,0,1-.04346.81592Zm1.26416-1.10352c0-.75586-.17285-1.34326-.59423-1.34326-.46436,0-.64795.75537-.6587,1.34326Z"/>
    <path class="cls-5" d="M112.10078,80.26321a1.84384,1.84384,0,0,0,.95069.31152c.36718,0,.57275-.17968.57275-.52783,0-.2998-.15137-.4917-.61572-.7915a1.91728,1.91728,0,0,1-1.06983-1.69092,1.71623,1.71623,0,0,1,1.73975-1.84717,2.28106,2.28106,0,0,1,1.06933.26416l-.24853,1.15137a1.36375,1.36375,0,0,0-.73486-.23975.48749.48749,0,0,0-.5293.50342c0,.26416.11914.40772.61621.73145a2.01674,2.01674,0,0,1,1.06934,1.77539A1.72393,1.72393,0,0,1,113.05147,81.75a2.15168,2.15168,0,0,1-1.21-.33545Z"/>
    <path class="cls-5" d="M116.82051,79.30374c.022.91113.49707,1.24707,1.12353,1.24707a2.83645,2.83645,0,0,0,1.00489-.1919l.19433,1.12745a3.99126,3.99126,0,0,1-1.45849.26367c-1.43653,0-2.2251-1.05518-2.2251-2.89014,0-1.9668.918-3.14258,2.11719-3.14258,1.13427,0,1.79345.99561,1.79345,2.77051a4.58677,4.58677,0,0,1-.04345.81592Zm1.26416-1.10352c0-.75586-.17285-1.34326-.59424-1.34326-.46436,0-.648.75537-.65869,1.34326Z"/>
    <path class="cls-5" d="M120.16816,77.57669c0-.64795-.03271-1.21143-.04345-1.76319h1.2207l.06494.67139h.02149a1.48669,1.48669,0,0,1,1.28564-.76758c1.00488,0,1.4043.8877,1.4043,2.19483v3.76611h-1.415V78.00833c0-.50391-.10791-.97168-.51856-.97168-.23779,0-.43212.18017-.52929.52783a1.69984,1.69984,0,0,0-.07569.53955v3.57422h-1.415Z"/>
    <path class="cls-5" d="M126.77852,74.2305v1.583h1.03711v1.11524h-1.03711v2.6748c0,.6836.25927.85157.54.85157a1.75773,1.75773,0,0,0,.36767-.03614l.01074,1.22315a3.01992,3.01992,0,0,1-.86425.10791,1.34,1.34,0,0,1-1.01563-.37159,2.26311,2.26311,0,0,1-.45361-1.67919V76.92874h-.627V75.8135h.627V74.60208Z"/>
    <path class="cls-5" d="M129.58565,79.30374c.022.91113.49707,1.24707,1.12353,1.24707a2.83639,2.83639,0,0,0,1.00488-.1919l.19434,1.12745a3.99128,3.99128,0,0,1-1.4585.26367c-1.43652,0-2.22509-1.05518-2.22509-2.89014,0-1.9668.918-3.14258,2.11718-3.14258,1.13428,0,1.79346.99561,1.79346,2.77051a4.58548,4.58548,0,0,1-.04346.81592Zm1.26416-1.10352c0-.75586-.17286-1.34326-.59424-1.34326-.46436,0-.648.75537-.65918,1.34326Z"/>
    <path class="cls-5" d="M136.76875,73.37893V79.939c0,.564.02149,1.19971.04346,1.73926H135.5915l-.07568-.65967h-.022a1.28113,1.28113,0,0,1-1.10156.75586c-1.12354,0-1.64209-1.37939-1.64209-3.02246,0-2.03906.79931-3.03467,1.6958-3.03467a.89388.89388,0,0,1,.88574.58789h.022V73.37893Zm-1.415,4.68946c0-.10791,0-.228-.01074-.34815-.0542-.35986-.22705-.68359-.50781-.68359-.49707,0-.68067.80371-.68067,1.751,0,1.11573.27,1.70313.66992,1.70313.17286,0,.37793-.10791.48584-.51563a1.09657,1.09657,0,0,0,.04346-.35986Z"/>
  </g>
  <g>
    <rect class="cls-3" x="145.34646" y="27.32283" width="30.75591" height="30.75591"/>
    <rect class="cls-3" x="145.34646" y="58.07874" width="30.75591" height="30.75591"/>
    <rect class="cls-3" x="145.34646" y="88.83465" width="30.75591" height="30.75591"/>
    <rect class="cls-3" x="145.34646" y="119.59055" width="30.75591" height="30.75591"/>
    <g>
      <path d="M154.74141,36.06839h-1.28565V34.61721h3.99756v1.45118h-1.29639v6.63232h-1.41552Z"/>
      <path d="M158.197,34.61721h3.16553V35.9844h-1.75v2.07471h1.64209v1.30762H159.6125v3.334H158.197Z"/>
      <path d="M166.049,42.70071V40.84182h-2.40918V39.76223l2.30127-4.85742h1.36133v4.67774h.70215v1.25927h-.70215v1.85889Zm0-3.11816V37.98733c0-.41992.04346-.87549.07569-1.2832h-.043c-.16211.43164-.30274.7793-.48633,1.21142l-.75635,1.64307v.02393Z"/>
      <path d="M149.25557,44.65286v1.583h1.03711V47.3511h-1.03711v2.67481c0,.68359.25927.85156.54.85156a1.75027,1.75027,0,0,0,.36718-.03613l.01123,1.22314a3.01992,3.01992,0,0,1-.86425.10791,1.34,1.34,0,0,1-1.01563-.37158,2.2653,2.2653,0,0,1-.45361-1.6792V47.3511h-.627V46.23587h.627V45.02444Z"/>
      <path d="M153.3166,52.10061l-.07568-.57568h-.02149a1.344,1.344,0,0,1-1.167.67187c-.79931,0-1.39355-.74365-1.39355-1.78711a2.19221,2.19221,0,0,1,2.41992-2.1831v-.13184a.71064.71064,0,0,0-.74512-.7915,1.83593,1.83593,0,0,0-1.08056.33594l-.25928-1.05567a3.17863,3.17863,0,0,1,1.64209-.44384c1.60986,0,1.86914,1.24755,1.86914,2.43505v2.18262a8.70122,8.70122,0,0,0,.08642,1.34326Zm-.19433-2.85449c-.47559.01221-1.12354.18018-1.12354.99561,0,.5874.29151.80371.50781.80371a.62741.62741,0,0,0,.583-.50391,1.11267,1.11267,0,0,0,.03272-.27588Z"/>
      <path d="M155.49727,47.999c0-.58789-.022-1.22363-.04346-1.76318h1.23144l.07569.85156h.03271c.23731-.62354.65869-.94775,1.04785-.94775a1.0578,1.0578,0,0,1,.30225.02441v1.55908a1.15972,1.15972,0,0,0-.30225-.02392c-.30273,0-.70214.22753-.86425.83935a2.61434,2.61434,0,0,0-.0542.58789v2.97412h-1.42578Z"/>
      <path d="M162.54024,46.23587c-.02149.52783-.0542,1.15136-.0542,1.85888v3.34619a3.31818,3.31818,0,0,1-.63721,2.41065,2.24756,2.24756,0,0,1-1.71777.648,3.0834,3.0834,0,0,1-1.31788-.27588l.25928-1.21143a2.273,2.273,0,0,0,1.01514.252c.71338,0,.99414-.52783.99414-1.42725v-.35986h-.02149a1.04958,1.04958,0,0,1-.95068.5874c-1.18848,0-1.65283-1.439-1.65283-2.84229,0-1.95507.79932-3.08251,1.78223-3.08251a1.0568,1.0568,0,0,1,.97265.68408h.02149l.07568-.58789Zm-1.4585,2.13476a1.70882,1.70882,0,0,0-.0542-.43164c-.06445-.25195-.21582-.48-.45361-.48-.50782,0-.71289.76758-.71289,1.727,0,1.0918.28076,1.64307.68066,1.64307.18359,0,.36719-.10791.4751-.41944a1.61212,1.61212,0,0,0,.06494-.46777Z"/>
      <path d="M164.64473,49.7261c.022.91113.49707,1.24707,1.12353,1.24707a2.83674,2.83674,0,0,0,1.00489-.19189l.19433,1.12744a3.99126,3.99126,0,0,1-1.45849.26367c-1.43653,0-2.2251-1.05518-2.2251-2.89014,0-1.96679.918-3.14257,2.11718-3.14257,1.13428,0,1.79346.9956,1.79346,2.7705a4.58541,4.58541,0,0,1-.04346.81592Zm1.26416-1.10351c0-.75586-.17285-1.34327-.59424-1.34327-.46436,0-.648.75537-.65869,1.34327Z"/>
      <path d="M169.65645,44.65286v1.583h1.03711V47.3511h-1.03711v2.67481c0,.68359.25927.85156.54.85156a1.75843,1.75843,0,0,0,.36767-.03613l.01074,1.22314a3.02,3.02,0,0,1-.86425.10791,1.34,1.34,0,0,1-1.01563-.37158,2.26312,2.26312,0,0,1-.45361-1.6792V47.3511h-.627V46.23587h.627V45.02444Z"/>
      <path d="M171.30781,50.68557a1.84384,1.84384,0,0,0,.95069.31153c.36718,0,.57275-.17969.57275-.52783,0-.29981-.15137-.4917-.61572-.79151a1.91728,1.91728,0,0,1-1.06983-1.69092,1.71623,1.71623,0,0,1,1.73975-1.84716,2.281,2.281,0,0,1,1.06934.26416l-.24854,1.15136a1.36382,1.36382,0,0,0-.73486-.23974.48749.48749,0,0,0-.5293.50341c0,.26416.11914.40772.61621.73145a2.01674,2.01674,0,0,1,1.06934,1.77539,1.72392,1.72392,0,0,1-1.86914,1.84668,2.15164,2.15164,0,0,1-1.21-.33545Z"/>
    </g>
  </g>
  <rect class="cls-2" x="145.34646" y="150.34646" width="30.75591" height="30.75591"/>
  <rect class="cls-3" x="114.59055" y="150.34646" width="30.75591" height="30.75591"/>
  <rect class="cls-3" x="22.32304" y="150.34646" width="30.75591" height="30.75591"/>
  <g>
    <path d="M31.718,157.91458H30.43232v-1.45117h3.99756v1.45117H33.1335v6.63183H31.718Z"/>
    <path d="M35.17354,156.46341h3.16552v1.36718h-1.75v2.07422h1.64209v1.30762H36.58906v3.334H35.17354Z"/>
    <path d="M43.02559,164.54641V162.688H40.61641v-1.08008l2.30127-4.85742H44.279v4.67773h.70215V162.688H44.279v1.85839Zm0-3.11816v-1.59473c0-.41992.04345-.876.07568-1.2832h-.043c-.16211.43164-.30273.7793-.48633,1.21094l-.75634,1.64355v.02344Z"/>
    <path d="M26.23213,166.49856v1.583h1.03711v1.11523H26.23213v2.67481c0,.68359.25928.85156.54.85156a1.71835,1.71835,0,0,0,.36719-.03613l.01123,1.22363a3.04088,3.04088,0,0,1-.86426.10742,1.33974,1.33974,0,0,1-1.01563-.37109,2.2675,2.2675,0,0,1-.45361-1.67969V169.1968h-.627v-1.11523h.627v-1.21094Z"/>
    <path d="M30.29316,173.9468l-.07568-.57617H30.196a1.343,1.343,0,0,1-1.167.67188c-.79931,0-1.39355-.74317-1.39355-1.78711a2.19156,2.19156,0,0,1,2.41992-2.18262v-.13184a.7108.7108,0,0,0-.74512-.792,1.83593,1.83593,0,0,0-1.08056.33594l-.25928-1.05566a3.18387,3.18387,0,0,1,1.64209-.44336c1.60986,0,1.86914,1.24707,1.86914,2.43457v2.18261a8.71172,8.71172,0,0,0,.08643,1.34375Zm-.19433-2.85449c-.47559.01172-1.12354.17969-1.12354.99512,0,.58789.29151.80371.50782.80371a.6274.6274,0,0,0,.583-.50391,1.10823,1.10823,0,0,0,.03272-.27539Z"/>
    <path d="M32.47383,169.84524c0-.58789-.022-1.22363-.04346-1.76367h1.23145l.07568.85156h.03272c.2373-.623.65869-.94726,1.04785-.94726a1.05773,1.05773,0,0,1,.30224.02441v1.55859a1.18321,1.18321,0,0,0-.30224-.02343c-.30274,0-.70215.22754-.86426.83886a2.61434,2.61434,0,0,0-.0542.58789v2.97461H32.47383Z"/>
    <path d="M39.5168,168.08157c-.02149.52832-.0542,1.15137-.0542,1.85937v3.34571a3.31957,3.31957,0,0,1-.63721,2.41113,2.2491,2.2491,0,0,1-1.71777.64746,3.08326,3.08326,0,0,1-1.31787-.27539l.25927-1.21191a2.27315,2.27315,0,0,0,1.01514.25195c.71338,0,.99414-.52734.99414-1.42676v-.36035h-.02148a1.0492,1.0492,0,0,1-.95069.58789c-1.18847,0-1.65283-1.43945-1.65283-2.84277,0-1.95508.79932-3.082,1.78223-3.082a1.057,1.057,0,0,1,.97265.68359h.02149l.07568-.58789Zm-1.4585,2.13477a1.7143,1.7143,0,0,0-.0542-.43165c-.06445-.252-.21582-.47949-.45361-.47949-.50781,0-.71289.76758-.71289,1.72657,0,1.09179.28076,1.64355.68066,1.64355.1836,0,.36719-.1084.4751-.41992a1.60951,1.60951,0,0,0,.06494-.46778Z"/>
    <path d="M41.62129,171.5718c.022.91114.49707,1.24707,1.12353,1.24707a2.8485,2.8485,0,0,0,1.00489-.1914l.19433,1.127a3.981,3.981,0,0,1-1.45849.26367c-1.43653,0-2.2251-1.05468-2.2251-2.88965,0-1.96679.918-3.14257,2.11719-3.14257,1.13427,0,1.79345.99511,1.79345,2.7705a4.58005,4.58005,0,0,1-.04345.81543Zm1.26416-1.10351c0-.75586-.17285-1.34277-.59424-1.34277-.46435,0-.648.75488-.65869,1.34277Z"/>
    <path d="M46.633,166.49856v1.583h1.03711v1.11523H46.633v2.67481c0,.68359.25928.85156.54.85156a1.72613,1.72613,0,0,0,.36767-.03613l.01075,1.22363a3.04088,3.04088,0,0,1-.86426.10742,1.33974,1.33974,0,0,1-1.01563-.37109,2.26532,2.26532,0,0,1-.45361-1.67969V169.1968h-.627v-1.11523h.627v-1.21094Z"/>
    <path d="M48.28438,172.53177a1.84386,1.84386,0,0,0,.95068.31152c.36719,0,.57275-.17969.57275-.52832,0-.29981-.15136-.49121-.61572-.791a1.91789,1.91789,0,0,1-1.06982-1.6914,1.71608,1.71608,0,0,1,1.73974-1.84668,2.287,2.287,0,0,1,1.06934.26367l-.24854,1.15137a1.36336,1.36336,0,0,0-.73486-.23926.48714.48714,0,0,0-.5293.50293c0,.26465.11914.4082.61621.73144a2.01674,2.01674,0,0,1,1.06934,1.77539,1.72392,1.72392,0,0,1-1.86914,1.84668,2.15542,2.15542,0,0,1-1.21-.335Z"/>
  </g>
  <g>
    <path class="cls-6" d="M66.4543,65.61673l-6.55518,6.79492-1.38769-1.33887,6.55517-6.79394Z"/>
    <path class="cls-6" d="M64.31611,70.19094c.59327-.61425,1.08106-1.15625,1.48047-1.60742l1.19776,1.15625-.58838.73633.02783.02539a2.21286,2.21286,0,0,1,2.12744.53516c.90723.875.9458,2.19726-.45459,3.64844l-2.82031,2.92382-1.37891-1.33007,2.63574-2.73243c.6128-.63476.83106-1.26074.33252-1.74218a1.04682,1.04682,0,0,0-1.25293-.09961,1.64594,1.64594,0,0,0-.42431.33007l-2.74268,2.84375-1.37842-1.33007Z"/>
    <path class="cls-6" d="M73.9958,73.76907l-1.36133,1.41211.98877.95312-1.08935,1.12891-.98877-.95312-1.72168,1.7832c-.57324.5957-.709.99023-.292,1.39258a2.873,2.873,0,0,0,.44726.35351l-1.10937,1.168a3.41144,3.41144,0,0,1-1.02442-.73535,1.88716,1.88716,0,0,1-.62549-1.4209,3.05656,3.05656,0,0,1,1.0293-1.8291l1.94483-2.0166L69.6042,74.437l1.08936-1.12891.58935.56836,1.03076-1.06836Z"/>
    <path class="cls-6" d="M72.58662,80.83743a1.52938,1.52938,0,0,0,.34766,2.14453,4.91875,4.91875,0,0,0,1.41846.97949l-.81983,1.21387a5.53346,5.53346,0,0,1-1.89746-1.24609c-1.50586-1.45313-1.43408-3.252.05371-4.79493,1.20654-1.25,3.23682-1.957,4.77881-.46972,1.43359,1.38379.78174,3.14844-.395,4.36816a5.58046,5.58046,0,0,1-.62891.56055Zm2.63477.51758a1.20467,1.20467,0,0,0,.18261-1.75,1.346,1.346,0,0,0-1.81543.17578Z"/>
    <path class="cls-6" d="M77.59688,83.10208c.70019-.72559,1.13916-1.21778,1.52929-1.65821l1.18848,1.14649-.83008.95117.03613.03418a1.84477,1.84477,0,0,1,2.17969.13672,1.76636,1.76636,0,0,1,.271.30078l-1.39063,1.44141a2.48271,2.48271,0,0,0-.333-.39844,1.25987,1.25987,0,0,0-1.69189-.13477,2.803,2.803,0,0,0-.35791.31641l-2.41211,2.5-1.37891-1.33008Z"/>
    <path class="cls-6" d="M79.1374,88.3843a3.461,3.461,0,0,0,.82813,1.51758c.41748.40332.74512.40821.98828.15625s.22412-.5039-.10791-1.19531a2.21536,2.21536,0,0,1,.16846-2.69727,2.28036,2.28036,0,0,1,3.36084.12793,3.79636,3.79636,0,0,1,.98,1.48926l-1.26661.82227a2.79413,2.79413,0,0,0-.689-1.209c-.33545-.32422-.67187-.35644-.915-.10449-.22363.23145-.168.51953.17188,1.25586a2.15823,2.15823,0,0,1-.26221,2.68652c-.88525.917-2.18945.96289-3.45947-.26269a4.00147,4.00147,0,0,1-1.10254-1.72559Z"/>
    <path class="cls-6" d="M84.75557,92.57766a1.52937,1.52937,0,0,0,.34765,2.14453,4.92538,4.92538,0,0,0,1.41846.9795l-.81982,1.21386a5.53317,5.53317,0,0,1-1.89746-1.24609c-1.50586-1.45312-1.4336-3.252.05419-4.79492,1.20655-1.25,3.23682-1.957,4.77881-.46875,1.43311,1.38281.78125,3.14746-.3955,4.36719a5.58115,5.58115,0,0,1-.62891.56054Zm2.63476.51758a1.20511,1.20511,0,0,0,.18311-1.75A1.34589,1.34589,0,0,0,85.758,91.521Z"/>
    <path class="cls-6" d="M90.02168,101.23977a4.24919,4.24919,0,0,1-1.44775-.96875c-1.43311-1.38281-1.41553-3.23437.082-4.78711a3.388,3.388,0,0,1,5.06836-.17089,4.04618,4.04618,0,0,1,.86816,1.207l-1.31738.92871a2.3815,2.3815,0,0,0-.625-.89453,1.938,1.938,0,0,0-2.6377,2.78906,2.69927,2.69927,0,0,0,.93506.60937Z"/>
    <path class="cls-6" d="M98.46943,97.3804l-1.36132,1.41211.98877.95312-1.08936,1.12891-.98877-.95313-1.72168,1.78418c-.57324.59473-.709.98926-.292,1.3916a2.814,2.814,0,0,0,.44726.35352l-1.10937,1.168a3.42243,3.42243,0,0,1-1.02441-.73438,1.88906,1.88906,0,0,1-.62549-1.42187,3.05774,3.05774,0,0,1,1.02978-1.8291l1.94483-2.0166-.58985-.56836,1.08936-1.12891.58984.56836,1.03076-1.06836Z"/>
    <path class="cls-6" d="M94.13838,105.44485l4.75586-4.92969,1.37842,1.33008-4.75586,4.92969Zm7.50244-4.92773a1.01314,1.01314,0,0,1-1.4834.04882,1.074,1.074,0,0,1,1.49756-1.5332A1.01317,1.01317,0,0,1,101.64082,100.51712Z"/>
    <path class="cls-6" d="M103.43525,109.54837c-1.74121,1.80371-3.69043,1.51953-4.8789.373-1.29688-1.25195-1.38037-3.16211.15674-4.75488,1.53613-1.59277,3.46142-1.70019,4.88574-.32715C104.95918,106.15188,104.86494,108.06594,103.43525,109.54837Zm-3.25976-3.04785c-.8169.84667-1.11231,1.78808-.52246,2.35644.53515.51758,1.45312.25391,2.30908-.63281.71-.73633,1.17627-1.72656.55029-2.33008C101.84981,105.2554,100.87568,105.77493,100.17549,106.50052Z"/>
    <path class="cls-6" d="M105.094,109.53274c.59326-.61523,1.08056-1.15722,1.48046-1.60742l1.19776,1.15527-.58838.73633.02734.02637a2.21108,2.21108,0,0,1,2.12793.53515c.90723.875.94532,2.19629-.45507,3.64844l-2.82032,2.92285-1.3789-1.33007,2.63574-2.73145c.61279-.63574.83105-1.26172.33252-1.74219a1.04324,1.04324,0,0,0-1.25244-.09961,1.61672,1.61672,0,0,0-.42432.33008l-2.74268,2.84278-1.37841-1.32911Z"/>
    <path class="cls-6" d="M115.81318,121.48977c-1.74121,1.80469-3.69043,1.51953-4.8789.37305-1.29737-1.251-1.38086-3.16113.15625-4.75391,1.53613-1.59277,3.46191-1.70117,4.88623-.32714C117.33711,118.09427,117.24287,120.00735,115.81318,121.48977Zm-3.26025-3.04785c-.81689.84668-1.11182,1.78809-.52246,2.35742.53564.5166,1.45361.25391,2.30957-.63379.71-.73535,1.17578-1.72656.5498-2.33007C114.22774,117.1968,113.25313,117.71634,112.55293,118.44192Z"/>
    <path class="cls-6" d="M114.38643,124.98l3.6665-3.80078-.58057-.56055,1.08936-1.12891.58057.56055.18457-.19141a3.3277,3.3277,0,0,1,2.15771-1.11132,2.35,2.35,0,0,1,1.70068.6875,3.313,3.313,0,0,1,.6377.80957l-1.19238,1.12793a1.87052,1.87052,0,0,0-.376-.5c-.45361-.4375-1.02344-.22852-1.49023.25585l-.24317.252.88916.85742-1.08935,1.12891-.87989-.84864-3.6665,3.79981Z"/>
    <path class="cls-6" d="M128.14766,128.73782c-.31983.29492-.73633.69141-1.44629,1.42773l-2.65528,2.752a4.21039,4.21039,0,0,1-2.81054,1.56933,3.54684,3.54684,0,0,1-2.38916-1.13574,4.41,4.41,0,0,1-1.22657-1.92383l1.39014-.89648a3.50848,3.50848,0,0,0,.92871,1.61523,1.55611,1.55611,0,0,0,2.40625-.18945l.31153-.32227-.01807-.01757a1.90758,1.90758,0,0,1-1.81982-.50977c-1.09766-1.05859-.92432-2.79883.44677-4.2207,1.52686-1.582,3.42481-1.69824,4.5127-.64844a1.81926,1.81926,0,0,1,.54492,1.86914l.01807.01758.60937-.541Zm-3.35059.64062a1.83048,1.83048,0,0,0,.24512-.30761,1.08476,1.08476,0,0,0-.0918-1.39356c-.499-.48144-1.39355-.37109-2.25928.52637-.71.73535-.9375,1.626-.35693,2.18555a1.06682,1.06682,0,0,0,1.32813.07519,2.00713,2.00713,0,0,0,.43457-.35937Z"/>
    <path class="cls-6" d="M127.42793,133.74661a1.53053,1.53053,0,0,0,.34766,2.14551,4.90192,4.90192,0,0,0,1.41845.97851l-.81982,1.21485a5.562,5.562,0,0,1-1.89746-1.2461c-1.50586-1.45312-1.4336-3.25195.0542-4.79492,1.20654-1.25,3.23681-1.957,4.77881-.46973,1.4331,1.38282.78125,3.14746-.39551,4.36817a5.68245,5.68245,0,0,1-.62891.56054Zm2.63477.51855a1.20622,1.20622,0,0,0,.1831-1.751,1.34792,1.34792,0,0,0-1.81543.17578Z"/>
    <path class="cls-6" d="M132.4875,135.96048c.59326-.61426,1.08057-1.15625,1.48047-1.60743l1.19727,1.15625-.5879.73633.02735.02539a2.21372,2.21372,0,0,1,2.12793.53516c.90722.875.94531,2.19726-.45508,3.64844l-2.82031,2.92382-1.37891-1.33007,2.63574-2.73243c.6128-.63476.83106-1.26074.33252-1.74218a1.04666,1.04666,0,0,0-1.25293-.09864,1.60271,1.60271,0,0,0-.42383.33008l-2.74267,2.84278-1.37842-1.33008Z"/>
    <path class="cls-6" d="M137.52949,143.49173a1.5302,1.5302,0,0,0,.34766,2.1455,4.89967,4.89967,0,0,0,1.41846.9795l-.81983,1.21386a5.52883,5.52883,0,0,1-1.89746-1.24609c-1.50586-1.45215-1.43408-3.25195.05371-4.79395,1.20654-1.251,3.23682-1.958,4.7793-.4707,1.4331,1.38281.78125,3.14844-.39551,4.36817a5.65816,5.65816,0,0,1-.62891.56152Zm2.63477.51953a1.20694,1.20694,0,0,0,.18262-1.752,1.347,1.347,0,0,0-1.81543.17579Z"/>
    <path class="cls-6" d="M148.08711,143.67337l1.37842,1.33007-6.90528,7.15821-1.37841-1.33008Z"/>
    <path class="cls-6" d="M143.67549,153.23684l4.75586-4.92871,1.37842,1.3291-4.75586,4.92871Zm7.50244-4.92675a1.01314,1.01314,0,0,1-1.4834.04882,1.07435,1.07435,0,0,1,1.49756-1.53418A1.01429,1.01429,0,0,1,151.17793,148.31009Z"/>
    <path class="cls-6" d="M147.444,154.28469a3.47425,3.47425,0,0,0,.82813,1.51856c.41748.40332.7456.40723.98877.15527s.22363-.5039-.10791-1.19433a2.21762,2.21762,0,0,1,.168-2.69825,2.281,2.281,0,0,1,3.36132.12891,3.78621,3.78621,0,0,1,.9795,1.48926l-1.26612.82226a2.79151,2.79151,0,0,0-.689-1.21c-.33594-.32422-.67236-.35547-.91553-.10351-.22363.23144-.16748.51953.17236,1.25586a2.15683,2.15683,0,0,1-.26269,2.68554c-.88525.917-2.18945.96289-3.45947-.26171a4.01416,4.01416,0,0,1-1.10254-1.72657Z"/>
    <path class="cls-6" d="M157.7541,154.57766l-1.36133,1.41114.98877.9541-1.08935,1.1289-.98877-.9541-1.72168,1.78418c-.57324.59473-.709.98926-.292,1.39258a2.85627,2.85627,0,0,0,.44726.35254l-1.10937,1.16894a3.43622,3.43622,0,0,1-1.02442-.73632,1.88669,1.88669,0,0,1-.626-1.4209,3.05779,3.05779,0,0,1,1.02978-1.8291l1.94483-2.01563-.58936-.56933,1.08936-1.12891.58935.56934,1.03076-1.06934Z"/>
    <path class="cls-6" d="M154.70723,161.29153a3.46405,3.46405,0,0,0,.82812,1.51856c.41748.40332.74561.4082.98877.15625s.22363-.50391-.1084-1.19532a2.21679,2.21679,0,0,1,.16846-2.69726,2.28013,2.28013,0,0,1,3.36133.12793,3.79282,3.79282,0,0,1,.97949,1.48925l-1.2666.82227a2.78916,2.78916,0,0,0-.689-1.209c-.33544-.32422-.67187-.35645-.915-.1045-.22364.23145-.168.51954.17187,1.25586a2.15664,2.15664,0,0,1-.26221,2.68555c-.88525.917-2.18945.96387-3.45947-.26172a4.00606,4.00606,0,0,1-1.10254-1.72558Z"/>
  </g>
</svg>
