<svg id="Layer_1" data-name="Layer 1" xmlns="http://www.w3.org/2000/svg" viewBox="0 0 198.4252 198.4252">
  <defs>
    <style>
      .cls-1 {
        fill: #d0ece7;
      }

      .cls-2 {
        fill: #aed6f1;
      }

      .cls-3 {
        fill: #f90;
      }

      .cls-4, .cls-6, .cls-8 {
        fill: none;
        stroke-miterlimit: 10;
      }

      .cls-4 {
        stroke: #e73234;
      }

      .cls-5 {
        fill: #e73234;
      }

      .cls-6 {
        stroke: #5893c4;
      }

      .cls-7 {
        fill: #5893c4;
      }

      .cls-8 {
        stroke: #5cb65a;
      }

      .cls-9 {
        fill: #5cb65a;
      }

      .cls-10 {
        fill: lime;
      }
    </style>
  </defs>
  <title>SimpleGraphics</title>
  <g>
    <g>
      <rect class="cls-1" x="160.95521" y="60.09603" width="24.00002" height="24.00002" rx="6.66246"/>
      <rect class="cls-2" x="123.97442" y="60.09603" width="24.00002" height="24.00002" rx="6.66246"/>
      <rect class="cls-3" x="160.95521" y="31.83515" width="24.00002" height="24.00002" rx="6.66246"/>
      <rect class="cls-2" x="123.97442" y="31.83515" width="24.00002" height="24.00002" rx="6.66246"/>
    </g>
    <rect class="cls-1" x="160.95521" y="119.61674" width="24.00002" height="24.00002" rx="6.66246"/>
    <rect class="cls-2" x="123.97442" y="119.61674" width="24.00002" height="24.00002" rx="6.66246"/>
    <rect class="cls-1" x="160.95521" y="147.87762" width="24.00002" height="24.00002" rx="6.66246"/>
    <rect class="cls-2" x="123.97442" y="147.87762" width="24.00002" height="24.00002" rx="6.66246"/>
    <g>
      <line class="cls-4" x1="63.36024" y1="108.31849" x2="158.53869" y2="45.11177"/>
      <rect class="cls-5" x="158.03869" y="41.86177" width="1" height="6.5" transform="translate(1.51319 95.23743) rotate(-33.58768)"/>
    </g>
    <g>
      <line class="cls-6" x1="19.36024" y1="37.09604" x2="120.58158" y2="71.92849"/>
      <polygon class="cls-7" points="119.081 74.049 123.974 73.096 120.703 69.334 119.081 74.049"/>
    </g>
    <g>
      <line class="cls-6" x1="19.36024" y1="177.51584" x2="158.06711" y2="75.25773"/>
      <polygon class="cls-7" points="158.959 77.697 160.955 73.129 156 73.684 158.959 77.697"/>
    </g>
    <g>
      <path class="cls-4" d="M19.36024,37.096S48.55136,29.22021,69.936,30.29713c23.33993,1.17539,48.80143,8.57606,52.56371,9.70249"/>
      <rect class="cls-5" x="119.24385" y="39.50525" width="6.5" height="1" transform="translate(50.22641 146.69443) rotate(-73.9742)"/>
    </g>
    <g>
      <path class="cls-6" d="M19.36024,37.096s39.23554,6.71562,58.1142,8.43186a258.04482,258.04482,0,0,0,42.93113-.11763"/>
      <polygon class="cls-7" points="119.909 47.952 123.974 45.066 119.443 42.988 119.909 47.952"/>
    </g>
    <g>
      <line class="cls-6" x1="19.36024" y1="37.09604" x2="121.29937" y2="128.22538"/>
      <polygon class="cls-7" points="119.094 129.598 123.974 130.617 122.417 125.88 119.094 129.598"/>
    </g>
    <g>
      <line class="cls-8" x1="20.5253" y1="38.09604" x2="54.47982" y2="100.11695"/>
      <polygon class="cls-9" points="51.943 100.674 56.203 103.264 56.316 98.28 51.943 100.674"/>
    </g>
    <g>
      <line class="cls-6" x1="19.36024" y1="177.51584" x2="59.09597" y2="121.28711"/>
      <polygon class="cls-7" points="60.711 123.322 61.167 118.357 56.639 120.444 60.711 123.322"/>
    </g>
    <g>
      <line class="cls-8" x1="20.5253" y1="38.09604" x2="157.94828" y2="127.57013"/>
      <polygon class="cls-9" points="155.977 129.261 160.955 129.528 158.697 125.083 155.977 129.261"/>
    </g>
    <g>
      <line class="cls-6" x1="19.36024" y1="177.51584" x2="157.38878" y2="162.27152"/>
      <polygon class="cls-7" points="156.937 164.83 160.955 161.878 156.39 159.873 156.937 164.83"/>
    </g>
    <g>
      <line class="cls-6" x1="19.36024" y1="177.51584" x2="120.67167" y2="134.50036"/>
      <polygon class="cls-7" points="120.975 137.08 123.974 133.098 119.026 132.491 120.975 137.08"/>
    </g>
    <g>
      <line class="cls-8" x1="63.36024" y1="108.31849" x2="157.48647" y2="133.22471"/>
      <polygon class="cls-9" points="156.143 135.448 160.955 134.143 157.419 130.628 156.143 135.448"/>
    </g>
    <g>
      <line class="cls-4" x1="61.36024" y1="105.31849" x2="121.59356" y2="156.55367"/>
      <rect class="cls-5" x="118.34356" y="156.05367" width="6.5" height="1.00001" transform="translate(-76.43765 147.73978) rotate(-49.61548)"/>
    </g>
    <g>
      <line class="cls-8" x1="63.36024" y1="108.31849" x2="157.76624" y2="157.00779"/>
      <polygon class="cls-9" points="155.975 158.889 160.955 158.652 158.261 154.458 155.975 158.889"/>
    </g>
    <g>
      <line class="cls-6" x1="19.36024" y1="177.51584" x2="120.42556" y2="162.44184"/>
      <polygon class="cls-7" points="120.072 165.015 123.974 161.913 119.336 160.084 120.072 165.015"/>
    </g>
    <polygon class="cls-10" points="19.36 20.865 3.489 48.355 35.231 48.355 19.36 20.865"/>
    <g>
      <path d="M13.37715,37.49971H12.0915V36.04854h3.99756v1.45117H14.79268V44.132H13.37715Z"/>
      <path d="M16.83272,36.04854h3.16552v1.36718h-1.75v2.07471h1.64209v1.30762H18.24824v3.334H16.83272Z"/>
      <path d="M24.09053,37.81172H24.069l-1.18847.68359L22.64326,37.26l1.60938-.92383h1.24267V44.132H24.09053Z"/>
    </g>
    <polygon class="cls-10" points="63.36 90.867 47.489 118.357 79.231 118.357 63.36 90.867"/>
    <polygon class="cls-10" points="19.36 160.869 3.489 188.359 35.231 188.359 19.36 160.869"/>
    <g>
      <path d="M13.37715,177.5041H12.0915v-1.45117h3.99756v1.45117H14.79268v6.63233H13.37715Z"/>
      <path d="M16.83272,176.05293h3.16552v1.36719h-1.75v2.0747h1.64209v1.30762H18.24824v3.334H16.83272Z"/>
      <path d="M22.62129,182.64912a2.01772,2.01772,0,0,0,1.04834.29981,1.01912,1.01912,0,0,0,1.05859-1.12744,1.17764,1.17764,0,0,0-1.31836-1.23536h-.19433v-1.15136h.14062c.51856-.01172,1.18848-.25147,1.18848-1.00733a.801.801,0,0,0-.82129-.89941,1.59919,1.59919,0,0,0-.88574.312l-.1836-1.1875a2.75388,2.75388,0,0,1,1.44727-.40772,1.765,1.765,0,0,1,1.84766,1.88282,1.92619,1.92619,0,0,1-1.00489,1.751v.02393a1.958,1.958,0,0,1,1.19922,1.979,2.27225,2.27225,0,0,1-2.34424,2.35108,2.73413,2.73413,0,0,1-1.38281-.34815Z"/>
    </g>
    <g>
      <path d="M57.37715,107.50166H56.0915v-1.45117h3.99756v1.45117H58.79268V114.134H57.37715Z"/>
      <path d="M60.83272,106.05049h3.16552v1.36719h-1.75v2.0747h1.64209V110.8H62.24824v3.334H60.83272Z"/>
      <path d="M66.41621,114.134v-1.05518l.70215-.99561c.90771-1.2832,1.65283-2.35058,1.65283-3.4663,0-.62354-.313-1.06739-.89648-1.06739a1.86151,1.86151,0,0,0-1.0586.396l-.24853-1.22363a2.91814,2.91814,0,0,1,1.56641-.4795,1.97821,1.97821,0,0,1,2.03076,2.25489,6.106,6.106,0,0,1-1.63086,3.68164l-.42139.55175v.02393h2.1499v1.3794Z"/>
    </g>
  </g>
  <g>
    <path d="M69.48457,15.32588V4.53731h2.564l2.0166,3.95361a32.9758,32.9758,0,0,1,1.58447,3.69775h.043a44.60564,44.60564,0,0,1-.187-4.498V4.53731h2.0166V15.32588H75.21748l-2.07422-4.16162c-.57617-1.15235-1.21-2.54492-1.68506-3.80957l-.04345.01611c.05761,1.42432.08642,2.94483.08642,4.70557v3.24951Z"/>
    <path d="M80.99043,12.18867c.07227,1.0083.96484,1.48877,1.98779,1.48877a5.63843,5.63843,0,0,0,1.94483-.32031l.28808,1.64844a6.33248,6.33248,0,0,1-2.5498.48047c-2.39111,0-3.75977-1.53663-3.75977-3.98584,0-1.98487,1.10938-4.17774,3.55811-4.17774,2.27588,0,3.14014,1.96875,3.14014,3.90576a6.33713,6.33713,0,0,1-.07227.96045Zm2.57813-1.66455c0-.59228-.23047-1.585-1.23829-1.585-.92187,0-1.29687.92871-1.35449,1.585Z"/>
    <path d="M89.35762,5.258V7.49873h1.56982V9.29121H89.35762v2.8335c0,.94433.20117,1.37646.86426,1.37646a3.2514,3.2514,0,0,0,.64794-.064L90.884,15.278a3.90027,3.90027,0,0,1-1.42579.208,2.15369,2.15369,0,0,1-1.64209-.67237,3.49284,3.49284,0,0,1-.605-2.3208V9.29121h-.93652V7.49873h.93652V5.802Z"/>
    <path d="M93.77754,7.49873l.56152,3.20117c.14453.81641.28809,1.68067.40332,2.57715h.0293c.14356-.89648.3457-1.793.51856-2.561l.749-3.21729h1.72851l.70557,3.12109c.187.88038.37451,1.76075.51856,2.65723h.0288c.10059-.89648.24512-1.77685.40332-2.67285l.605-3.10547h2.146l-2.16016,7.82715H97.95479l-.6626-2.75293c-.17285-.76855-.30274-1.47266-.44629-2.43311h-.0293a20.0038,20.0038,0,0,1-.46094,2.43311l-.70556,2.75293H93.59L91.54512,7.49873Z"/>
    <path d="M109.93574,11.32441c0,2.86524-1.8291,4.17774-3.71631,4.17774-2.06005,0-3.644-1.50488-3.644-4.03369,0-2.5293,1.49805-4.146,3.75928-4.146C108.49531,7.32246,109.93574,8.97139,109.93574,11.32441Zm-5.09912.08008c0,1.34424.5044,2.35254,1.44043,2.35254.8501,0,1.397-.94433,1.397-2.35254,0-1.16845-.40332-2.353-1.397-2.353C105.22578,9.05147,104.83662,10.25166,104.83662,11.40449Z"/>
    <path d="M111.28731,10.07588c0-1.15234-.0293-1.90479-.05762-2.57715h1.88672l.07226,1.44043h.05762a2.10455,2.10455,0,0,1,1.90137-1.6167,2.02469,2.02469,0,0,1,.46093.03223V9.64375a2.82434,2.82434,0,0,0-.59082-.064,1.43951,1.43951,0,0,0-1.498,1.23242,3.17938,3.17938,0,0,0-.043.54394v3.96973h-2.18945Z"/>
    <path d="M118.90547,10.79609h.02832c.15869-.32031.33154-.64013.50439-.94433l1.42627-2.353h2.63575l-2.52051,3.16943,2.88086,4.65772H121.1667L119.467,12.10859l-.56152.76807v2.44922H116.716V3.96113h2.18945Z"/>
    <path d="M124.50606,13.197a3.967,3.967,0,0,0,1.88671.59229c.66309,0,.93653-.25635.93653-.65625,0-.40039-.21582-.59229-1.03711-.89649-1.45508-.54394-2.0166-1.42431-2.002-2.353a2.6064,2.6064,0,0,1,2.86621-2.561,4.3313,4.3313,0,0,1,1.98779.44824l-.38916,1.68067a3.19564,3.19564,0,0,0-1.52637-.44824c-.5332,0-.83594.24023-.83594.64062,0,.36816.27393.56006,1.13819.896a2.46626,2.46626,0,0,1,1.91553,2.417c0,1.45654-1.03711,2.5293-3.05372,2.5293a4.57172,4.57172,0,0,1-2.27539-.54444Z"/>
  </g>
</svg>
