<svg id="Layer_1" data-name="Layer 1" xmlns="http://www.w3.org/2000/svg" viewBox="0 0 198.4252 198.4252">
  <defs>
    <style>
      .cls-1 {
        fill: #d0ece7;
      }

      .cls-2 {
        fill: #aed6f1;
      }

      .cls-3 {
        fill: #f90;
      }

      .cls-4, .cls-6, .cls-8 {
        fill: none;
        stroke-miterlimit: 10;
      }

      .cls-4 {
        stroke: #e73234;
      }

      .cls-5 {
        fill: #e73234;
      }

      .cls-6 {
        stroke: #5893c4;
      }

      .cls-7 {
        fill: #5893c4;
      }

      .cls-8 {
        stroke: #5cb65a;
      }

      .cls-9 {
        fill: #5cb65a;
      }

      .cls-10 {
        fill: lime;
      }
    </style>
  </defs>
  <title>SimpleGraphics_v2</title>
  <g>
    <g>
      <rect class="cls-1" x="160.95521" y="60.09603" width="24.00002" height="24.00002" rx="6.66246"/>
      <rect class="cls-2" x="123.97442" y="60.09603" width="24.00002" height="24.00002" rx="6.66246"/>
      <rect class="cls-3" x="160.95521" y="31.83515" width="24.00002" height="24.00002" rx="6.66246"/>
      <rect class="cls-2" x="123.97442" y="31.83515" width="24.00002" height="24.00002" rx="6.66246"/>
    </g>
    <rect class="cls-1" x="160.95521" y="119.61674" width="24.00002" height="24.00002" rx="6.66246"/>
    <rect class="cls-2" x="123.97442" y="119.61674" width="24.00002" height="24.00002" rx="6.66246"/>
    <rect class="cls-1" x="160.95521" y="147.87762" width="24.00002" height="24.00002" rx="6.66246"/>
    <rect class="cls-2" x="123.97442" y="147.87762" width="24.00002" height="24.00002" rx="6.66246"/>
    <g>
      <line class="cls-4" x1="63.36024" y1="108.31849" x2="158.53869" y2="45.11177"/>
      <rect class="cls-5" x="158.03869" y="41.86177" width="1" height="6.5" transform="translate(1.51319 95.23743) rotate(-33.58768)"/>
    </g>
    <g>
      <line class="cls-6" x1="19.36024" y1="37.09604" x2="120.58158" y2="71.92849"/>
      <polygon class="cls-7" points="119.081 74.049 123.974 73.096 120.703 69.334 119.081 74.049"/>
    </g>
    <g>
      <line class="cls-6" x1="19.36024" y1="177.51584" x2="158.06711" y2="75.25773"/>
      <polygon class="cls-7" points="158.959 77.697 160.955 73.129 156 73.684 158.959 77.697"/>
    </g>
    <g>
      <path class="cls-4" d="M19.36024,37.096S48.55136,29.22021,69.936,30.29713c23.33993,1.17539,48.80143,8.57606,52.56371,9.70249"/>
      <rect class="cls-5" x="119.24385" y="39.50525" width="6.5" height="1" transform="translate(50.22641 146.69443) rotate(-73.9742)"/>
    </g>
    <g>
      <path class="cls-6" d="M19.36024,37.096s39.23554,6.71562,58.1142,8.43186a258.04482,258.04482,0,0,0,42.93113-.11763"/>
      <polygon class="cls-7" points="119.909 47.952 123.974 45.066 119.443 42.988 119.909 47.952"/>
    </g>
    <g>
      <line class="cls-6" x1="19.36024" y1="37.09604" x2="121.29937" y2="128.22538"/>
      <polygon class="cls-7" points="119.094 129.598 123.974 130.617 122.417 125.88 119.094 129.598"/>
    </g>
    <g>
      <line class="cls-8" x1="20.5253" y1="38.09604" x2="54.47982" y2="100.11695"/>
      <polygon class="cls-9" points="51.943 100.674 56.203 103.264 56.316 98.28 51.943 100.674"/>
    </g>
    <g>
      <line class="cls-6" x1="19.36024" y1="177.51584" x2="59.09597" y2="121.28711"/>
      <polygon class="cls-7" points="60.711 123.322 61.167 118.357 56.639 120.444 60.711 123.322"/>
    </g>
    <g>
      <line class="cls-8" x1="20.5253" y1="38.09604" x2="157.94828" y2="127.57013"/>
      <polygon class="cls-9" points="155.977 129.261 160.955 129.528 158.697 125.083 155.977 129.261"/>
    </g>
    <g>
      <line class="cls-6" x1="19.36024" y1="177.51584" x2="157.38878" y2="162.27152"/>
      <polygon class="cls-7" points="156.937 164.83 160.955 161.878 156.39 159.873 156.937 164.83"/>
    </g>
    <g>
      <line class="cls-6" x1="19.36024" y1="177.51584" x2="120.67167" y2="134.50036"/>
      <polygon class="cls-7" points="120.975 137.08 123.974 133.098 119.026 132.491 120.975 137.08"/>
    </g>
    <g>
      <line class="cls-8" x1="63.36024" y1="108.31849" x2="157.48647" y2="133.22471"/>
      <polygon class="cls-9" points="156.143 135.448 160.955 134.143 157.419 130.628 156.143 135.448"/>
    </g>
    <g>
      <line class="cls-4" x1="61.36024" y1="105.31849" x2="121.59356" y2="156.55367"/>
      <rect class="cls-5" x="118.34356" y="156.05367" width="6.5" height="1.00001" transform="translate(-76.43765 147.73978) rotate(-49.61548)"/>
    </g>
    <g>
      <line class="cls-8" x1="63.36024" y1="108.31849" x2="157.76624" y2="157.00779"/>
      <polygon class="cls-9" points="155.975 158.889 160.955 158.652 158.261 154.458 155.975 158.889"/>
    </g>
    <g>
      <line class="cls-6" x1="19.36024" y1="177.51584" x2="120.42556" y2="162.44184"/>
      <polygon class="cls-7" points="120.072 165.015 123.974 161.913 119.336 160.084 120.072 165.015"/>
    </g>
    <polygon class="cls-10" points="19.36 20.865 3.489 48.355 35.231 48.355 19.36 20.865"/>
    <g>
      <path d="M13.37715,37.49971H12.0915V36.04854h3.99756v1.45117H14.79268V44.132H13.37715Z"/>
      <path d="M16.83272,36.04854h3.16552v1.36718h-1.75v2.07471h1.64209v1.30762H18.24824v3.334H16.83272Z"/>
      <path d="M24.09053,37.81172H24.069l-1.18847.68359L22.64326,37.26l1.60938-.92383h1.24267V44.132H24.09053Z"/>
    </g>
    <polygon class="cls-10" points="63.36 90.867 47.489 118.357 79.231 118.357 63.36 90.867"/>
    <polygon class="cls-10" points="19.36 160.869 3.489 188.359 35.231 188.359 19.36 160.869"/>
    <g>
      <path d="M13.37715,177.50361H12.0915v-1.45117h3.99756v1.45117H14.79268v6.63282H13.37715Z"/>
      <path d="M16.83272,176.05244h3.16552v1.36719h-1.75v2.07519h1.64209v1.30762H18.24824v3.334H16.83272Z"/>
      <path d="M22.62129,182.64912a2.0223,2.0223,0,0,0,1.04834.29981,1.01927,1.01927,0,0,0,1.05859-1.12793,1.17764,1.17764,0,0,0-1.31836-1.23535h-.19433v-1.15137h.14062c.51856-.01172,1.18848-.251,1.18848-1.00684a.801.801,0,0,0-.82129-.89941,1.60239,1.60239,0,0,0-.88574.31152l-.1836-1.1875a2.754,2.754,0,0,1,1.44727-.40723,1.7648,1.7648,0,0,1,1.84766,1.88282,1.92726,1.92726,0,0,1-1.00489,1.751v.02344a1.95821,1.95821,0,0,1,1.19922,1.97949,2.27187,2.27187,0,0,1-2.34424,2.35059,2.73937,2.73937,0,0,1-1.38281-.34766Z"/>
    </g>
    <g>
      <path d="M57.37715,107.50166H56.0915v-1.45117h3.99756v1.45117H58.79268V114.134H57.37715Z"/>
      <path d="M60.83272,106.05049h3.16552v1.36719h-1.75v2.0747h1.64209V110.8H62.24824v3.334H60.83272Z"/>
      <path d="M66.41621,114.134v-1.05518l.70215-.99561c.90771-1.2832,1.65283-2.35058,1.65283-3.4663,0-.62354-.313-1.06739-.89648-1.06739a1.86151,1.86151,0,0,0-1.0586.396l-.24853-1.22363a2.91814,2.91814,0,0,1,1.56641-.4795,1.97821,1.97821,0,0,1,2.03076,2.25489,6.106,6.106,0,0,1-1.63086,3.68164l-.42139.55175v.02393h2.1499v1.3794Z"/>
    </g>
  </g>
</svg>
