<svg id="Layer_1" data-name="Layer 1" xmlns="http://www.w3.org/2000/svg" viewBox="0 0 198.4252 198.4252">
  <defs>
    <style>
      .cls-1, .cls-5, .cls-6 {
        fill: none;
      }

      .cls-1, .cls-2, .cls-3, .cls-4, .cls-5, .cls-6 {
        stroke: #000;
        stroke-miterlimit: 10;
      }

      .cls-2 {
        fill: #00c;
      }

      .cls-4 {
        fill: #93f;
      }

      .cls-5 {
        stroke-linecap: square;
      }

      .cls-6 {
        stroke-width: 0.25px;
      }

      .cls-7 {
        fill: #109648;
      }

      .cls-8 {
        fill: #255c99;
      }

      .cls-9 {
        fill: #f7b32b;
      }

      .cls-10 {
        fill: #d62839;
      }
    </style>
  </defs>
  <title>SimpleGraphics_v2</title>
  <g>
    <line class="cls-1" x1="13.38574" y1="148.35847" x2="193.03235" y2="148.35847"/>
    <rect class="cls-2" x="78.47451" y="134.18524" width="10.63477" height="28.34646"/>
    <rect class="cls-3" x="89.10927" y="134.18524" width="20.69231" height="28.34646"/>
    <rect class="cls-4" x="178.87851" y="134.18524" width="11.00969" height="28.34646"/>
    <rect class="cls-3" x="158.1862" y="134.18524" width="20.69231" height="28.34646" rx="0.85584"/>
    <rect class="cls-3" x="123.63078" y="134.18524" width="21.17081" height="28.34646"/>
    <g>
      <path d="M77.04837,92.16133H75.19l-.16211,1.39111h.21582a2.113,2.113,0,0,1,1.31836.5874,2.52849,2.52849,0,0,1,.60449,1.78711,2.49961,2.49961,0,0,1-2.44141,2.75879,2.88069,2.88069,0,0,1-1.31738-.312l.21582-1.24756a2.1526,2.1526,0,0,0,1.00488.27588c.69141,0,1.14454-.4917,1.14454-1.33105,0-1.04346-.71289-1.39112-1.52246-1.39112a3.0963,3.0963,0,0,0-.49708.02393l.38868-3.91016h2.90625Z"/>
      <path d="M79.69387,90.40986a15.33918,15.33918,0,0,1-1.22168,3.02246l-.72363.10792a18.155,18.155,0,0,0,.72363-3.03418Z"/>
      <path d="M81.75637,90.50606V95.759c0,1.1875.32325,1.54736.69141,1.54736.41016,0,.70215-.32373.70215-1.54736V90.50606h1.415v4.977c0,2.07519-.70215,3.20263-2.10645,3.20263-1.52343,0-2.11816-1.16357-2.11816-3.19043V90.50606Z"/>
      <path d="M86.57278,91.95723H85.28762V90.50606h3.99707v1.45117H87.98782v6.63232h-1.415Z"/>
      <path d="M90.02884,90.62617a7.6151,7.6151,0,0,1,1.54492-.15625,2.618,2.618,0,0,1,1.94433.59961,2.52848,2.52848,0,0,1-.55078,3.70606v.02392c.4961.21582.74512.73194.88574,1.59522a14.35391,14.35391,0,0,0,.46387,2.19482H92.83743A12.13124,12.13124,0,0,1,92.481,96.6584c-.12988-1.00733-.35644-1.29492-.832-1.29492h-.20508v3.22607h-1.415Zm1.415,3.52588h.248c.61621,0,.97266-.55176.97266-1.25928,0-.68359-.249-1.17529-.88574-1.19921a.91027.91027,0,0,0-.335.04785Z"/>
    </g>
    <g>
      <path d="M174.16165,97.10225a2.0147,2.0147,0,0,0,1.04785.2998,1.01887,1.01887,0,0,0,1.05859-1.12744,1.17786,1.17786,0,0,0-1.31836-1.23535h-.19433V93.88789h.14062c.51856-.01172,1.18848-.25146,1.18848-1.00732a.801.801,0,0,0-.82129-.89942,1.598,1.598,0,0,0-.88574.312l-.1836-1.1875a2.7553,2.7553,0,0,1,1.44727-.40771,1.76531,1.76531,0,0,1,1.84766,1.88281,1.9253,1.9253,0,0,1-1.00489,1.751v.02392a1.958,1.958,0,0,1,1.19922,1.979,2.27266,2.27266,0,0,1-2.34472,2.35107,2.73566,2.73566,0,0,1-1.38282-.34814Z"/>
      <path d="M180.28567,90.40986a15.33918,15.33918,0,0,1-1.22168,3.02246l-.72363.10792a18.155,18.155,0,0,0,.72363-3.03418Z"/>
      <path d="M182.34817,90.50606V95.759c0,1.1875.32324,1.54736.69141,1.54736.41015,0,.70215-.32373.70215-1.54736V90.50606h1.415v4.977c0,2.07519-.70215,3.20263-2.10645,3.20263-1.52344,0-2.11816-1.16357-2.11816-3.19043V90.50606Z"/>
      <path d="M187.16458,91.95723h-1.28516V90.50606h3.99707v1.45117h-1.29687v6.63232h-1.415Z"/>
      <path d="M190.62063,90.62617a7.61525,7.61525,0,0,1,1.54492-.15625,2.618,2.618,0,0,1,1.94434.59961,2.52848,2.52848,0,0,1-.55078,3.70606v.02392c.49609.21582.74512.73194.88574,1.59522a14.35267,14.35267,0,0,0,.46387,2.19482h-1.47949a12.12886,12.12886,0,0,1-.35645-1.93115c-.12988-1.00733-.35644-1.29492-.832-1.29492h-.20508v3.22607h-1.415Zm1.415,3.52588h.248c.61621,0,.97265-.55176.97265-1.25928,0-.68359-.249-1.17529-.88574-1.19921a.91024.91024,0,0,0-.335.04785Z"/>
    </g>
    <g>
      <path d="M139.28762,90.06611v8.0835h-1.415v-8.0835Z"/>
      <path d="M140.42141,94.04805c0-.648-.03222-1.21143-.043-1.76319h1.22071l.06445.67139h.02149a1.48627,1.48627,0,0,1,1.28613-.76758c1.0039,0,1.4043.8877,1.4043,2.19483v3.76611h-1.415V94.47969c0-.50391-.1084-.97168-.51856-.97168-.23828,0-.43262.18017-.5293.52783a1.67034,1.67034,0,0,0-.07617.53955v3.57422h-1.415Z"/>
      <path d="M147.03177,90.70186v1.583h1.0371V93.4001h-1.0371v2.6748c0,.6836.25878.85157.54.85157a1.7597,1.7597,0,0,0,.36719-.03614l.01074,1.22315a3.01734,3.01734,0,0,1-.86425.10791,1.33862,1.33862,0,0,1-1.01563-.37158,2.26288,2.26288,0,0,1-.4541-1.6792V93.4001h-.626V92.28486h.626V91.07344Z"/>
      <path d="M148.71536,94.04805c0-.58789-.02149-1.22364-.043-1.76319h1.23145l.07519.85157h.03223c.23828-.62354.65918-.94776,1.04785-.94776a1.05746,1.05746,0,0,1,.30273.02442v1.55908a1.1593,1.1593,0,0,0-.30273-.02393c-.30176,0-.70215.22754-.86426.83936a2.64906,2.64906,0,0,0-.05371.58789v2.97412h-1.42578Z"/>
      <path d="M155.71438,95.19941c0,2.44629-1.2207,3.04639-2.02051,3.04639-1.26367,0-2.01953-1.10351-2.01953-3.01074,0-2.11084.99414-3.04639,2.042-3.04639C154.95852,92.18867,155.71438,93.35225,155.71438,95.19941Zm-2.63574,0c0,1.00733.14063,1.84668.64844,1.84668.45312,0,.57226-.98339.57226-1.84668,0-.80371-.11914-1.82324-.59375-1.82324C153.187,93.37617,153.07864,94.3957,153.07864,95.19941Z"/>
      <path d="M156.51223,94.04805c0-.648-.03222-1.21143-.043-1.76319H157.69l.06445.67139h.02149a1.48627,1.48627,0,0,1,1.28613-.76758c1.0039,0,1.4043.8877,1.4043,2.19483v3.76611h-1.415V94.47969c0-.50391-.1084-.97168-.51856-.97168-.23828,0-.43262.18017-.53027.52783a1.702,1.702,0,0,0-.0752.53955v3.57422h-1.415Z"/>
      <path d="M161.41555,96.73457a1.84044,1.84044,0,0,0,.9502.31152c.36719,0,.57227-.17968.57227-.52783,0-.2998-.1504-.4917-.61524-.7915a1.91662,1.91662,0,0,1-1.06934-1.69092,1.71613,1.71613,0,0,1,1.73926-1.84717,2.28422,2.28422,0,0,1,1.06934.26416l-.249,1.15137a1.36212,1.36212,0,0,0-.73438-.23975.48749.48749,0,0,0-.5293.50342c0,.26416.11914.40772.61621.73145a2.01672,2.01672,0,0,1,1.06934,1.77539,1.72415,1.72415,0,0,1-1.86914,1.84668,2.154,2.154,0,0,1-1.21-.33545Z"/>
    </g>
    <line class="cls-5" x1="17.16527" y1="104.97385" x2="74.29722" y2="104.97385"/>
    <line class="cls-1" x1="17.16527" y1="108.97385" x2="17.16527" y2="104.97385"/>
    <line class="cls-1" x1="74.29722" y1="108.97385" x2="74.29722" y2="104.97385"/>
    <g>
      <path d="M110.29251,95.03926h-1.66309v2.1831h1.87988v1.36719h-3.29492V90.50606h3.165v1.36718h-1.75v1.85889h1.66309Z"/>
      <path d="M112.45169,92.72481l.32422,1.04345c.10839.34766.19433.6958.25976.9834h.02149c.07519-.2998.16211-.65967.248-.9834l.31348-1.04345h1.42578l-1.19922,2.87841,1.2207,2.98633H113.522l-.35742-1.10351c-.09668-.29981-.1836-.59961-.25879-.89942h-.02149c-.06543.29981-.16211.59961-.23828.89942l-.32324,1.10351h-1.416L112.0845,95.675l-1.167-2.95019Z"/>
      <path d="M119.31106,95.63936c0,2.44629-1.2207,3.04638-2.01953,3.04638-1.26465,0-2.02051-1.10351-2.02051-3.01074,0-2.11084.99414-3.04639,2.042-3.04639C118.5552,92.62861,119.31106,93.79219,119.31106,95.63936Zm-2.63574,0c0,1.00732.14062,1.84668.64844,1.84668.45312,0,.57226-.9834.57226-1.84668,0-.80371-.11914-1.82325-.59375-1.82325C116.78372,93.81611,116.67532,94.83565,116.67532,95.63936Z"/>
      <path d="M120.10891,94.488c0-.64795-.03222-1.21143-.043-1.76318h1.22071l.06445.67138h.02149a1.48627,1.48627,0,0,1,1.28613-.76758c1.0039,0,1.4043.8877,1.4043,2.19483v3.76611h-1.415V94.91963c0-.50391-.1084-.97168-.51856-.97168-.23828,0-.43262.18018-.5293.52783a1.67034,1.67034,0,0,0-.07617.53955v3.57422h-1.415Z"/>
      <path d="M125.01223,97.17451a1.84044,1.84044,0,0,0,.9502.31153c.36719,0,.57226-.17969.57226-.52784,0-.2998-.15039-.4917-.61523-.7915a1.91662,1.91662,0,0,1-1.06934-1.69092,1.71614,1.71614,0,0,1,1.73926-1.84717,2.28422,2.28422,0,0,1,1.06934.26416l-.24805,1.15137a1.36821,1.36821,0,0,0-.73535-.23974.48749.48749,0,0,0-.5293.50341c0,.26416.11914.40772.61621.73145a2.01673,2.01673,0,0,1,1.06934,1.77539,1.72415,1.72415,0,0,1-1.86914,1.84668,2.154,2.154,0,0,1-1.21-.33545Z"/>
    </g>
    <g>
      <path d="M28.50052,90.18623A6.67329,6.67329,0,0,1,29.98,90.03a2.5702,2.5702,0,0,1,1.97754.62354,2.47649,2.47649,0,0,1,.626,1.77539,2.90506,2.90506,0,0,1-.61523,1.94287,2.41812,2.41812,0,0,1-1.77246.76758h-.28028v3.01025h-1.415Zm1.415,3.66992a.66646.66646,0,0,0,.22657.02393c.71289,0,1.03711-.564,1.03711-1.31934,0-.70752-.25879-1.25927-.918-1.25927a.954.954,0,0,0-.34571.06005Z"/>
      <path d="M33.29544,94.04805c0-.58789-.02149-1.22364-.043-1.76319h1.23144l.0752.85157h.03223c.23828-.62354.65918-.94776,1.04785-.94776a1.0575,1.0575,0,0,1,.30273.02442v1.55908a1.15933,1.15933,0,0,0-.30273-.02393c-.30176,0-.70215.22754-.86426.83936a2.64906,2.64906,0,0,0-.05371.58789v2.97412H33.29544Z"/>
      <path d="M40.29446,95.19941c0,2.44629-1.2207,3.04639-2.01953,3.04639-1.26465,0-2.02051-1.10351-2.02051-3.01074,0-2.11084.99414-3.04639,2.042-3.04639C39.5386,92.18867,40.29446,93.35225,40.29446,95.19941Zm-2.63574,0c0,1.00733.14062,1.84668.64844,1.84668.45312,0,.57226-.98339.57226-1.84668,0-.80371-.11914-1.82324-.59375-1.82324C37.76712,93.37617,37.65872,94.3957,37.65872,95.19941Z"/>
      <path d="M41.09231,94.04805c0-.648-.03222-1.21143-.043-1.76319h1.23145l.06445.6836h.02149a1.49891,1.49891,0,0,1,1.26464-.77979,1.14459,1.14459,0,0,1,1.15528.792h.02148a1.88214,1.88214,0,0,1,.5293-.58789,1.43729,1.43729,0,0,1,.74609-.2041c.93946,0,1.36133.82764,1.36133,2.24317v3.71777h-1.4043v-3.4541c0-.67139-.06543-1.21143-.49707-1.21143-.249,0-.43261.1919-.52929.54a1.836,1.836,0,0,0-.044.40772v3.71777h-1.4043V94.46748c0-.41943-.043-.9834-.48632-.9834-.21582,0-.43164.18018-.5293.52783a1.69183,1.69183,0,0,0-.05371.44385v3.69385h-1.4043Z"/>
      <path d="M52.29348,95.19941c0,2.44629-1.2207,3.04639-2.0205,3.04639-1.26368,0-2.01954-1.10351-2.01954-3.01074,0-2.11084.99415-3.04639,2.042-3.04639C51.53762,92.18867,52.29348,93.35225,52.29348,95.19941Zm-2.63574,0c0,1.00733.14063,1.84668.64844,1.84668.45312,0,.57226-.98339.57226-1.84668,0-.80371-.11914-1.82324-.59375-1.82324C49.76614,93.37617,49.65774,94.3957,49.65774,95.19941Z"/>
      <path d="M54.7554,90.70186v1.583h1.03711V93.4001H54.7554v2.6748c0,.6836.25879.85157.54.85157a1.75961,1.75961,0,0,0,.36718-.03614l.01075,1.22315a3.01747,3.01747,0,0,1-.86426.10791,1.33863,1.33863,0,0,1-1.01563-.37158,2.26288,2.26288,0,0,1-.4541-1.6792V93.4001h-.626V92.28486h.626V91.07344Z"/>
      <path d="M57.563,95.7751c.02148.91113.49707,1.24707,1.123,1.24707a2.83635,2.83635,0,0,0,1.00488-.1919l.19434,1.12745a3.99051,3.99051,0,0,1-1.458.26367c-1.4375,0-2.22558-1.05518-2.22558-2.89014,0-1.9668.918-3.14258,2.11718-3.14258,1.13477,0,1.793.99561,1.793,2.77051a4.64928,4.64928,0,0,1-.043.81592Zm1.26367-1.10352c0-.75586-.17285-1.34326-.59375-1.34326-.46485,0-.64844.75537-.65918,1.34326Z"/>
      <path d="M60.89993,94.04805c0-.58789-.02149-1.22364-.043-1.76319h1.23145l.07519.85157h.03223c.23828-.62354.65918-.94776,1.04785-.94776a1.05746,1.05746,0,0,1,.30273.02442v1.55908a1.1593,1.1593,0,0,0-.30273-.02393c-.30176,0-.70215.22754-.86426.83936a2.64906,2.64906,0,0,0-.05371.58789v2.97412H60.89993Z"/>
    </g>
    <g>
      <line class="cls-6" x1="184.38336" y1="101.97385" x2="184.38336" y2="130.35287"/>
      <polygon points="183.137 129.988 184.383 132.147 185.63 129.988 183.137 129.988"/>
    </g>
    <g>
      <line class="cls-6" x1="83.7919" y1="101.97385" x2="83.7919" y2="130.35287"/>
      <polygon points="82.545 129.988 83.792 132.147 85.038 129.988 82.545 129.988"/>
    </g>
    <g>
      <line class="cls-6" x1="111.87851" y1="101.97385" x2="100.5438" y2="130.47983"/>
      <polygon points="99.52 129.68 99.881 132.147 101.837 130.601 99.52 129.68"/>
    </g>
    <g>
      <line class="cls-6" x1="116.4362" y1="101.97385" x2="133.30539" y2="130.60126"/>
      <polygon points="132.046 130.92 134.216 132.147 134.194 129.654 132.046 130.92"/>
    </g>
    <g>
      <line class="cls-6" x1="120.99389" y1="101.97385" x2="167.01764" y2="131.18553"/>
      <polygon points="166.042 132.043 168.532 132.147 167.378 129.938 166.042 132.043"/>
    </g>
    <g>
      <line class="cls-6" x1="153.07083" y1="101.97385" x2="151.44278" y2="130.35581"/>
      <polygon points="150.219 129.92 151.34 132.147 152.708 130.063 150.219 129.92"/>
    </g>
    <g>
      <line class="cls-6" x1="149.95544" y1="101.97385" x2="117.76959" y2="130.94664"/>
      <polygon points="117.207 129.776 116.436 132.147 118.875 131.629 117.207 129.776"/>
    </g>
    <g>
      <polygon class="cls-7" points="3.355 52.347 3.359 52.346 4.937 51.938 5.591 51.938 7.181 52.348 6.423 52.348 6.08 52.252 4.451 52.252 4.44 52.253 4.109 52.348 3.355 52.348 3.355 52.347 4.657 52.195 5.875 52.194 5.272 52.025 5.264 52.024 5.256 52.026 4.652 52.194 4.657 52.195 3.355 52.347"/>
      <polygon class="cls-8" points="3.355 51.17 3.36 51.169 3.36 51.159 3.373 51.145 3.423 51.118 3.486 51.099 3.595 51.076 3.654 51.066 3.73 51.055 3.889 51.037 4.069 51.022 4.196 51.014 4.291 51.009 4.504 51 4.626 50.996 4.752 50.992 4.861 50.99 5.042 50.987 5.187 50.986 5.354 50.985 5.494 50.986 5.679 50.988 5.951 50.992 6.055 50.995 6.195 50.999 6.339 51.005 6.457 51.011 6.593 51.02 6.733 51.031 6.869 51.045 6.963 51.058 7.041 51.072 7.108 51.088 7.158 51.107 7.181 51.122 6.353 51.122 6.33 51.109 6.285 51.093 6.24 51.084 6.19 51.076 6.114 51.066 6.046 51.06 5.933 51.053 5.828 51.048 5.743 51.046 5.639 51.043 5.417 51.042 5.259 51.042 5.159 51.042 5.037 51.044 4.933 51.047 4.811 51.051 4.716 51.056 4.621 51.063 4.567 51.067 4.485 51.075 4.431 51.082 4.359 51.093 4.318 51.101 4.246 51.123 4.214 51.139 4.201 51.15 4.192 51.161 4.192 51.22 4.219 51.246 4.242 51.257 4.277 51.27 4.346 51.286 4.445 51.302 4.549 51.314 4.635 51.321 4.716 51.327 4.798 51.331 4.897 51.335 4.979 51.336 5.101 51.339 5.245 51.34 5.358 51.34 5.589 51.338 5.693 51.336 5.792 51.334 5.901 51.33 5.987 51.325 6.037 51.322 6.118 51.314 6.181 51.307 6.236 51.298 6.272 51.291 6.312 51.28 6.344 51.267 6.353 51.26 7.181 51.26 7.163 51.274 7.131 51.287 7.067 51.305 7.018 51.314 6.941 51.327 6.859 51.337 6.747 51.349 6.643 51.357 6.534 51.365 6.416 51.372 6.204 51.381 6.127 51.384 5.964 51.388 5.838 51.391 5.652 51.394 5.462 51.395 5.263 51.395 5.087 51.394 4.893 51.393 4.771 51.39 4.635 51.387 4.477 51.381 4.327 51.375 4.187 51.368 4.056 51.359 3.934 51.349 3.775 51.333 3.658 51.318 3.572 51.303 3.513 51.29 3.454 51.275 3.423 51.264 3.373 51.238 3.355 51.214 3.355 51.17"/>
      <polygon class="cls-9" points="3.355 51.651 3.36 51.65 3.36 51.637 3.369 51.625 3.414 51.597 3.482 51.574 3.531 51.561 3.581 51.552 3.64 51.541 3.712 51.531 3.843 51.515 3.924 51.508 4.023 51.499 4.204 51.488 4.335 51.481 4.471 51.475 4.692 51.469 4.836 51.465 4.99 51.463 5.175 51.462 5.315 51.461 5.622 51.463 5.884 51.466 6.011 51.469 6.173 51.473 6.259 51.476 6.399 51.482 6.544 51.49 6.643 51.497 6.792 51.509 6.905 51.522 7.009 51.538 7.063 51.549 7.104 51.559 7.14 51.57 7.176 51.589 6.363 51.589 6.332 51.576 6.282 51.563 6.21 51.551 6.146 51.544 6.038 51.535 5.939 51.528 5.835 51.524 5.708 51.52 5.609 51.519 5.469 51.517 5.193 51.517 5.008 51.52 4.882 51.524 4.801 51.528 4.728 51.531 4.647 51.536 4.552 51.545 4.484 51.551 4.416 51.561 4.362 51.57 4.312 51.58 4.272 51.591 4.24 51.603 4.213 51.617 4.19 51.641 4.19 51.691 4.2 51.704 4.222 51.719 4.249 51.73 4.294 51.744 4.335 51.754 4.412 51.767 4.498 51.778 4.565 51.785 4.633 51.791 4.751 51.8 4.882 51.806 4.995 51.81 5.148 51.814 5.252 51.816 5.343 51.817 5.564 51.817 5.722 51.815 5.898 51.812 6.034 51.809 6.146 51.805 6.273 51.798 6.354 51.792 6.354 51.714 5.36 51.713 5.36 51.662 7.181 51.662 7.181 51.814 7.104 51.822 7.018 51.829 6.927 51.835 6.792 51.843 6.63 51.85 6.485 51.856 6.332 51.86 6.151 51.865 5.916 51.868 5.771 51.87 5.591 51.871 5.378 51.871 5.193 51.871 5.013 51.869 4.823 51.866 4.638 51.86 4.498 51.855 4.358 51.85 4.209 51.842 4.091 51.834 4.001 51.828 3.902 51.819 3.793 51.808 3.712 51.798 3.64 51.787 3.563 51.774 3.509 51.762 3.454 51.747 3.423 51.737 3.387 51.72 3.36 51.696 3.355 51.651"/>
      <polygon class="cls-10" points="3.355 42.895 7.181 42.895 7.181 44.01 5.676 44.017 5.676 50.92 4.851 50.92 4.851 44.017 3.355 44.01 3.355 42.902 3.355 42.895"/>
      <polygon class="cls-7" points="7.382 50.743 7.386 50.737 8.963 44.062 9.618 44.056 11.208 50.755 10.45 50.755 10.107 49.195 8.478 49.195 8.466 49.221 8.135 50.755 7.382 50.755 7.382 50.743 8.684 48.264 9.902 48.258 9.299 45.484 9.291 45.471 9.283 45.49 8.679 48.258 8.684 48.264 7.382 50.743"/>
      <polygon class="cls-8" points="7.382 51.766 7.387 51.766 7.387 51.758 7.4 51.746 7.45 51.725 7.513 51.709 7.622 51.69 7.68 51.683 7.757 51.674 7.916 51.659 8.097 51.647 8.223 51.641 8.318 51.637 8.53 51.628 8.653 51.625 8.779 51.623 8.888 51.62 9.069 51.619 9.213 51.618 9.381 51.617 9.521 51.618 9.706 51.619 9.977 51.623 10.081 51.624 10.222 51.628 10.367 51.633 10.484 51.638 10.62 51.645 10.76 51.654 10.896 51.666 10.99 51.676 11.067 51.687 11.135 51.701 11.185 51.716 11.208 51.729 10.38 51.729 10.357 51.717 10.312 51.705 10.267 51.697 10.217 51.69 10.14 51.683 10.073 51.678 9.959 51.672 9.855 51.668 9.769 51.666 9.665 51.665 9.444 51.662 9.286 51.662 9.186 51.663 9.064 51.665 8.96 51.667 8.838 51.67 8.743 51.674 8.648 51.679 8.594 51.683 8.512 51.69 8.458 51.695 8.386 51.704 8.345 51.712 8.273 51.729 8.241 51.741 8.228 51.75 8.218 51.76 8.218 51.807 8.246 51.829 8.268 51.837 8.304 51.848 8.372 51.861 8.471 51.874 8.576 51.884 8.661 51.889 8.743 51.893 8.824 51.897 8.924 51.9 9.005 51.902 9.128 51.904 9.272 51.904 9.385 51.904 9.616 51.903 9.72 51.901 9.819 51.9 9.928 51.896 10.014 51.892 10.063 51.89 10.145 51.884 10.208 51.878 10.263 51.871 10.298 51.865 10.339 51.855 10.371 51.846 10.38 51.84 11.208 51.84 11.189 51.85 11.158 51.862 11.094 51.875 11.045 51.884 10.968 51.894 10.886 51.902 10.773 51.912 10.669 51.919 10.561 51.925 10.443 51.93 10.231 51.938 10.154 51.94 9.991 51.943 9.865 51.946 9.679 51.948 9.489 51.949 9.29 51.95 9.114 51.949 8.92 51.947 8.797 51.945 8.661 51.942 8.503 51.938 8.354 51.933 8.214 51.927 8.083 51.92 7.961 51.912 7.803 51.899 7.685 51.886 7.599 51.875 7.54 51.864 7.481 51.852 7.45 51.843 7.4 51.821 7.382 51.802 7.382 51.766"/>
      <polygon class="cls-9" points="7.382 52.168 7.387 52.168 7.387 52.158 7.395 52.148 7.44 52.126 7.509 52.106 7.558 52.097 7.608 52.089 7.666 52.08 7.739 52.072 7.87 52.059 7.951 52.053 8.051 52.047 8.231 52.037 8.362 52.031 8.498 52.026 8.719 52.022 8.863 52.019 9.017 52.017 9.202 52.016 9.342 52.015 9.649 52.017 9.911 52.019 10.038 52.022 10.2 52.025 10.286 52.027 10.426 52.032 10.571 52.038 10.67 52.044 10.819 52.054 10.932 52.064 11.036 52.077 11.09 52.086 11.131 52.094 11.167 52.104 11.203 52.118 10.39 52.118 10.358 52.108 10.309 52.098 10.236 52.089 10.173 52.082 10.065 52.075 9.965 52.07 9.861 52.066 9.735 52.063 9.635 52.061 9.496 52.06 9.22 52.06 9.035 52.063 8.909 52.066 8.827 52.068 8.755 52.072 8.673 52.076 8.579 52.082 8.511 52.089 8.443 52.096 8.389 52.103 8.339 52.111 8.299 52.12 8.267 52.13 8.24 52.141 8.218 52.16 8.218 52.202 8.227 52.211 8.249 52.223 8.276 52.233 8.321 52.244 8.362 52.252 8.439 52.263 8.524 52.272 8.592 52.277 8.66 52.282 8.777 52.289 8.909 52.294 9.021 52.298 9.175 52.301 9.279 52.302 9.369 52.302 9.59 52.302 9.749 52.302 9.925 52.3 10.06 52.297 10.173 52.294 10.3 52.288 10.381 52.283 10.381 52.22 9.387 52.219 9.387 52.177 11.208 52.177 11.208 52.301 11.131 52.307 11.045 52.313 10.954 52.319 10.819 52.324 10.656 52.331 10.512 52.335 10.358 52.339 10.177 52.342 9.943 52.345 9.798 52.346 9.618 52.347 9.405 52.348 9.22 52.347 9.04 52.345 8.85 52.343 8.665 52.339 8.524 52.335 8.385 52.33 8.235 52.323 8.118 52.317 8.028 52.312 7.929 52.305 7.82 52.296 7.739 52.288 7.666 52.279 7.59 52.269 7.536 52.259 7.481 52.247 7.45 52.238 7.414 52.225 7.387 52.206 7.382 52.168"/>
      <polygon class="cls-10" points="7.382 50.821 11.208 50.821 11.208 50.923 9.703 50.924 9.703 51.551 8.878 51.551 8.878 50.924 7.382 50.923 7.382 50.822 7.382 50.821"/>
      <polygon class="cls-7" points="11.409 50.779 11.413 50.771 12.99 42.077 13.645 42.069 15.234 50.795 14.477 50.795 14.134 48.763 12.505 48.763 12.493 48.796 12.162 50.795 11.409 50.795 11.409 50.779 12.71 47.551 13.929 47.543 13.325 43.928 13.317 43.912 13.31 43.937 12.706 47.543 12.71 47.551 11.409 50.779"/>
      <polygon class="cls-8" points="11.409 52.099 11.413 52.098 11.413 52.087 11.427 52.072 11.477 52.043 11.54 52.021 11.648 51.995 11.707 51.984 11.784 51.972 11.942 51.953 12.123 51.937 12.25 51.927 12.345 51.921 12.557 51.912 12.679 51.907 12.806 51.903 12.914 51.9 13.095 51.898 13.24 51.896 13.408 51.896 13.547 51.896 13.733 51.898 14.004 51.903 14.108 51.906 14.249 51.911 14.393 51.917 14.511 51.924 14.647 51.934 14.786 51.946 14.922 51.962 15.017 51.976 15.094 51.992 15.162 52.01 15.212 52.03 15.234 52.047 14.407 52.047 14.384 52.032 14.339 52.015 14.294 52.004 14.244 51.995 14.167 51.984 14.099 51.978 13.986 51.971 13.882 51.965 13.796 51.963 13.692 51.96 13.471 51.958 13.312 51.958 13.213 51.959 13.091 51.96 12.987 51.963 12.865 51.968 12.77 51.974 12.675 51.98 12.62 51.985 12.539 51.995 12.485 52.002 12.412 52.015 12.372 52.024 12.3 52.047 12.268 52.064 12.254 52.076 12.245 52.09 12.245 52.154 12.273 52.183 12.295 52.195 12.331 52.21 12.399 52.227 12.499 52.245 12.602 52.258 12.689 52.266 12.77 52.272 12.851 52.276 12.951 52.28 13.032 52.282 13.154 52.285 13.299 52.286 13.412 52.286 13.643 52.285 13.747 52.282 13.846 52.279 13.955 52.275 14.041 52.27 14.09 52.266 14.172 52.258 14.235 52.25 14.289 52.24 14.325 52.232 14.366 52.22 14.398 52.206 14.407 52.198 15.234 52.198 15.216 52.214 15.184 52.228 15.121 52.248 15.071 52.258 14.994 52.272 14.913 52.283 14.8 52.296 14.696 52.306 14.588 52.314 14.47 52.321 14.257 52.331 14.181 52.335 14.018 52.34 13.891 52.342 13.706 52.345 13.516 52.347 13.317 52.348 13.141 52.347 12.946 52.344 12.824 52.341 12.689 52.338 12.53 52.332 12.381 52.325 12.241 52.317 12.11 52.307 11.987 52.297 11.829 52.279 11.712 52.261 11.626 52.246 11.567 52.232 11.508 52.214 11.477 52.202 11.427 52.174 11.409 52.147 11.409 52.099"/>
      <polygon class="cls-10" points="11.409 50.862 15.234 50.862 15.234 50.996 13.73 50.997 13.73 51.83 12.904 51.83 12.904 50.997 11.409 50.996 11.409 50.862 11.409 50.862"/>
      <polygon class="cls-8" points="15.436 45.343 15.44 45.334 15.44 45.063 15.454 44.697 15.503 44.02 15.567 43.509 15.675 42.911 15.734 42.66 15.811 42.38 15.969 41.926 16.15 41.539 16.277 41.327 16.371 41.192 16.584 40.951 16.706 40.844 16.833 40.757 16.941 40.7 17.122 40.632 17.267 40.603 17.434 40.593 17.575 40.603 17.76 40.642 18.031 40.757 18.135 40.825 18.275 40.941 18.42 41.095 18.537 41.25 18.673 41.472 18.813 41.761 18.949 42.129 19.044 42.467 19.121 42.823 19.189 43.258 19.239 43.732 19.261 44.127 18.433 44.127 18.411 43.769 18.366 43.384 18.321 43.123 18.271 42.911 18.194 42.669 18.126 42.514 18.013 42.331 17.909 42.216 17.823 42.148 17.719 42.09 17.498 42.032 17.339 42.032 17.24 42.051 17.118 42.1 17.014 42.167 16.892 42.283 16.797 42.409 16.702 42.572 16.647 42.689 16.566 42.901 16.512 43.075 16.44 43.374 16.399 43.586 16.326 44.137 16.295 44.542 16.281 44.822 16.272 45.131 16.272 46.637 16.299 47.313 16.322 47.603 16.358 47.931 16.426 48.356 16.526 48.771 16.63 49.07 16.715 49.254 16.797 49.389 16.878 49.495 16.977 49.591 17.059 49.649 17.181 49.707 17.326 49.737 17.439 49.737 17.669 49.688 17.773 49.64 17.873 49.572 17.981 49.466 18.067 49.35 18.117 49.264 18.198 49.08 18.262 48.887 18.316 48.665 18.352 48.472 18.393 48.182 18.425 47.854 18.433 47.68 19.261 47.68 19.243 48.028 19.211 48.365 19.148 48.819 19.098 49.08 19.021 49.398 18.94 49.669 18.827 49.968 18.723 50.19 18.614 50.383 18.497 50.557 18.284 50.799 18.208 50.866 18.045 50.982 17.918 51.05 17.733 51.117 17.543 51.155 17.344 51.165 17.167 51.146 16.973 51.088 16.851 51.03 16.715 50.943 16.557 50.808 16.408 50.644 16.267 50.451 16.136 50.229 16.014 49.978 15.856 49.562 15.738 49.157 15.653 48.781 15.594 48.462 15.535 48.056 15.503 47.777 15.454 47.1 15.436 46.473 15.436 45.343"/>
      <polygon class="cls-9" points="15.436 51.474 15.44 51.473 15.44 51.457 15.449 51.441 15.495 51.406 15.562 51.376 15.612 51.36 15.662 51.347 15.72 51.334 15.792 51.32 15.923 51.301 16.005 51.291 16.104 51.281 16.285 51.265 16.416 51.256 16.551 51.249 16.773 51.24 16.917 51.237 17.071 51.234 17.256 51.232 17.396 51.231 17.703 51.233 17.965 51.237 18.091 51.24 18.254 51.246 18.34 51.25 18.48 51.258 18.624 51.268 18.724 51.277 18.873 51.293 18.986 51.309 19.09 51.329 19.144 51.343 19.184 51.356 19.221 51.371 19.257 51.394 18.444 51.394 18.412 51.377 18.362 51.362 18.29 51.347 18.227 51.337 18.118 51.325 18.019 51.317 17.915 51.311 17.789 51.306 17.69 51.304 17.549 51.302 17.274 51.303 17.089 51.306 16.962 51.311 16.881 51.316 16.808 51.32 16.728 51.327 16.632 51.337 16.565 51.347 16.497 51.358 16.443 51.369 16.393 51.383 16.353 51.398 16.321 51.412 16.294 51.431 16.271 51.461 16.271 51.526 16.28 51.541 16.303 51.561 16.33 51.575 16.375 51.593 16.416 51.605 16.492 51.623 16.578 51.637 16.646 51.646 16.714 51.653 16.831 51.664 16.962 51.673 17.075 51.678 17.229 51.683 17.333 51.685 17.423 51.686 17.644 51.686 17.802 51.684 17.978 51.681 18.114 51.677 18.227 51.671 18.353 51.663 18.434 51.654 18.434 51.554 17.441 51.554 17.441 51.487 19.261 51.487 19.261 51.683 19.184 51.693 19.098 51.702 19.008 51.71 18.873 51.72 18.71 51.73 18.566 51.737 18.412 51.742 18.231 51.748 17.996 51.753 17.852 51.754 17.671 51.756 17.459 51.756 17.274 51.755 17.093 51.753 16.903 51.749 16.718 51.742 16.578 51.736 16.438 51.729 16.289 51.718 16.172 51.709 16.082 51.7 15.982 51.689 15.874 51.674 15.792 51.662 15.72 51.649 15.644 51.631 15.589 51.616 15.535 51.598 15.503 51.584 15.467 51.562 15.44 51.532 15.436 51.474"/>
      <polygon class="cls-10" points="15.436 51.822 19.261 51.822 19.261 51.896 17.756 51.896 17.756 52.348 16.931 52.348 16.931 51.896 15.436 51.896 15.436 51.823 15.436 51.822"/>
      <polygon class="cls-7" points="19.462 51.061 19.466 51.051 21.044 39.778 21.699 39.768 23.288 51.083 22.531 51.083 22.188 48.448 20.559 48.448 20.547 48.49 20.216 51.083 19.462 51.083 19.462 51.061 20.764 46.875 21.982 46.865 21.379 42.179 21.371 42.158 21.363 42.19 20.76 46.865 20.764 46.875 19.462 51.061"/>
      <polygon class="cls-10" points="19.462 51.149 23.288 51.149 23.288 51.315 21.783 51.316 21.783 52.348 20.958 52.348 20.958 51.316 19.462 51.315 19.462 51.15 19.462 51.149"/>
      <polygon class="cls-8" points="23.489 44.852 23.494 44.841 23.494 44.552 23.507 44.159 23.557 43.436 23.62 42.888 23.729 42.247 23.788 41.978 23.865 41.679 24.023 41.193 24.204 40.78 24.33 40.553 24.425 40.408 24.638 40.149 24.76 40.036 24.886 39.943 24.995 39.881 25.176 39.809 25.321 39.777 25.488 39.768 25.628 39.777 25.814 39.819 26.085 39.943 26.189 40.016 26.329 40.14 26.474 40.304 26.591 40.47 26.727 40.708 26.867 41.018 27.003 41.41 27.098 41.772 27.174 42.154 27.243 42.619 27.292 43.126 27.315 43.549 26.487 43.549 26.465 43.167 26.419 42.754 26.374 42.475 26.325 42.247 26.247 41.989 26.18 41.823 26.067 41.627 25.963 41.503 25.877 41.431 25.773 41.369 25.551 41.307 25.393 41.307 25.294 41.328 25.171 41.38 25.067 41.451 24.945 41.576 24.85 41.71 24.755 41.886 24.701 42.01 24.62 42.238 24.565 42.423 24.493 42.744 24.453 42.971 24.38 43.56 24.348 43.994 24.335 44.293 24.326 44.624 24.326 46.236 24.353 46.959 24.375 47.27 24.412 47.621 24.479 48.075 24.579 48.52 24.683 48.841 24.769 49.037 24.85 49.181 24.932 49.295 25.031 49.398 25.112 49.461 25.235 49.523 25.379 49.553 25.492 49.553 25.723 49.502 25.827 49.45 25.927 49.377 26.035 49.264 26.121 49.14 26.171 49.047 26.252 48.85 26.315 48.644 26.37 48.406 26.406 48.2 26.447 47.89 26.478 47.538 26.487 47.352 27.315 47.352 27.297 47.724 27.265 48.086 27.202 48.572 27.152 48.85 27.075 49.192 26.994 49.481 26.88 49.801 26.776 50.039 26.668 50.246 26.551 50.431 26.338 50.69 26.261 50.762 26.098 50.887 25.972 50.959 25.786 51.031 25.596 51.072 25.398 51.083 25.221 51.062 25.027 51 24.904 50.938 24.769 50.845 24.611 50.7 24.461 50.524 24.322 50.318 24.19 50.08 24.068 49.812 23.91 49.368 23.792 48.933 23.706 48.53 23.647 48.189 23.589 47.755 23.557 47.456 23.507 46.732 23.489 46.061 23.489 44.852"/>
      <polygon class="cls-9" points="23.489 51.703 23.494 51.702 23.494 51.662 23.503 51.628 23.548 51.546 23.616 51.478 23.665 51.442 23.715 51.413 23.774 51.383 23.846 51.352 23.977 51.307 24.058 51.285 24.158 51.26 24.339 51.226 24.469 51.206 24.605 51.189 24.826 51.169 24.971 51.161 25.124 51.154 25.309 51.15 25.45 51.149 25.756 51.152 26.019 51.162 26.145 51.169 26.308 51.183 26.393 51.192 26.534 51.209 26.678 51.232 26.777 51.252 26.926 51.289 27.039 51.326 27.143 51.372 27.197 51.404 27.238 51.433 27.274 51.467 27.31 51.521 26.497 51.521 26.465 51.482 26.416 51.447 26.344 51.411 26.281 51.39 26.172 51.362 26.073 51.344 25.969 51.331 25.843 51.321 25.743 51.315 25.603 51.31 25.328 51.312 25.142 51.321 25.016 51.331 24.934 51.341 24.862 51.352 24.781 51.368 24.686 51.39 24.618 51.411 24.551 51.438 24.496 51.464 24.447 51.494 24.406 51.528 24.374 51.561 24.347 51.603 24.325 51.672 24.325 51.822 24.334 51.856 24.356 51.9 24.384 51.934 24.429 51.976 24.469 52.002 24.546 52.042 24.632 52.075 24.7 52.096 24.767 52.113 24.885 52.137 25.016 52.157 25.129 52.169 25.282 52.18 25.386 52.185 25.476 52.186 25.698 52.186 25.856 52.183 26.032 52.176 26.167 52.165 26.281 52.154 26.407 52.134 26.488 52.115 26.488 51.887 25.495 51.885 25.495 51.733 27.315 51.733 27.315 52.18 27.238 52.203 27.152 52.223 27.062 52.242 26.926 52.265 26.764 52.287 26.619 52.302 26.465 52.315 26.285 52.327 26.05 52.339 25.906 52.343 25.725 52.346 25.513 52.348 25.328 52.345 25.147 52.34 24.957 52.33 24.772 52.315 24.632 52.302 24.492 52.284 24.343 52.26 24.225 52.239 24.135 52.219 24.036 52.194 23.927 52.161 23.846 52.131 23.774 52.101 23.697 52.062 23.643 52.028 23.589 51.985 23.557 51.953 23.521 51.904 23.494 51.835 23.489 51.703"/>
      <polygon class="cls-10" points="27.516 35.894 31.342 35.894 31.342 38.18 29.837 38.195 29.837 52.348 29.012 52.348 29.012 38.195 27.516 38.18 27.516 35.909 27.516 35.894"/>
    </g>
    <g>
      <path d="M41.67373,41.62885l-1.604,2.105.01612.0542L42.371,43.32v1.637l-2.30127-.46729-.01611.05347,1.62012,2.0332-1.36084.84522-.8584-2.59058-.03223.0542L38.498,47.43989l-1.21436-.84595,1.604-2.14013-.03223-.01832-2.23682.52149V43.32l2.20313.468.0498-.0542-1.58789-2.06909,1.32861-.84521.8584,2.53638h.04834l.82617-2.55469Z"/>
      <path d="M47.911,41.62885l-1.604,2.105.01611.0542,2.28516-.468v1.637L46.307,44.48969l-.01611.05347,1.62011,2.0332-1.36084.84522-.8584-2.59058-.03222.0542-.92432,2.55469-1.21435-.84595,1.604-2.14013-.03223-.01832-2.23681.52149V43.32l2.20312.468.04981-.0542L43.5209,41.66474l1.32861-.84521.8584,2.53638h.04834l.82617-2.55469Z"/>
      <path d="M54.14687,41.62885l-1.604,2.105.01611.0542,2.28516-.468v1.637l-2.30127-.46729-.01611.05347,1.62011,2.0332-1.36084.84522-.8584-2.59058-.03222.0542-.92432,2.55469-1.21582-.84595,1.60547-2.14013-.03223-.01832L49.0917,44.957V43.32l2.20312.468.04981-.0542-1.58936-2.06909,1.33008-.84521.8584,2.53638h.04834l.82617-2.55469Z"/>
    </g>
    <g>
      <path d="M79.73427,41.62885l-1.604,2.105.01611.0542,2.28516-.468v1.637l-2.30127-.46729-.01611.05347,1.62011,2.0332-1.36083.84522L77.515,44.831l-.03223.0542-.92432,2.55469-1.21435-.84595,1.604-2.14013-.03222-.01832L74.6791,44.957V43.32l2.20312.468.04981-.0542-1.58789-2.06909,1.32861-.84521.8584,2.53638h.04834l.82617-2.55469Z"/>
      <path d="M85.97158,41.62885l-1.604,2.105.01611.0542,2.28516-.468v1.637l-2.30127-.46729-.01612.05347,1.62012,2.0332-1.36084.84522-.8584-2.59058-.03223.0542-.92431,2.55469-1.21436-.84595,1.604-2.14013-.03223-.01832L80.9164,44.957V43.32l2.20313.468.0498-.0542-1.58789-2.06909,1.32862-.84521.85839,2.53638h.04834l.82618-2.55469Z"/>
      <path d="M92.20742,41.62885l-1.604,2.105.01611.0542,2.28516-.468v1.637l-2.30127-.46729-.01612.05347,1.62012,2.0332-1.36084.84522-.8584-2.59058-.03223.0542-.92431,2.55469-1.21582-.84595,1.60547-2.14013-.03223-.01832-2.23682.52149V43.32l2.20313.468.0498-.0542-1.58935-2.06909,1.33008-.84521.85839,2.53638h.04834l.82618-2.55469Z"/>
    </g>
    <path d="M186.56264,41.62885l-1.604,2.105.01611.0542,2.28516-.468v1.637l-2.30127-.46729-.01611.05347,1.62011,2.0332-1.36084.84522-.85839-2.59058-.03223.0542-.92432,2.55469-1.21435-.84595,1.604-2.14013-.03223-.01832-2.23681.52149V43.32l2.20312.468.04981-.0542-1.58789-2.06909,1.32861-.84521.8584,2.53638h.04834l.82617-2.55469Z"/>
    <g>
      <polygon class="cls-9" points="3.355 69.929 3.36 69.915 3.36 69.381 3.371 68.922 3.424 67.812 3.503 66.894 3.561 66.406 3.619 66.005 3.687 65.606 3.772 65.191 3.925 64.584 4.02 64.273 4.136 63.947 4.347 63.473 4.5 63.207 4.658 62.985 4.917 62.719 5.086 62.6 5.264 62.511 5.481 62.452 5.645 62.437 6.004 62.481 6.309 62.614 6.457 62.719 6.647 62.896 6.747 63.015 6.911 63.251 7.08 63.562 7.196 63.829 7.37 64.332 7.502 64.836 7.623 65.458 7.687 65.887 7.734 66.287 7.776 66.746 7.818 67.472 6.869 67.472 6.832 66.954 6.774 66.464 6.689 65.991 6.615 65.694 6.489 65.325 6.373 65.087 6.251 64.91 6.104 64.761 5.988 64.688 5.824 64.628 5.502 64.644 5.286 64.761 5.138 64.91 5.043 65.043 4.958 65.191 4.864 65.398 4.753 65.71 4.674 65.991 4.595 66.346 4.531 66.702 4.474 67.116 4.426 67.561 4.389 68.019 4.357 68.582 4.331 69.515 4.331 71.544 4.342 72.002 4.368 72.609 4.4 73.068 4.452 73.616 4.5 73.987 4.589 74.52 4.689 74.963 4.769 75.245 4.848 75.482 4.985 75.808 5.138 76.074 5.27 76.237 5.449 76.386 5.571 76.445 5.676 76.474 5.935 76.474 6.119 76.43 6.325 76.326 6.483 76.193 6.615 76.03 6.763 75.763 6.858 75.512 6.858 72.417 5.698 72.402 5.698 70.344 7.824 70.344 7.824 76.386 7.734 76.696 7.633 76.977 7.528 77.229 7.37 77.54 7.18 77.836 7.011 78.043 6.832 78.221 6.62 78.384 6.346 78.533 6.177 78.592 5.967 78.636 5.718 78.65 5.502 78.621 5.291 78.547 5.069 78.414 4.854 78.221 4.689 78.029 4.526 77.792 4.352 77.481 4.215 77.185 4.11 76.918 3.993 76.578 3.867 76.134 3.772 75.733 3.687 75.319 3.598 74.786 3.535 74.327 3.471 73.75 3.434 73.32 3.392 72.654 3.36 71.721 3.355 69.929"/>
      <polygon class="cls-10" points="3.355 78.717 7.824 78.717 7.824 78.719 6.066 78.719 6.066 78.73 5.102 78.73 5.102 78.719 3.355 78.719 3.355 78.717"/>
      <polygon class="cls-8" points="8.058 78.707 8.064 78.707 8.064 78.706 8.08 78.704 8.138 78.701 8.212 78.699 8.338 78.696 8.408 78.695 8.497 78.694 8.682 78.692 8.893 78.69 9.041 78.689 9.152 78.688 9.4 78.688 9.543 78.687 9.691 78.687 9.817 78.686 10.029 78.686 10.198 78.686 10.393 78.686 10.557 78.686 10.774 78.686 11.091 78.687 11.212 78.687 11.376 78.688 11.545 78.688 11.682 78.688 11.84 78.69 12.004 78.691 12.163 78.692 12.274 78.694 12.363 78.696 12.442 78.698 12.501 78.7 12.527 78.701 11.561 78.701 11.534 78.7 11.481 78.698 11.428 78.697 11.37 78.696 11.281 78.695 11.202 78.694 11.069 78.693 10.948 78.693 10.848 78.692 10.726 78.692 10.467 78.692 10.282 78.692 10.166 78.692 10.024 78.692 9.902 78.693 9.759 78.693 9.648 78.694 9.538 78.695 9.474 78.695 9.379 78.696 9.316 78.697 9.231 78.698 9.184 78.699 9.099 78.701 9.062 78.704 9.047 78.705 9.036 78.706 9.036 78.713 9.067 78.716 9.094 78.717 9.136 78.718 9.215 78.721 9.332 78.722 9.453 78.724 9.554 78.725 9.648 78.725 9.743 78.725 9.86 78.726 9.955 78.726 10.097 78.726 10.267 78.726 10.398 78.726 10.668 78.726 10.789 78.726 10.906 78.725 11.032 78.725 11.133 78.725 11.191 78.725 11.286 78.724 11.36 78.723 11.423 78.721 11.465 78.721 11.513 78.72 11.55 78.718 11.561 78.717 12.527 78.717 12.506 78.719 12.469 78.721 12.395 78.722 12.337 78.724 12.247 78.725 12.152 78.726 12.02 78.728 11.898 78.729 11.772 78.73 11.635 78.73 11.386 78.731 11.296 78.732 11.106 78.732 10.959 78.733 10.742 78.733 10.52 78.733 10.287 78.733 10.082 78.733 9.854 78.733 9.712 78.733 9.554 78.732 9.369 78.731 9.194 78.73 9.03 78.73 8.877 78.729 8.734 78.728 8.55 78.725 8.412 78.724 8.312 78.722 8.243 78.721 8.175 78.719 8.138 78.718 8.08 78.715 8.058 78.712 8.058 78.707"/>
      <polygon class="cls-10" points="8.058 62.552 12.527 62.552 12.527 64.786 10.769 64.8 10.769 78.62 9.806 78.62 9.806 64.8 8.058 64.786 8.058 62.568 8.058 62.552"/>
      <polygon class="cls-7" points="12.763 78.757 12.767 78.757 14.61 78.738 15.374 78.738 17.231 78.757 16.346 78.757 15.945 78.752 14.043 78.752 14.029 78.752 13.642 78.757 12.763 78.757 14.283 78.75 15.706 78.75 15.001 78.742 14.992 78.742 14.983 78.742 14.278 78.75 14.283 78.75 12.763 78.757"/>
      <polygon class="cls-8" points="12.763 69.672 12.767 69.657 12.767 69.239 12.783 68.672 12.841 67.627 12.915 66.837 13.042 65.912 13.111 65.523 13.2 65.091 13.385 64.389 13.597 63.792 13.745 63.464 13.856 63.254 14.104 62.882 14.246 62.718 14.394 62.583 14.521 62.493 14.733 62.389 14.901 62.345 15.097 62.33 15.261 62.345 15.477 62.404 15.794 62.583 15.916 62.688 16.079 62.867 16.248 63.106 16.386 63.344 16.544 63.688 16.708 64.135 16.866 64.702 16.977 65.225 17.067 65.777 17.146 66.448 17.204 67.18 17.231 67.792 16.264 67.792 16.238 67.239 16.185 66.643 16.132 66.24 16.074 65.912 15.984 65.538 15.905 65.3 15.773 65.016 15.651 64.836 15.551 64.732 15.429 64.643 15.171 64.553 14.986 64.553 14.87 64.583 14.727 64.658 14.606 64.762 14.463 64.941 14.352 65.135 14.241 65.389 14.178 65.568 14.083 65.896 14.02 66.165 13.935 66.627 13.887 66.956 13.803 67.807 13.766 68.434 13.75 68.866 13.739 69.344 13.739 71.672 13.771 72.716 13.798 73.164 13.84 73.672 13.919 74.328 14.035 74.97 14.157 75.433 14.257 75.717 14.352 75.926 14.447 76.089 14.563 76.239 14.659 76.328 14.801 76.418 14.97 76.462 15.102 76.462 15.372 76.388 15.493 76.314 15.609 76.209 15.736 76.045 15.836 75.866 15.894 75.731 15.99 75.448 16.064 75.149 16.127 74.806 16.169 74.507 16.216 74.059 16.253 73.553 16.264 73.284 17.231 73.284 17.21 73.821 17.173 74.344 17.099 75.045 17.04 75.448 16.951 75.94 16.856 76.358 16.724 76.821 16.602 77.165 16.475 77.462 16.338 77.731 16.09 78.104 16 78.209 15.81 78.388 15.662 78.492 15.446 78.597 15.224 78.657 14.991 78.671 14.785 78.642 14.558 78.552 14.415 78.462 14.257 78.328 14.072 78.119 13.898 77.866 13.734 77.567 13.581 77.223 13.439 76.836 13.254 76.194 13.116 75.567 13.016 74.985 12.947 74.493 12.878 73.866 12.841 73.433 12.783 72.389 12.763 71.419 12.763 69.672"/>
      <polygon class="cls-7" points="17.466 78.511 17.471 78.496 19.313 62.953 20.078 62.939 21.934 78.54 21.05 78.54 20.649 74.907 18.747 74.907 18.733 74.966 18.346 78.54 17.466 78.54 17.466 78.511 18.986 72.739 20.409 72.725 19.704 66.264 19.696 66.234 19.686 66.279 18.981 72.725 18.986 72.739 17.466 78.511"/>
      <polygon class="cls-8" points="17.466 78.724 17.471 78.724 17.471 78.723 17.487 78.721 17.545 78.719 17.619 78.717 17.746 78.716 17.814 78.715 17.905 78.714 18.089 78.713 18.301 78.711 18.448 78.71 18.559 78.71 18.807 78.709 18.95 78.709 19.098 78.709 19.225 78.709 19.436 78.709 19.605 78.709 19.801 78.708 19.964 78.709 20.181 78.709 20.497 78.709 20.619 78.709 20.783 78.709 20.952 78.709 21.089 78.71 21.247 78.711 21.412 78.712 21.57 78.713 21.681 78.714 21.771 78.715 21.85 78.717 21.908 78.718 21.934 78.72 20.968 78.72 20.941 78.718 20.888 78.717 20.836 78.717 20.778 78.716 20.688 78.715 20.608 78.714 20.477 78.713 20.355 78.713 20.255 78.713 20.133 78.713 19.875 78.713 19.69 78.713 19.573 78.713 19.431 78.713 19.309 78.713 19.166 78.713 19.055 78.714 18.945 78.714 18.881 78.715 18.786 78.716 18.723 78.717 18.638 78.717 18.591 78.718 18.507 78.72 18.47 78.721 18.453 78.722 18.443 78.723 18.443 78.728 18.475 78.73 18.501 78.731 18.544 78.732 18.623 78.734 18.739 78.735 18.86 78.736 18.961 78.737 19.055 78.737 19.151 78.738 19.267 78.738 19.362 78.738 19.505 78.738 19.674 78.738 19.806 78.738 20.075 78.738 20.197 78.738 20.313 78.738 20.44 78.737 20.54 78.737 20.598 78.737 20.693 78.736 20.767 78.735 20.83 78.734 20.873 78.734 20.921 78.733 20.958 78.732 20.968 78.731 21.934 78.731 21.913 78.733 21.876 78.734 21.802 78.735 21.744 78.736 21.654 78.737 21.56 78.738 21.427 78.738 21.306 78.739 21.179 78.74 21.042 78.741 20.793 78.742 20.704 78.742 20.514 78.742 20.366 78.742 20.149 78.742 19.927 78.742 19.695 78.742 19.489 78.742 19.262 78.742 19.119 78.742 18.961 78.742 18.776 78.742 18.601 78.741 18.438 78.74 18.285 78.739 18.142 78.738 17.957 78.738 17.82 78.736 17.72 78.735 17.651 78.734 17.582 78.733 17.545 78.732 17.487 78.73 17.466 78.727 17.466 78.724"/>
      <polygon class="cls-10" points="17.466 78.606 21.934 78.606 21.934 78.611 20.177 78.611 20.177 78.642 19.213 78.642 19.213 78.611 17.466 78.611 17.466 78.606"/>
      <polygon class="cls-7" points="22.17 78.419 22.174 78.404 24.017 63.33 24.781 63.317 26.638 78.447 25.754 78.447 25.353 74.924 23.45 74.924 23.437 74.98 23.049 78.447 22.17 78.447 22.17 78.419 23.69 72.821 25.114 72.807 24.409 66.541 24.399 66.513 24.39 66.556 23.685 72.807 23.69 72.821 22.17 78.419"/>
      <polygon class="cls-9" points="22.17 78.558 22.175 78.558 22.175 78.555 22.186 78.552 22.238 78.546 22.318 78.54 22.375 78.537 22.433 78.534 22.502 78.533 22.587 78.529 22.739 78.526 22.834 78.525 22.95 78.522 23.162 78.52 23.314 78.518 23.472 78.516 23.731 78.515 23.9 78.514 24.079 78.513 24.296 78.513 24.459 78.513 24.818 78.513 25.124 78.514 25.272 78.515 25.461 78.516 25.561 78.516 25.726 78.518 25.894 78.52 26.01 78.521 26.184 78.525 26.316 78.528 26.438 78.531 26.501 78.534 26.548 78.537 26.591 78.539 26.633 78.543 25.683 78.543 25.646 78.541 25.588 78.537 25.504 78.534 25.43 78.533 25.303 78.53 25.188 78.529 25.066 78.528 24.918 78.527 24.802 78.527 24.639 78.526 24.317 78.526 24.101 78.527 23.953 78.528 23.858 78.529 23.773 78.529 23.678 78.531 23.568 78.533 23.489 78.534 23.409 78.537 23.346 78.539 23.288 78.541 23.24 78.544 23.203 78.547 23.172 78.55 23.146 78.556 23.146 78.568 23.156 78.571 23.183 78.575 23.214 78.577 23.267 78.58 23.314 78.583 23.404 78.586 23.504 78.588 23.583 78.59 23.663 78.592 23.8 78.594 23.953 78.596 24.084 78.596 24.264 78.597 24.385 78.597 24.491 78.598 24.75 78.598 24.934 78.597 25.14 78.597 25.298 78.596 25.43 78.595 25.578 78.593 25.672 78.592 25.672 78.573 24.512 78.573 24.512 78.561 26.638 78.561 26.638 78.597 26.548 78.599 26.448 78.6 26.342 78.602 26.184 78.604 25.995 78.606 25.826 78.607 25.646 78.608 25.435 78.609 25.161 78.61 24.992 78.61 24.781 78.611 24.533 78.611 24.317 78.611 24.106 78.61 23.884 78.609 23.668 78.608 23.504 78.607 23.341 78.605 23.166 78.604 23.03 78.602 22.924 78.6 22.808 78.598 22.681 78.596 22.587 78.593 22.502 78.591 22.412 78.587 22.349 78.585 22.286 78.581 22.249 78.579 22.207 78.575 22.175 78.569 22.17 78.558"/>
      <polygon class="cls-10" points="22.17 78.677 26.638 78.677 26.638 78.686 24.88 78.686 24.88 78.742 23.917 78.742 23.917 78.686 22.17 78.686 22.17 78.677"/>
      <polygon class="cls-7" points="26.873 78.171 26.878 78.169 28.721 76.996 29.485 76.994 31.342 78.173 30.457 78.173 30.056 77.898 28.154 77.898 28.14 77.903 27.753 78.173 26.873 78.173 26.873 78.171 28.393 77.734 29.817 77.734 29.112 77.245 29.103 77.244 29.094 77.247 28.389 77.734 28.393 77.734 26.873 78.171"/>
      <polygon class="cls-8" points="26.873 73.618 26.878 73.613 26.878 73.459 26.895 73.251 26.952 72.867 27.026 72.575 27.153 72.235 27.222 72.093 27.312 71.933 27.497 71.675 27.708 71.456 27.856 71.335 27.967 71.258 28.215 71.121 28.357 71.06 28.505 71.011 28.632 70.978 28.843 70.939 29.013 70.923 29.208 70.917 29.372 70.923 29.588 70.945 29.905 71.011 30.026 71.049 30.19 71.115 30.359 71.203 30.496 71.291 30.655 71.417 30.819 71.582 30.977 71.791 31.088 71.983 31.178 72.185 31.257 72.432 31.316 72.702 31.342 72.926 30.375 72.926 30.348 72.724 30.296 72.504 30.243 72.356 30.185 72.235 30.095 72.097 30.016 72.01 29.884 71.905 29.763 71.84 29.662 71.801 29.541 71.768 29.282 71.736 29.097 71.736 28.981 71.746 28.838 71.774 28.717 71.812 28.574 71.878 28.463 71.95 28.352 72.042 28.289 72.109 28.193 72.23 28.13 72.328 28.046 72.499 27.998 72.62 27.914 72.932 27.877 73.163 27.861 73.322 27.85 73.498 27.85 74.354 27.882 74.738 27.908 74.903 27.951 75.089 28.03 75.331 28.146 75.567 28.267 75.738 28.368 75.842 28.463 75.918 28.558 75.979 28.674 76.034 28.769 76.067 28.912 76.099 29.081 76.116 29.213 76.116 29.483 76.089 29.604 76.061 29.72 76.022 29.847 75.962 29.947 75.897 30.005 75.847 30.1 75.742 30.174 75.633 30.238 75.507 30.28 75.397 30.328 75.232 30.365 75.046 30.375 74.947 31.342 74.947 31.32 75.144 31.283 75.336 31.21 75.595 31.151 75.742 31.062 75.924 30.966 76.077 30.835 76.248 30.713 76.374 30.586 76.483 30.449 76.583 30.201 76.72 30.111 76.759 29.921 76.824 29.773 76.863 29.557 76.901 29.335 76.923 29.102 76.928 28.896 76.918 28.669 76.884 28.526 76.851 28.368 76.802 28.183 76.725 28.009 76.632 27.845 76.522 27.692 76.396 27.549 76.253 27.365 76.017 27.227 75.787 27.127 75.573 27.058 75.391 26.989 75.16 26.952 75.001 26.895 74.617 26.873 74.26 26.873 73.618"/>
      <polygon class="cls-9" points="26.873 78.7 26.878 78.7 26.878 78.695 26.889 78.69 26.942 78.679 27.021 78.671 27.079 78.666 27.137 78.663 27.205 78.659 27.29 78.654 27.443 78.649 27.538 78.646 27.654 78.642 27.865 78.638 28.018 78.635 28.177 78.633 28.435 78.631 28.604 78.629 28.783 78.629 28.999 78.628 29.163 78.628 29.522 78.629 29.828 78.629 29.975 78.631 30.165 78.633 30.266 78.633 30.429 78.636 30.598 78.639 30.714 78.642 30.888 78.646 31.02 78.651 31.141 78.657 31.205 78.661 31.252 78.665 31.294 78.669 31.336 78.676 30.387 78.676 30.35 78.671 30.292 78.667 30.207 78.662 30.134 78.659 30.007 78.655 29.891 78.654 29.769 78.652 29.622 78.65 29.506 78.65 29.342 78.649 29.021 78.649 28.804 78.65 28.656 78.652 28.561 78.653 28.477 78.654 28.382 78.656 28.271 78.659 28.192 78.662 28.113 78.666 28.049 78.669 27.992 78.673 27.944 78.677 27.908 78.681 27.876 78.687 27.849 78.696 27.849 78.715 27.86 78.72 27.886 78.725 27.918 78.73 27.971 78.735 28.018 78.738 28.108 78.744 28.208 78.748 28.287 78.751 28.366 78.753 28.503 78.756 28.656 78.759 28.789 78.76 28.968 78.762 29.089 78.762 29.194 78.763 29.453 78.763 29.637 78.762 29.843 78.761 30.002 78.759 30.134 78.759 30.281 78.755 30.376 78.753 30.376 78.724 29.216 78.723 29.216 78.704 31.342 78.704 31.342 78.762 31.252 78.764 31.151 78.767 31.047 78.77 30.888 78.772 30.698 78.776 30.529 78.777 30.35 78.78 30.139 78.78 29.865 78.782 29.696 78.783 29.485 78.783 29.237 78.784 29.021 78.783 28.809 78.782 28.587 78.781 28.372 78.78 28.208 78.777 28.045 78.775 27.871 78.772 27.733 78.769 27.628 78.767 27.511 78.763 27.385 78.759 27.29 78.755 27.205 78.751 27.116 78.746 27.053 78.742 26.989 78.736 26.952 78.732 26.91 78.725 26.878 78.717 26.873 78.7"/>
      <polygon class="cls-10" points="26.873 78.239 31.342 78.239 31.342 78.284 29.584 78.284 29.584 78.562 28.62 78.562 28.62 78.284 26.873 78.284 26.873 78.24 26.873 78.239"/>
    </g>
    <g>
      <path d="M113.265,68.06486l-1.604,2.105.01612.0542,2.28515-.468v1.637L111.661,70.9257l-.01611.05347,1.62012,2.0332-1.36084.84522-.8584-2.59058-.03223.0542-.92431,2.55469-1.21436-.846,1.604-2.14014-.03222-.01831-2.23682.52149V69.756l2.20313.468.0498-.0542-1.58789-2.06909,1.32861-.84522.8584,2.53638h.04834l.82617-2.55469Z"/>
      <path d="M119.50234,68.06486l-1.604,2.105.01611.0542,2.28516-.468v1.637l-2.30127-.46729-.01612.05347,1.62012,2.0332-1.36084.84522-.8584-2.59058-.03222.0542-.92432,2.55469-1.21436-.846,1.604-2.14014-.03223-.01831-2.23681.52149V69.756l2.20312.468.04981-.0542-1.5879-2.06909,1.32862-.84522.8584,2.53638h.04834l.82617-2.55469Z"/>
      <path d="M125.73818,68.06486l-1.604,2.105.01611.0542,2.28516-.468v1.637l-2.30127-.46729-.01612.05347,1.62012,2.0332-1.36084.84522-.8584-2.59058-.03222.0542-.92432,2.55469-1.21582-.846,1.60547-2.14014-.03223-.01831L120.683,71.393V69.756l2.20312.468.04981-.0542-1.58936-2.06909,1.33008-.84522.8584,2.53638h.04834l.82617-2.55469Z"/>
    </g>
    <path d="M85.97085,68.06486l-1.604,2.105.01612.0542,2.28515-.468v1.637l-2.30127-.46729-.01611.05347,1.62012,2.0332L84.61,73.85759l-.8584-2.59058-.03223.0542-.92431,2.55469-1.21436-.846,1.604-2.14014-.03222-.01831-2.23682.52149V69.756l2.20313.468.0498-.0542-1.58789-2.06909,1.32861-.84522.8584,2.53638h.04834l.82617-2.55469Z"/>
  </g>
</svg>
