<svg id="Layer_1" data-name="Layer 1" xmlns="http://www.w3.org/2000/svg" viewBox="0 0 198.4252 198.4252">
  <defs>
    <style>
      .cls-1, .cls-5, .cls-6 {
        fill: none;
      }

      .cls-1, .cls-2, .cls-3, .cls-4, .cls-5, .cls-6 {
        stroke: #000;
        stroke-miterlimit: 10;
      }

      .cls-2 {
        fill: #00c;
      }

      .cls-4 {
        fill: #93f;
      }

      .cls-5 {
        stroke-linecap: square;
      }

      .cls-6 {
        stroke-width: 0.25px;
      }

      .cls-7 {
        fill: #109648;
      }

      .cls-8 {
        fill: #255c99;
      }

      .cls-9 {
        fill: #f7b32b;
      }

      .cls-10 {
        fill: #d62839;
      }
    </style>
  </defs>
  <title>SimpleGraphics</title>
  <line class="cls-1" x1="14.71741" y1="138.7682" x2="194.36402" y2="138.7682"/>
  <rect class="cls-2" x="79.80618" y="124.59497" width="10.63477" height="28.34646"/>
  <rect class="cls-3" x="90.44094" y="124.59497" width="20.69231" height="28.34646"/>
  <rect class="cls-4" x="180.21018" y="124.59497" width="11.00969" height="28.34646"/>
  <rect class="cls-3" x="159.51787" y="124.59497" width="20.69231" height="28.34646" rx="0.85584"/>
  <rect class="cls-3" x="124.96245" y="124.59497" width="21.17081" height="28.34646"/>
  <g>
    <path d="M78.3804,82.571H76.522l-.16211,1.39111h.21582a2.113,2.113,0,0,1,1.31836.5874,2.52846,2.52846,0,0,1,.60449,1.78711,2.49961,2.49961,0,0,1-2.4414,2.75879,2.8807,2.8807,0,0,1-1.31739-.312l.21582-1.24756a2.15272,2.15272,0,0,0,1.00489.27588c.6914,0,1.14453-.4917,1.14453-1.33106,0-1.04345-.71289-1.39111-1.52246-1.39111a3.0961,3.0961,0,0,0-.49707.02393l.38867-3.91016H78.3804Z"/>
    <path d="M81.02591,80.81953A15.3404,15.3404,0,0,1,79.80423,83.842l-.72364.10791a18.15556,18.15556,0,0,0,.72364-3.03418Z"/>
    <path d="M83.08841,80.91572v5.25293c0,1.1875.32324,1.54737.6914,1.54737.41016,0,.70215-.32373.70215-1.54737V80.91572h1.415v4.97705c0,2.0752-.70215,3.20264-2.10645,3.20264-1.52343,0-2.11816-1.16357-2.11816-3.19043V80.91572Z"/>
    <path d="M87.90481,82.3669H86.61966V80.91572h3.99707V82.3669H89.31985v6.63232h-1.415Z"/>
    <path d="M91.36087,81.03584a7.6151,7.6151,0,0,1,1.54492-.15625,2.618,2.618,0,0,1,1.94433.59961,2.52847,2.52847,0,0,1-.55078,3.706v.02393c.4961.21582.74512.73193.88575,1.59522a14.35325,14.35325,0,0,0,.46386,2.19482H94.16946a12.13042,12.13042,0,0,1-.35644-1.93115c-.12989-1.00733-.35645-1.29492-.832-1.29492h-.20507v3.22607h-1.415Zm1.415,3.52588h.248c.61621,0,.97266-.55176.97266-1.25928,0-.68359-.249-1.17529-.88574-1.19922a.91042.91042,0,0,0-.335.04785Z"/>
  </g>
  <g>
    <path d="M175.49368,87.51191a2.01461,2.01461,0,0,0,1.04785.29981,1.01887,1.01887,0,0,0,1.05859-1.12744,1.17786,1.17786,0,0,0-1.31835-1.23535h-.19434V84.29756h.14062c.51856-.01172,1.18848-.25147,1.18848-1.00732a.801.801,0,0,0-.82129-.89942,1.598,1.598,0,0,0-.88574.312l-.18359-1.1875a2.75523,2.75523,0,0,1,1.44726-.40771,1.7653,1.7653,0,0,1,1.84766,1.88281,1.92528,1.92528,0,0,1-1.00489,1.751v.02392a1.958,1.958,0,0,1,1.19922,1.979,2.27266,2.27266,0,0,1-2.34472,2.35107,2.73566,2.73566,0,0,1-1.38282-.34814Z"/>
    <path d="M181.6177,80.81953A15.33918,15.33918,0,0,1,180.396,83.842l-.72363.10791a18.15452,18.15452,0,0,0,.72363-3.03418Z"/>
    <path d="M183.6802,80.91572v5.25293c0,1.1875.32324,1.54737.69141,1.54737.41016,0,.70215-.32373.70215-1.54737V80.91572h1.415v4.97705c0,2.0752-.70215,3.20264-2.10645,3.20264-1.52344,0-2.11816-1.16357-2.11816-3.19043V80.91572Z"/>
    <path d="M188.49661,82.3669h-1.28516V80.91572h3.99707V82.3669h-1.29687v6.63232h-1.415Z"/>
    <path d="M191.95266,81.03584a7.61528,7.61528,0,0,1,1.54493-.15625,2.618,2.618,0,0,1,1.94433.59961,2.52847,2.52847,0,0,1-.55078,3.706v.02393c.49609.21582.74512.73193.88574,1.59522a14.353,14.353,0,0,0,.46387,2.19482h-1.47949a12.12886,12.12886,0,0,1-.35645-1.93115c-.12988-1.00733-.35644-1.29492-.832-1.29492h-.20508v3.22607h-1.415Zm1.415,3.52588h.248c.61621,0,.97266-.55176.97266-1.25928,0-.68359-.249-1.17529-.88575-1.19922a.91045.91045,0,0,0-.335.04785Z"/>
  </g>
  <g>
    <path d="M140.61868,80.47578v8.0835h-1.415v-8.0835Z"/>
    <path d="M141.75247,84.45772c0-.64795-.03223-1.21143-.043-1.76319h1.2207l.06446.67139h.02148a1.48626,1.48626,0,0,1,1.28613-.76758c1.00391,0,1.4043.8877,1.4043,2.19482v3.76612h-1.415V84.88936c0-.50391-.1084-.97168-.51855-.97168-.23829,0-.43262.18017-.5293.52783a1.67006,1.67006,0,0,0-.07617.53955v3.57422h-1.415Z"/>
    <path d="M148.36282,81.11152v1.583h1.03711v1.11524h-1.03711v2.6748c0,.68359.25879.85156.54.85156a1.75973,1.75973,0,0,0,.36719-.03613l.01074,1.22315a3.01783,3.01783,0,0,1-.86426.10791,1.33856,1.33856,0,0,1-1.01562-.37159,2.26279,2.26279,0,0,1-.45411-1.6792v-2.7705h-.626V82.69453h.626V81.48311Z"/>
    <path d="M150.04641,84.45772c0-.5879-.02148-1.22364-.043-1.76319h1.23145l.0752.85156h.03222c.23828-.62353.65918-.94775,1.04785-.94775a1.058,1.058,0,0,1,.30274.02441v1.55909a1.15941,1.15941,0,0,0-.30274-.02393c-.30175,0-.70214.22754-.86425.83936a2.64888,2.64888,0,0,0-.05372.58789v2.97412h-1.42578Z"/>
    <path d="M157.04544,85.60908c0,2.44629-1.22071,3.04639-2.02051,3.04639-1.26367,0-2.01953-1.10352-2.01953-3.01074,0-2.11084.99414-3.04639,2.042-3.04639C156.28958,82.59834,157.04544,83.76191,157.04544,85.60908Zm-2.63575,0c0,1.00733.14063,1.84668.64844,1.84668.45313,0,.57227-.9834.57227-1.84668,0-.80371-.11914-1.82324-.59375-1.82324C154.51809,83.78584,154.40969,84.80537,154.40969,85.60908Z"/>
    <path d="M157.84329,84.45772c0-.64795-.03223-1.21143-.043-1.76319h1.2207l.06446.67139h.02148a1.48626,1.48626,0,0,1,1.28613-.76758c1.00391,0,1.4043.8877,1.4043,2.19482v3.76612h-1.415V84.88936c0-.50391-.1084-.97168-.51855-.97168-.23828,0-.43262.18017-.53028.52783a1.702,1.702,0,0,0-.07519.53955v3.57422h-1.415Z"/>
    <path d="M162.74661,87.14424a1.84052,1.84052,0,0,0,.95019.31152c.36719,0,.57227-.17969.57227-.52783,0-.2998-.15039-.4917-.61523-.7915a1.91662,1.91662,0,0,1-1.06934-1.69092,1.71613,1.71613,0,0,1,1.73926-1.84717,2.28421,2.28421,0,0,1,1.06933.26416l-.249,1.15137a1.36212,1.36212,0,0,0-.73438-.23975.48749.48749,0,0,0-.52929.50342c0,.26416.11914.40771.61621.73145a2.01673,2.01673,0,0,1,1.06933,1.77539,1.72416,1.72416,0,0,1-1.86914,1.84668,2.154,2.154,0,0,1-1.21-.33545Z"/>
  </g>
  <line class="cls-5" x1="18.49694" y1="95.38358" x2="75.62889" y2="95.38358"/>
  <line class="cls-1" x1="18.49694" y1="99.38358" x2="18.49694" y2="95.38358"/>
  <line class="cls-1" x1="75.62889" y1="99.38358" x2="75.62889" y2="95.38358"/>
  <g>
    <path d="M111.62454,85.44893h-1.66309V87.632h1.87989v1.36719h-3.29493v-8.0835h3.165v1.36719h-1.75V84.1418h1.66309Z"/>
    <path d="M113.78372,83.13447l.32422,1.04346c.1084.34766.19433.6958.25976.9834h.02149c.07519-.29981.16211-.65967.248-.9834l.31348-1.04346h1.42578l-1.19922,2.87842,1.22071,2.98633h-1.544l-.35742-1.10352c-.09668-.2998-.18359-.59961-.25879-.89941h-.02148c-.06543.2998-.16211.59961-.23829.89941l-.32324,1.10352h-1.416l1.17773-2.91455-1.167-2.9502Z"/>
    <path d="M120.64309,86.049c0,2.44629-1.2207,3.04639-2.01953,3.04639-1.26465,0-2.02051-1.10351-2.02051-3.01074,0-2.11084.99414-3.04639,2.042-3.04639C119.88723,83.03828,120.64309,84.20186,120.64309,86.049Zm-2.63574,0c0,1.00733.14063,1.84668.64844,1.84668.45312,0,.57226-.98339.57226-1.84668,0-.80371-.11914-1.82324-.59375-1.82324C118.11575,84.22578,118.00735,85.24531,118.00735,86.049Z"/>
    <path d="M121.44094,84.89766c0-.648-.03222-1.21143-.043-1.76319h1.2207l.06445.67139h.02149a1.48625,1.48625,0,0,1,1.28613-.76758c1.00391,0,1.4043.8877,1.4043,2.19483v3.76611H123.98V85.3293c0-.50391-.1084-.97168-.51856-.97168-.23828,0-.43261.18017-.52929.52783a1.67,1.67,0,0,0-.07618.53955v3.57422h-1.415Z"/>
    <path d="M126.34427,87.58418a1.8404,1.8404,0,0,0,.95019.31152c.36719,0,.57227-.17968.57227-.52783,0-.2998-.15039-.4917-.61524-.7915a1.9166,1.9166,0,0,1-1.06933-1.69092,1.71612,1.71612,0,0,1,1.73925-1.84717,2.28422,2.28422,0,0,1,1.06934.26416l-.248,1.15137a1.36813,1.36813,0,0,0-.73535-.23975.4875.4875,0,0,0-.5293.50342c0,.26416.11914.40772.61622.73145a2.01673,2.01673,0,0,1,1.06933,1.77539,1.72415,1.72415,0,0,1-1.86914,1.84668,2.154,2.154,0,0,1-1.21-.33545Z"/>
  </g>
  <g>
    <path d="M29.83255,80.59639a6.64418,6.64418,0,0,1,1.47949-.15625,2.57189,2.57189,0,0,1,1.97754.623,2.47653,2.47653,0,0,1,.626,1.77539,2.90553,2.90553,0,0,1-.61523,1.94336,2.42,2.42,0,0,1-1.77246.76758h-.28027v3.00977h-1.415Zm1.415,3.66992a.67962.67962,0,0,0,.22656.02344c.71289,0,1.03711-.56348,1.03711-1.31934,0-.707-.25879-1.25879-.918-1.25879a.95457.95457,0,0,0-.3457.05957Z"/>
    <path d="M34.62747,84.45772c0-.5879-.02149-1.22364-.043-1.7627h1.23144l.0752.85156h.03223c.23828-.624.65918-.94824,1.04785-.94824a1.05788,1.05788,0,0,1,.30273.02441v1.55957a1.13716,1.13716,0,0,0-.30273-.02441c-.30176,0-.70215.22754-.86426.83984a2.64916,2.64916,0,0,0-.05371.5879v2.97363H34.62747Z"/>
    <path d="M41.62649,85.60908c0,2.44629-1.2207,3.04688-2.01953,3.04688-1.26465,0-2.02051-1.10352-2.02051-3.01074,0-2.11133.99414-3.04688,2.042-3.04688C40.87063,82.59834,41.62649,83.7624,41.62649,85.60908Zm-2.63574,0c0,1.00782.14062,1.84668.64844,1.84668.45312,0,.57226-.9834.57226-1.84668,0-.80371-.11914-1.82324-.59375-1.82324C39.09915,83.78584,38.99075,84.80537,38.99075,85.60908Z"/>
    <path d="M42.42434,84.45772c0-.64747-.03222-1.21094-.043-1.7627h1.23145l.06445.68359h.02149a1.49838,1.49838,0,0,1,1.26465-.78027,1.14512,1.14512,0,0,1,1.15527.792h.02148a1.89277,1.89277,0,0,1,.5293-.58789,1.43729,1.43729,0,0,1,.74609-.2041c.93946,0,1.36133.82813,1.36133,2.24316v3.71778H47.37259v-3.4541c0-.6709-.06543-1.21094-.49707-1.21094-.249,0-.43262.19141-.5293.54a1.82738,1.82738,0,0,0-.044.40722v3.71778H44.898V84.87764c0-.41992-.043-.9834-.48633-.9834-.21582,0-.43164.17969-.5293.52734a1.69862,1.69862,0,0,0-.05371.44434v3.69336h-1.4043Z"/>
    <path d="M53.62552,85.60908c0,2.44629-1.22071,3.04688-2.02051,3.04688-1.26367,0-2.01953-1.10352-2.01953-3.01074,0-2.11133.99414-3.04688,2.042-3.04688C52.86966,82.59834,53.62552,83.7624,53.62552,85.60908Zm-2.63575,0c0,1.00782.14063,1.84668.64844,1.84668.45313,0,.57227-.9834.57227-1.84668,0-.80371-.11914-1.82324-.59375-1.82324C51.09817,83.78584,50.98977,84.80537,50.98977,85.60908Z"/>
    <path d="M56.08743,81.112v1.583h1.03711v1.11523H56.08743v2.67481c0,.68359.25879.85156.54.85156a1.7934,1.7934,0,0,0,.36719-.03613l.01074,1.22266a2.99738,2.99738,0,0,1-.86426.10839,1.33886,1.33886,0,0,1-1.01562-.37207,2.2606,2.2606,0,0,1-.45411-1.67871V83.81025h-.626V82.695h.626V81.48311Z"/>
    <path d="M58.89505,86.18525c.02148.91114.49707,1.24707,1.123,1.24707a2.825,2.825,0,0,0,1.00489-.19238l.19433,1.12793a4.00057,4.00057,0,0,1-1.458.26367c-1.4375,0-2.22558-1.05566-2.22558-2.89062,0-1.9668.918-3.14258,2.11719-3.14258,1.13476,0,1.793.99609,1.793,2.77051a4.65706,4.65706,0,0,1-.043.8164Zm1.26367-1.10351c0-.75586-.17285-1.34375-.59375-1.34375-.46485,0-.64844.75586-.65918,1.34375Z"/>
    <path d="M62.232,84.45772c0-.5879-.02148-1.22364-.043-1.7627h1.23145l.07519.85156h.03223c.23828-.624.65918-.94824,1.04785-.94824a1.05784,1.05784,0,0,1,.30273.02441v1.55957a1.13716,1.13716,0,0,0-.30273-.02441c-.30176,0-.70215.22754-.86426.83984a2.64977,2.64977,0,0,0-.05371.5879v2.97363H62.232Z"/>
  </g>
  <g>
    <line class="cls-6" x1="185.71502" y1="92.38358" x2="185.71502" y2="120.7626"/>
    <polygon points="184.468 120.398 185.715 122.557 186.962 120.398 184.468 120.398"/>
  </g>
  <g>
    <line class="cls-6" x1="85.12356" y1="92.38358" x2="85.12356" y2="120.7626"/>
    <polygon points="83.877 120.398 85.124 122.557 86.37 120.398 83.877 120.398"/>
  </g>
  <g>
    <line class="cls-6" x1="113.21017" y1="92.38358" x2="101.87548" y2="120.88956"/>
    <polygon points="100.852 120.09 101.213 122.557 103.169 121.011 100.852 120.09"/>
  </g>
  <g>
    <line class="cls-6" x1="117.76786" y1="92.38358" x2="134.63705" y2="121.011"/>
    <polygon points="133.378 121.33 135.548 122.557 135.526 120.064 133.378 121.33"/>
  </g>
  <g>
    <line class="cls-6" x1="122.32556" y1="92.38358" x2="168.3493" y2="121.59526"/>
    <polygon points="167.373 122.452 169.864 122.557 168.709 120.347 167.373 122.452"/>
  </g>
  <g>
    <line class="cls-6" x1="154.40249" y1="92.38358" x2="152.77444" y2="120.76555"/>
    <polygon points="151.551 120.33 152.672 122.557 154.04 120.473 151.551 120.33"/>
  </g>
  <g>
    <line class="cls-6" x1="151.28711" y1="92.38358" x2="119.10127" y2="121.35637"/>
    <polygon points="118.538 120.186 117.768 122.557 120.206 122.039 118.538 120.186"/>
  </g>
  <g>
    <polygon class="cls-7" points="4.687 42.757 4.691 42.756 6.268 42.347 6.923 42.347 8.512 42.757 7.755 42.757 7.412 42.661 5.783 42.661 5.772 42.663 5.44 42.757 4.687 42.757 4.687 42.757 5.988 42.605 7.207 42.604 6.603 42.434 6.596 42.434 6.588 42.435 5.984 42.604 5.988 42.605 4.687 42.757"/>
    <polygon class="cls-8" points="4.687 41.58 4.691 41.579 4.691 41.568 4.705 41.555 4.755 41.528 4.818 41.509 4.926 41.485 4.985 41.476 5.062 41.464 5.22 41.447 5.401 41.432 5.528 41.424 5.623 41.418 5.835 41.409 5.957 41.405 6.084 41.401 6.192 41.4 6.373 41.397 6.518 41.396 6.685 41.395 6.826 41.396 7.011 41.397 7.282 41.401 7.386 41.405 7.527 41.409 7.671 41.415 7.789 41.421 7.924 41.43 8.065 41.441 8.2 41.455 8.295 41.468 8.372 41.482 8.44 41.498 8.49 41.517 8.512 41.532 7.685 41.532 7.662 41.518 7.617 41.503 7.572 41.493 7.522 41.485 7.445 41.476 7.377 41.47 7.264 41.463 7.16 41.458 7.074 41.455 6.97 41.453 6.749 41.451 6.59 41.451 6.491 41.451 6.369 41.454 6.265 41.456 6.143 41.461 6.048 41.466 5.953 41.472 5.898 41.476 5.817 41.484 5.763 41.492 5.691 41.503 5.65 41.511 5.577 41.533 5.546 41.548 5.532 41.56 5.524 41.571 5.524 41.63 5.551 41.656 5.573 41.667 5.609 41.68 5.677 41.696 5.777 41.712 5.881 41.724 5.967 41.731 6.048 41.736 6.129 41.74 6.229 41.744 6.31 41.746 6.432 41.748 6.577 41.75 6.69 41.75 6.921 41.748 7.025 41.746 7.124 41.744 7.233 41.74 7.318 41.735 7.368 41.731 7.449 41.724 7.513 41.717 7.567 41.708 7.604 41.701 7.644 41.69 7.676 41.677 7.685 41.67 8.512 41.67 8.494 41.684 8.462 41.697 8.399 41.715 8.349 41.724 8.272 41.736 8.191 41.747 8.078 41.759 7.974 41.767 7.866 41.775 7.748 41.782 7.535 41.791 7.459 41.794 7.296 41.798 7.169 41.801 6.984 41.803 6.794 41.805 6.595 41.805 6.419 41.804 6.224 41.803 6.102 41.8 5.967 41.797 5.808 41.791 5.659 41.785 5.519 41.777 5.388 41.769 5.265 41.759 5.107 41.743 4.99 41.727 4.904 41.713 4.845 41.7 4.786 41.685 4.755 41.673 4.705 41.648 4.687 41.623 4.687 41.58"/>
    <polygon class="cls-9" points="4.687 42.061 4.691 42.06 4.691 42.047 4.7 42.035 4.746 42.007 4.813 41.984 4.863 41.971 4.913 41.962 4.971 41.951 5.044 41.941 5.174 41.925 5.256 41.918 5.355 41.909 5.536 41.898 5.667 41.89 5.802 41.885 6.024 41.878 6.168 41.875 6.322 41.873 6.507 41.872 6.647 41.871 6.954 41.873 7.216 41.876 7.343 41.878 7.505 41.883 7.591 41.886 7.731 41.892 7.875 41.899 7.975 41.907 8.124 41.919 8.237 41.932 8.341 41.948 8.395 41.958 8.435 41.969 8.472 41.98 8.508 41.999 7.695 41.999 7.663 41.986 7.614 41.973 7.541 41.961 7.478 41.953 7.37 41.945 7.27 41.938 7.166 41.934 7.04 41.93 6.941 41.928 6.801 41.927 6.525 41.927 6.34 41.93 6.213 41.934 6.132 41.937 6.06 41.941 5.979 41.946 5.884 41.954 5.816 41.961 5.748 41.97 5.694 41.979 5.644 41.99 5.604 42.001 5.572 42.012 5.545 42.027 5.522 42.05 5.522 42.101 5.531 42.113 5.554 42.129 5.581 42.14 5.626 42.154 5.667 42.163 5.743 42.177 5.829 42.188 5.897 42.195 5.965 42.201 6.083 42.209 6.213 42.216 6.326 42.22 6.48 42.224 6.584 42.225 6.674 42.226 6.895 42.226 7.053 42.225 7.229 42.222 7.365 42.219 7.478 42.215 7.604 42.208 7.686 42.202 7.686 42.124 6.692 42.123 6.692 42.071 8.512 42.071 8.512 42.224 8.435 42.232 8.35 42.239 8.259 42.245 8.124 42.253 7.961 42.26 7.817 42.266 7.663 42.27 7.483 42.275 7.247 42.278 7.103 42.28 6.923 42.28 6.71 42.281 6.525 42.28 6.344 42.279 6.155 42.275 5.969 42.27 5.829 42.265 5.69 42.259 5.541 42.251 5.423 42.244 5.333 42.238 5.233 42.229 5.125 42.217 5.044 42.208 4.971 42.197 4.895 42.183 4.84 42.172 4.786 42.157 4.755 42.146 4.718 42.129 4.691 42.106 4.687 42.061"/>
    <polygon class="cls-10" points="4.687 33.304 8.512 33.304 8.512 34.42 7.007 34.427 7.007 41.33 6.182 41.33 6.182 34.427 4.687 34.42 4.687 33.312 4.687 33.304"/>
    <polygon class="cls-7" points="8.714 41.153 8.717 41.146 10.295 34.472 10.95 34.466 12.539 41.165 11.782 41.165 11.439 39.605 9.81 39.605 9.798 39.631 9.467 41.165 8.714 41.165 8.714 41.153 10.015 38.674 11.234 38.668 10.63 35.894 10.623 35.881 10.615 35.9 10.011 38.668 10.015 38.674 8.714 41.153"/>
    <polygon class="cls-8" points="8.714 42.176 8.718 42.176 8.718 42.167 8.732 42.156 8.781 42.135 8.845 42.119 8.953 42.1 9.012 42.092 9.089 42.083 9.247 42.069 9.428 42.057 9.555 42.05 9.649 42.046 9.862 42.038 9.984 42.035 10.111 42.033 10.22 42.03 10.4 42.029 10.545 42.028 10.712 42.027 10.853 42.028 11.038 42.029 11.309 42.033 11.413 42.034 11.553 42.038 11.698 42.043 11.816 42.048 11.951 42.054 12.092 42.064 12.227 42.075 12.322 42.086 12.399 42.097 12.467 42.111 12.517 42.125 12.539 42.138 11.712 42.138 11.689 42.127 11.644 42.115 11.598 42.107 11.549 42.1 11.472 42.092 11.404 42.087 11.291 42.082 11.187 42.078 11.101 42.076 10.997 42.075 10.776 42.072 10.617 42.072 10.518 42.073 10.396 42.075 10.292 42.077 10.17 42.08 10.075 42.084 9.98 42.089 9.926 42.093 9.844 42.1 9.79 42.105 9.718 42.114 9.677 42.121 9.604 42.138 9.573 42.151 9.559 42.16 9.55 42.17 9.55 42.217 9.577 42.238 9.6 42.247 9.636 42.258 9.704 42.271 9.803 42.284 9.908 42.293 9.993 42.299 10.075 42.303 10.156 42.307 10.255 42.309 10.337 42.312 10.459 42.313 10.604 42.314 10.717 42.314 10.947 42.313 11.051 42.311 11.151 42.309 11.259 42.305 11.345 42.302 11.395 42.3 11.476 42.293 11.54 42.288 11.594 42.28 11.63 42.275 11.671 42.265 11.702 42.255 11.712 42.25 12.539 42.25 12.521 42.26 12.49 42.271 12.426 42.285 12.376 42.293 12.3 42.304 12.218 42.312 12.105 42.321 12.001 42.329 11.892 42.334 11.775 42.34 11.562 42.347 11.486 42.35 11.323 42.353 11.196 42.355 11.011 42.358 10.821 42.359 10.622 42.359 10.445 42.359 10.251 42.357 10.129 42.355 9.993 42.352 9.835 42.348 9.686 42.342 9.546 42.337 9.414 42.33 9.292 42.321 9.134 42.309 9.016 42.296 8.931 42.284 8.872 42.274 8.813 42.262 8.781 42.253 8.732 42.231 8.714 42.212 8.714 42.176"/>
    <polygon class="cls-9" points="8.714 42.578 8.718 42.578 8.718 42.568 8.727 42.558 8.772 42.535 8.84 42.516 8.89 42.506 8.94 42.498 8.998 42.49 9.07 42.481 9.201 42.469 9.283 42.463 9.382 42.456 9.563 42.447 9.694 42.441 9.829 42.436 10.051 42.431 10.195 42.429 10.349 42.426 10.534 42.426 10.674 42.425 10.981 42.426 11.243 42.429 11.369 42.431 11.532 42.434 11.618 42.437 11.758 42.442 11.902 42.448 12.002 42.454 12.15 42.464 12.264 42.474 12.368 42.487 12.422 42.496 12.462 42.504 12.498 42.514 12.535 42.528 11.722 42.528 11.69 42.518 11.64 42.508 11.568 42.498 11.505 42.492 11.396 42.485 11.297 42.48 11.193 42.476 11.067 42.472 10.967 42.471 10.827 42.47 10.552 42.47 10.367 42.472 10.24 42.476 10.159 42.478 10.087 42.481 10.005 42.486 9.91 42.492 9.843 42.498 9.775 42.506 9.721 42.513 9.671 42.521 9.631 42.53 9.599 42.539 9.572 42.551 9.549 42.57 9.549 42.611 9.558 42.621 9.581 42.633 9.608 42.643 9.653 42.654 9.694 42.661 9.77 42.673 9.856 42.681 9.924 42.687 9.992 42.692 10.109 42.699 10.24 42.704 10.353 42.707 10.507 42.711 10.611 42.712 10.701 42.712 10.922 42.712 11.08 42.711 11.257 42.71 11.392 42.706 11.505 42.703 11.631 42.698 11.712 42.693 11.712 42.63 10.719 42.629 10.719 42.587 12.539 42.587 12.539 42.711 12.462 42.717 12.376 42.723 12.286 42.728 12.15 42.734 11.988 42.74 11.844 42.744 11.69 42.748 11.509 42.752 11.274 42.755 11.13 42.756 10.949 42.757 10.737 42.757 10.552 42.757 10.371 42.755 10.181 42.752 9.996 42.748 9.856 42.744 9.716 42.74 9.567 42.733 9.45 42.727 9.36 42.722 9.26 42.715 9.152 42.706 9.07 42.698 8.998 42.689 8.921 42.678 8.867 42.669 8.813 42.656 8.781 42.648 8.745 42.635 8.718 42.615 8.714 42.578"/>
    <polygon class="cls-10" points="8.714 41.231 12.539 41.231 12.539 41.333 11.034 41.334 11.034 41.961 10.209 41.961 10.209 41.334 8.714 41.333 8.714 41.232 8.714 41.231"/>
    <polygon class="cls-7" points="12.74 41.189 12.744 41.181 14.322 32.487 14.977 32.479 16.566 41.205 15.808 41.205 15.466 39.173 13.837 39.173 13.825 39.206 13.494 41.205 12.74 41.205 12.74 41.189 14.042 37.961 15.261 37.953 14.657 34.338 14.649 34.322 14.641 34.346 14.038 37.953 14.042 37.961 12.74 41.189"/>
    <polygon class="cls-8" points="12.74 42.509 12.745 42.508 12.745 42.497 12.759 42.481 12.808 42.452 12.871 42.43 12.98 42.405 13.039 42.394 13.116 42.382 13.274 42.363 13.455 42.347 13.581 42.337 13.677 42.331 13.889 42.321 14.011 42.317 14.138 42.313 14.246 42.31 14.427 42.308 14.572 42.306 14.739 42.306 14.879 42.306 15.065 42.308 15.336 42.313 15.44 42.316 15.58 42.321 15.725 42.327 15.843 42.334 15.978 42.343 16.118 42.355 16.254 42.372 16.349 42.386 16.426 42.401 16.494 42.42 16.543 42.44 16.566 42.456 15.739 42.456 15.716 42.442 15.67 42.425 15.625 42.414 15.576 42.405 15.499 42.394 15.431 42.388 15.318 42.38 15.214 42.375 15.128 42.372 15.024 42.37 14.802 42.367 14.644 42.367 14.545 42.368 14.423 42.37 14.319 42.373 14.196 42.378 14.102 42.384 14.006 42.39 13.952 42.395 13.871 42.405 13.817 42.412 13.744 42.425 13.704 42.434 13.631 42.457 13.6 42.474 13.586 42.486 13.577 42.5 13.577 42.564 13.604 42.593 13.627 42.605 13.663 42.619 13.731 42.637 13.83 42.655 13.934 42.668 14.02 42.676 14.102 42.681 14.183 42.686 14.282 42.69 14.364 42.692 14.486 42.695 14.631 42.696 14.743 42.696 14.974 42.694 15.078 42.692 15.178 42.689 15.286 42.685 15.372 42.68 15.422 42.676 15.503 42.668 15.567 42.66 15.621 42.65 15.657 42.642 15.698 42.63 15.729 42.616 15.739 42.608 16.566 42.608 16.548 42.623 16.516 42.638 16.453 42.657 16.403 42.668 16.326 42.681 16.245 42.693 16.132 42.706 16.028 42.715 15.919 42.723 15.802 42.731 15.589 42.741 15.512 42.744 15.349 42.749 15.223 42.752 15.037 42.755 14.847 42.757 14.649 42.757 14.472 42.757 14.278 42.754 14.156 42.751 14.02 42.748 13.862 42.742 13.713 42.735 13.573 42.727 13.441 42.717 13.319 42.706 13.161 42.689 13.043 42.671 12.957 42.656 12.899 42.642 12.84 42.624 12.808 42.612 12.759 42.584 12.74 42.557 12.74 42.509"/>
    <polygon class="cls-10" points="12.74 41.271 16.566 41.271 16.566 41.406 15.061 41.407 15.061 42.24 14.236 42.24 14.236 41.407 12.74 41.406 12.74 41.272 12.74 41.271"/>
    <polygon class="cls-8" points="16.767 35.753 16.772 35.743 16.772 35.473 16.785 35.107 16.835 34.43 16.898 33.918 17.007 33.32 17.066 33.069 17.143 32.789 17.301 32.336 17.482 31.949 17.608 31.737 17.703 31.602 17.916 31.361 18.038 31.254 18.165 31.167 18.273 31.11 18.454 31.042 18.598 31.013 18.766 31.003 18.906 31.013 19.092 31.052 19.363 31.167 19.467 31.235 19.607 31.351 19.752 31.505 19.869 31.659 20.005 31.882 20.145 32.171 20.281 32.538 20.376 32.876 20.452 33.233 20.521 33.667 20.57 34.141 20.593 34.537 19.765 34.537 19.743 34.179 19.698 33.793 19.652 33.533 19.602 33.32 19.525 33.079 19.458 32.924 19.345 32.741 19.241 32.625 19.155 32.558 19.051 32.5 18.829 32.441 18.671 32.441 18.572 32.461 18.449 32.509 18.345 32.577 18.223 32.692 18.128 32.818 18.033 32.982 17.979 33.098 17.898 33.311 17.843 33.484 17.771 33.784 17.73 33.996 17.658 34.546 17.626 34.952 17.613 35.232 17.604 35.541 17.604 37.047 17.631 37.722 17.653 38.012 17.69 38.341 17.757 38.765 17.857 39.181 17.961 39.48 18.047 39.664 18.128 39.798 18.21 39.905 18.309 40.001 18.39 40.059 18.513 40.117 18.657 40.146 18.77 40.146 19.001 40.098 19.105 40.049 19.205 39.982 19.313 39.876 19.399 39.76 19.449 39.673 19.53 39.489 19.594 39.296 19.648 39.074 19.684 38.882 19.725 38.592 19.756 38.263 19.765 38.09 20.593 38.09 20.575 38.438 20.543 38.775 20.48 39.229 20.43 39.489 20.353 39.808 20.272 40.078 20.159 40.378 20.055 40.6 19.946 40.793 19.829 40.967 19.616 41.208 19.539 41.275 19.376 41.392 19.25 41.459 19.064 41.526 18.874 41.565 18.676 41.575 18.499 41.556 18.305 41.497 18.182 41.44 18.047 41.353 17.888 41.218 17.739 41.053 17.599 40.861 17.468 40.639 17.346 40.388 17.188 39.972 17.07 39.567 16.984 39.191 16.926 38.872 16.867 38.466 16.835 38.187 16.785 37.51 16.767 36.883 16.767 35.753"/>
    <polygon class="cls-9" points="16.767 41.884 16.772 41.883 16.772 41.866 16.781 41.851 16.826 41.815 16.894 41.786 16.944 41.769 16.993 41.756 17.052 41.744 17.124 41.73 17.255 41.71 17.336 41.701 17.436 41.69 17.617 41.675 17.747 41.666 17.883 41.659 18.104 41.65 18.249 41.647 18.402 41.644 18.587 41.642 18.727 41.641 19.035 41.643 19.296 41.647 19.423 41.65 19.586 41.656 19.671 41.66 19.812 41.668 19.956 41.677 20.055 41.686 20.205 41.702 20.317 41.719 20.421 41.739 20.475 41.752 20.516 41.765 20.552 41.781 20.588 41.804 19.775 41.804 19.744 41.787 19.694 41.772 19.622 41.756 19.559 41.747 19.45 41.735 19.351 41.727 19.247 41.721 19.121 41.716 19.021 41.714 18.881 41.712 18.605 41.713 18.42 41.716 18.294 41.721 18.212 41.726 18.14 41.73 18.059 41.737 17.964 41.747 17.896 41.756 17.829 41.768 17.774 41.779 17.725 41.793 17.684 41.807 17.652 41.822 17.625 41.84 17.603 41.87 17.603 41.936 17.612 41.951 17.635 41.97 17.662 41.985 17.707 42.003 17.747 42.015 17.824 42.033 17.91 42.046 17.978 42.056 18.045 42.063 18.163 42.074 18.294 42.083 18.407 42.088 18.56 42.093 18.664 42.095 18.754 42.095 18.976 42.095 19.134 42.094 19.31 42.091 19.445 42.087 19.559 42.081 19.685 42.073 19.766 42.064 19.766 41.964 18.773 41.964 18.773 41.897 20.593 41.897 20.593 42.093 20.516 42.103 20.43 42.112 20.34 42.12 20.205 42.13 20.042 42.14 19.897 42.146 19.744 42.152 19.563 42.158 19.328 42.162 19.184 42.164 19.003 42.166 18.791 42.166 18.605 42.165 18.425 42.162 18.235 42.158 18.05 42.152 17.91 42.146 17.77 42.138 17.621 42.128 17.503 42.119 17.413 42.11 17.314 42.099 17.205 42.084 17.124 42.071 17.052 42.058 16.975 42.041 16.921 42.026 16.867 42.008 16.835 41.994 16.799 41.972 16.772 41.941 16.767 41.884"/>
    <polygon class="cls-10" points="16.767 42.232 20.593 42.232 20.593 42.305 19.088 42.305 19.088 42.757 18.263 42.757 18.263 42.305 16.767 42.305 16.767 42.233 16.767 42.232"/>
    <polygon class="cls-7" points="20.794 41.471 20.798 41.46 22.376 30.188 23.03 30.177 24.619 41.493 23.863 41.493 23.519 38.857 21.891 38.857 21.879 38.9 21.547 41.493 20.794 41.493 20.794 41.471 22.095 37.285 23.314 37.275 22.711 32.589 22.703 32.567 22.695 32.6 22.092 37.275 22.095 37.285 20.794 41.471"/>
    <polygon class="cls-10" points="20.794 41.559 24.619 41.559 24.619 41.725 23.115 41.726 23.115 42.757 22.29 42.757 22.29 41.726 20.794 41.725 20.794 41.56 20.794 41.559"/>
    <polygon class="cls-8" points="24.821 35.262 24.826 35.251 24.826 34.961 24.839 34.569 24.889 33.846 24.952 33.298 25.061 32.657 25.119 32.388 25.196 32.089 25.355 31.603 25.535 31.19 25.662 30.963 25.757 30.818 25.969 30.559 26.092 30.445 26.218 30.353 26.327 30.29 26.508 30.219 26.652 30.187 26.819 30.177 26.96 30.187 27.145 30.229 27.417 30.353 27.521 30.425 27.66 30.55 27.805 30.714 27.923 30.88 28.058 31.118 28.199 31.428 28.334 31.82 28.429 32.182 28.506 32.564 28.574 33.029 28.624 33.536 28.646 33.959 27.819 33.959 27.796 33.577 27.751 33.164 27.706 32.885 27.656 32.657 27.579 32.399 27.511 32.233 27.398 32.037 27.294 31.913 27.209 31.841 27.104 31.779 26.883 31.717 26.725 31.717 26.625 31.738 26.503 31.789 26.399 31.861 26.277 31.985 26.182 32.12 26.087 32.295 26.033 32.42 25.951 32.647 25.897 32.833 25.825 33.153 25.784 33.381 25.712 33.969 25.68 34.404 25.667 34.703 25.657 35.034 25.657 36.646 25.684 37.369 25.707 37.68 25.743 38.031 25.811 38.485 25.911 38.93 26.015 39.25 26.101 39.447 26.182 39.591 26.263 39.705 26.363 39.808 26.444 39.87 26.566 39.932 26.711 39.963 26.824 39.963 27.055 39.911 27.159 39.86 27.258 39.787 27.367 39.674 27.453 39.55 27.502 39.457 27.584 39.26 27.647 39.053 27.701 38.816 27.737 38.61 27.778 38.3 27.81 37.948 27.819 37.762 28.646 37.762 28.628 38.134 28.597 38.496 28.533 38.982 28.484 39.26 28.407 39.601 28.325 39.89 28.212 40.211 28.108 40.449 28 40.656 27.882 40.841 27.67 41.099 27.593 41.172 27.43 41.296 27.303 41.368 27.118 41.441 26.928 41.482 26.729 41.493 26.553 41.472 26.358 41.409 26.236 41.348 26.101 41.254 25.943 41.11 25.793 40.934 25.653 40.727 25.522 40.49 25.4 40.221 25.241 39.777 25.124 39.343 25.038 38.94 24.979 38.599 24.92 38.165 24.889 37.865 24.839 37.142 24.821 36.471 24.821 35.262"/>
    <polygon class="cls-9" points="24.821 42.112 24.826 42.112 24.826 42.072 24.835 42.038 24.88 41.956 24.947 41.888 24.997 41.852 25.047 41.823 25.106 41.793 25.178 41.762 25.309 41.717 25.39 41.694 25.489 41.67 25.67 41.635 25.801 41.615 25.937 41.599 26.158 41.579 26.302 41.571 26.456 41.564 26.641 41.56 26.781 41.559 27.088 41.562 27.35 41.572 27.476 41.579 27.639 41.593 27.725 41.602 27.865 41.618 28.01 41.642 28.109 41.661 28.258 41.698 28.371 41.736 28.475 41.782 28.529 41.814 28.57 41.843 28.606 41.877 28.642 41.931 27.829 41.931 27.797 41.892 27.747 41.857 27.675 41.821 27.612 41.799 27.504 41.772 27.404 41.754 27.301 41.741 27.174 41.731 27.075 41.725 26.934 41.72 26.659 41.722 26.474 41.731 26.347 41.741 26.266 41.751 26.194 41.762 26.113 41.777 26.018 41.8 25.95 41.821 25.882 41.848 25.828 41.874 25.778 41.904 25.738 41.937 25.706 41.971 25.679 42.012 25.656 42.082 25.656 42.232 25.666 42.266 25.688 42.31 25.715 42.344 25.76 42.385 25.801 42.412 25.878 42.451 25.964 42.485 26.031 42.506 26.099 42.522 26.216 42.547 26.347 42.567 26.461 42.579 26.614 42.589 26.718 42.594 26.808 42.596 27.03 42.596 27.188 42.593 27.364 42.585 27.499 42.575 27.612 42.564 27.739 42.543 27.82 42.525 27.82 42.296 26.826 42.295 26.826 42.143 28.646 42.143 28.646 42.589 28.57 42.613 28.484 42.633 28.393 42.652 28.258 42.675 28.095 42.697 27.951 42.712 27.797 42.725 27.617 42.737 27.382 42.748 27.237 42.752 27.056 42.756 26.844 42.757 26.659 42.755 26.479 42.749 26.289 42.74 26.104 42.725 25.964 42.711 25.823 42.694 25.674 42.67 25.557 42.648 25.467 42.629 25.367 42.604 25.259 42.571 25.178 42.541 25.106 42.51 25.029 42.472 24.975 42.438 24.92 42.395 24.889 42.363 24.853 42.313 24.826 42.245 24.821 42.112"/>
    <polygon class="cls-10" points="28.848 26.303 32.673 26.303 32.673 28.59 31.169 28.605 31.169 42.757 30.344 42.757 30.344 28.605 28.848 28.59 28.848 26.319 28.848 26.303"/>
  </g>
  <g>
    <path d="M43.0054,32.03859l-1.604,2.105.01612.0542,2.28515-.468v1.637l-2.30127-.46728-.01611.05346L43.0054,36.9861l-1.36084.84521-.8584-2.59057-.03223.05419-.92431,2.55469-1.21436-.84594,1.604-2.14014-.03223-.01831-2.23682.52148v-1.637l2.20313.468.0498-.0542-1.58789-2.06909,1.32861-.84522.8584,2.53638h.04834l.82617-2.55469Z"/>
    <path d="M49.2427,32.03859l-1.604,2.105.01611.0542,2.28516-.468v1.637l-2.30127-.46728-.01611.05346L49.2427,36.9861l-1.36084.84521-.8584-2.59057-.03222.05419-.92432,2.55469-1.21435-.84594,1.604-2.14014-.03223-.01831-2.23681.52148v-1.637l2.20312.468.04981-.0542-1.58789-2.06909,1.32861-.84522.8584,2.53638h.04834l.82617-2.55469Z"/>
    <path d="M55.47854,32.03859l-1.604,2.105.01611.0542,2.28516-.468v1.637l-2.30127-.46728-.01611.05346,1.62011,2.03321-1.36084.84521-.8584-2.59057-.03222.05419-.92432,2.55469-1.21582-.84594,1.60547-2.14014-.03223-.01831-2.23681.52148v-1.637l2.20312.468.04981-.0542-1.58936-2.06909,1.33008-.84522.8584,2.53638h.04834l.82617-2.55469Z"/>
  </g>
  <g>
    <path d="M81.06594,32.03859l-1.604,2.105.01611.0542,2.28516-.468v1.637l-2.30127-.46728-.01611.05346,1.62011,2.03321-1.36083.84521-.8584-2.59057-.03223.05419-.92432,2.55469-1.21435-.84594,1.604-2.14014-.03222-.01831-2.23682.52148v-1.637l2.20312.468.04981-.0542-1.58789-2.06909,1.32861-.84522.8584,2.53638h.04834l.82617-2.55469Z"/>
    <path d="M87.30325,32.03859l-1.604,2.105.01611.0542,2.28516-.468v1.637l-2.30127-.46728-.01612.05346,1.62012,2.03321-1.36084.84521-.8584-2.59057-.03223.05419-.92431,2.55469-1.21436-.84594,1.604-2.14014-.03223-.01831-2.23682.52148v-1.637l2.20313.468.0498-.0542-1.58789-2.06909,1.32862-.84522.85839,2.53638h.04834l.82618-2.55469Z"/>
    <path d="M93.53909,32.03859l-1.604,2.105.01611.0542,2.28516-.468v1.637l-2.30127-.46728-.01612.05346,1.62012,2.03321-1.36084.84521-.8584-2.59057-.03223.05419-.92431,2.55469-1.21582-.84594L90.753,34.86354l-.03223-.01831-2.23682.52148v-1.637l2.20313.468.0498-.0542-1.58935-2.06909,1.33008-.84522.85839,2.53638h.04834l.82618-2.55469Z"/>
  </g>
  <path d="M187.89431,32.03859l-1.604,2.105.01611.0542,2.28516-.468v1.637l-2.30127-.46728-.01611.05346,1.62011,2.03321-1.36084.84521-.85839-2.59057-.03223.05419-.92432,2.55469-1.21435-.84594,1.604-2.14014-.03223-.01831-2.23681.52148v-1.637l2.20312.468.04981-.0542-1.58789-2.06909,1.32861-.84522.8584,2.53638h.04834l.82617-2.55469Z"/>
  <g>
    <polygon class="cls-9" points="4.687 60.339 4.692 60.325 4.692 59.791 4.703 59.332 4.755 58.222 4.835 57.304 4.892 56.815 4.95 56.415 5.019 56.015 5.104 55.601 5.256 54.994 5.351 54.683 5.468 54.357 5.679 53.883 5.831 53.617 5.989 53.395 6.248 53.128 6.417 53.01 6.596 52.921 6.813 52.862 6.976 52.847 7.335 52.891 7.641 53.024 7.789 53.128 7.978 53.306 8.079 53.424 8.243 53.661 8.412 53.972 8.527 54.239 8.701 54.742 8.833 55.245 8.955 55.868 9.018 56.297 9.065 56.697 9.108 57.156 9.15 57.881 8.2 57.881 8.163 57.363 8.105 56.874 8.021 56.4 7.947 56.104 7.82 55.734 7.705 55.497 7.583 55.32 7.436 55.171 7.319 55.098 7.156 55.038 6.834 55.053 6.618 55.171 6.47 55.32 6.375 55.453 6.29 55.601 6.195 55.808 6.085 56.119 6.006 56.4 5.926 56.756 5.863 57.111 5.805 57.526 5.757 57.97 5.72 58.429 5.689 58.992 5.663 59.924 5.663 61.953 5.673 62.412 5.7 63.019 5.731 63.478 5.784 64.026 5.831 64.397 5.921 64.929 6.021 65.373 6.1 65.655 6.18 65.891 6.317 66.217 6.47 66.484 6.602 66.647 6.781 66.795 6.902 66.854 7.008 66.884 7.267 66.884 7.451 66.84 7.657 66.736 7.815 66.602 7.947 66.439 8.095 66.173 8.19 65.921 8.19 62.827 7.029 62.812 7.029 60.754 9.155 60.754 9.155 66.795 9.065 67.106 8.965 67.387 8.859 67.639 8.701 67.95 8.512 68.246 8.343 68.453 8.163 68.631 7.952 68.794 7.678 68.942 7.509 69.001 7.298 69.046 7.05 69.06 6.834 69.031 6.623 68.957 6.401 68.824 6.185 68.631 6.021 68.439 5.858 68.201 5.683 67.891 5.547 67.594 5.441 67.328 5.325 66.987 5.199 66.544 5.104 66.143 5.019 65.729 4.929 65.196 4.866 64.737 4.803 64.159 4.766 63.73 4.724 63.064 4.692 62.131 4.687 60.339"/>
    <polygon class="cls-10" points="4.687 69.126 9.155 69.126 9.155 69.129 7.397 69.129 7.397 69.14 6.434 69.14 6.434 69.129 4.687 69.129 4.687 69.126"/>
    <polygon class="cls-8" points="9.39 69.117 9.396 69.117 9.396 69.116 9.412 69.113 9.469 69.111 9.543 69.109 9.67 69.106 9.739 69.105 9.829 69.104 10.014 69.101 10.225 69.1 10.373 69.099 10.484 69.098 10.732 69.097 10.875 69.096 11.023 69.096 11.149 69.096 11.36 69.096 11.53 69.096 11.725 69.096 11.889 69.096 12.105 69.096 12.422 69.096 12.543 69.096 12.707 69.097 12.876 69.098 13.013 69.098 13.172 69.1 13.336 69.101 13.494 69.102 13.605 69.104 13.695 69.105 13.774 69.108 13.833 69.109 13.859 69.111 12.892 69.111 12.865 69.109 12.813 69.108 12.76 69.107 12.702 69.106 12.613 69.105 12.533 69.104 12.401 69.103 12.28 69.103 12.179 69.102 12.058 69.102 11.799 69.102 11.614 69.102 11.498 69.102 11.355 69.102 11.234 69.103 11.091 69.103 10.98 69.104 10.869 69.105 10.806 69.105 10.71 69.106 10.647 69.107 10.563 69.108 10.515 69.109 10.431 69.111 10.394 69.113 10.378 69.114 10.367 69.116 10.367 69.122 10.399 69.126 10.425 69.127 10.468 69.128 10.547 69.13 10.663 69.132 10.784 69.134 10.885 69.134 10.98 69.134 11.075 69.135 11.191 69.136 11.286 69.136 11.429 69.136 11.598 69.136 11.73 69.136 12 69.136 12.121 69.136 12.237 69.135 12.364 69.135 12.465 69.134 12.522 69.134 12.617 69.134 12.691 69.133 12.755 69.131 12.797 69.13 12.845 69.13 12.882 69.128 12.892 69.127 13.859 69.127 13.837 69.129 13.8 69.13 13.727 69.132 13.669 69.134 13.579 69.134 13.484 69.136 13.352 69.138 13.23 69.138 13.104 69.139 12.966 69.14 12.718 69.141 12.628 69.142 12.438 69.142 12.29 69.142 12.074 69.142 11.852 69.142 11.619 69.142 11.413 69.142 11.186 69.142 11.043 69.142 10.885 69.142 10.7 69.141 10.526 69.14 10.362 69.139 10.209 69.138 10.066 69.138 9.882 69.135 9.744 69.134 9.644 69.132 9.575 69.13 9.506 69.129 9.469 69.128 9.412 69.125 9.39 69.122 9.39 69.117"/>
    <polygon class="cls-10" points="9.39 52.962 13.859 52.962 13.859 55.195 12.101 55.21 12.101 69.029 11.138 69.029 11.138 55.21 9.39 55.195 9.39 52.977 9.39 52.962"/>
    <polygon class="cls-7" points="14.094 69.167 14.098 69.167 15.941 69.147 16.706 69.147 18.562 69.167 17.678 69.167 17.277 69.162 15.375 69.162 15.361 69.162 14.974 69.167 14.094 69.167 15.614 69.159 17.038 69.159 16.333 69.151 16.323 69.151 16.315 69.151 15.61 69.159 15.614 69.159 14.094 69.167"/>
    <polygon class="cls-8" points="14.094 60.082 14.099 60.067 14.099 59.649 14.115 59.082 14.173 58.037 14.247 57.246 14.374 56.321 14.443 55.933 14.532 55.5 14.717 54.799 14.928 54.202 15.076 53.873 15.187 53.664 15.435 53.291 15.578 53.127 15.726 52.993 15.853 52.903 16.064 52.799 16.233 52.755 16.429 52.739 16.592 52.755 16.809 52.813 17.126 52.993 17.247 53.098 17.411 53.277 17.58 53.516 17.718 53.754 17.876 54.098 18.04 54.545 18.198 55.112 18.309 55.634 18.399 56.186 18.478 56.858 18.536 57.589 18.562 58.202 17.596 58.202 17.57 57.649 17.516 57.053 17.464 56.65 17.405 56.321 17.316 55.948 17.237 55.709 17.105 55.425 16.983 55.246 16.883 55.142 16.761 55.052 16.502 54.963 16.318 54.963 16.202 54.993 16.059 55.068 15.937 55.172 15.795 55.351 15.684 55.545 15.573 55.799 15.509 55.977 15.415 56.306 15.351 56.575 15.267 57.037 15.219 57.366 15.135 58.216 15.098 58.844 15.082 59.276 15.071 59.754 15.071 62.082 15.103 63.126 15.129 63.574 15.172 64.082 15.25 64.738 15.367 65.38 15.489 65.843 15.589 66.126 15.684 66.335 15.779 66.499 15.895 66.648 15.99 66.738 16.133 66.828 16.302 66.872 16.434 66.872 16.703 66.798 16.824 66.724 16.941 66.619 17.068 66.455 17.168 66.276 17.226 66.141 17.321 65.857 17.395 65.559 17.459 65.216 17.501 64.917 17.548 64.469 17.585 63.962 17.596 63.694 18.562 63.694 18.542 64.231 18.505 64.753 18.431 65.455 18.372 65.857 18.283 66.35 18.188 66.768 18.055 67.23 17.934 67.574 17.807 67.872 17.67 68.141 17.422 68.514 17.331 68.619 17.142 68.798 16.994 68.902 16.777 69.007 16.555 69.067 16.323 69.081 16.117 69.051 15.89 68.962 15.747 68.872 15.589 68.738 15.404 68.529 15.23 68.276 15.066 67.977 14.913 67.633 14.77 67.246 14.585 66.604 14.448 65.977 14.347 65.395 14.279 64.903 14.21 64.276 14.173 63.843 14.115 62.798 14.094 61.828 14.094 60.082"/>
    <polygon class="cls-7" points="18.798 68.921 18.802 68.906 20.645 53.363 21.409 53.349 23.266 68.95 22.381 68.95 21.98 65.317 20.078 65.317 20.064 65.376 19.678 68.95 18.798 68.95 18.798 68.921 20.318 63.149 21.741 63.134 21.036 56.674 21.027 56.644 21.018 56.689 20.313 63.134 20.318 63.149 18.798 68.921"/>
    <polygon class="cls-8" points="18.798 69.134 18.803 69.134 18.803 69.133 18.819 69.131 18.877 69.129 18.95 69.127 19.078 69.126 19.146 69.125 19.236 69.124 19.421 69.122 19.632 69.121 19.78 69.12 19.891 69.12 20.139 69.119 20.282 69.118 20.429 69.118 20.557 69.118 20.768 69.118 20.937 69.118 21.132 69.117 21.296 69.118 21.512 69.118 21.829 69.118 21.951 69.118 22.114 69.119 22.284 69.119 22.421 69.12 22.579 69.121 22.743 69.122 22.901 69.123 23.012 69.124 23.102 69.125 23.182 69.126 23.24 69.128 23.266 69.13 22.299 69.13 22.273 69.128 22.22 69.127 22.167 69.126 22.11 69.126 22.02 69.125 21.94 69.124 21.808 69.123 21.687 69.123 21.586 69.123 21.465 69.123 21.206 69.122 21.021 69.122 20.905 69.122 20.762 69.123 20.641 69.123 20.498 69.123 20.387 69.124 20.277 69.124 20.213 69.125 20.118 69.126 20.055 69.126 19.97 69.127 19.922 69.128 19.838 69.13 19.801 69.13 19.785 69.132 19.775 69.133 19.775 69.138 19.807 69.14 19.833 69.141 19.875 69.142 19.955 69.143 20.07 69.145 20.192 69.146 20.292 69.147 20.387 69.147 20.483 69.147 20.599 69.147 20.694 69.147 20.836 69.147 21.005 69.147 21.138 69.147 21.407 69.147 21.529 69.147 21.644 69.147 21.771 69.147 21.872 69.147 21.93 69.147 22.025 69.146 22.099 69.145 22.162 69.144 22.204 69.143 22.252 69.142 22.289 69.142 22.299 69.141 23.266 69.141 23.245 69.142 23.208 69.143 23.134 69.145 23.076 69.146 22.986 69.147 22.891 69.147 22.759 69.148 22.638 69.149 22.511 69.15 22.373 69.151 22.125 69.151 22.036 69.151 21.845 69.152 21.697 69.152 21.481 69.152 21.259 69.152 21.027 69.152 20.82 69.152 20.594 69.152 20.451 69.152 20.292 69.151 20.107 69.151 19.933 69.151 19.77 69.15 19.616 69.149 19.474 69.148 19.289 69.147 19.152 69.146 19.051 69.145 18.983 69.143 18.914 69.142 18.877 69.142 18.819 69.139 18.798 69.137 18.798 69.134"/>
    <polygon class="cls-10" points="18.798 69.016 23.266 69.016 23.266 69.021 21.508 69.021 21.508 69.052 20.544 69.052 20.544 69.021 18.798 69.021 18.798 69.016"/>
    <polygon class="cls-7" points="23.501 68.829 23.506 68.814 25.348 53.74 26.113 53.726 27.97 68.857 27.086 68.857 26.685 65.334 24.782 65.334 24.768 65.39 24.381 68.857 23.501 68.857 23.501 68.829 25.021 63.231 26.445 63.217 25.74 56.951 25.731 56.923 25.721 56.965 25.017 63.217 25.021 63.231 23.501 68.829"/>
    <polygon class="cls-9" points="23.501 68.968 23.507 68.968 23.507 68.965 23.517 68.962 23.57 68.955 23.649 68.95 23.707 68.946 23.765 68.944 23.834 68.942 23.918 68.939 24.071 68.936 24.166 68.934 24.282 68.932 24.493 68.929 24.646 68.928 24.804 68.926 25.063 68.925 25.232 68.924 25.411 68.923 25.627 68.923 25.791 68.923 26.15 68.923 26.455 68.924 26.603 68.925 26.793 68.925 26.893 68.926 27.057 68.928 27.226 68.929 27.342 68.931 27.516 68.934 27.648 68.937 27.77 68.941 27.833 68.944 27.88 68.946 27.922 68.949 27.965 68.953 27.015 68.953 26.978 68.95 26.92 68.947 26.835 68.944 26.761 68.942 26.635 68.94 26.519 68.939 26.397 68.937 26.25 68.937 26.134 68.937 25.97 68.936 25.648 68.936 25.432 68.937 25.284 68.937 25.189 68.938 25.105 68.939 25.01 68.941 24.9 68.942 24.82 68.944 24.741 68.946 24.678 68.949 24.62 68.951 24.572 68.954 24.535 68.957 24.503 68.96 24.477 68.966 24.477 68.978 24.488 68.98 24.514 68.984 24.546 68.987 24.598 68.99 24.646 68.992 24.735 68.996 24.836 68.998 24.915 69 24.994 69.001 25.132 69.004 25.284 69.005 25.416 69.006 25.596 69.007 25.717 69.007 25.822 69.008 26.081 69.008 26.266 69.007 26.471 69.007 26.629 69.006 26.761 69.004 26.909 69.003 27.004 69.001 27.004 68.983 25.844 68.983 25.844 68.971 27.97 68.971 27.97 69.007 27.88 69.009 27.78 69.01 27.674 69.012 27.516 69.014 27.326 69.016 27.157 69.017 26.978 69.018 26.767 69.019 26.492 69.02 26.323 69.02 26.113 69.021 25.865 69.021 25.648 69.021 25.438 69.02 25.216 69.019 25 69.018 24.836 69.017 24.672 69.015 24.498 69.013 24.361 69.012 24.256 69.01 24.14 69.008 24.013 69.005 23.918 69.003 23.834 69 23.744 68.997 23.681 68.995 23.618 68.991 23.581 68.988 23.538 68.984 23.507 68.979 23.501 68.968"/>
    <polygon class="cls-10" points="23.501 69.087 27.97 69.087 27.97 69.096 26.212 69.096 26.212 69.152 25.249 69.152 25.249 69.096 23.501 69.096 23.501 69.087"/>
    <polygon class="cls-7" points="28.205 68.581 28.209 68.579 30.052 67.406 30.817 67.404 32.673 68.582 31.789 68.582 31.388 68.308 29.485 68.308 29.472 68.313 29.084 68.582 28.205 68.582 28.205 68.581 29.725 68.144 31.149 68.143 30.444 67.655 30.434 67.653 30.426 67.657 29.721 68.143 29.725 68.144 28.205 68.581"/>
    <polygon class="cls-8" points="28.205 64.028 28.21 64.023 28.21 63.869 28.226 63.66 28.284 63.276 28.358 62.985 28.485 62.644 28.554 62.502 28.643 62.342 28.828 62.085 29.039 61.865 29.187 61.744 29.298 61.668 29.547 61.53 29.689 61.47 29.837 61.421 29.964 61.388 30.175 61.349 30.344 61.333 30.539 61.327 30.703 61.333 30.92 61.355 31.237 61.421 31.358 61.459 31.522 61.525 31.691 61.613 31.828 61.701 31.987 61.827 32.15 61.991 32.309 62.2 32.42 62.392 32.509 62.595 32.589 62.842 32.647 63.112 32.673 63.336 31.707 63.336 31.68 63.133 31.628 62.914 31.574 62.765 31.517 62.644 31.427 62.507 31.348 62.42 31.215 62.315 31.094 62.25 30.994 62.211 30.872 62.178 30.613 62.146 30.428 62.146 30.313 62.156 30.17 62.183 30.048 62.222 29.906 62.288 29.795 62.359 29.684 62.452 29.621 62.518 29.525 62.639 29.462 62.738 29.378 62.908 29.33 63.029 29.245 63.342 29.208 63.573 29.193 63.732 29.182 63.907 29.182 64.764 29.214 65.148 29.24 65.313 29.282 65.499 29.362 65.74 29.478 65.977 29.599 66.147 29.7 66.251 29.795 66.328 29.89 66.389 30.006 66.443 30.101 66.477 30.243 66.509 30.413 66.526 30.545 66.526 30.814 66.498 30.935 66.471 31.052 66.432 31.178 66.372 31.279 66.306 31.337 66.257 31.432 66.152 31.506 66.042 31.57 65.916 31.611 65.807 31.659 65.642 31.696 65.456 31.707 65.356 32.673 65.356 32.652 65.554 32.615 65.746 32.542 66.004 32.483 66.152 32.394 66.334 32.298 66.487 32.166 66.657 32.045 66.783 31.918 66.893 31.781 66.992 31.533 67.13 31.443 67.168 31.252 67.234 31.105 67.272 30.888 67.31 30.666 67.333 30.434 67.338 30.228 67.327 30.001 67.294 29.858 67.261 29.7 67.212 29.515 67.135 29.341 67.042 29.177 66.932 29.023 66.806 28.881 66.663 28.696 66.427 28.559 66.196 28.458 65.983 28.39 65.801 28.321 65.57 28.284 65.411 28.226 65.027 28.205 64.67 28.205 64.028"/>
    <polygon class="cls-9" points="28.205 69.109 28.21 69.109 28.21 69.105 28.221 69.1 28.273 69.089 28.353 69.08 28.411 69.076 28.468 69.072 28.537 69.068 28.622 69.064 28.774 69.059 28.87 69.055 28.986 69.052 29.197 69.047 29.349 69.045 29.508 69.043 29.766 69.041 29.935 69.039 30.115 69.038 30.331 69.038 30.494 69.038 30.853 69.038 31.159 69.039 31.307 69.041 31.497 69.042 31.597 69.043 31.761 69.046 31.93 69.049 32.045 69.051 32.219 69.056 32.351 69.061 32.473 69.067 32.536 69.071 32.584 69.075 32.626 69.079 32.668 69.086 31.718 69.086 31.681 69.081 31.624 69.076 31.539 69.071 31.465 69.069 31.338 69.065 31.223 69.063 31.101 69.062 30.954 69.06 30.837 69.059 30.674 69.059 30.352 69.059 30.136 69.06 29.988 69.062 29.893 69.063 29.809 69.064 29.714 69.066 29.603 69.069 29.524 69.071 29.445 69.076 29.381 69.079 29.323 69.083 29.276 69.087 29.239 69.091 29.208 69.096 29.181 69.105 29.181 69.125 29.191 69.13 29.218 69.135 29.249 69.139 29.302 69.145 29.349 69.148 29.44 69.154 29.54 69.158 29.619 69.16 29.698 69.163 29.835 69.166 29.988 69.168 30.12 69.17 30.299 69.172 30.421 69.172 30.526 69.172 30.785 69.172 30.969 69.172 31.175 69.171 31.334 69.169 31.465 69.168 31.613 69.165 31.708 69.163 31.708 69.134 30.547 69.133 30.547 69.113 32.673 69.113 32.673 69.172 32.584 69.174 32.483 69.177 32.378 69.18 32.219 69.182 32.03 69.185 31.861 69.187 31.681 69.189 31.47 69.19 31.196 69.192 31.028 69.193 30.816 69.193 30.568 69.193 30.352 69.193 30.141 69.192 29.919 69.191 29.703 69.189 29.54 69.187 29.376 69.184 29.202 69.182 29.065 69.179 28.959 69.176 28.843 69.173 28.717 69.169 28.622 69.165 28.537 69.161 28.448 69.156 28.384 69.151 28.321 69.146 28.284 69.142 28.242 69.135 28.21 69.126 28.205 69.109"/>
    <polygon class="cls-10" points="28.205 68.649 32.673 68.649 32.673 68.694 30.915 68.694 30.915 68.971 29.952 68.971 29.952 68.694 28.205 68.694 28.205 68.649 28.205 68.649"/>
  </g>
  <g>
    <path d="M114.59671,58.47459l-1.604,2.105.01612.0542,2.28515-.468v1.637l-2.30127-.46729-.01611.05347,1.62012,2.0332-1.36084.84522-.8584-2.59058-.03223.0542-.92431,2.55469-1.21436-.84595,1.604-2.14014-.03222-.01831-2.23682.52149v-1.637l2.20313.468.0498-.0542-1.58789-2.06909,1.32861-.84521.8584,2.53637h.04834l.82617-2.55468Z"/>
    <path d="M120.834,58.47459l-1.604,2.105.01611.0542,2.28516-.468v1.637L119.23,61.33543l-.01612.05347,1.62012,2.0332-1.36084.84522-.8584-2.59058-.03222.0542-.92432,2.55469-1.21436-.84595,1.604-2.14014-.03223-.01831-2.23681.52149v-1.637l2.20312.468.04981-.0542-1.5879-2.06909,1.32862-.84521.8584,2.53637h.04834l.82617-2.55468Z"/>
    <path d="M127.06985,58.47459l-1.604,2.105.01611.0542,2.28516-.468v1.637l-2.30127-.46729-.01612.05347,1.62012,2.0332-1.36084.84522-.8584-2.59058-.03222.0542-.92432,2.55469-1.21582-.84595,1.60547-2.14014-.03223-.01831-2.23681.52149v-1.637l2.20312.468.04981-.0542-1.58936-2.06909,1.33008-.84521.8584,2.53637h.04834l.82617-2.55468Z"/>
  </g>
  <path d="M87.30252,58.47459l-1.604,2.105.01612.0542,2.28515-.468v1.637l-2.30127-.46729-.01611.05347,1.62012,2.0332-1.36084.84522-.8584-2.59058-.03223.0542-.92431,2.55469-1.21436-.84595,1.604-2.14014-.03222-.01831-2.23682.52149v-1.637l2.20313.468.0498-.0542-1.58789-2.06909,1.32861-.84521.8584,2.53637h.04834L85.9739,57.647Z"/>
  <g>
    <path d="M52.53079,11.196c-.043-1.29639-.08594-2.86475-.08594-4.4336h-.043c-.30273,1.37647-.706,2.91309-1.081,4.17774l-1.18067,4.20947H48.4263l-1.03711-4.17725c-.31739-1.26464-.64844-2.80127-.87891-4.21H46.481c-.05761,1.45655-.10058,3.1211-.17285,4.46582l-.17285,4.09766H44.105l.61914-10.78857H47.648l.95117,3.60156c.30176,1.24853.60449,2.59326.82031,3.85791h.044c.27343-1.24854.60449-2.67334.92187-3.874l1.03711-3.58544H54.2886l.5332,10.78857H52.67532Z"/>
    <path d="M63.43118,11.32441c0,2.86524-1.8291,4.17774-3.7168,4.17774-2.05957,0-3.64355-1.50488-3.64355-4.03369,0-2.5293,1.498-4.146,3.75879-4.146C61.99075,7.32246,63.43118,8.97139,63.43118,11.32441Zm-5.09961.08008c0,1.34424.50488,2.35254,1.44043,2.35254.85059,0,1.39746-.94433,1.39746-2.35254,0-1.16845-.40332-2.353-1.39746-2.353C58.72122,9.05147,58.33157,10.25166,58.33157,11.40449Z"/>
    <path d="M67.232,5.258V7.49873H68.8013V9.29121H67.232v2.8335c0,.94433.20117,1.37646.86426,1.37646a3.24178,3.24178,0,0,0,.64746-.064l.01465,1.84082a3.90021,3.90021,0,0,1-1.42578.208A2.15478,2.15478,0,0,1,65.69,14.81367a3.49305,3.49305,0,0,1-.60449-2.3208V9.29121H64.149V7.49873h.93653V5.802Z"/>
    <path d="M72.32864,5.322A1.15722,1.15722,0,0,1,71.148,6.53828,1.13114,1.13114,0,0,1,70.01028,5.322a1.13059,1.13059,0,0,1,1.15234-1.23242A1.15742,1.15742,0,0,1,72.32864,5.322ZM70.0679,15.32588V7.49873h2.18945v7.82715Z"/>
    <path d="M74.25735,15.32588V9.29121h-.92187V7.49873h.92187v-.3042a3.80105,3.80105,0,0,1,.89356-2.625,2.68537,2.68537,0,0,1,1.94433-.78418,3.80585,3.80585,0,0,1,1.167.16016l-.08691,1.87256a2.14256,2.14256,0,0,0-.70508-.11231c-.7207,0-1.02344.62451-1.02344,1.39258v.40039h1.41211V9.29121H76.46145v6.03467Z"/>
    <path d="M87.6802,10.76387H84.10794v2.561h3.98925v2.001H81.90384V4.53731H87.896v2.001H84.10794V8.779H87.6802Z"/>
    <path d="M89.521,9.9958c0-.97656-.02832-1.80859-.05761-2.49707h1.90136L91.46536,8.571h.04394a2.52824,2.52824,0,0,1,2.17481-1.24854c1.44043,0,2.52051,1.05664,2.52051,3.36133v4.64209H94.01516V10.988c0-1.0083-.3164-1.69678-1.10937-1.69678a1.19392,1.19392,0,0,0-1.1084.9126,1.84073,1.84073,0,0,0-.08691.6084v4.51367H89.521Z"/>
    <path d="M97.9595,10.07588c0-1.15234-.02832-1.90479-.05762-2.57715H99.7886l.07227,1.44043h.05761a2.10546,2.10546,0,0,1,1.90137-1.6167,2.01829,2.01829,0,0,1,.46094.03223V9.64375a2.8204,2.8204,0,0,0-.59082-.064,1.43985,1.43985,0,0,0-1.49805,1.23242,3.22972,3.22972,0,0,0-.043.54394v3.96973H97.9595Z"/>
    <path d="M105.6929,5.322a1.15744,1.15744,0,0,1-1.18164,1.21631,1.13114,1.13114,0,0,1-1.1377-1.21631,1.13059,1.13059,0,0,1,1.15235-1.23242A1.15819,1.15819,0,0,1,105.6929,5.322Zm-2.26172,10.00391V7.49873h2.18945v7.82715Z"/>
    <path d="M112.6636,15.134a4.86848,4.86848,0,0,1-1.959.352c-2.27637,0-3.73047-1.53663-3.73047-4.002a3.87159,3.87159,0,0,1,4.0332-4.16162,4.62481,4.62481,0,0,1,1.6709.3042l-.3457,1.80859a2.74035,2.74035,0,0,0-1.22461-.23974,1.94111,1.94111,0,0,0-1.88672,2.19287,1.9422,1.9422,0,0,0,1.92969,2.19287,3.07663,3.07663,0,0,0,1.25293-.24023Z"/>
    <path d="M113.87161,3.96113h2.18945V8.427h.02832a2.7187,2.7187,0,0,1,.86426-.80029,2.26507,2.26507,0,0,1,1.1377-.3042c1.39746,0,2.46386,1.07276,2.46386,3.42578v4.57764h-2.18945V11.02022c0-1.02442-.31738-1.729-1.13867-1.729a1.18212,1.18212,0,0,0-1.09473.84863,1.70662,1.70662,0,0,0-.07129.544v4.64209h-2.18945Z"/>
    <path d="M122.31009,9.9958c0-.97656-.0293-1.80859-.05762-2.49707h1.84375l.10058,1.05664h.043a2.39985,2.39985,0,0,1,2.13184-1.23291,1.99359,1.99359,0,0,1,1.93066,1.32861h.02832a3.32673,3.32673,0,0,1,.90723-.94433,2.3517,2.3517,0,0,1,1.33984-.38428c1.3545,0,2.377,1.05664,2.377,3.39356v4.60986h-2.13184V11.06807c0-1.13623-.33105-1.79248-1.03711-1.79248a1.09675,1.09675,0,0,0-1.00879.84814,2.24593,2.24593,0,0,0-.08594.62451v4.57764h-2.13183V10.94014c0-.99219-.31738-1.66455-1.00879-1.66455a1.14578,1.14578,0,0,0-1.02246.88037,1.769,1.769,0,0,0-.08594.60791v4.562h-2.13183Z"/>
    <path d="M136.37844,12.18867c.07227,1.0083.96583,1.48877,1.98829,1.48877a5.63555,5.63555,0,0,0,1.94433-.32031l.28809,1.64844a6.32756,6.32756,0,0,1-2.54981.48047c-2.39062,0-3.75879-1.53663-3.75879-3.98584,0-1.98487,1.1084-4.17774,3.55762-4.17774,2.27539,0,3.13965,1.96875,3.13965,3.90576a6.50318,6.50318,0,0,1-.07129.96045Zm2.57911-1.66455c0-.59228-.23047-1.585-1.23926-1.585-.92188,0-1.2959.92871-1.35352,1.585Z"/>
    <path d="M142.29641,9.9958c0-.97656-.02832-1.80859-.05761-2.49707h1.90136l.10059,1.07227h.04394a2.52824,2.52824,0,0,1,2.17481-1.24854c1.44043,0,2.52051,1.05664,2.52051,3.36133v4.64209h-2.18946V10.988c0-1.0083-.3164-1.69678-1.10937-1.69678a1.19392,1.19392,0,0,0-1.1084.9126,1.84073,1.84073,0,0,0-.08691.6084v4.51367h-2.18946Z"/>
    <path d="M153.09719,5.258V7.49873h1.57032V9.29121h-1.57032v2.8335c0,.94433.20215,1.37646.86426,1.37646a3.25288,3.25288,0,0,0,.64844-.064l.01465,1.84082a3.90247,3.90247,0,0,1-1.42676.208,2.15408,2.15408,0,0,1-1.6416-.67237,3.49262,3.49262,0,0,1-.60547-2.3208V9.29121h-.93555V7.49873h.93555V5.802Z"/>
  </g>
</svg>
